<svg width="1039" height="30" viewBox="0 0 1039 30" fill="none" xmlns="http://www.w3.org/2000/svg">
<path d="M10.791 29.0368C8.71099 29.0368 6.88432 28.6368 5.31099 27.8368C3.73765 27.0101 2.52432 25.8635 1.67099 24.3968C0.817653 22.9301 0.390986 21.2368 0.390986 19.3168V10.0768C0.390986 8.1568 0.817653 6.46346 1.67099 4.99679C2.52432 3.53013 3.73765 2.3968 5.31099 1.5968C6.88432 0.796796 8.71099 0.396797 10.791 0.396797C12.8443 0.396797 14.6443 0.783463 16.191 1.5568C17.7643 2.30346 18.9777 3.38346 19.831 4.79679C20.711 6.18346 21.151 7.7968 21.151 9.6368C21.151 9.8768 20.991 10.0235 20.671 10.0768L15.991 10.3568H15.911C15.6443 10.3568 15.511 10.2101 15.511 9.9168C15.511 8.50346 15.071 7.37013 14.191 6.5168C13.3377 5.66346 12.2043 5.2368 10.791 5.2368C9.35099 5.2368 8.19099 5.66346 7.31099 6.5168C6.45765 7.37013 6.03099 8.50346 6.03099 9.9168V19.5568C6.03099 20.9435 6.45765 22.0635 7.31099 22.9168C8.19099 23.7701 9.35099 24.1968 10.791 24.1968C12.2043 24.1968 13.3377 23.7701 14.191 22.9168C15.071 22.0635 15.511 20.9435 15.511 19.5568C15.511 19.2635 15.671 19.1168 15.991 19.1168L20.671 19.3168C20.8043 19.3168 20.911 19.3568 20.991 19.4368C21.0977 19.5168 21.151 19.6101 21.151 19.7168C21.151 21.5568 20.711 23.1835 19.831 24.5968C18.9777 26.0101 17.7643 27.1035 16.191 27.8768C14.6443 28.6501 12.8443 29.0368 10.791 29.0368ZM37.2469 29.1568C35.1669 29.1568 33.3269 28.7301 31.7269 27.8768C30.1536 27.0235 28.9269 25.8368 28.0469 24.3168C27.1669 22.7701 26.7269 20.9968 26.7269 18.9968V10.4368C26.7269 8.46346 27.1669 6.7168 28.0469 5.1968C28.9269 3.6768 30.1536 2.50346 31.7269 1.67679C33.3269 0.823463 35.1669 0.396797 37.2469 0.396797C39.3536 0.396797 41.1936 0.823463 42.7669 1.67679C44.3669 2.50346 45.6069 3.6768 46.4869 5.1968C47.3669 6.7168 47.8069 8.46346 47.8069 10.4368V18.9968C47.8069 20.9968 47.3669 22.7701 46.4869 24.3168C45.6069 25.8635 44.3669 27.0635 42.7669 27.9168C41.1936 28.7435 39.3536 29.1568 37.2469 29.1568ZM37.2469 24.3168C38.7136 24.3168 39.9003 23.8501 40.8069 22.9168C41.7136 21.9835 42.1669 20.7435 42.1669 19.1968V10.3968C42.1669 8.85013 41.7136 7.61013 40.8069 6.6768C39.9269 5.7168 38.7403 5.2368 37.2469 5.2368C35.7803 5.2368 34.5936 5.7168 33.6869 6.6768C32.8069 7.61013 32.3669 8.85013 32.3669 10.3968V19.1968C32.3669 20.7435 32.8069 21.9835 33.6869 22.9168C34.5936 23.8501 35.7803 24.3168 37.2469 24.3168ZM72.1307 1.0368C72.264 0.823462 72.4507 0.716795 72.6907 0.716795H77.3707C77.504 0.716795 77.6107 0.770128 77.6907 0.876795C77.7973 0.956796 77.8507 1.06346 77.8507 1.1968V28.2368C77.8507 28.3701 77.7973 28.4901 77.6907 28.5968C77.6107 28.6768 77.504 28.7168 77.3707 28.7168H72.6907C72.5573 28.7168 72.4373 28.6768 72.3307 28.5968C72.2507 28.4901 72.2107 28.3701 72.2107 28.2368V10.5968C72.2107 10.4901 72.184 10.4368 72.1307 10.4368C72.0773 10.4368 72.024 10.4768 71.9707 10.5568L67.7307 17.1968C67.5973 17.4101 67.4107 17.5168 67.1707 17.5168H64.8107C64.5707 17.5168 64.384 17.4101 64.2507 17.1968L60.0107 10.5568C59.9573 10.4768 59.904 10.4501 59.8507 10.4768C59.7973 10.4768 59.7707 10.5301 59.7707 10.6368V28.2368C59.7707 28.3701 59.7173 28.4901 59.6107 28.5968C59.5307 28.6768 59.424 28.7168 59.2907 28.7168H54.6107C54.4773 28.7168 54.3573 28.6768 54.2507 28.5968C54.1707 28.4901 54.1307 28.3701 54.1307 28.2368V1.1968C54.1307 1.06346 54.1707 0.956796 54.2507 0.876795C54.3573 0.770128 54.4773 0.716795 54.6107 0.716795H59.2907C59.5307 0.716795 59.7173 0.823462 59.8507 1.0368L65.8507 10.3568C65.9307 10.5168 66.0107 10.5168 66.0907 10.3568L72.1307 1.0368ZM96.2844 0.676795C98.0444 0.676795 99.5911 1.0368 100.924 1.7568C102.258 2.4768 103.284 3.50346 104.004 4.8368C104.751 6.14346 105.124 7.65013 105.124 9.3568C105.124 11.0368 104.738 12.5168 103.964 13.7968C103.218 15.0768 102.151 16.0768 100.764 16.7968C99.4044 17.4901 97.8311 17.8368 96.0444 17.8368H90.3644C90.2311 17.8368 90.1644 17.9035 90.1644 18.0368V28.2368C90.1644 28.3701 90.1111 28.4901 90.0044 28.5968C89.9244 28.6768 89.8178 28.7168 89.6844 28.7168H85.0044C84.8711 28.7168 84.7511 28.6768 84.6444 28.5968C84.5644 28.4901 84.5244 28.3701 84.5244 28.2368V1.1568C84.5244 1.02346 84.5644 0.916796 84.6444 0.836796C84.7511 0.730129 84.8711 0.676795 85.0044 0.676795H96.2844ZM95.4444 13.3168C96.6711 13.3168 97.6578 12.9701 98.4044 12.2768C99.1511 11.5568 99.5244 10.6235 99.5244 9.4768C99.5244 8.30346 99.1511 7.3568 98.4044 6.6368C97.6578 5.91679 96.6711 5.55679 95.4444 5.55679H90.3644C90.2311 5.55679 90.1644 5.62346 90.1644 5.7568V13.1168C90.1644 13.2501 90.2311 13.3168 90.3644 13.3168H95.4444ZM126.165 28.7168C125.898 28.7168 125.725 28.5835 125.645 28.3168L124.445 24.3968C124.392 24.2901 124.325 24.2368 124.245 24.2368H114.405C114.325 24.2368 114.258 24.2901 114.205 24.3968L113.045 28.3168C112.965 28.5835 112.792 28.7168 112.525 28.7168H107.445C107.285 28.7168 107.165 28.6768 107.085 28.5968C107.005 28.4901 106.992 28.3435 107.045 28.1568L115.685 1.11679C115.765 0.850128 115.938 0.716795 116.205 0.716795H122.485C122.752 0.716795 122.925 0.850128 123.005 1.11679L131.645 28.1568C131.672 28.2101 131.685 28.2768 131.685 28.3568C131.685 28.5968 131.538 28.7168 131.245 28.7168H126.165ZM115.645 19.6368C115.618 19.7968 115.672 19.8768 115.805 19.8768H122.845C123.005 19.8768 123.058 19.7968 123.005 19.6368L119.405 7.75679C119.378 7.65013 119.338 7.61013 119.285 7.6368C119.232 7.6368 119.192 7.6768 119.165 7.75679L115.645 19.6368ZM153.281 1.1968C153.281 1.06346 153.321 0.956796 153.401 0.876795C153.508 0.770128 153.628 0.716795 153.761 0.716795H158.441C158.574 0.716795 158.681 0.770128 158.761 0.876795C158.868 0.956796 158.921 1.06346 158.921 1.1968V28.2368C158.921 28.3701 158.868 28.4901 158.761 28.5968C158.681 28.6768 158.574 28.7168 158.441 28.7168H153.921C153.654 28.7168 153.468 28.6101 153.361 28.3968L143.001 11.2768C142.948 11.1968 142.894 11.1701 142.841 11.1968C142.788 11.1968 142.761 11.2501 142.761 11.3568L142.841 28.2368C142.841 28.3701 142.788 28.4901 142.681 28.5968C142.601 28.6768 142.494 28.7168 142.361 28.7168H137.681C137.548 28.7168 137.428 28.6768 137.321 28.5968C137.241 28.4901 137.201 28.3701 137.201 28.2368V1.1968C137.201 1.06346 137.241 0.956796 137.321 0.876795C137.428 0.770128 137.548 0.716795 137.681 0.716795H142.201C142.468 0.716795 142.654 0.823462 142.761 1.0368L153.081 18.0768C153.134 18.1568 153.188 18.1968 153.241 18.1968C153.294 18.1701 153.321 18.1035 153.321 17.9968L153.281 1.1968ZM166.283 28.7168C166.149 28.7168 166.029 28.6768 165.923 28.5968C165.843 28.4901 165.803 28.3701 165.803 28.2368V1.1968C165.803 1.06346 165.843 0.956796 165.923 0.876795C166.029 0.770128 166.149 0.716795 166.283 0.716795H170.963C171.096 0.716795 171.203 0.770128 171.283 0.876795C171.389 0.956796 171.443 1.06346 171.443 1.1968V28.2368C171.443 28.3701 171.389 28.4901 171.283 28.5968C171.203 28.6768 171.096 28.7168 170.963 28.7168H166.283ZM197.75 5.0768C197.75 5.21013 197.697 5.33013 197.59 5.4368C197.51 5.5168 197.404 5.55679 197.27 5.55679H184.15C184.017 5.55679 183.95 5.62346 183.95 5.7568V11.9568C183.95 12.0901 184.017 12.1568 184.15 12.1568H192.75C192.884 12.1568 192.99 12.2101 193.07 12.3168C193.177 12.3968 193.23 12.5035 193.23 12.6368V16.5168C193.23 16.6501 193.177 16.7701 193.07 16.8768C192.99 16.9568 192.884 16.9968 192.75 16.9968H184.15C184.017 16.9968 183.95 17.0635 183.95 17.1968V23.6768C183.95 23.8101 184.017 23.8768 184.15 23.8768H197.27C197.404 23.8768 197.51 23.9301 197.59 24.0368C197.697 24.1168 197.75 24.2235 197.75 24.3568V28.2368C197.75 28.3701 197.697 28.4901 197.59 28.5968C197.51 28.6768 197.404 28.7168 197.27 28.7168H178.79C178.657 28.7168 178.537 28.6768 178.43 28.5968C178.35 28.4901 178.31 28.3701 178.31 28.2368V1.1968C178.31 1.06346 178.35 0.956796 178.43 0.876795C178.537 0.770128 178.657 0.716795 178.79 0.716795H197.27C197.404 0.716795 197.51 0.770128 197.59 0.876795C197.697 0.956796 197.75 1.06346 197.75 1.1968V5.0768ZM213.27 29.0368C211.136 29.0368 209.27 28.7035 207.67 28.0368C206.07 27.3435 204.83 26.3701 203.95 25.1168C203.096 23.8368 202.67 22.3568 202.67 20.6768V19.7968C202.67 19.6635 202.71 19.5568 202.79 19.4768C202.896 19.3701 203.016 19.3168 203.15 19.3168H207.71C207.843 19.3168 207.95 19.3701 208.03 19.4768C208.136 19.5568 208.19 19.6635 208.19 19.7968V20.3968C208.19 21.4635 208.683 22.3701 209.67 23.1168C210.656 23.8368 211.99 24.1968 213.67 24.1968C215.083 24.1968 216.136 23.9035 216.83 23.3168C217.523 22.7035 217.87 21.9568 217.87 21.0768C217.87 20.4368 217.656 19.9035 217.23 19.4768C216.803 19.0235 216.216 18.6368 215.47 18.3168C214.75 17.9701 213.59 17.5035 211.99 16.9168C210.203 16.3035 208.683 15.6768 207.43 15.0368C206.203 14.3968 205.163 13.5301 204.31 12.4368C203.483 11.3168 203.07 9.94346 203.07 8.31679C203.07 6.71679 203.483 5.3168 204.31 4.1168C205.136 2.9168 206.283 1.9968 207.75 1.3568C209.216 0.716797 210.91 0.396797 212.83 0.396797C214.856 0.396797 216.656 0.756796 218.23 1.47679C219.83 2.19679 221.07 3.21013 221.95 4.5168C222.856 5.7968 223.31 7.29013 223.31 8.9968V9.5968C223.31 9.73013 223.256 9.85013 223.15 9.9568C223.07 10.0368 222.963 10.0768 222.83 10.0768H218.23C218.096 10.0768 217.976 10.0368 217.87 9.9568C217.79 9.85013 217.75 9.73013 217.75 9.5968V9.2768C217.75 8.1568 217.283 7.21013 216.35 6.4368C215.443 5.6368 214.19 5.2368 212.59 5.2368C211.336 5.2368 210.35 5.50346 209.63 6.0368C208.936 6.57013 208.59 7.30346 208.59 8.2368C208.59 8.90346 208.79 9.46346 209.19 9.9168C209.616 10.3701 210.23 10.7835 211.03 11.1568C211.856 11.5035 213.123 11.9835 214.83 12.5968C216.723 13.2901 218.203 13.9035 219.27 14.4368C220.363 14.9701 221.336 15.7701 222.19 16.8368C223.07 17.8768 223.51 19.2368 223.51 20.9168C223.51 23.4235 222.59 25.4101 220.75 26.8768C218.91 28.3168 216.416 29.0368 213.27 29.0368ZM258.787 0.716795C258.92 0.716795 259.027 0.770128 259.107 0.876795C259.213 0.956796 259.267 1.06346 259.267 1.1968V5.1168C259.267 5.25013 259.213 5.37013 259.107 5.4768C259.027 5.5568 258.92 5.5968 258.787 5.5968H251.627C251.493 5.5968 251.427 5.66346 251.427 5.7968V28.2368C251.427 28.3701 251.373 28.4901 251.267 28.5968C251.187 28.6768 251.08 28.7168 250.947 28.7168H246.267C246.133 28.7168 246.013 28.6768 245.907 28.5968C245.827 28.4901 245.787 28.3701 245.787 28.2368V5.7968C245.787 5.66346 245.72 5.5968 245.587 5.5968H238.627C238.493 5.5968 238.373 5.5568 238.267 5.4768C238.187 5.37013 238.147 5.25013 238.147 5.1168V1.1968C238.147 1.06346 238.187 0.956796 238.267 0.876795C238.373 0.770128 238.493 0.716795 238.627 0.716795H258.787ZM279.745 1.1968C279.745 1.06346 279.785 0.956796 279.865 0.876795C279.972 0.770128 280.092 0.716795 280.225 0.716795H284.905C285.038 0.716795 285.145 0.770128 285.225 0.876795C285.332 0.956796 285.385 1.06346 285.385 1.1968V28.2368C285.385 28.3701 285.332 28.4901 285.225 28.5968C285.145 28.6768 285.038 28.7168 284.905 28.7168H280.225C280.092 28.7168 279.972 28.6768 279.865 28.5968C279.785 28.4901 279.745 28.3701 279.745 28.2368V17.1968C279.745 17.0635 279.678 16.9968 279.545 16.9968H270.705C270.572 16.9968 270.505 17.0635 270.505 17.1968V28.2368C270.505 28.3701 270.452 28.4901 270.345 28.5968C270.265 28.6768 270.158 28.7168 270.025 28.7168H265.345C265.212 28.7168 265.092 28.6768 264.985 28.5968C264.905 28.4901 264.865 28.3701 264.865 28.2368V1.1968C264.865 1.06346 264.905 0.956796 264.985 0.876795C265.092 0.770128 265.212 0.716795 265.345 0.716795H270.025C270.158 0.716795 270.265 0.770128 270.345 0.876795C270.452 0.956796 270.505 1.06346 270.505 1.1968V11.9568C270.505 12.0901 270.572 12.1568 270.705 12.1568H279.545C279.678 12.1568 279.745 12.0901 279.745 11.9568V1.1968ZM309.899 28.7168C309.633 28.7168 309.459 28.5835 309.379 28.3168L308.179 24.3968C308.126 24.2901 308.059 24.2368 307.979 24.2368H298.139C298.059 24.2368 297.993 24.2901 297.939 24.3968L296.779 28.3168C296.699 28.5835 296.526 28.7168 296.259 28.7168H291.179C291.019 28.7168 290.899 28.6768 290.819 28.5968C290.739 28.4901 290.726 28.3435 290.779 28.1568L299.419 1.11679C299.499 0.850128 299.673 0.716795 299.939 0.716795H306.219C306.486 0.716795 306.659 0.850128 306.739 1.11679L315.379 28.1568C315.406 28.2101 315.419 28.2768 315.419 28.3568C315.419 28.5968 315.273 28.7168 314.979 28.7168H309.899ZM299.379 19.6368C299.353 19.7968 299.406 19.8768 299.539 19.8768H306.579C306.739 19.8768 306.793 19.7968 306.739 19.6368L303.139 7.75679C303.113 7.65013 303.073 7.61013 303.019 7.6368C302.966 7.6368 302.926 7.6768 302.899 7.75679L299.379 19.6368ZM336.818 0.716795C336.951 0.716795 337.058 0.770128 337.138 0.876795C337.245 0.956796 337.298 1.06346 337.298 1.1968V5.1168C337.298 5.25013 337.245 5.37013 337.138 5.4768C337.058 5.5568 336.951 5.5968 336.818 5.5968H329.658C329.525 5.5968 329.458 5.66346 329.458 5.7968V28.2368C329.458 28.3701 329.405 28.4901 329.298 28.5968C329.218 28.6768 329.111 28.7168 328.978 28.7168H324.298C324.165 28.7168 324.045 28.6768 323.938 28.5968C323.858 28.4901 323.818 28.3701 323.818 28.2368V5.7968C323.818 5.66346 323.751 5.5968 323.618 5.5968H316.658C316.525 5.5968 316.405 5.5568 316.298 5.4768C316.218 5.37013 316.178 5.25013 316.178 5.1168V1.1968C316.178 1.06346 316.218 0.956796 316.298 0.876795C316.405 0.770128 316.525 0.716795 316.658 0.716795H336.818ZM362.864 29.1568C360.784 29.1568 358.944 28.7301 357.344 27.8768C355.771 27.0235 354.544 25.8368 353.664 24.3168C352.784 22.7701 352.344 20.9968 352.344 18.9968V10.4368C352.344 8.46346 352.784 6.7168 353.664 5.1968C354.544 3.6768 355.771 2.50346 357.344 1.67679C358.944 0.823463 360.784 0.396797 362.864 0.396797C364.971 0.396797 366.811 0.823463 368.384 1.67679C369.984 2.50346 371.224 3.6768 372.104 5.1968C372.984 6.7168 373.424 8.46346 373.424 10.4368V18.9968C373.424 20.9968 372.984 22.7701 372.104 24.3168C371.224 25.8635 369.984 27.0635 368.384 27.9168C366.811 28.7435 364.971 29.1568 362.864 29.1568ZM362.864 24.3168C364.331 24.3168 365.517 23.8501 366.424 22.9168C367.331 21.9835 367.784 20.7435 367.784 19.1968V10.3968C367.784 8.85013 367.331 7.61013 366.424 6.6768C365.544 5.7168 364.357 5.2368 362.864 5.2368C361.397 5.2368 360.211 5.7168 359.304 6.6768C358.424 7.61013 357.984 8.85013 357.984 10.3968V19.1968C357.984 20.7435 358.424 21.9835 359.304 22.9168C360.211 23.8501 361.397 24.3168 362.864 24.3168ZM389.908 29.0368C387.855 29.0368 386.041 28.6368 384.468 27.8368C382.921 27.0368 381.708 25.9168 380.828 24.4768C379.975 23.0101 379.548 21.3301 379.548 19.4368V1.1968C379.548 1.06346 379.588 0.956796 379.668 0.876795C379.775 0.770128 379.895 0.716795 380.028 0.716795H384.708C384.841 0.716795 384.948 0.770128 385.028 0.876795C385.135 0.956796 385.188 1.06346 385.188 1.1968V19.4768C385.188 20.8901 385.615 22.0368 386.468 22.9168C387.348 23.7701 388.495 24.1968 389.908 24.1968C391.321 24.1968 392.455 23.7701 393.308 22.9168C394.188 22.0368 394.628 20.8901 394.628 19.4768V1.1968C394.628 1.06346 394.668 0.956796 394.748 0.876795C394.855 0.770128 394.975 0.716795 395.108 0.716795H399.788C399.921 0.716795 400.028 0.770128 400.108 0.876795C400.215 0.956796 400.268 1.06346 400.268 1.1968V19.4368C400.268 21.3301 399.828 23.0101 398.948 24.4768C398.095 25.9168 396.881 27.0368 395.308 27.8368C393.761 28.6368 391.961 29.0368 389.908 29.0368ZM422.264 28.7168C421.997 28.7168 421.811 28.5968 421.704 28.3568L416.704 17.2768C416.651 17.1701 416.571 17.1168 416.464 17.1168H412.744C412.611 17.1168 412.544 17.1835 412.544 17.3168V28.2368C412.544 28.3701 412.491 28.4901 412.384 28.5968C412.304 28.6768 412.197 28.7168 412.064 28.7168H407.384C407.251 28.7168 407.131 28.6768 407.024 28.5968C406.944 28.4901 406.904 28.3701 406.904 28.2368V1.1968C406.904 1.06346 406.944 0.956796 407.024 0.876795C407.131 0.770128 407.251 0.716795 407.384 0.716795H418.824C420.531 0.716795 422.024 1.06346 423.304 1.7568C424.611 2.45013 425.611 3.4368 426.304 4.7168C427.024 5.9968 427.384 7.4768 427.384 9.1568C427.384 10.9701 426.931 12.5301 426.024 13.8368C425.117 15.1168 423.851 16.0235 422.224 16.5568C422.091 16.6101 422.051 16.7035 422.104 16.8368L427.544 28.1568C427.597 28.2635 427.624 28.3435 427.624 28.3968C427.624 28.6101 427.477 28.7168 427.184 28.7168H422.264ZM412.744 5.55679C412.611 5.55679 412.544 5.62346 412.544 5.7568V12.5968C412.544 12.7301 412.611 12.7968 412.744 12.7968H417.984C419.104 12.7968 420.011 12.4635 420.704 11.7968C421.424 11.1301 421.784 10.2635 421.784 9.1968C421.784 8.13013 421.424 7.26346 420.704 6.5968C420.011 5.90346 419.104 5.55679 417.984 5.55679H412.744ZM462.802 0.716795C462.936 0.716795 463.042 0.770128 463.122 0.876795C463.229 0.956796 463.282 1.06346 463.282 1.1968V5.1168C463.282 5.25013 463.229 5.37013 463.122 5.4768C463.042 5.5568 462.936 5.5968 462.802 5.5968H455.642C455.509 5.5968 455.442 5.66346 455.442 5.7968V28.2368C455.442 28.3701 455.389 28.4901 455.282 28.5968C455.202 28.6768 455.096 28.7168 454.962 28.7168H450.282C450.149 28.7168 450.029 28.6768 449.922 28.5968C449.842 28.4901 449.802 28.3701 449.802 28.2368V5.7968C449.802 5.66346 449.736 5.5968 449.602 5.5968H442.642C442.509 5.5968 442.389 5.5568 442.282 5.4768C442.202 5.37013 442.162 5.25013 442.162 5.1168V1.1968C442.162 1.06346 442.202 0.956796 442.282 0.876795C442.389 0.770128 442.509 0.716795 442.642 0.716795H462.802ZM488.321 5.0768C488.321 5.21013 488.267 5.33013 488.161 5.4368C488.081 5.5168 487.974 5.55679 487.841 5.55679H474.721C474.587 5.55679 474.521 5.62346 474.521 5.7568V11.9568C474.521 12.0901 474.587 12.1568 474.721 12.1568H483.321C483.454 12.1568 483.561 12.2101 483.641 12.3168C483.747 12.3968 483.801 12.5035 483.801 12.6368V16.5168C483.801 16.6501 483.747 16.7701 483.641 16.8768C483.561 16.9568 483.454 16.9968 483.321 16.9968H474.721C474.587 16.9968 474.521 17.0635 474.521 17.1968V23.6768C474.521 23.8101 474.587 23.8768 474.721 23.8768H487.841C487.974 23.8768 488.081 23.9301 488.161 24.0368C488.267 24.1168 488.321 24.2235 488.321 24.3568V28.2368C488.321 28.3701 488.267 28.4901 488.161 28.5968C488.081 28.6768 487.974 28.7168 487.841 28.7168H469.361C469.227 28.7168 469.107 28.6768 469.001 28.5968C468.921 28.4901 468.881 28.3701 468.881 28.2368V1.1968C468.881 1.06346 468.921 0.956796 469.001 0.876795C469.107 0.770128 469.227 0.716795 469.361 0.716795H487.841C487.974 0.716795 488.081 0.770128 488.161 0.876795C488.267 0.956796 488.321 1.06346 488.321 1.1968V5.0768ZM512.04 28.7168C511.773 28.7168 511.6 28.5835 511.52 28.3168L510.32 24.3968C510.267 24.2901 510.2 24.2368 510.12 24.2368H500.28C500.2 24.2368 500.133 24.2901 500.08 24.3968L498.92 28.3168C498.84 28.5835 498.667 28.7168 498.4 28.7168H493.32C493.16 28.7168 493.04 28.6768 492.96 28.5968C492.88 28.4901 492.867 28.3435 492.92 28.1568L501.56 1.11679C501.64 0.850128 501.813 0.716795 502.08 0.716795H508.36C508.627 0.716795 508.8 0.850128 508.88 1.11679L517.52 28.1568C517.547 28.2101 517.56 28.2768 517.56 28.3568C517.56 28.5968 517.413 28.7168 517.12 28.7168H512.04ZM501.52 19.6368C501.493 19.7968 501.547 19.8768 501.68 19.8768H508.72C508.88 19.8768 508.933 19.7968 508.88 19.6368L505.28 7.75679C505.253 7.65013 505.213 7.61013 505.16 7.6368C505.107 7.6368 505.067 7.6768 505.04 7.75679L501.52 19.6368ZM541.076 1.0368C541.209 0.823462 541.396 0.716795 541.636 0.716795H546.316C546.449 0.716795 546.556 0.770128 546.636 0.876795C546.743 0.956796 546.796 1.06346 546.796 1.1968V28.2368C546.796 28.3701 546.743 28.4901 546.636 28.5968C546.556 28.6768 546.449 28.7168 546.316 28.7168H541.636C541.503 28.7168 541.383 28.6768 541.276 28.5968C541.196 28.4901 541.156 28.3701 541.156 28.2368V10.5968C541.156 10.4901 541.129 10.4368 541.076 10.4368C541.023 10.4368 540.969 10.4768 540.916 10.5568L536.676 17.1968C536.543 17.4101 536.356 17.5168 536.116 17.5168H533.756C533.516 17.5168 533.329 17.4101 533.196 17.1968L528.956 10.5568C528.903 10.4768 528.849 10.4501 528.796 10.4768C528.743 10.4768 528.716 10.5301 528.716 10.6368V28.2368C528.716 28.3701 528.663 28.4901 528.556 28.5968C528.476 28.6768 528.369 28.7168 528.236 28.7168H523.556C523.423 28.7168 523.303 28.6768 523.196 28.5968C523.116 28.4901 523.076 28.3701 523.076 28.2368V1.1968C523.076 1.06346 523.116 0.956796 523.196 0.876795C523.303 0.770128 523.423 0.716795 523.556 0.716795H528.236C528.476 0.716795 528.663 0.823462 528.796 1.0368L534.796 10.3568C534.876 10.5168 534.956 10.5168 535.036 10.3568L541.076 1.0368ZM581.678 1.0368C581.811 0.823462 581.998 0.716795 582.238 0.716795H586.918C587.051 0.716795 587.158 0.770128 587.238 0.876795C587.344 0.956796 587.398 1.06346 587.398 1.1968V28.2368C587.398 28.3701 587.344 28.4901 587.238 28.5968C587.158 28.6768 587.051 28.7168 586.918 28.7168H582.238C582.104 28.7168 581.984 28.6768 581.878 28.5968C581.798 28.4901 581.758 28.3701 581.758 28.2368V10.5968C581.758 10.4901 581.731 10.4368 581.678 10.4368C581.624 10.4368 581.571 10.4768 581.518 10.5568L577.278 17.1968C577.144 17.4101 576.958 17.5168 576.718 17.5168H574.358C574.118 17.5168 573.931 17.4101 573.798 17.1968L569.558 10.5568C569.504 10.4768 569.451 10.4501 569.398 10.4768C569.344 10.4768 569.318 10.5301 569.318 10.6368V28.2368C569.318 28.3701 569.264 28.4901 569.158 28.5968C569.078 28.6768 568.971 28.7168 568.838 28.7168H564.158C564.024 28.7168 563.904 28.6768 563.798 28.5968C563.718 28.4901 563.678 28.3701 563.678 28.2368V1.1968C563.678 1.06346 563.718 0.956796 563.798 0.876795C563.904 0.770128 564.024 0.716795 564.158 0.716795H568.838C569.078 0.716795 569.264 0.823462 569.398 1.0368L575.398 10.3568C575.478 10.5168 575.558 10.5168 575.638 10.3568L581.678 1.0368ZM613.711 5.0768C613.711 5.21013 613.658 5.33013 613.551 5.4368C613.471 5.5168 613.365 5.55679 613.231 5.55679H600.111C599.978 5.55679 599.911 5.62346 599.911 5.7568V11.9568C599.911 12.0901 599.978 12.1568 600.111 12.1568H608.711C608.845 12.1568 608.951 12.2101 609.031 12.3168C609.138 12.3968 609.191 12.5035 609.191 12.6368V16.5168C609.191 16.6501 609.138 16.7701 609.031 16.8768C608.951 16.9568 608.845 16.9968 608.711 16.9968H600.111C599.978 16.9968 599.911 17.0635 599.911 17.1968V23.6768C599.911 23.8101 599.978 23.8768 600.111 23.8768H613.231C613.365 23.8768 613.471 23.9301 613.551 24.0368C613.658 24.1168 613.711 24.2235 613.711 24.3568V28.2368C613.711 28.3701 613.658 28.4901 613.551 28.5968C613.471 28.6768 613.365 28.7168 613.231 28.7168H594.751C594.618 28.7168 594.498 28.6768 594.391 28.5968C594.311 28.4901 594.271 28.3701 594.271 28.2368V1.1968C594.271 1.06346 594.311 0.956796 594.391 0.876795C594.498 0.770128 594.618 0.716795 594.751 0.716795H613.231C613.365 0.716795 613.471 0.770128 613.551 0.876795C613.658 0.956796 613.711 1.06346 613.711 1.1968V5.0768ZM637.631 1.0368C637.764 0.823462 637.951 0.716795 638.191 0.716795H642.871C643.004 0.716795 643.111 0.770128 643.191 0.876795C643.297 0.956796 643.351 1.06346 643.351 1.1968V28.2368C643.351 28.3701 643.297 28.4901 643.191 28.5968C643.111 28.6768 643.004 28.7168 642.871 28.7168H638.191C638.057 28.7168 637.937 28.6768 637.831 28.5968C637.751 28.4901 637.711 28.3701 637.711 28.2368V10.5968C637.711 10.4901 637.684 10.4368 637.631 10.4368C637.577 10.4368 637.524 10.4768 637.471 10.5568L633.231 17.1968C633.097 17.4101 632.911 17.5168 632.671 17.5168H630.311C630.071 17.5168 629.884 17.4101 629.751 17.1968L625.511 10.5568C625.457 10.4768 625.404 10.4501 625.351 10.4768C625.297 10.4768 625.271 10.5301 625.271 10.6368V28.2368C625.271 28.3701 625.217 28.4901 625.111 28.5968C625.031 28.6768 624.924 28.7168 624.791 28.7168H620.111C619.977 28.7168 619.857 28.6768 619.751 28.5968C619.671 28.4901 619.631 28.3701 619.631 28.2368V1.1968C619.631 1.06346 619.671 0.956796 619.751 0.876795C619.857 0.770128 619.977 0.716795 620.111 0.716795H624.791C625.031 0.716795 625.217 0.823462 625.351 1.0368L631.351 10.3568C631.431 10.5168 631.511 10.5168 631.591 10.3568L637.631 1.0368ZM666.824 14.1168C666.664 14.1968 666.664 14.2768 666.824 14.3568C669.358 15.6635 670.624 17.8368 670.624 20.8768C670.624 23.4635 669.744 25.4235 667.984 26.7568C666.224 28.0635 663.918 28.7168 661.064 28.7168H650.704C650.571 28.7168 650.451 28.6768 650.344 28.5968C650.264 28.4901 650.224 28.3701 650.224 28.2368V1.1968C650.224 1.06346 650.264 0.956796 650.344 0.876795C650.451 0.770128 650.571 0.716795 650.704 0.716795H660.744C667.064 0.716795 670.224 3.2768 670.224 8.3968C670.224 11.0635 669.091 12.9701 666.824 14.1168ZM656.064 5.55679C655.931 5.55679 655.864 5.62346 655.864 5.7568V11.9968C655.864 12.1301 655.931 12.1968 656.064 12.1968H660.744C661.998 12.1968 662.971 11.9035 663.664 11.3168C664.358 10.7301 664.704 9.93013 664.704 8.9168C664.704 7.8768 664.358 7.06346 663.664 6.47679C662.971 5.86346 661.998 5.55679 660.744 5.55679H656.064ZM661.064 23.8368C662.291 23.8368 663.251 23.5301 663.944 22.9168C664.638 22.2768 664.984 21.4101 664.984 20.3168C664.984 19.2235 664.638 18.3701 663.944 17.7568C663.251 17.1168 662.278 16.7968 661.024 16.7968H656.064C655.931 16.7968 655.864 16.8635 655.864 16.9968V23.6368C655.864 23.7701 655.931 23.8368 656.064 23.8368H661.064ZM696.469 5.0768C696.469 5.21013 696.416 5.33013 696.309 5.4368C696.229 5.5168 696.122 5.55679 695.989 5.55679H682.869C682.736 5.55679 682.669 5.62346 682.669 5.7568V11.9568C682.669 12.0901 682.736 12.1568 682.869 12.1568H691.469C691.602 12.1568 691.709 12.2101 691.789 12.3168C691.896 12.3968 691.949 12.5035 691.949 12.6368V16.5168C691.949 16.6501 691.896 16.7701 691.789 16.8768C691.709 16.9568 691.602 16.9968 691.469 16.9968H682.869C682.736 16.9968 682.669 17.0635 682.669 17.1968V23.6768C682.669 23.8101 682.736 23.8768 682.869 23.8768H695.989C696.122 23.8768 696.229 23.9301 696.309 24.0368C696.416 24.1168 696.469 24.2235 696.469 24.3568V28.2368C696.469 28.3701 696.416 28.4901 696.309 28.5968C696.229 28.6768 696.122 28.7168 695.989 28.7168H677.509C677.376 28.7168 677.256 28.6768 677.149 28.5968C677.069 28.4901 677.029 28.3701 677.029 28.2368V1.1968C677.029 1.06346 677.069 0.956796 677.149 0.876795C677.256 0.770128 677.376 0.716795 677.509 0.716795H695.989C696.122 0.716795 696.229 0.770128 696.309 0.876795C696.416 0.956796 696.469 1.06346 696.469 1.1968V5.0768ZM717.748 28.7168C717.482 28.7168 717.295 28.5968 717.188 28.3568L712.188 17.2768C712.135 17.1701 712.055 17.1168 711.948 17.1168H708.228C708.095 17.1168 708.028 17.1835 708.028 17.3168V28.2368C708.028 28.3701 707.975 28.4901 707.868 28.5968C707.788 28.6768 707.682 28.7168 707.548 28.7168H702.868C702.735 28.7168 702.615 28.6768 702.508 28.5968C702.428 28.4901 702.388 28.3701 702.388 28.2368V1.1968C702.388 1.06346 702.428 0.956796 702.508 0.876795C702.615 0.770128 702.735 0.716795 702.868 0.716795H714.308C716.015 0.716795 717.508 1.06346 718.788 1.7568C720.095 2.45013 721.095 3.4368 721.788 4.7168C722.508 5.9968 722.868 7.4768 722.868 9.1568C722.868 10.9701 722.415 12.5301 721.508 13.8368C720.602 15.1168 719.335 16.0235 717.708 16.5568C717.575 16.6101 717.535 16.7035 717.588 16.8368L723.028 28.1568C723.082 28.2635 723.108 28.3435 723.108 28.3968C723.108 28.6101 722.962 28.7168 722.668 28.7168H717.748ZM708.228 5.55679C708.095 5.55679 708.028 5.62346 708.028 5.7568V12.5968C708.028 12.7301 708.095 12.7968 708.228 12.7968H713.468C714.588 12.7968 715.495 12.4635 716.188 11.7968C716.908 11.1301 717.268 10.2635 717.268 9.1968C717.268 8.13013 716.908 7.26346 716.188 6.5968C715.495 5.90346 714.588 5.55679 713.468 5.55679H708.228ZM738.559 29.0368C736.425 29.0368 734.559 28.7035 732.959 28.0368C731.359 27.3435 730.119 26.3701 729.239 25.1168C728.385 23.8368 727.959 22.3568 727.959 20.6768V19.7968C727.959 19.6635 727.999 19.5568 728.079 19.4768C728.185 19.3701 728.305 19.3168 728.439 19.3168H732.999C733.132 19.3168 733.239 19.3701 733.319 19.4768C733.425 19.5568 733.479 19.6635 733.479 19.7968V20.3968C733.479 21.4635 733.972 22.3701 734.959 23.1168C735.945 23.8368 737.279 24.1968 738.959 24.1968C740.372 24.1968 741.425 23.9035 742.119 23.3168C742.812 22.7035 743.159 21.9568 743.159 21.0768C743.159 20.4368 742.945 19.9035 742.519 19.4768C742.092 19.0235 741.505 18.6368 740.759 18.3168C740.039 17.9701 738.879 17.5035 737.279 16.9168C735.492 16.3035 733.972 15.6768 732.719 15.0368C731.492 14.3968 730.452 13.5301 729.599 12.4368C728.772 11.3168 728.359 9.94346 728.359 8.31679C728.359 6.71679 728.772 5.3168 729.599 4.1168C730.425 2.9168 731.572 1.9968 733.039 1.3568C734.505 0.716797 736.199 0.396797 738.119 0.396797C740.145 0.396797 741.945 0.756796 743.519 1.47679C745.119 2.19679 746.359 3.21013 747.239 4.5168C748.145 5.7968 748.599 7.29013 748.599 8.9968V9.5968C748.599 9.73013 748.545 9.85013 748.439 9.9568C748.359 10.0368 748.252 10.0768 748.119 10.0768H743.519C743.385 10.0768 743.265 10.0368 743.159 9.9568C743.079 9.85013 743.039 9.73013 743.039 9.5968V9.2768C743.039 8.1568 742.572 7.21013 741.639 6.4368C740.732 5.6368 739.479 5.2368 737.879 5.2368C736.625 5.2368 735.639 5.50346 734.919 6.0368C734.225 6.57013 733.879 7.30346 733.879 8.2368C733.879 8.90346 734.079 9.46346 734.479 9.9168C734.905 10.3701 735.519 10.7835 736.319 11.1568C737.145 11.5035 738.412 11.9835 740.119 12.5968C742.012 13.2901 743.492 13.9035 744.559 14.4368C745.652 14.9701 746.625 15.7701 747.479 16.8368C748.359 17.8768 748.799 19.2368 748.799 20.9168C748.799 23.4235 747.879 25.4101 746.039 26.8768C744.199 28.3168 741.705 29.0368 738.559 29.0368ZM770.956 28.7168C770.662 28.7168 770.476 28.5835 770.396 28.3168L763.316 1.2368L763.276 1.0768C763.276 0.836795 763.422 0.716795 763.716 0.716795H768.676C768.942 0.716795 769.116 0.850128 769.196 1.11679L772.996 17.3968C773.022 17.5035 773.062 17.5568 773.116 17.5568C773.169 17.5568 773.209 17.5035 773.236 17.3968L776.916 1.1568C776.996 0.863462 777.169 0.716795 777.436 0.716795H782.276C782.569 0.716795 782.756 0.850128 782.836 1.11679L786.836 17.3968C786.862 17.4768 786.902 17.5301 786.956 17.5568C787.009 17.5568 787.049 17.5035 787.076 17.3968L790.756 1.1568C790.836 0.863462 791.009 0.716795 791.276 0.716795H795.996C796.369 0.716795 796.516 0.890128 796.436 1.2368L789.876 28.3168C789.796 28.5835 789.609 28.7168 789.316 28.7168H784.556C784.289 28.7168 784.116 28.5835 784.036 28.3168L779.956 10.9968C779.929 10.8901 779.889 10.8368 779.836 10.8368C779.782 10.8368 779.742 10.8901 779.716 10.9968L775.916 28.2768C775.862 28.5701 775.689 28.7168 775.396 28.7168H770.956ZM810.466 29.1568C808.386 29.1568 806.546 28.7301 804.946 27.8768C803.372 27.0235 802.146 25.8368 801.266 24.3168C800.386 22.7701 799.946 20.9968 799.946 18.9968V10.4368C799.946 8.46346 800.386 6.7168 801.266 5.1968C802.146 3.6768 803.372 2.50346 804.946 1.67679C806.546 0.823463 808.386 0.396797 810.466 0.396797C812.572 0.396797 814.412 0.823463 815.986 1.67679C817.586 2.50346 818.826 3.6768 819.706 5.1968C820.586 6.7168 821.026 8.46346 821.026 10.4368V18.9968C821.026 20.9968 820.586 22.7701 819.706 24.3168C818.826 25.8635 817.586 27.0635 815.986 27.9168C814.412 28.7435 812.572 29.1568 810.466 29.1568ZM810.466 24.3168C811.932 24.3168 813.119 23.8501 814.026 22.9168C814.932 21.9835 815.386 20.7435 815.386 19.1968V10.3968C815.386 8.85013 814.932 7.61013 814.026 6.6768C813.146 5.7168 811.959 5.2368 810.466 5.2368C808.999 5.2368 807.812 5.7168 806.906 6.6768C806.026 7.61013 805.586 8.85013 805.586 10.3968V19.1968C805.586 20.7435 806.026 21.9835 806.906 22.9168C807.812 23.8501 808.999 24.3168 810.466 24.3168ZM842.709 28.7168C842.443 28.7168 842.256 28.5968 842.149 28.3568L837.149 17.2768C837.096 17.1701 837.016 17.1168 836.909 17.1168H833.189C833.056 17.1168 832.989 17.1835 832.989 17.3168V28.2368C832.989 28.3701 832.936 28.4901 832.829 28.5968C832.749 28.6768 832.643 28.7168 832.509 28.7168H827.829C827.696 28.7168 827.576 28.6768 827.469 28.5968C827.389 28.4901 827.349 28.3701 827.349 28.2368V1.1968C827.349 1.06346 827.389 0.956796 827.469 0.876795C827.576 0.770128 827.696 0.716795 827.829 0.716795H839.269C840.976 0.716795 842.469 1.06346 843.749 1.7568C845.056 2.45013 846.056 3.4368 846.749 4.7168C847.469 5.9968 847.829 7.4768 847.829 9.1568C847.829 10.9701 847.376 12.5301 846.469 13.8368C845.563 15.1168 844.296 16.0235 842.669 16.5568C842.536 16.6101 842.496 16.7035 842.549 16.8368L847.989 28.1568C848.043 28.2635 848.069 28.3435 848.069 28.3968C848.069 28.6101 847.923 28.7168 847.629 28.7168H842.709ZM833.189 5.55679C833.056 5.55679 832.989 5.62346 832.989 5.7568V12.5968C832.989 12.7301 833.056 12.7968 833.189 12.7968H838.429C839.549 12.7968 840.456 12.4635 841.149 11.7968C841.869 11.1301 842.229 10.2635 842.229 9.1968C842.229 8.13013 841.869 7.26346 841.149 6.5968C840.456 5.90346 839.549 5.55679 838.429 5.55679H833.189ZM854.4 28.7168C854.266 28.7168 854.146 28.6768 854.04 28.5968C853.96 28.4901 853.92 28.3701 853.92 28.2368V1.1968C853.92 1.06346 853.96 0.956796 854.04 0.876795C854.146 0.770128 854.266 0.716795 854.4 0.716795H859.08C859.213 0.716795 859.32 0.770128 859.4 0.876795C859.506 0.956796 859.56 1.06346 859.56 1.1968V12.3968C859.56 12.4768 859.586 12.5301 859.64 12.5568C859.693 12.5568 859.746 12.5301 859.8 12.4768L869.04 0.996796C869.2 0.810129 869.4 0.716795 869.64 0.716795H874.92C875.133 0.716795 875.266 0.783462 875.32 0.916795C875.373 1.02346 875.346 1.15679 875.24 1.31679L866.32 12.7168C866.24 12.8235 866.226 12.9168 866.28 12.9968L875.72 28.1568C875.773 28.3168 875.8 28.4101 875.8 28.4368C875.8 28.6235 875.666 28.7168 875.4 28.7168H870.12C869.853 28.7168 869.666 28.6101 869.56 28.3968L862.44 16.8768C862.413 16.8235 862.373 16.7968 862.32 16.7968C862.266 16.7968 862.213 16.8235 862.16 16.8768L859.64 20.0368C859.586 20.1435 859.56 20.2235 859.56 20.2768V28.2368C859.56 28.3701 859.506 28.4901 859.4 28.5968C859.32 28.6768 859.213 28.7168 859.08 28.7168H854.4ZM900.399 5.0768C900.399 5.21013 900.345 5.33013 900.239 5.4368C900.159 5.5168 900.052 5.55679 899.919 5.55679H886.799C886.665 5.55679 886.599 5.62346 886.599 5.7568V11.9568C886.599 12.0901 886.665 12.1568 886.799 12.1568H895.399C895.532 12.1568 895.639 12.2101 895.719 12.3168C895.825 12.3968 895.879 12.5035 895.879 12.6368V16.5168C895.879 16.6501 895.825 16.7701 895.719 16.8768C895.639 16.9568 895.532 16.9968 895.399 16.9968H886.799C886.665 16.9968 886.599 17.0635 886.599 17.1968V23.6768C886.599 23.8101 886.665 23.8768 886.799 23.8768H899.919C900.052 23.8768 900.159 23.9301 900.239 24.0368C900.345 24.1168 900.399 24.2235 900.399 24.3568V28.2368C900.399 28.3701 900.345 28.4901 900.239 28.5968C900.159 28.6768 900.052 28.7168 899.919 28.7168H881.439C881.305 28.7168 881.185 28.6768 881.079 28.5968C880.999 28.4901 880.959 28.3701 880.959 28.2368V1.1968C880.959 1.06346 880.999 0.956796 881.079 0.876795C881.185 0.770128 881.305 0.716795 881.439 0.716795H899.919C900.052 0.716795 900.159 0.770128 900.239 0.876795C900.345 0.956796 900.399 1.06346 900.399 1.1968V5.0768ZM906.798 28.7168C906.665 28.7168 906.545 28.6768 906.438 28.5968C906.358 28.4901 906.318 28.3701 906.318 28.2368V1.1968C906.318 1.06346 906.358 0.956796 906.438 0.876795C906.545 0.770128 906.665 0.716795 906.798 0.716795H916.798C918.798 0.716795 920.545 1.0768 922.038 1.7968C923.558 2.49013 924.732 3.4768 925.558 4.7568C926.385 6.0368 926.798 7.5168 926.798 9.1968V20.2368C926.798 21.9168 926.385 23.3968 925.558 24.6768C924.732 25.9568 923.558 26.9568 922.038 27.6768C920.545 28.3701 918.798 28.7168 916.798 28.7168H906.798ZM911.958 23.6768C911.958 23.8101 912.025 23.8768 912.158 23.8768H916.998C918.225 23.8768 919.212 23.4635 919.958 22.6368C920.732 21.8101 921.132 20.7035 921.158 19.3168V10.1168C921.158 8.73013 920.772 7.62346 919.998 6.7968C919.252 5.97013 918.238 5.55679 916.958 5.55679H912.158C912.025 5.55679 911.958 5.62346 911.958 5.7568V23.6768ZM949.253 28.7168C948.959 28.7168 948.773 28.5835 948.693 28.3168L941.613 1.2368L941.573 1.0768C941.573 0.836795 941.719 0.716795 942.013 0.716795H946.973C947.239 0.716795 947.413 0.850128 947.493 1.11679L951.293 17.3968C951.319 17.5035 951.359 17.5568 951.413 17.5568C951.466 17.5568 951.506 17.5035 951.533 17.3968L955.213 1.1568C955.293 0.863462 955.466 0.716795 955.733 0.716795H960.573C960.866 0.716795 961.053 0.850128 961.133 1.11679L965.133 17.3968C965.159 17.4768 965.199 17.5301 965.253 17.5568C965.306 17.5568 965.346 17.5035 965.373 17.3968L969.053 1.1568C969.133 0.863462 969.306 0.716795 969.573 0.716795H974.293C974.666 0.716795 974.813 0.890128 974.733 1.2368L968.173 28.3168C968.093 28.5835 967.906 28.7168 967.613 28.7168H962.853C962.586 28.7168 962.413 28.5835 962.333 28.3168L958.253 10.9968C958.226 10.8901 958.186 10.8368 958.133 10.8368C958.079 10.8368 958.039 10.8901 958.013 10.9968L954.213 28.2768C954.159 28.5701 953.986 28.7168 953.693 28.7168H949.253ZM980.611 28.7168C980.477 28.7168 980.357 28.6768 980.251 28.5968C980.171 28.4901 980.131 28.3701 980.131 28.2368V1.1968C980.131 1.06346 980.171 0.956796 980.251 0.876795C980.357 0.770128 980.477 0.716795 980.611 0.716795H985.291C985.424 0.716795 985.531 0.770128 985.611 0.876795C985.717 0.956796 985.771 1.06346 985.771 1.1968V28.2368C985.771 28.3701 985.717 28.4901 985.611 28.5968C985.531 28.6768 985.424 28.7168 985.291 28.7168H980.611ZM1011.96 0.716795C1012.09 0.716795 1012.2 0.770128 1012.28 0.876795C1012.39 0.956796 1012.44 1.06346 1012.44 1.1968V5.1168C1012.44 5.25013 1012.39 5.37013 1012.28 5.4768C1012.2 5.5568 1012.09 5.5968 1011.96 5.5968H1004.8C1004.67 5.5968 1004.6 5.66346 1004.6 5.7968V28.2368C1004.6 28.3701 1004.55 28.4901 1004.44 28.5968C1004.36 28.6768 1004.25 28.7168 1004.12 28.7168H999.438C999.305 28.7168 999.185 28.6768 999.078 28.5968C998.998 28.4901 998.958 28.3701 998.958 28.2368V5.7968C998.958 5.66346 998.892 5.5968 998.758 5.5968H991.798C991.665 5.5968 991.545 5.5568 991.438 5.4768C991.358 5.37013 991.318 5.25013 991.318 5.1168V1.1968C991.318 1.06346 991.358 0.956796 991.438 0.876795C991.545 0.770128 991.665 0.716795 991.798 0.716795H1011.96ZM1032.92 1.1968C1032.92 1.06346 1032.96 0.956796 1033.04 0.876795C1033.14 0.770128 1033.26 0.716795 1033.4 0.716795H1038.08C1038.21 0.716795 1038.32 0.770128 1038.4 0.876795C1038.5 0.956796 1038.56 1.06346 1038.56 1.1968V28.2368C1038.56 28.3701 1038.5 28.4901 1038.4 28.5968C1038.32 28.6768 1038.21 28.7168 1038.08 28.7168H1033.4C1033.26 28.7168 1033.14 28.6768 1033.04 28.5968C1032.96 28.4901 1032.92 28.3701 1032.92 28.2368V17.1968C1032.92 17.0635 1032.85 16.9968 1032.72 16.9968H1023.88C1023.74 16.9968 1023.68 17.0635 1023.68 17.1968V28.2368C1023.68 28.3701 1023.62 28.4901 1023.52 28.5968C1023.44 28.6768 1023.33 28.7168 1023.2 28.7168H1018.52C1018.38 28.7168 1018.26 28.6768 1018.16 28.5968C1018.08 28.4901 1018.04 28.3701 1018.04 28.2368V1.1968C1018.04 1.06346 1018.08 0.956796 1018.16 0.876795C1018.26 0.770128 1018.38 0.716795 1018.52 0.716795H1023.2C1023.33 0.716795 1023.44 0.770128 1023.52 0.876795C1023.62 0.956796 1023.68 1.06346 1023.68 1.1968V11.9568C1023.68 12.0901 1023.74 12.1568 1023.88 12.1568H1032.72C1032.85 12.1568 1032.92 12.0901 1032.92 11.9568V1.1968Z" fill="#00B0E9"/>
</svg>
