<svg width="274" height="46" viewBox="0 0 274 46" fill="none" xmlns="http://www.w3.org/2000/svg">
<path d="M5.96031 15.16C4.92031 15.16 4.00698 14.96 3.22031 14.56C2.43365 14.1467 1.82698 13.5733 1.40031 12.84C0.973646 12.1067 0.760313 11.26 0.760313 10.3V5.68C0.760313 4.72 0.973646 3.87333 1.40031 3.14C1.82698 2.40667 2.43365 1.84 3.22031 1.44C4.00698 1.04 4.92031 0.84 5.96031 0.84C6.98698 0.84 7.88698 1.03333 8.66031 1.42C9.44698 1.79333 10.0536 2.33333 10.4803 3.04C10.9203 3.73333 11.1403 4.54 11.1403 5.46C11.1403 5.58 11.0603 5.65333 10.9003 5.68L8.56031 5.82H8.52031C8.38698 5.82 8.32031 5.74667 8.32031 5.6C8.32031 4.89333 8.10031 4.32667 7.66031 3.9C7.23365 3.47333 6.66698 3.26 5.96031 3.26C5.24031 3.26 4.66031 3.47333 4.22031 3.9C3.79365 4.32667 3.58031 4.89333 3.58031 5.6V10.42C3.58031 11.1133 3.79365 11.6733 4.22031 12.1C4.66031 12.5267 5.24031 12.74 5.96031 12.74C6.66698 12.74 7.23365 12.5267 7.66031 12.1C8.10031 11.6733 8.32031 11.1133 8.32031 10.42C8.32031 10.2733 8.40031 10.2 8.56031 10.2L10.9003 10.3C10.967 10.3 11.0203 10.32 11.0603 10.36C11.1136 10.4 11.1403 10.4467 11.1403 10.5C11.1403 11.42 10.9203 12.2333 10.4803 12.94C10.0536 13.6467 9.44698 14.1933 8.66031 14.58C7.88698 14.9667 6.98698 15.16 5.96031 15.16ZM19.1883 15.22C18.1483 15.22 17.2283 15.0067 16.4283 14.58C15.6416 14.1533 15.0283 13.56 14.5883 12.8C14.1483 12.0267 13.9283 11.14 13.9283 10.14V5.86C13.9283 4.87333 14.1483 4 14.5883 3.24C15.0283 2.48 15.6416 1.89333 16.4283 1.48C17.2283 1.05333 18.1483 0.84 19.1883 0.84C20.2416 0.84 21.1616 1.05333 21.9483 1.48C22.7483 1.89333 23.3683 2.48 23.8083 3.24C24.2483 4 24.4683 4.87333 24.4683 5.86V10.14C24.4683 11.14 24.2483 12.0267 23.8083 12.8C23.3683 13.5733 22.7483 14.1733 21.9483 14.6C21.1616 15.0133 20.2416 15.22 19.1883 15.22ZM19.1883 12.8C19.9216 12.8 20.5149 12.5667 20.9683 12.1C21.4216 11.6333 21.6483 11.0133 21.6483 10.24V5.84C21.6483 5.06667 21.4216 4.44667 20.9683 3.98C20.5283 3.5 19.9349 3.26 19.1883 3.26C18.4549 3.26 17.8616 3.5 17.4083 3.98C16.9683 4.44667 16.7483 5.06667 16.7483 5.84V10.24C16.7483 11.0133 16.9683 11.6333 17.4083 12.1C17.8616 12.5667 18.4549 12.8 19.1883 12.8ZM36.6302 1.16C36.6968 1.05333 36.7902 0.999999 36.9102 0.999999H39.2502C39.3168 0.999999 39.3702 1.02667 39.4102 1.08C39.4635 1.12 39.4902 1.17333 39.4902 1.24V14.76C39.4902 14.8267 39.4635 14.8867 39.4102 14.94C39.3702 14.98 39.3168 15 39.2502 15H36.9102C36.8435 15 36.7835 14.98 36.7302 14.94C36.6902 14.8867 36.6702 14.8267 36.6702 14.76V5.94C36.6702 5.88667 36.6568 5.86 36.6302 5.86C36.6035 5.86 36.5768 5.88 36.5502 5.92L34.4302 9.24C34.3635 9.34667 34.2702 9.4 34.1502 9.4H32.9702C32.8502 9.4 32.7568 9.34667 32.6902 9.24L30.5702 5.92C30.5435 5.88 30.5168 5.86667 30.4902 5.88C30.4635 5.88 30.4502 5.90667 30.4502 5.96V14.76C30.4502 14.8267 30.4235 14.8867 30.3702 14.94C30.3302 14.98 30.2768 15 30.2102 15H27.8702C27.8035 15 27.7435 14.98 27.6902 14.94C27.6502 14.8867 27.6302 14.8267 27.6302 14.76V1.24C27.6302 1.17333 27.6502 1.12 27.6902 1.08C27.7435 1.02667 27.8035 0.999999 27.8702 0.999999H30.2102C30.3302 0.999999 30.4235 1.05333 30.4902 1.16L33.4902 5.82C33.5302 5.9 33.5702 5.9 33.6102 5.82L36.6302 1.16ZM48.707 0.979999C49.587 0.979999 50.3604 1.16 51.027 1.52C51.6937 1.88 52.207 2.39333 52.567 3.06C52.9404 3.71333 53.127 4.46667 53.127 5.32C53.127 6.16 52.9337 6.9 52.547 7.54C52.1737 8.18 51.6404 8.68 50.947 9.04C50.267 9.38667 49.4804 9.56 48.587 9.56H45.747C45.6804 9.56 45.647 9.59333 45.647 9.66V14.76C45.647 14.8267 45.6204 14.8867 45.567 14.94C45.527 14.98 45.4737 15 45.407 15H43.067C43.0004 15 42.9404 14.98 42.887 14.94C42.847 14.8867 42.827 14.8267 42.827 14.76V1.22C42.827 1.15333 42.847 1.1 42.887 1.06C42.9404 1.00667 43.0004 0.979999 43.067 0.979999H48.707ZM48.287 7.3C48.9004 7.3 49.3937 7.12667 49.767 6.78C50.1404 6.42 50.327 5.95333 50.327 5.38C50.327 4.79333 50.1404 4.32 49.767 3.96C49.3937 3.6 48.9004 3.42 48.287 3.42H45.747C45.6804 3.42 45.647 3.45333 45.647 3.52V7.2C45.647 7.26667 45.6804 7.3 45.747 7.3H48.287ZM63.6473 15C63.514 15 63.4273 14.9333 63.3873 14.8L62.7873 12.84C62.7607 12.7867 62.7273 12.76 62.6873 12.76H57.7673C57.7273 12.76 57.694 12.7867 57.6673 12.84L57.0873 14.8C57.0473 14.9333 56.9607 15 56.8273 15H54.2873C54.2073 15 54.1473 14.98 54.1073 14.94C54.0673 14.8867 54.0607 14.8133 54.0873 14.72L58.4073 1.2C58.4473 1.06667 58.534 0.999999 58.6673 0.999999H61.8073C61.9407 0.999999 62.0273 1.06667 62.0673 1.2L66.3873 14.72C66.4007 14.7467 66.4073 14.78 66.4073 14.82C66.4073 14.94 66.334 15 66.1873 15H63.6473ZM58.3873 10.46C58.374 10.54 58.4007 10.58 58.4673 10.58H61.9873C62.0673 10.58 62.094 10.54 62.0673 10.46L60.2673 4.52C60.254 4.46667 60.234 4.44667 60.2073 4.46C60.1807 4.46 60.1607 4.48 60.1473 4.52L58.3873 10.46ZM77.2053 1.24C77.2053 1.17333 77.2253 1.12 77.2653 1.08C77.3186 1.02667 77.3786 0.999999 77.4453 0.999999H79.7853C79.852 0.999999 79.9053 1.02667 79.9453 1.08C79.9986 1.12 80.0253 1.17333 80.0253 1.24V14.76C80.0253 14.8267 79.9986 14.8867 79.9453 14.94C79.9053 14.98 79.852 15 79.7853 15H77.5253C77.392 15 77.2986 14.9467 77.2453 14.84L72.0653 6.28C72.0386 6.24 72.012 6.22667 71.9853 6.24C71.9586 6.24 71.9453 6.26667 71.9453 6.32L71.9853 14.76C71.9853 14.8267 71.9586 14.8867 71.9053 14.94C71.8653 14.98 71.812 15 71.7453 15H69.4053C69.3386 15 69.2786 14.98 69.2253 14.94C69.1853 14.8867 69.1653 14.8267 69.1653 14.76V1.24C69.1653 1.17333 69.1853 1.12 69.2253 1.08C69.2786 1.02667 69.3386 0.999999 69.4053 0.999999H71.6653C71.7986 0.999999 71.892 1.05333 71.9453 1.16L77.1053 9.68C77.132 9.72 77.1586 9.74 77.1853 9.74C77.212 9.72667 77.2253 9.69333 77.2253 9.64L77.2053 1.24ZM83.7061 15C83.6394 15 83.5794 14.98 83.5261 14.94C83.4861 14.8867 83.4661 14.8267 83.4661 14.76V1.24C83.4661 1.17333 83.4861 1.12 83.5261 1.08C83.5794 1.02667 83.6394 0.999999 83.7061 0.999999H86.0461C86.1128 0.999999 86.1661 1.02667 86.2061 1.08C86.2594 1.12 86.2861 1.17333 86.2861 1.24V14.76C86.2861 14.8267 86.2594 14.8867 86.2061 14.94C86.1661 14.98 86.1128 15 86.0461 15H83.7061ZM99.44 3.18C99.44 3.24667 99.4133 3.30667 99.36 3.36C99.32 3.4 99.2667 3.42 99.2 3.42H92.64C92.5733 3.42 92.54 3.45333 92.54 3.52V6.62C92.54 6.68667 92.5733 6.72 92.64 6.72H96.94C97.0067 6.72 97.06 6.74667 97.1 6.8C97.1533 6.84 97.18 6.89333 97.18 6.96V8.9C97.18 8.96667 97.1533 9.02667 97.1 9.08C97.06 9.12 97.0067 9.14 96.94 9.14H92.64C92.5733 9.14 92.54 9.17333 92.54 9.24V12.48C92.54 12.5467 92.5733 12.58 92.64 12.58H99.2C99.2667 12.58 99.32 12.6067 99.36 12.66C99.4133 12.7 99.44 12.7533 99.44 12.82V14.76C99.44 14.8267 99.4133 14.8867 99.36 14.94C99.32 14.98 99.2667 15 99.2 15H89.96C89.8933 15 89.8333 14.98 89.78 14.94C89.74 14.8867 89.72 14.8267 89.72 14.76V1.24C89.72 1.17333 89.74 1.12 89.78 1.08C89.8333 1.02667 89.8933 0.999999 89.96 0.999999H99.2C99.2667 0.999999 99.32 1.02667 99.36 1.08C99.4133 1.12 99.44 1.17333 99.44 1.24V3.18ZM107.2 15.16C106.133 15.16 105.2 14.9933 104.4 14.66C103.6 14.3133 102.98 13.8267 102.54 13.2C102.113 12.56 101.9 11.82 101.9 10.98V10.54C101.9 10.4733 101.92 10.42 101.96 10.38C102.013 10.3267 102.073 10.3 102.14 10.3H104.42C104.486 10.3 104.54 10.3267 104.58 10.38C104.633 10.42 104.66 10.4733 104.66 10.54V10.84C104.66 11.3733 104.906 11.8267 105.4 12.2C105.893 12.56 106.56 12.74 107.4 12.74C108.106 12.74 108.633 12.5933 108.98 12.3C109.326 11.9933 109.5 11.62 109.5 11.18C109.5 10.86 109.393 10.5933 109.18 10.38C108.966 10.1533 108.673 9.96 108.3 9.8C107.94 9.62667 107.36 9.39333 106.56 9.1C105.666 8.79333 104.906 8.48 104.28 8.16C103.666 7.84 103.146 7.40667 102.72 6.86C102.306 6.3 102.1 5.61333 102.1 4.8C102.1 4 102.306 3.3 102.72 2.7C103.133 2.1 103.706 1.64 104.44 1.32C105.173 1 106.02 0.84 106.98 0.84C107.993 0.84 108.893 1.02 109.68 1.38C110.48 1.74 111.1 2.24667 111.54 2.9C111.993 3.54 112.22 4.28667 112.22 5.14V5.44C112.22 5.50667 112.193 5.56667 112.14 5.62C112.1 5.66 112.046 5.68 111.98 5.68H109.68C109.613 5.68 109.553 5.66 109.5 5.62C109.46 5.56667 109.44 5.50667 109.44 5.44V5.28C109.44 4.72 109.206 4.24667 108.74 3.86C108.286 3.46 107.66 3.26 106.86 3.26C106.233 3.26 105.74 3.39333 105.38 3.66C105.033 3.92667 104.86 4.29333 104.86 4.76C104.86 5.09333 104.96 5.37333 105.16 5.6C105.373 5.82667 105.68 6.03333 106.08 6.22C106.493 6.39333 107.126 6.63333 107.98 6.94C108.926 7.28667 109.666 7.59333 110.2 7.86C110.746 8.12667 111.233 8.52667 111.66 9.06C112.1 9.58 112.32 10.26 112.32 11.1C112.32 12.3533 111.86 13.3467 110.94 14.08C110.02 14.8 108.773 15.16 107.2 15.16ZM129.958 0.999999C130.025 0.999999 130.078 1.02667 130.118 1.08C130.171 1.12 130.198 1.17333 130.198 1.24V3.2C130.198 3.26667 130.171 3.32667 130.118 3.38C130.078 3.42 130.025 3.44 129.958 3.44H126.378C126.311 3.44 126.278 3.47333 126.278 3.54V14.76C126.278 14.8267 126.251 14.8867 126.198 14.94C126.158 14.98 126.105 15 126.038 15H123.698C123.631 15 123.571 14.98 123.518 14.94C123.478 14.8867 123.458 14.8267 123.458 14.76V3.54C123.458 3.47333 123.425 3.44 123.358 3.44H119.878C119.811 3.44 119.751 3.42 119.698 3.38C119.658 3.32667 119.638 3.26667 119.638 3.2V1.24C119.638 1.17333 119.658 1.12 119.698 1.08C119.751 1.02667 119.811 0.999999 119.878 0.999999H129.958ZM140.437 1.24C140.437 1.17333 140.457 1.12 140.497 1.08C140.551 1.02667 140.611 0.999999 140.677 0.999999H143.017C143.084 0.999999 143.137 1.02667 143.177 1.08C143.231 1.12 143.257 1.17333 143.257 1.24V14.76C143.257 14.8267 143.231 14.8867 143.177 14.94C143.137 14.98 143.084 15 143.017 15H140.677C140.611 15 140.551 14.98 140.497 14.94C140.457 14.8867 140.437 14.8267 140.437 14.76V9.24C140.437 9.17333 140.404 9.14 140.337 9.14H135.917C135.851 9.14 135.817 9.17333 135.817 9.24V14.76C135.817 14.8267 135.791 14.8867 135.737 14.94C135.697 14.98 135.644 15 135.577 15H133.237C133.171 15 133.111 14.98 133.057 14.94C133.017 14.8867 132.997 14.8267 132.997 14.76V1.24C132.997 1.17333 133.017 1.12 133.057 1.08C133.111 1.02667 133.171 0.999999 133.237 0.999999H135.577C135.644 0.999999 135.697 1.02667 135.737 1.08C135.791 1.12 135.817 1.17333 135.817 1.24V6.62C135.817 6.68667 135.851 6.72 135.917 6.72H140.337C140.404 6.72 140.437 6.68667 140.437 6.62V1.24ZM155.515 15C155.381 15 155.295 14.9333 155.255 14.8L154.655 12.84C154.628 12.7867 154.595 12.76 154.555 12.76H149.635C149.595 12.76 149.561 12.7867 149.535 12.84L148.955 14.8C148.915 14.9333 148.828 15 148.695 15H146.155C146.075 15 146.015 14.98 145.975 14.94C145.935 14.8867 145.928 14.8133 145.955 14.72L150.275 1.2C150.315 1.06667 150.401 0.999999 150.535 0.999999H153.675C153.808 0.999999 153.895 1.06667 153.935 1.2L158.255 14.72C158.268 14.7467 158.275 14.78 158.275 14.82C158.275 14.94 158.201 15 158.055 15H155.515ZM150.255 10.46C150.241 10.54 150.268 10.58 150.335 10.58H153.855C153.935 10.58 153.961 10.54 153.935 10.46L152.135 4.52C152.121 4.46667 152.101 4.44667 152.075 4.46C152.048 4.46 152.028 4.48 152.015 4.52L150.255 10.46ZM168.974 0.999999C169.04 0.999999 169.094 1.02667 169.134 1.08C169.187 1.12 169.214 1.17333 169.214 1.24V3.2C169.214 3.26667 169.187 3.32667 169.134 3.38C169.094 3.42 169.04 3.44 168.974 3.44H165.394C165.327 3.44 165.294 3.47333 165.294 3.54V14.76C165.294 14.8267 165.267 14.8867 165.214 14.94C165.174 14.98 165.12 15 165.054 15H162.714C162.647 15 162.587 14.98 162.534 14.94C162.494 14.8867 162.474 14.8267 162.474 14.76V3.54C162.474 3.47333 162.44 3.44 162.374 3.44H158.894C158.827 3.44 158.767 3.42 158.714 3.38C158.674 3.32667 158.654 3.26667 158.654 3.2V1.24C158.654 1.17333 158.674 1.12 158.714 1.08C158.767 1.02667 158.827 0.999999 158.894 0.999999H168.974ZM181.997 15.22C180.957 15.22 180.037 15.0067 179.237 14.58C178.45 14.1533 177.837 13.56 177.397 12.8C176.957 12.0267 176.737 11.14 176.737 10.14V5.86C176.737 4.87333 176.957 4 177.397 3.24C177.837 2.48 178.45 1.89333 179.237 1.48C180.037 1.05333 180.957 0.84 181.997 0.84C183.05 0.84 183.97 1.05333 184.757 1.48C185.557 1.89333 186.177 2.48 186.617 3.24C187.057 4 187.277 4.87333 187.277 5.86V10.14C187.277 11.14 187.057 12.0267 186.617 12.8C186.177 13.5733 185.557 14.1733 184.757 14.6C183.97 15.0133 183.05 15.22 181.997 15.22ZM181.997 12.8C182.73 12.8 183.324 12.5667 183.777 12.1C184.23 11.6333 184.457 11.0133 184.457 10.24V5.84C184.457 5.06667 184.23 4.44667 183.777 3.98C183.337 3.5 182.744 3.26 181.997 3.26C181.264 3.26 180.67 3.5 180.217 3.98C179.777 4.44667 179.557 5.06667 179.557 5.84V10.24C179.557 11.0133 179.777 11.6333 180.217 12.1C180.67 12.5667 181.264 12.8 181.997 12.8ZM195.519 15.16C194.492 15.16 193.585 14.96 192.799 14.56C192.025 14.16 191.419 13.6 190.979 12.88C190.552 12.1467 190.339 11.3067 190.339 10.36V1.24C190.339 1.17333 190.359 1.12 190.399 1.08C190.452 1.02667 190.512 0.999999 190.579 0.999999H192.919C192.985 0.999999 193.039 1.02667 193.079 1.08C193.132 1.12 193.159 1.17333 193.159 1.24V10.38C193.159 11.0867 193.372 11.66 193.799 12.1C194.239 12.5267 194.812 12.74 195.519 12.74C196.225 12.74 196.792 12.5267 197.219 12.1C197.659 11.66 197.879 11.0867 197.879 10.38V1.24C197.879 1.17333 197.899 1.12 197.939 1.08C197.992 1.02667 198.052 0.999999 198.119 0.999999H200.459C200.525 0.999999 200.579 1.02667 200.619 1.08C200.672 1.12 200.699 1.17333 200.699 1.24V10.36C200.699 11.3067 200.479 12.1467 200.039 12.88C199.612 13.6 199.005 14.16 198.219 14.56C197.445 14.96 196.545 15.16 195.519 15.16ZM211.697 15C211.564 15 211.47 14.94 211.417 14.82L208.917 9.28C208.89 9.22667 208.85 9.2 208.797 9.2H206.937C206.87 9.2 206.837 9.23333 206.837 9.3V14.76C206.837 14.8267 206.81 14.8867 206.757 14.94C206.717 14.98 206.664 15 206.597 15H204.257C204.19 15 204.13 14.98 204.077 14.94C204.037 14.8867 204.017 14.8267 204.017 14.76V1.24C204.017 1.17333 204.037 1.12 204.077 1.08C204.13 1.02667 204.19 0.999999 204.257 0.999999H209.977C210.83 0.999999 211.577 1.17333 212.217 1.52C212.87 1.86667 213.37 2.36 213.717 3C214.077 3.64 214.257 4.38 214.257 5.22C214.257 6.12667 214.03 6.90667 213.577 7.56C213.124 8.2 212.49 8.65333 211.677 8.92C211.61 8.94667 211.59 8.99333 211.617 9.06L214.337 14.72C214.364 14.7733 214.377 14.8133 214.377 14.84C214.377 14.9467 214.304 15 214.157 15H211.697ZM206.937 3.42C206.87 3.42 206.837 3.45333 206.837 3.52V6.94C206.837 7.00667 206.87 7.04 206.937 7.04H209.557C210.117 7.04 210.57 6.87333 210.917 6.54C211.277 6.20667 211.457 5.77333 211.457 5.24C211.457 4.70667 211.277 4.27333 210.917 3.94C210.57 3.59333 210.117 3.42 209.557 3.42H206.937ZM231.966 0.999999C232.033 0.999999 232.086 1.02667 232.126 1.08C232.179 1.12 232.206 1.17333 232.206 1.24V3.2C232.206 3.26667 232.179 3.32667 232.126 3.38C232.086 3.42 232.033 3.44 231.966 3.44H228.386C228.319 3.44 228.286 3.47333 228.286 3.54V14.76C228.286 14.8267 228.259 14.8867 228.206 14.94C228.166 14.98 228.113 15 228.046 15H225.706C225.639 15 225.579 14.98 225.526 14.94C225.486 14.8867 225.466 14.8267 225.466 14.76V3.54C225.466 3.47333 225.433 3.44 225.366 3.44H221.886C221.819 3.44 221.759 3.42 221.706 3.38C221.666 3.32667 221.646 3.26667 221.646 3.2V1.24C221.646 1.17333 221.666 1.12 221.706 1.08C221.759 1.02667 221.819 0.999999 221.886 0.999999H231.966ZM244.725 3.18C244.725 3.24667 244.698 3.30667 244.645 3.36C244.605 3.4 244.552 3.42 244.485 3.42H237.925C237.858 3.42 237.825 3.45333 237.825 3.52V6.62C237.825 6.68667 237.858 6.72 237.925 6.72H242.225C242.292 6.72 242.345 6.74667 242.385 6.8C242.438 6.84 242.465 6.89333 242.465 6.96V8.9C242.465 8.96667 242.438 9.02667 242.385 9.08C242.345 9.12 242.292 9.14 242.225 9.14H237.925C237.858 9.14 237.825 9.17333 237.825 9.24V12.48C237.825 12.5467 237.858 12.58 237.925 12.58H244.485C244.552 12.58 244.605 12.6067 244.645 12.66C244.698 12.7 244.725 12.7533 244.725 12.82V14.76C244.725 14.8267 244.698 14.8867 244.645 14.94C244.605 14.98 244.552 15 244.485 15H235.245C235.178 15 235.118 14.98 235.065 14.94C235.025 14.8867 235.005 14.8267 235.005 14.76V1.24C235.005 1.17333 235.025 1.12 235.065 1.08C235.118 1.02667 235.178 0.999999 235.245 0.999999H244.485C244.552 0.999999 244.605 1.02667 244.645 1.08C244.698 1.12 244.725 1.17333 244.725 1.24V3.18ZM256.585 15C256.452 15 256.365 14.9333 256.325 14.8L255.725 12.84C255.698 12.7867 255.665 12.76 255.625 12.76H250.705C250.665 12.76 250.632 12.7867 250.605 12.84L250.025 14.8C249.985 14.9333 249.898 15 249.765 15H247.225C247.145 15 247.085 14.98 247.045 14.94C247.005 14.8867 246.998 14.8133 247.025 14.72L251.345 1.2C251.385 1.06667 251.472 0.999999 251.605 0.999999H254.745C254.878 0.999999 254.965 1.06667 255.005 1.2L259.325 14.72C259.338 14.7467 259.345 14.78 259.345 14.82C259.345 14.94 259.272 15 259.125 15H256.585ZM251.325 10.46C251.312 10.54 251.338 10.58 251.405 10.58H254.925C255.005 10.58 255.032 10.54 255.005 10.46L253.205 4.52C253.192 4.46667 253.172 4.44667 253.145 4.46C253.118 4.46 253.098 4.48 253.085 4.52L251.325 10.46ZM271.103 1.16C271.169 1.05333 271.263 0.999999 271.383 0.999999H273.723C273.789 0.999999 273.843 1.02667 273.883 1.08C273.936 1.12 273.963 1.17333 273.963 1.24V14.76C273.963 14.8267 273.936 14.8867 273.883 14.94C273.843 14.98 273.789 15 273.723 15H271.383C271.316 15 271.256 14.98 271.203 14.94C271.163 14.8867 271.143 14.8267 271.143 14.76V5.94C271.143 5.88667 271.129 5.86 271.103 5.86C271.076 5.86 271.049 5.88 271.023 5.92L268.903 9.24C268.836 9.34667 268.743 9.4 268.623 9.4H267.443C267.323 9.4 267.229 9.34667 267.163 9.24L265.043 5.92C265.016 5.88 264.989 5.86667 264.963 5.88C264.936 5.88 264.923 5.90667 264.923 5.96V14.76C264.923 14.8267 264.896 14.8867 264.843 14.94C264.803 14.98 264.749 15 264.683 15H262.343C262.276 15 262.216 14.98 262.163 14.94C262.123 14.8867 262.103 14.8267 262.103 14.76V1.24C262.103 1.17333 262.123 1.12 262.163 1.08C262.216 1.02667 262.276 0.999999 262.343 0.999999H264.683C264.803 0.999999 264.896 1.05333 264.963 1.16L267.963 5.82C268.003 5.9 268.043 5.9 268.083 5.82L271.103 1.16ZM28.3509 31.16C28.4175 31.0533 28.5109 31 28.6309 31H30.9709C31.0375 31 31.0909 31.0267 31.1309 31.08C31.1842 31.12 31.2109 31.1733 31.2109 31.24V44.76C31.2109 44.8267 31.1842 44.8867 31.1309 44.94C31.0909 44.98 31.0375 45 30.9709 45H28.6309C28.5642 45 28.5042 44.98 28.4509 44.94C28.4109 44.8867 28.3909 44.8267 28.3909 44.76V35.94C28.3909 35.8867 28.3775 35.86 28.3509 35.86C28.3242 35.86 28.2975 35.88 28.2709 35.92L26.1509 39.24C26.0842 39.3467 25.9909 39.4 25.8709 39.4H24.6909C24.5709 39.4 24.4775 39.3467 24.4109 39.24L22.2909 35.92C22.2642 35.88 22.2375 35.8667 22.2109 35.88C22.1842 35.88 22.1709 35.9067 22.1709 35.96V44.76C22.1709 44.8267 22.1442 44.8867 22.0909 44.94C22.0509 44.98 21.9975 45 21.9309 45H19.5909C19.5242 45 19.4642 44.98 19.4109 44.94C19.3709 44.8867 19.3509 44.8267 19.3509 44.76V31.24C19.3509 31.1733 19.3709 31.12 19.4109 31.08C19.4642 31.0267 19.5242 31 19.5909 31H21.9309C22.0509 31 22.1442 31.0533 22.2109 31.16L25.2109 35.82C25.2509 35.9 25.2909 35.9 25.3309 35.82L28.3509 31.16ZM44.3677 33.18C44.3677 33.2467 44.3411 33.3067 44.2877 33.36C44.2477 33.4 44.1944 33.42 44.1277 33.42H37.5677C37.5011 33.42 37.4677 33.4533 37.4677 33.52V36.62C37.4677 36.6867 37.5011 36.72 37.5677 36.72H41.8677C41.9344 36.72 41.9877 36.7467 42.0277 36.8C42.0811 36.84 42.1077 36.8933 42.1077 36.96V38.9C42.1077 38.9667 42.0811 39.0267 42.0277 39.08C41.9877 39.12 41.9344 39.14 41.8677 39.14H37.5677C37.5011 39.14 37.4677 39.1733 37.4677 39.24V42.48C37.4677 42.5467 37.5011 42.58 37.5677 42.58H44.1277C44.1944 42.58 44.2477 42.6067 44.2877 42.66C44.3411 42.7 44.3677 42.7533 44.3677 42.82V44.76C44.3677 44.8267 44.3411 44.8867 44.2877 44.94C44.2477 44.98 44.1944 45 44.1277 45H34.8877C34.8211 45 34.7611 44.98 34.7077 44.94C34.6677 44.8867 34.6477 44.8267 34.6477 44.76V31.24C34.6477 31.1733 34.6677 31.12 34.7077 31.08C34.7611 31.0267 34.8211 31 34.8877 31H44.1277C44.1944 31 44.2477 31.0267 44.2877 31.08C44.3411 31.12 44.3677 31.1733 44.3677 31.24V33.18ZM56.3274 31.16C56.3941 31.0533 56.4874 31 56.6074 31H58.9474C59.0141 31 59.0674 31.0267 59.1074 31.08C59.1608 31.12 59.1874 31.1733 59.1874 31.24V44.76C59.1874 44.8267 59.1608 44.8867 59.1074 44.94C59.0674 44.98 59.0141 45 58.9474 45H56.6074C56.5408 45 56.4808 44.98 56.4274 44.94C56.3874 44.8867 56.3674 44.8267 56.3674 44.76V35.94C56.3674 35.8867 56.3541 35.86 56.3274 35.86C56.3008 35.86 56.2741 35.88 56.2474 35.92L54.1274 39.24C54.0608 39.3467 53.9674 39.4 53.8474 39.4H52.6674C52.5474 39.4 52.4541 39.3467 52.3874 39.24L50.2674 35.92C50.2408 35.88 50.2141 35.8667 50.1874 35.88C50.1608 35.88 50.1474 35.9067 50.1474 35.96V44.76C50.1474 44.8267 50.1208 44.8867 50.0674 44.94C50.0274 44.98 49.9741 45 49.9074 45H47.5674C47.5008 45 47.4408 44.98 47.3874 44.94C47.3474 44.8867 47.3274 44.8267 47.3274 44.76V31.24C47.3274 31.1733 47.3474 31.12 47.3874 31.08C47.4408 31.0267 47.5008 31 47.5674 31H49.9074C50.0274 31 50.1208 31.0533 50.1874 31.16L53.1874 35.82C53.2274 35.9 53.2674 35.9 53.3074 35.82L56.3274 31.16ZM70.9243 37.7C70.8443 37.74 70.8443 37.78 70.9243 37.82C72.191 38.4733 72.8243 39.56 72.8243 41.08C72.8243 42.3733 72.3843 43.3533 71.5043 44.02C70.6243 44.6733 69.471 45 68.0443 45H62.8643C62.7976 45 62.7376 44.98 62.6843 44.94C62.6443 44.8867 62.6243 44.8267 62.6243 44.76V31.24C62.6243 31.1733 62.6443 31.12 62.6843 31.08C62.7376 31.0267 62.7976 31 62.8643 31H67.8843C71.0443 31 72.6243 32.28 72.6243 34.84C72.6243 36.1733 72.0576 37.1267 70.9243 37.7ZM65.5443 33.42C65.4776 33.42 65.4443 33.4533 65.4443 33.52V36.64C65.4443 36.7067 65.4776 36.74 65.5443 36.74H67.8843C68.511 36.74 68.9976 36.5933 69.3443 36.3C69.691 36.0067 69.8643 35.6067 69.8643 35.1C69.8643 34.58 69.691 34.1733 69.3443 33.88C68.9976 33.5733 68.511 33.42 67.8843 33.42H65.5443ZM68.0443 42.56C68.6576 42.56 69.1376 42.4067 69.4843 42.1C69.831 41.78 70.0043 41.3467 70.0043 40.8C70.0043 40.2533 69.831 39.8267 69.4843 39.52C69.1376 39.2 68.651 39.04 68.0243 39.04H65.5443C65.4776 39.04 65.4443 39.0733 65.4443 39.14V42.46C65.4443 42.5267 65.4776 42.56 65.5443 42.56H68.0443ZM85.7466 33.18C85.7466 33.2467 85.72 33.3067 85.6666 33.36C85.6266 33.4 85.5733 33.42 85.5066 33.42H78.9466C78.88 33.42 78.8466 33.4533 78.8466 33.52V36.62C78.8466 36.6867 78.88 36.72 78.9466 36.72H83.2466C83.3133 36.72 83.3666 36.7467 83.4066 36.8C83.46 36.84 83.4866 36.8933 83.4866 36.96V38.9C83.4866 38.9667 83.46 39.0267 83.4066 39.08C83.3666 39.12 83.3133 39.14 83.2466 39.14H78.9466C78.88 39.14 78.8466 39.1733 78.8466 39.24V42.48C78.8466 42.5467 78.88 42.58 78.9466 42.58H85.5066C85.5733 42.58 85.6266 42.6067 85.6666 42.66C85.72 42.7 85.7466 42.7533 85.7466 42.82V44.76C85.7466 44.8267 85.72 44.8867 85.6666 44.94C85.6266 44.98 85.5733 45 85.5066 45H76.2666C76.2 45 76.14 44.98 76.0866 44.94C76.0466 44.8867 76.0266 44.8267 76.0266 44.76V31.24C76.0266 31.1733 76.0466 31.12 76.0866 31.08C76.14 31.0267 76.2 31 76.2666 31H85.5066C85.5733 31 85.6266 31.0267 85.6666 31.08C85.72 31.12 85.7466 31.1733 85.7466 31.24V33.18ZM96.3863 45C96.253 45 96.1597 44.94 96.1063 44.82L93.6063 39.28C93.5797 39.2267 93.5397 39.2 93.4863 39.2H91.6263C91.5597 39.2 91.5263 39.2333 91.5263 39.3V44.76C91.5263 44.8267 91.4997 44.8867 91.4463 44.94C91.4063 44.98 91.353 45 91.2863 45H88.9463C88.8797 45 88.8197 44.98 88.7663 44.94C88.7263 44.8867 88.7063 44.8267 88.7063 44.76V31.24C88.7063 31.1733 88.7263 31.12 88.7663 31.08C88.8197 31.0267 88.8797 31 88.9463 31H94.6663C95.5197 31 96.2663 31.1733 96.9063 31.52C97.5597 31.8667 98.0597 32.36 98.4063 33C98.7663 33.64 98.9463 34.38 98.9463 35.22C98.9463 36.1267 98.7197 36.9067 98.2663 37.56C97.813 38.2 97.1797 38.6533 96.3663 38.92C96.2997 38.9467 96.2797 38.9933 96.3063 39.06L99.0263 44.72C99.053 44.7733 99.0663 44.8133 99.0663 44.84C99.0663 44.9467 98.993 45 98.8463 45H96.3863ZM91.6263 33.42C91.5597 33.42 91.5263 33.4533 91.5263 33.52V36.94C91.5263 37.0067 91.5597 37.04 91.6263 37.04H94.2463C94.8063 37.04 95.2597 36.8733 95.6063 36.54C95.9663 36.2067 96.1463 35.7733 96.1463 35.24C96.1463 34.7067 95.9663 34.2733 95.6063 33.94C95.2597 33.5933 94.8063 33.42 94.2463 33.42H91.6263ZM106.791 45.16C105.725 45.16 104.791 44.9933 103.991 44.66C103.191 44.3133 102.571 43.8267 102.131 43.2C101.705 42.56 101.491 41.82 101.491 40.98V40.54C101.491 40.4733 101.511 40.42 101.551 40.38C101.605 40.3267 101.665 40.3 101.731 40.3H104.011C104.078 40.3 104.131 40.3267 104.171 40.38C104.225 40.42 104.251 40.4733 104.251 40.54V40.84C104.251 41.3733 104.498 41.8267 104.991 42.2C105.485 42.56 106.151 42.74 106.991 42.74C107.698 42.74 108.225 42.5933 108.571 42.3C108.918 41.9933 109.091 41.62 109.091 41.18C109.091 40.86 108.985 40.5933 108.771 40.38C108.558 40.1533 108.265 39.96 107.891 39.8C107.531 39.6267 106.951 39.3933 106.151 39.1C105.258 38.7933 104.498 38.48 103.871 38.16C103.258 37.84 102.738 37.4067 102.311 36.86C101.898 36.3 101.691 35.6133 101.691 34.8C101.691 34 101.898 33.3 102.311 32.7C102.725 32.1 103.298 31.64 104.031 31.32C104.765 31 105.611 30.84 106.571 30.84C107.585 30.84 108.485 31.02 109.271 31.38C110.071 31.74 110.691 32.2467 111.131 32.9C111.585 33.54 111.811 34.2867 111.811 35.14V35.44C111.811 35.5067 111.785 35.5667 111.731 35.62C111.691 35.66 111.638 35.68 111.571 35.68H109.271C109.205 35.68 109.145 35.66 109.091 35.62C109.051 35.5667 109.031 35.5067 109.031 35.44V35.28C109.031 34.72 108.798 34.2467 108.331 33.86C107.878 33.46 107.251 33.26 106.451 33.26C105.825 33.26 105.331 33.3933 104.971 33.66C104.625 33.9267 104.451 34.2933 104.451 34.76C104.451 35.0933 104.551 35.3733 104.751 35.6C104.965 35.8267 105.271 36.0333 105.671 36.22C106.085 36.3933 106.718 36.6333 107.571 36.94C108.518 37.2867 109.258 37.5933 109.791 37.86C110.338 38.1267 110.825 38.5267 111.251 39.06C111.691 39.58 111.911 40.26 111.911 41.1C111.911 42.3533 111.451 43.3467 110.531 44.08C109.611 44.8 108.365 45.16 106.791 45.16ZM122.99 45C122.843 45 122.75 44.9333 122.71 44.8L119.17 31.26L119.15 31.18C119.15 31.06 119.223 31 119.37 31H121.85C121.983 31 122.07 31.0667 122.11 31.2L124.01 39.34C124.023 39.3933 124.043 39.42 124.07 39.42C124.097 39.42 124.117 39.3933 124.13 39.34L125.97 31.22C126.01 31.0733 126.097 31 126.23 31H128.65C128.797 31 128.89 31.0667 128.93 31.2L130.93 39.34C130.943 39.38 130.963 39.4067 130.99 39.42C131.017 39.42 131.037 39.3933 131.05 39.34L132.89 31.22C132.93 31.0733 133.017 31 133.15 31H135.51C135.697 31 135.77 31.0867 135.73 31.26L132.45 44.8C132.41 44.9333 132.317 45 132.17 45H129.79C129.657 45 129.57 44.9333 129.53 44.8L127.49 36.14C127.477 36.0867 127.457 36.06 127.43 36.06C127.403 36.06 127.383 36.0867 127.37 36.14L125.47 44.78C125.443 44.9267 125.357 45 125.21 45H122.99ZM142.745 45.22C141.705 45.22 140.785 45.0067 139.985 44.58C139.198 44.1533 138.585 43.56 138.145 42.8C137.705 42.0267 137.485 41.14 137.485 40.14V35.86C137.485 34.8733 137.705 34 138.145 33.24C138.585 32.48 139.198 31.8933 139.985 31.48C140.785 31.0533 141.705 30.84 142.745 30.84C143.798 30.84 144.718 31.0533 145.505 31.48C146.305 31.8933 146.925 32.48 147.365 33.24C147.805 34 148.025 34.8733 148.025 35.86V40.14C148.025 41.14 147.805 42.0267 147.365 42.8C146.925 43.5733 146.305 44.1733 145.505 44.6C144.718 45.0133 143.798 45.22 142.745 45.22ZM142.745 42.8C143.478 42.8 144.072 42.5667 144.525 42.1C144.978 41.6333 145.205 41.0133 145.205 40.24V35.84C145.205 35.0667 144.978 34.4467 144.525 33.98C144.085 33.5 143.492 33.26 142.745 33.26C142.012 33.26 141.418 33.5 140.965 33.98C140.525 34.4467 140.305 35.0667 140.305 35.84V40.24C140.305 41.0133 140.525 41.6333 140.965 42.1C141.418 42.5667 142.012 42.8 142.745 42.8ZM158.867 45C158.733 45 158.64 44.94 158.587 44.82L156.087 39.28C156.06 39.2267 156.02 39.2 155.967 39.2H154.107C154.04 39.2 154.007 39.2333 154.007 39.3V44.76C154.007 44.8267 153.98 44.8867 153.927 44.94C153.887 44.98 153.833 45 153.767 45H151.427C151.36 45 151.3 44.98 151.247 44.94C151.207 44.8867 151.187 44.8267 151.187 44.76V31.24C151.187 31.1733 151.207 31.12 151.247 31.08C151.3 31.0267 151.36 31 151.427 31H157.147C158 31 158.747 31.1733 159.387 31.52C160.04 31.8667 160.54 32.36 160.887 33C161.247 33.64 161.427 34.38 161.427 35.22C161.427 36.1267 161.2 36.9067 160.747 37.56C160.293 38.2 159.66 38.6533 158.847 38.92C158.78 38.9467 158.76 38.9933 158.787 39.06L161.507 44.72C161.533 44.7733 161.547 44.8133 161.547 44.84C161.547 44.9467 161.473 45 161.327 45H158.867ZM154.107 33.42C154.04 33.42 154.007 33.4533 154.007 33.52V36.94C154.007 37.0067 154.04 37.04 154.107 37.04H156.727C157.287 37.04 157.74 36.8733 158.087 36.54C158.447 36.2067 158.627 35.7733 158.627 35.24C158.627 34.7067 158.447 34.2733 158.087 33.94C157.74 33.5933 157.287 33.42 156.727 33.42H154.107ZM164.712 45C164.645 45 164.585 44.98 164.532 44.94C164.492 44.8867 164.472 44.8267 164.472 44.76V31.24C164.472 31.1733 164.492 31.12 164.532 31.08C164.585 31.0267 164.645 31 164.712 31H167.052C167.119 31 167.172 31.0267 167.212 31.08C167.265 31.12 167.292 31.1733 167.292 31.24V36.84C167.292 36.88 167.305 36.9067 167.332 36.92C167.359 36.92 167.385 36.9067 167.412 36.88L172.032 31.14C172.112 31.0467 172.212 31 172.332 31H174.972C175.079 31 175.145 31.0333 175.172 31.1C175.199 31.1533 175.185 31.22 175.132 31.3L170.672 37C170.632 37.0533 170.625 37.1 170.652 37.14L175.372 44.72C175.399 44.8 175.412 44.8467 175.412 44.86C175.412 44.9533 175.345 45 175.212 45H172.572C172.439 45 172.345 44.9467 172.292 44.84L168.732 39.08C168.719 39.0533 168.699 39.04 168.672 39.04C168.645 39.04 168.619 39.0533 168.592 39.08L167.332 40.66C167.305 40.7133 167.292 40.7533 167.292 40.78V44.76C167.292 44.8267 167.265 44.8867 167.212 44.94C167.172 44.98 167.119 45 167.052 45H164.712ZM187.711 33.18C187.711 33.2467 187.685 33.3067 187.631 33.36C187.591 33.4 187.538 33.42 187.471 33.42H180.911C180.845 33.42 180.811 33.4533 180.811 33.52V36.62C180.811 36.6867 180.845 36.72 180.911 36.72H185.211C185.278 36.72 185.331 36.7467 185.371 36.8C185.425 36.84 185.451 36.8933 185.451 36.96V38.9C185.451 38.9667 185.425 39.0267 185.371 39.08C185.331 39.12 185.278 39.14 185.211 39.14H180.911C180.845 39.14 180.811 39.1733 180.811 39.24V42.48C180.811 42.5467 180.845 42.58 180.911 42.58H187.471C187.538 42.58 187.591 42.6067 187.631 42.66C187.685 42.7 187.711 42.7533 187.711 42.82V44.76C187.711 44.8267 187.685 44.8867 187.631 44.94C187.591 44.98 187.538 45 187.471 45H178.231C178.165 45 178.105 44.98 178.051 44.94C178.011 44.8867 177.991 44.8267 177.991 44.76V31.24C177.991 31.1733 178.011 31.12 178.051 31.08C178.105 31.0267 178.165 31 178.231 31H187.471C187.538 31 187.591 31.0267 187.631 31.08C187.685 31.12 187.711 31.1733 187.711 31.24V33.18ZM190.911 45C190.845 45 190.785 44.98 190.731 44.94C190.691 44.8867 190.671 44.8267 190.671 44.76V31.24C190.671 31.1733 190.691 31.12 190.731 31.08C190.785 31.0267 190.845 31 190.911 31H195.911C196.911 31 197.785 31.18 198.531 31.54C199.291 31.8867 199.878 32.38 200.291 33.02C200.705 33.66 200.911 34.4 200.911 35.24V40.76C200.911 41.6 200.705 42.34 200.291 42.98C199.878 43.62 199.291 44.12 198.531 44.48C197.785 44.8267 196.911 45 195.911 45H190.911ZM193.491 42.48C193.491 42.5467 193.525 42.58 193.591 42.58H196.011C196.625 42.58 197.118 42.3733 197.491 41.96C197.878 41.5467 198.078 40.9933 198.091 40.3V35.7C198.091 35.0067 197.898 34.4533 197.511 34.04C197.138 33.6267 196.631 33.42 195.991 33.42H193.591C193.525 33.42 193.491 33.4533 193.491 33.52V42.48ZM212.138 45C211.992 45 211.898 44.9333 211.858 44.8L208.318 31.26L208.298 31.18C208.298 31.06 208.372 31 208.518 31H210.998C211.132 31 211.218 31.0667 211.258 31.2L213.158 39.34C213.172 39.3933 213.192 39.42 213.218 39.42C213.245 39.42 213.265 39.3933 213.278 39.34L215.118 31.22C215.158 31.0733 215.245 31 215.378 31H217.798C217.945 31 218.038 31.0667 218.078 31.2L220.078 39.34C220.092 39.38 220.112 39.4067 220.138 39.42C220.165 39.42 220.185 39.3933 220.198 39.34L222.038 31.22C222.078 31.0733 222.165 31 222.298 31H224.658C224.845 31 224.918 31.0867 224.878 31.26L221.598 44.8C221.558 44.9333 221.465 45 221.318 45H218.938C218.805 45 218.718 44.9333 218.678 44.8L216.638 36.14C216.625 36.0867 216.605 36.06 216.578 36.06C216.552 36.06 216.532 36.0867 216.518 36.14L214.618 44.78C214.592 44.9267 214.505 45 214.358 45H212.138ZM227.817 45C227.751 45 227.691 44.98 227.637 44.94C227.597 44.8867 227.577 44.8267 227.577 44.76V31.24C227.577 31.1733 227.597 31.12 227.637 31.08C227.691 31.0267 227.751 31 227.817 31H230.157C230.224 31 230.277 31.0267 230.317 31.08C230.371 31.12 230.397 31.1733 230.397 31.24V44.76C230.397 44.8267 230.371 44.8867 230.317 44.94C230.277 44.98 230.224 45 230.157 45H227.817ZM243.491 31C243.558 31 243.611 31.0267 243.651 31.08C243.705 31.12 243.731 31.1733 243.731 31.24V33.2C243.731 33.2667 243.705 33.3267 243.651 33.38C243.611 33.42 243.558 33.44 243.491 33.44H239.911C239.845 33.44 239.811 33.4733 239.811 33.54V44.76C239.811 44.8267 239.785 44.8867 239.731 44.94C239.691 44.98 239.638 45 239.571 45H237.231C237.165 45 237.105 44.98 237.051 44.94C237.011 44.8867 236.991 44.8267 236.991 44.76V33.54C236.991 33.4733 236.958 33.44 236.891 33.44H233.411C233.345 33.44 233.285 33.42 233.231 33.38C233.191 33.3267 233.171 33.2667 233.171 33.2V31.24C233.171 31.1733 233.191 31.12 233.231 31.08C233.285 31.0267 233.345 31 233.411 31H243.491ZM253.971 31.24C253.971 31.1733 253.991 31.12 254.031 31.08C254.084 31.0267 254.144 31 254.211 31H256.551C256.617 31 256.671 31.0267 256.711 31.08C256.764 31.12 256.791 31.1733 256.791 31.24V44.76C256.791 44.8267 256.764 44.8867 256.711 44.94C256.671 44.98 256.617 45 256.551 45H254.211C254.144 45 254.084 44.98 254.031 44.94C253.991 44.8867 253.971 44.8267 253.971 44.76V39.24C253.971 39.1733 253.937 39.14 253.871 39.14H249.451C249.384 39.14 249.351 39.1733 249.351 39.24V44.76C249.351 44.8267 249.324 44.8867 249.271 44.94C249.231 44.98 249.177 45 249.111 45H246.771C246.704 45 246.644 44.98 246.591 44.94C246.551 44.8867 246.531 44.8267 246.531 44.76V31.24C246.531 31.1733 246.551 31.12 246.591 31.08C246.644 31.0267 246.704 31 246.771 31H249.111C249.177 31 249.231 31.0267 249.271 31.08C249.324 31.12 249.351 31.1733 249.351 31.24V36.62C249.351 36.6867 249.384 36.72 249.451 36.72H253.871C253.937 36.72 253.971 36.6867 253.971 36.62V31.24Z" fill="#00B0E9"/>
</svg>
