<svg width="21" height="22" viewBox="0 0 21 22" fill="none" xmlns="http://www.w3.org/2000/svg">
<path d="M1.10297 19.3306C1.10297 19.6538 1.23137 19.9638 1.45993 20.1924C1.68849 20.4209 1.99848 20.5493 2.32172 20.5493C2.64495 20.5493 2.95494 20.4209 3.1835 20.1924L19.8447 3.53115C20.0733 3.30259 20.2017 2.9926 20.2017 2.66936C20.2017 2.34613 20.0733 2.03614 19.8447 1.80758C19.6161 1.57902 19.3062 1.45061 18.9829 1.45061C18.6597 1.45061 18.3497 1.57902 18.1211 1.80758L1.45993 18.4688C1.23137 18.6973 1.10297 19.0073 1.10297 19.3306Z" fill="#FFF0D9"/>
<path d="M20.2017 19.3306C20.2017 19.6538 20.0733 19.9638 19.8448 20.1924C19.6162 20.4209 19.3062 20.5493 18.983 20.5493C18.6597 20.5493 18.3497 20.4209 18.1212 20.1924L1.45998 3.53115C1.23142 3.30259 1.10302 2.9926 1.10302 2.66936C1.10302 2.34613 1.23142 2.03614 1.45998 1.80758C1.68854 1.57902 1.99854 1.45061 2.32177 1.45061C2.645 1.45061 2.95499 1.57902 3.18355 1.80758L19.8448 18.4688C20.0733 18.6973 20.2017 19.0073 20.2017 19.3306Z" fill="#FFF0D9"/>
</svg>
