<svg width="27" height="17" viewBox="0 0 27 17" fill="none" xmlns="http://www.w3.org/2000/svg">
<path fill-rule="evenodd" clip-rule="evenodd" d="M0.652344 1.51221C0.652344 1.18897 0.780747 0.87898 1.00931 0.65042C1.23787 0.421861 1.54786 0.293457 1.87109 0.293457H25.4336C25.7568 0.293457 26.0668 0.421861 26.2954 0.65042C26.5239 0.87898 26.6523 1.18897 26.6523 1.51221C26.6523 1.83544 26.5239 2.14543 26.2954 2.37399C26.0668 2.60255 25.7568 2.73096 25.4336 2.73096H1.87109C1.54786 2.73096 1.23787 2.60255 1.00931 2.37399C0.780747 2.14543 0.652344 1.83544 0.652344 1.51221ZM0.652344 8.41846C0.652344 8.09522 0.780747 7.78523 1.00931 7.55667C1.23787 7.32811 1.54786 7.19971 1.87109 7.19971H25.4336C25.7568 7.19971 26.0668 7.32811 26.2954 7.55667C26.5239 7.78523 26.6523 8.09522 26.6523 8.41846C26.6523 8.74169 26.5239 9.05168 26.2954 9.28024C26.0668 9.5088 25.7568 9.63721 25.4336 9.63721H1.87109C1.54786 9.63721 1.23787 9.5088 1.00931 9.28024C0.780747 9.05168 0.652344 8.74169 0.652344 8.41846ZM1.87109 14.106C1.54786 14.106 1.23787 14.2344 1.00931 14.4629C0.780747 14.6915 0.652344 15.0015 0.652344 15.3247C0.652344 15.6479 0.780747 15.9579 1.00931 16.1865C1.23787 16.4151 1.54786 16.5435 1.87109 16.5435H25.4336C25.7568 16.5435 26.0668 16.4151 26.2954 16.1865C26.5239 15.9579 26.6523 15.6479 26.6523 15.3247C26.6523 15.0015 26.5239 14.6915 26.2954 14.4629C26.0668 14.2344 25.7568 14.106 25.4336 14.106H1.87109Z" fill="#FFF0D9"/>
</svg>
