<svg width="31" height="34" viewBox="0 0 31 34" fill="none" xmlns="http://www.w3.org/2000/svg">
<path d="M26.8389 12.8494C26.7221 12.0085 24.0688 9.50231 22.282 12.8829C21.8799 13.8244 22.4275 15.4062 22.4275 15.4062C22.4275 15.4062 23.5671 17.612 21.4277 18.9983C21.4277 18.9983 22.249 19.8337 23.6563 18.6308C24.6787 16.8595 23.6062 14.9718 23.6062 14.9718C23.6062 14.9718 24.8296 16.843 24.4104 18.3633C24.4104 18.3682 24.4116 18.3731 24.4123 18.3774C24.6011 18.2537 24.8015 18.1147 25.0136 17.9587C25.2109 17.765 25.4279 17.5694 25.6142 17.4956C25.7102 17.4183 25.8086 17.3378 25.9094 17.2543C26.0842 16.8826 25.643 16.2885 25.3319 15.8571C25.3301 15.8547 25.3283 15.8522 25.3264 15.8498C25.3796 15.8047 25.4364 15.7608 25.4847 15.7322C25.5379 15.7011 25.5819 15.6347 25.5452 15.5817C25.3289 15.2673 25.2042 14.7268 25.2042 14.7268C25.1804 14.6665 25.1138 14.636 25.0563 14.6585C25.0563 14.6585 24.9506 14.6988 24.774 14.6921C24.595 14.1108 24.5186 13.4295 24.7447 12.8165C25.1468 11.8306 26.5712 12.3656 26.7386 13.2674C26.8725 13.3564 26.878 13.067 26.8389 12.8494Z" fill="#00B0E9"/>
<path d="M28.2426 25.1522C28.2457 25.0828 28.1919 25.023 28.1216 25.0194C28.1216 25.0194 27.997 25.0115 27.8216 24.9298C27.6969 23.7818 27.0467 22.7922 26.1167 22.2085C25.8221 22.2865 25.4225 22.4248 25.018 22.6643C25.7439 22.7496 26.8543 23.2608 26.8646 25.583C26.6838 23.7245 25.1854 23.2462 24.4002 23.1237C24.2181 23.2931 24.0463 23.4912 23.896 23.7209C23.9082 23.78 23.9406 23.8269 24.0127 23.8269C24.2028 23.8269 26.1796 23.8824 25.5209 25.8987C24.5823 28.3604 20.5724 26.8901 21.1755 24.5289C21.1853 24.4826 21.1969 24.4393 21.2091 24.3966C21.2054 24.3887 21.203 24.3838 21.203 24.3838C21.203 24.3838 21.3148 24.1553 21.0967 24.1943C20.9653 24.2181 20.8993 24.2839 20.8669 24.3327C20.7557 24.5776 20.4587 25.3423 20.6108 26.2143C20.8895 27.3507 21.6949 28.2794 22.7521 28.726C22.7796 28.832 22.8187 28.9972 22.8236 29.1111C22.8266 29.1806 22.8712 29.2257 22.9366 29.25C23.4933 29.4603 23.9247 29.3518 23.9247 29.3518C23.9944 29.3591 24.0567 29.3079 24.0641 29.2391C24.0641 29.2391 24.0751 29.1471 24.1368 29.0124C24.149 29.0124 24.1612 29.0124 24.1734 29.0124C24.7173 29.0124 25.2331 28.8936 25.6969 28.6809C25.78 28.7431 25.8808 28.8235 25.9425 28.8917C25.9896 28.9435 26.0525 28.9496 26.1185 28.9271C26.6819 28.7351 26.9447 28.3775 26.9447 28.3775C27.0028 28.3391 27.0186 28.2599 26.9801 28.202C26.9801 28.202 26.8952 28.071 26.8622 27.8358C27.249 27.4178 27.5405 26.9102 27.7012 26.3465C27.8057 26.3136 27.9548 26.2716 28.0605 26.2612C28.1302 26.2545 28.1724 26.207 28.1937 26.1406C28.3734 25.5745 28.2414 25.1516 28.2414 25.1516L28.2426 25.1522Z" fill="#00B0E9"/>
<path d="M29.3863 18.6807C28.0627 17.4108 25.7504 17.9623 24.4934 18.8812C23.2364 19.8 20.2543 20.4685 18.7963 18.9817C18.7963 18.9817 18.7144 19.2297 18.6777 19.6038C19.3493 20.4734 21.4716 22.5616 25.0629 20.2016C22.0815 22.5214 19.6439 21.3837 18.7804 20.8292C18.9796 21.5074 19.4703 22.213 20.5678 22.6426C20.5678 22.7115 20.5654 22.7809 20.5574 22.8364C20.547 22.9052 20.5825 22.9576 20.6424 22.9942C21.1489 23.3056 21.5926 23.2812 21.5926 23.2812C21.6592 23.3013 21.7307 23.2635 21.7509 23.1965C21.7509 23.1965 21.7936 23.0624 21.936 22.8991C22.3583 22.8839 22.7787 22.8163 23.1881 22.7133C23.2242 22.7578 23.2572 22.8023 23.281 22.8419C23.3171 22.9016 23.3782 22.9199 23.4472 22.9101C24.0369 22.8297 24.3638 22.5299 24.3638 22.5299C24.4286 22.5031 24.4592 22.4287 24.4323 22.3641C24.4323 22.3641 24.4231 22.3404 24.4127 22.2977C24.9456 22.0723 25.4351 21.8103 25.853 21.5592C25.8818 21.586 25.9087 21.6128 25.93 21.6378C25.9753 21.6908 26.0565 21.7274 26.1054 21.6774C26.3945 21.3831 26.9463 21.1503 26.9463 21.1503C27.0055 21.1132 27.0233 21.0346 26.986 20.9755C26.986 20.9755 26.9567 20.9279 26.9279 20.8396C27.1504 20.6738 27.275 20.5684 27.275 20.5684C27.275 20.5684 27.2946 20.5556 27.3306 20.5361C27.5989 20.3101 27.946 20.173 28.3249 20.173C29.1761 20.173 29.8666 20.8609 29.8666 21.7103C29.8666 21.9376 29.8165 22.1533 29.7279 22.3471C29.6912 22.4757 29.6039 22.5987 29.4951 22.7109C29.3588 22.8693 29.1908 23.0003 29.0001 23.0923C28.8302 23.1965 28.6995 23.2587 28.6995 23.2587C28.6995 23.2587 28.5821 23.4756 29.0013 23.3757C29.5372 23.2922 32.0842 21.5543 29.3869 18.6807H29.3863Z" fill="#00B0E9"/>
<path d="M4.7184 12.8494C4.83512 12.0085 7.48843 9.50231 9.27523 12.8829C9.67732 13.8244 9.12979 15.4062 9.12979 15.4062C9.12979 15.4062 7.99013 17.612 10.1295 18.9983C10.1295 18.9983 9.30823 19.8337 7.90091 18.6308C6.87857 16.8595 7.95102 14.9718 7.95102 14.9718C7.95102 14.9718 6.72764 16.843 7.14684 18.3633C7.14684 18.3682 7.14562 18.3731 7.14501 18.3774C6.95618 18.2537 6.75575 18.1147 6.5437 17.9587C6.34632 17.765 6.12939 17.5694 5.94301 17.4956C5.84707 17.4183 5.74869 17.3378 5.64786 17.2543C5.47309 16.8826 5.91429 16.2885 6.22533 15.8571C6.22716 15.8547 6.229 15.8522 6.23083 15.8498C6.17766 15.8047 6.12083 15.7608 6.07256 15.7322C6.01939 15.7011 5.9754 15.6347 6.01206 15.5817C6.22838 15.2673 6.35304 14.7268 6.35304 14.7268C6.37688 14.6665 6.44348 14.636 6.50093 14.6585C6.50093 14.6585 6.60664 14.6988 6.78325 14.6921C6.96229 14.1108 7.03868 13.4295 6.81258 12.8165C6.41049 11.8306 4.98606 12.3656 4.81862 13.2674C4.6848 13.3564 4.6793 13.067 4.7184 12.8494Z" fill="#00B0E9"/>
<path d="M3.31456 25.1522C3.3115 25.0828 3.36528 25.023 3.43555 25.0194C3.43555 25.0194 3.56021 25.0115 3.73559 24.9298C3.86025 23.7818 4.51044 22.7922 5.44051 22.2085C5.73505 22.2865 6.13469 22.4248 6.53923 22.6643C5.81326 22.7496 4.70293 23.2608 4.69254 25.583C4.87342 23.7245 6.37179 23.2462 7.15703 23.1237C7.33913 23.2931 7.51085 23.4912 7.66117 23.7209C7.64895 23.78 7.61656 23.8269 7.54446 23.8269C7.35441 23.8269 5.37756 23.8824 6.03631 25.8987C6.97493 28.3604 10.9848 26.8901 10.3817 24.5289C10.3719 24.4826 10.3603 24.4393 10.3481 24.3966C10.3518 24.3887 10.3542 24.3838 10.3542 24.3838C10.3542 24.3838 10.2424 24.1553 10.4605 24.1943C10.5919 24.2181 10.6579 24.2839 10.6903 24.3327C10.8015 24.5776 11.0985 25.3423 10.9463 26.2143C10.6677 27.3507 9.86229 28.2794 8.80512 28.726C8.77762 28.832 8.73851 28.9972 8.73362 29.1111C8.73056 29.1806 8.68595 29.2257 8.62057 29.25C8.06387 29.4603 7.63245 29.3518 7.63245 29.3518C7.56279 29.3591 7.50046 29.3079 7.49313 29.2391C7.49313 29.2391 7.48213 29.1471 7.42041 29.0124C7.40819 29.0124 7.39596 29.0124 7.38374 29.0124C6.83988 29.0124 6.32413 28.8936 5.86032 28.6809C5.77721 28.7431 5.67638 28.8235 5.61466 28.8917C5.56761 28.9435 5.50467 28.9496 5.43867 28.9271C4.87526 28.7351 4.61249 28.3775 4.61249 28.3775C4.55444 28.3391 4.53855 28.2599 4.57705 28.202C4.57705 28.202 4.66199 28.071 4.69499 27.8358C4.30817 27.4178 4.01669 26.9102 3.85597 26.3465C3.75148 26.3136 3.60238 26.2716 3.49666 26.2612C3.427 26.2545 3.38483 26.207 3.36344 26.1406C3.18378 25.5745 3.31578 25.1516 3.31578 25.1516L3.31456 25.1522Z" fill="#00B0E9"/>
<path d="M2.1707 18.6807C3.4943 17.4108 5.80663 17.9623 7.06363 18.8812C8.32062 19.8 11.3027 20.4685 12.7607 18.9817C12.7607 18.9817 12.8426 19.2297 12.8793 19.6038C12.2077 20.4734 10.0854 22.5616 6.4941 20.2016C9.47556 22.5214 11.9132 21.3837 12.7766 20.8292C12.5774 21.5074 12.0867 22.213 10.9892 22.6426C10.9892 22.7115 10.9917 22.7809 10.9996 22.8364C11.01 22.9052 10.9745 22.9576 10.9147 22.9942C10.4081 23.3056 9.96443 23.2812 9.96443 23.2812C9.89782 23.3013 9.82632 23.2635 9.80616 23.1965C9.80616 23.1965 9.76338 23.0624 9.621 22.8991C9.19874 22.8839 8.77832 22.8163 8.36889 22.7133C8.33284 22.7578 8.29984 22.8023 8.27601 22.8419C8.23996 22.9016 8.17885 22.9199 8.1098 22.9101C7.5201 22.8297 7.19317 22.5299 7.19317 22.5299C7.1284 22.5031 7.09785 22.4287 7.12473 22.3641C7.12473 22.3641 7.1339 22.3404 7.14429 22.2977C6.61143 22.0723 6.12195 21.8103 5.70397 21.5592C5.67525 21.586 5.64836 21.6128 5.62697 21.6378C5.58175 21.6908 5.50048 21.7274 5.45159 21.6774C5.16255 21.3831 4.61075 21.1503 4.61075 21.1503C4.55147 21.1132 4.53375 21.0346 4.57103 20.9755C4.57103 20.9755 4.60036 20.9279 4.62908 20.8396C4.40665 20.6738 4.28199 20.5684 4.28199 20.5684C4.28199 20.5684 4.26243 20.5556 4.22638 20.5361C3.95811 20.3101 3.61102 20.173 3.23215 20.173C2.38091 20.173 1.69039 20.8609 1.69039 21.7103C1.69039 21.9376 1.7405 22.1533 1.82911 22.3471C1.86577 22.4757 1.95316 22.5987 2.06193 22.7109C2.1982 22.8693 2.36625 23.0003 2.55691 23.0923C2.72679 23.1965 2.85756 23.2587 2.85756 23.2587C2.85756 23.2587 2.97488 23.4756 2.55568 23.3757C2.01977 23.2922 -0.527218 21.5543 2.17009 18.6807H2.1707Z" fill="#00B0E9"/>
<path d="M20.405 4.26328C21.0516 5.5301 20.8646 6.9194 19.9797 7.37884C19.0876 7.84255 17.8244 7.18446 17.1578 5.90911C16.4917 4.63376 16.675 3.22435 17.5672 2.76126C17.9198 2.57784 18.3304 2.56992 18.7398 2.70642C17.9161 2.02091 16.9384 1.30676 15.781 0.568848C15.7804 0.570676 15.7798 0.572504 15.7792 0.574332C15.7785 0.572504 15.7779 0.570676 15.7773 0.568848C10.6736 3.82334 9.06583 6.60863 8.70957 8.57315C8.89289 8.27457 9.20393 8.07775 9.55714 8.07775C10.1212 8.07775 10.5789 8.57985 10.5789 9.20016C10.5789 9.82047 10.1212 10.3226 9.55714 10.3226C9.14527 10.3226 8.79023 10.0545 8.62891 9.66874C8.6729 10.8429 9.13671 11.5449 9.15871 11.6394C9.24243 11.8313 9.70319 12.4498 9.74535 11.9483C9.64452 11.3048 10.0246 11.0574 10.3204 11.0574C10.6161 11.0574 11.7784 11.0075 12.637 12.2469C11.2627 11.8118 10.6846 12.2688 10.2813 12.5625C9.91829 12.8842 10.0637 13.0457 10.0961 13.1609C10.0961 13.2041 10.7341 14.4381 10.7341 14.4381C10.7341 14.4381 11.4717 15.7914 11.5218 15.3905C11.0696 14.5715 11.1197 13.6697 11.6892 13.5691C12.2587 13.4686 12.9877 14.797 12.9877 14.797C13.6917 16.0498 14.194 15.8243 14.194 15.8243L14.1855 15.9913C14.1097 16.1399 13.8946 16.653 13.6257 16.6859C13.4791 16.7042 13.2847 16.4787 13.0788 16.2411C12.8423 15.9681 12.5759 15.6598 12.2074 15.4745C12.0552 15.1967 12.1261 14.5441 12.2117 14.1809C12.2361 14.0773 12.1713 13.9737 12.0681 13.95C11.9642 13.9256 11.8603 13.9902 11.8365 14.0932C11.809 14.2114 11.5749 15.2613 11.9177 15.7366L11.9477 15.7774L11.9935 15.7987C12.3131 15.9456 12.5649 16.2362 12.7867 16.4928C13.044 16.7901 13.2884 17.0722 13.6062 17.0722C13.6282 17.0722 13.6502 17.071 13.6728 17.068C13.8781 17.043 14.0584 16.9217 14.2038 16.7791C14.2252 16.9406 14.2637 17.2709 14.2472 17.4116C14.2246 17.6011 13.4094 17.8461 12.8735 17.3336C12.3376 16.8212 11.8902 15.6293 10.6058 15.5848C10.3155 15.5294 10.2593 16.1028 10.2593 16.1028C10.2593 16.1028 9.9354 17.8796 10.5159 18.7705C10.6443 18.7479 10.6614 18.503 10.6614 18.503C10.6614 18.503 10.7842 17.2666 12.1249 17.79C13.9795 18.7479 14.1806 20.7307 14.1806 20.7307C14.1806 20.7307 13.6777 20.0732 13.3538 20.0178C13.0299 20.0513 13.2982 20.4413 13.2982 20.4413C13.2982 20.4413 13.4656 20.7752 13.1081 21.6106C12.7506 22.446 10.2483 25.4312 13.2811 28.9233C15.2585 31.5301 14.37 33.1174 14.37 33.1174C14.37 33.1174 14.2136 33.2734 14.3309 33.5238C14.5937 33.6408 15.286 32.8609 15.297 31.4021C15.3044 30.4387 15.0825 29.3194 14.7739 28.3438C14.8674 28.2762 14.9334 28.2512 14.9334 28.2512C14.9988 28.2274 15.033 28.1543 15.0092 28.0891C15.0092 28.0891 14.7171 27.5675 14.67 27.1587C14.6621 27.0892 14.5759 27.0691 14.5075 27.0831C14.4488 27.0953 14.3743 27.1014 14.3003 27.105C14.2826 27.0666 14.2649 27.0289 14.2472 26.9923C14.1201 26.5353 14.1048 26.071 14.1506 25.6329C14.3223 25.6195 14.4287 25.6481 14.4287 25.6481C14.4959 25.6676 14.5668 25.6286 14.5863 25.5616C14.5863 25.5616 14.6591 24.9687 14.8632 24.6104C14.8974 24.5501 14.8399 24.4824 14.7764 24.4532C14.6872 24.4124 14.5717 24.3344 14.4855 24.2716C14.6994 23.7067 14.9291 23.3375 14.9291 23.3375C14.9291 23.3375 15.1442 23.1011 15.385 22.7166C15.3502 21.9305 15.649 21.1987 15.828 21.1469C15.7437 21.5186 15.7401 21.7849 15.7706 21.975C15.7737 21.9671 15.7773 21.9591 15.7804 21.9512C15.847 22.1157 15.9222 22.2705 15.9985 22.4131C16.0016 22.4149 16.0034 22.4162 16.0034 22.4162C16.0034 22.4162 16.0034 22.418 16.0022 22.4204C16.3022 22.9755 16.631 23.3375 16.631 23.3375C16.631 23.3375 16.8608 23.7067 17.0747 24.2716C16.9879 24.3344 16.873 24.4124 16.7838 24.4532C16.7202 24.4824 16.6628 24.5495 16.697 24.6104C16.9011 24.9681 16.9738 25.5616 16.9738 25.5616C16.9934 25.6286 17.0643 25.6676 17.1315 25.6481C17.1315 25.6481 17.2372 25.6195 17.4095 25.6329C17.4554 26.0704 17.4401 26.5353 17.313 26.9923C17.2953 27.0295 17.2775 27.0666 17.2598 27.105C17.1859 27.102 17.1113 27.0953 17.0527 27.0831C16.9842 27.0691 16.8981 27.0898 16.8901 27.1587C16.8431 27.5675 16.551 28.0891 16.551 28.0891C16.5271 28.1543 16.5613 28.2274 16.6267 28.2512C16.6267 28.2512 16.6927 28.2762 16.7862 28.3438C16.477 29.32 16.2558 30.4387 16.2631 31.4021C16.2741 32.8615 16.9671 33.6408 17.2293 33.5238C17.3466 33.2734 17.1901 33.1174 17.1901 33.1174C17.1901 33.1174 16.3022 31.5301 18.2791 28.9233C21.3119 25.4312 18.8095 22.446 18.452 21.6106C18.0945 20.7752 18.262 20.4413 18.262 20.4413C18.262 20.4413 18.5302 20.0513 18.2064 20.0178C17.8825 20.0732 17.3796 20.7307 17.3796 20.7307C17.3796 20.7307 17.5806 18.7479 19.4353 17.79C20.776 17.2666 20.8988 18.503 20.8988 18.503C20.8988 18.503 20.9153 18.7479 21.0442 18.7705C21.6254 17.8796 21.3009 16.1028 21.3009 16.1028C21.3009 16.1028 21.2453 15.5294 20.9544 15.5848C19.6699 15.6293 19.2232 16.8212 18.6867 17.3336C18.1508 17.8461 17.335 17.6011 17.313 17.4116C17.2965 17.2709 17.335 16.9406 17.3564 16.7791C17.5018 16.9211 17.6821 17.0424 17.8874 17.068C17.91 17.071 17.932 17.0722 17.954 17.0722C18.2718 17.0722 18.5156 16.7901 18.7735 16.4928C18.9953 16.2362 19.247 15.9456 19.5666 15.7987L19.6125 15.7774L19.6424 15.7366C19.9852 15.2613 19.7518 14.2114 19.7237 14.0932C19.6992 13.9896 19.5954 13.9256 19.4921 13.95C19.3882 13.9743 19.324 14.0779 19.3485 14.1809C19.434 14.5441 19.5049 15.1967 19.3528 15.4745C18.9843 15.6598 18.7178 15.9681 18.4814 16.2411C18.2754 16.4793 18.0811 16.7042 17.9344 16.6859C17.6656 16.653 17.4505 16.1399 17.3747 15.9913L17.3661 15.8243C17.3661 15.8243 17.8691 16.0498 18.5724 14.797C18.5724 14.797 19.3014 13.4686 19.871 13.5691C20.4405 13.6697 20.4912 14.5715 20.0384 15.3905C20.0885 15.7914 20.8261 14.4381 20.8261 14.4381C20.8261 14.4381 21.464 13.2041 21.464 13.1609C21.4964 13.0457 21.6413 12.8842 21.2789 12.5625C20.8756 12.2688 20.2975 11.8118 18.9232 12.2469C19.7817 11.0069 20.944 11.0574 21.2398 11.0574C21.5355 11.0574 21.9156 11.3054 21.8148 11.9483C21.857 12.4498 22.3177 11.8313 22.4014 11.6394C22.4479 11.4413 24.4418 8.56462 20.4075 4.2645L20.405 4.26328ZM15.6924 7.50254C15.2133 7.50254 14.8253 7.076 14.8253 6.55014C14.8253 6.02428 15.2133 5.59774 15.6924 5.59774C16.1715 5.59774 16.5595 6.02428 16.5595 6.55014C16.5595 7.076 16.1715 7.50254 15.6924 7.50254ZM17.8122 10.0027C17.3661 10.052 16.9573 9.66874 16.8987 9.14593C16.84 8.62311 17.1547 8.15941 17.6002 8.10944C18.0463 8.06008 18.4551 8.44336 18.5137 8.96617C18.5724 9.48899 18.2577 9.9527 17.8122 10.0027Z" fill="#00B0E9"/>
</svg>
