<svg width="474" height="204" viewBox="0 0 474 204" fill="none" xmlns="http://www.w3.org/2000/svg">
<g filter="url(#filter0_d_9_5610)">
<path d="M198.379 95.7038C199.973 98.964 200.77 102.84 200.77 107.332C200.77 111.534 200.045 115.192 198.596 118.307C196.713 122.727 193.634 126.24 189.359 128.849C185.085 131.384 180.086 132.652 174.363 132.652C168.712 132.652 163.749 131.348 159.475 128.74C155.2 126.132 152.085 122.546 150.129 117.981C148.752 114.794 148.064 111.208 148.064 107.223V74.9476C148.064 71.0354 149.115 67.5942 151.216 64.6239C153.389 61.5811 156.396 59.2265 160.235 57.5602C164.148 55.8939 168.639 55.0608 173.711 55.0608C178.637 55.0608 182.984 55.8939 186.751 57.5602C190.591 59.1541 193.561 61.4724 195.662 64.5152C197.763 67.4855 198.814 70.8906 198.814 74.7303V78.4251C198.814 78.7873 198.669 79.1133 198.379 79.4031C198.162 79.6205 197.872 79.7291 197.51 79.7291H182.078C181.716 79.7291 181.39 79.6205 181.1 79.4031C180.883 79.1133 180.774 78.7873 180.774 78.4251V77.3384C180.774 75.3823 180.086 73.7522 178.709 72.4482C177.405 71.1441 175.703 70.4921 173.602 70.4921C171.429 70.4921 169.617 71.1803 168.168 72.5568C166.792 73.8609 166.104 75.5272 166.104 77.5557V86.0321C166.104 86.2494 166.176 86.3943 166.321 86.4668C166.466 86.5392 166.611 86.503 166.756 86.3581C169.581 84.1847 173.24 83.098 177.731 83.098C182.151 83.098 186.172 84.1847 189.794 86.3581C193.489 88.5315 196.35 91.6468 198.379 95.7038ZM181.1 113.526C182.187 111.86 182.73 109.904 182.73 107.658C182.73 105.339 182.151 103.275 180.992 101.463C179.47 99.29 177.297 98.2033 174.471 98.2033C171.356 98.2033 169.11 99.3262 167.734 101.572C166.719 103.166 166.212 105.194 166.212 107.658C166.212 109.904 166.683 111.86 167.625 113.526C169.002 115.989 171.247 117.221 174.363 117.221C177.333 117.221 179.579 115.989 181.1 113.526ZM239.992 133.304C231.66 133.304 225.104 130.986 220.322 126.349C215.541 121.64 213.15 115.265 213.15 107.223V80.7072C213.15 72.738 215.541 66.4713 220.322 61.9071C225.104 57.3429 231.66 55.0608 239.992 55.0608C248.323 55.0608 254.916 57.3791 259.77 62.0157C264.624 66.5799 267.051 72.8104 267.051 80.7072V107.223C267.051 115.265 264.624 121.64 259.77 126.349C254.916 130.986 248.323 133.304 239.992 133.304ZM239.992 117.764C242.745 117.764 244.918 116.931 246.512 115.265C248.178 113.526 249.011 111.171 249.011 108.201V80.0552C249.011 77.0848 248.178 74.7665 246.512 73.1002C244.918 71.3615 242.745 70.4921 239.992 70.4921C237.311 70.4921 235.174 71.3615 233.58 73.1002C231.986 74.7665 231.189 77.0848 231.189 80.0552V108.201C231.189 111.171 231.95 113.526 233.471 115.265C235.065 116.931 237.239 117.764 239.992 117.764ZM324.678 92.1177C325.04 92.1177 325.33 92.2626 325.547 92.5524C325.837 92.7697 325.982 93.0595 325.982 93.4217V106.245C325.982 106.607 325.837 106.933 325.547 107.223C325.33 107.44 325.04 107.549 324.678 107.549H310.877C310.514 107.549 310.333 107.73 310.333 108.092V121.785C310.333 122.147 310.188 122.473 309.899 122.763C309.681 122.98 309.391 123.089 309.029 123.089H296.315C295.952 123.089 295.626 122.98 295.337 122.763C295.119 122.473 295.011 122.147 295.011 121.785V108.092C295.011 107.73 294.829 107.549 294.467 107.549H280.557C280.195 107.549 279.869 107.44 279.579 107.223C279.362 106.933 279.253 106.607 279.253 106.245V93.4217C279.253 93.0595 279.362 92.7697 279.579 92.5524C279.869 92.2626 280.195 92.1177 280.557 92.1177H294.467C294.829 92.1177 295.011 91.9365 295.011 91.5743V77.6644C295.011 77.3022 295.119 77.0124 295.337 76.795C295.626 76.5052 295.952 76.3603 296.315 76.3603H309.029C309.391 76.3603 309.681 76.5052 309.899 76.795C310.188 77.0124 310.333 77.3022 310.333 77.6644V91.5743C310.333 91.9365 310.514 92.1177 310.877 92.1177H324.678Z" fill="#D9D9D9" fill-opacity="0.5" shape-rendering="crispEdges"/>
</g>
<path d="M3.63786 193V166.92H12.5979C14.5179 166.92 16.2512 167.187 17.7979 167.72C19.3712 168.227 20.6245 169.093 21.5579 170.32C22.4912 171.547 22.9579 173.213 22.9579 175.32C22.9579 177.347 22.4912 179.013 21.5579 180.32C20.6245 181.627 19.3845 182.6 17.8379 183.24C16.2912 183.853 14.5979 184.16 12.7579 184.16H9.51786V193H3.63786ZM9.51786 179.48H12.3979C15.5979 179.48 17.1979 178.093 17.1979 175.32C17.1979 173.96 16.7712 173 15.9179 172.44C15.0645 171.88 13.8379 171.6 12.2379 171.6H9.51786V179.48ZM27.466 193V171.88H35.826C37.4527 171.88 38.9327 172.093 40.266 172.52C41.626 172.92 42.7193 173.613 43.546 174.6C44.3727 175.587 44.786 176.973 44.786 178.76C44.786 180.2 44.4393 181.427 43.746 182.44C43.0793 183.453 42.186 184.253 41.066 184.84L45.986 193H39.786L35.826 186H33.346V193H27.466ZM33.346 182H35.506C36.7327 182 37.6527 181.747 38.266 181.24C38.906 180.707 39.226 180 39.226 179.12C39.226 178.16 38.8927 177.48 38.226 177.08C37.5593 176.68 36.626 176.48 35.426 176.48H33.346V182ZM59.1679 193.48C57.0879 193.48 55.2612 193.04 53.6879 192.16C52.1145 191.28 50.8745 190.013 49.9679 188.36C49.0879 186.68 48.6479 184.68 48.6479 182.36C48.6479 180.013 49.0879 178.027 49.9679 176.4C50.8745 174.773 52.1145 173.533 53.6879 172.68C55.2612 171.827 57.0879 171.4 59.1679 171.4C61.2212 171.4 63.0212 171.827 64.5679 172.68C66.1412 173.533 67.3679 174.773 68.2479 176.4C69.1545 178.027 69.6079 180.013 69.6079 182.36C69.6079 184.68 69.1545 186.68 68.2479 188.36C67.3679 190.013 66.1412 191.28 64.5679 192.16C63.0212 193.04 61.2212 193.48 59.1679 193.48ZM59.1679 188.64C60.5279 188.64 61.5945 188.08 62.3679 186.96C63.1679 185.84 63.5679 184.307 63.5679 182.36C63.5679 180.387 63.1679 178.88 62.3679 177.84C61.5945 176.773 60.5279 176.24 59.1679 176.24C57.7812 176.24 56.6879 176.773 55.8879 177.84C55.0879 178.88 54.6879 180.387 54.6879 182.36C54.6879 184.307 55.0879 185.84 55.8879 186.96C56.6879 188.08 57.7812 188.64 59.1679 188.64ZM74.5363 193V171.88H89.0163V176.68H80.4163V180.92H87.8163V185.32H80.4163V193H74.5363ZM93.5597 193V171.88H107.92V176.44H99.4397V180.12H106.72V184.4H99.4397V188.44H108.32V193H93.5597ZM120.601 193.48C118.921 193.48 117.307 193.213 115.761 192.68C114.241 192.12 112.934 191.4 111.841 190.52L114.641 186.56C115.627 187.307 116.641 187.893 117.681 188.32C118.747 188.747 119.814 188.96 120.881 188.96C121.734 188.96 122.347 188.787 122.721 188.44C123.121 188.093 123.321 187.667 123.321 187.16C123.321 186.6 123.081 186.147 122.601 185.8C122.121 185.453 121.507 185.147 120.761 184.88L118.521 184.04C117.561 183.693 116.654 183.267 115.801 182.76C114.974 182.227 114.294 181.573 113.761 180.8C113.254 180.027 113.001 179.093 113.001 178C113.001 176.667 113.347 175.507 114.041 174.52C114.734 173.507 115.707 172.733 116.961 172.2C118.214 171.64 119.667 171.36 121.321 171.36C123.054 171.36 124.547 171.64 125.801 172.2C127.081 172.76 128.174 173.387 129.081 174.08L126.201 177.84C125.427 177.307 124.614 176.867 123.761 176.52C122.934 176.147 122.067 175.96 121.161 175.96C119.641 175.96 118.881 176.533 118.881 177.68C118.881 178.16 119.107 178.547 119.561 178.84C120.041 179.133 120.667 179.427 121.441 179.72L123.641 180.52C124.681 180.867 125.614 181.28 126.441 181.76C127.294 182.24 127.974 182.867 128.481 183.64C128.987 184.413 129.241 185.427 129.241 186.68C129.241 187.96 128.894 189.12 128.201 190.16C127.534 191.173 126.547 191.987 125.241 192.6C123.961 193.187 122.414 193.48 120.601 193.48ZM140.366 193.48C138.686 193.48 137.073 193.213 135.526 192.68C134.006 192.12 132.7 191.4 131.606 190.52L134.406 186.56C135.393 187.307 136.406 187.893 137.446 188.32C138.513 188.747 139.58 188.96 140.646 188.96C141.5 188.96 142.113 188.787 142.486 188.44C142.886 188.093 143.086 187.667 143.086 187.16C143.086 186.6 142.846 186.147 142.366 185.8C141.886 185.453 141.273 185.147 140.526 184.88L138.286 184.04C137.326 183.693 136.42 183.267 135.566 182.76C134.74 182.227 134.06 181.573 133.526 180.8C133.02 180.027 132.766 179.093 132.766 178C132.766 176.667 133.113 175.507 133.806 174.52C134.5 173.507 135.473 172.733 136.726 172.2C137.98 171.64 139.433 171.36 141.086 171.36C142.82 171.36 144.313 171.64 145.566 172.2C146.846 172.76 147.94 173.387 148.846 174.08L145.966 177.84C145.193 177.307 144.38 176.867 143.526 176.52C142.7 176.147 141.833 175.96 140.926 175.96C139.406 175.96 138.646 176.533 138.646 177.68C138.646 178.16 138.873 178.547 139.326 178.84C139.806 179.133 140.433 179.427 141.206 179.72L143.406 180.52C144.446 180.867 145.38 181.28 146.206 181.76C147.06 182.24 147.74 182.867 148.246 183.64C148.753 184.413 149.006 185.427 149.006 186.68C149.006 187.96 148.66 189.12 147.966 190.16C147.3 191.173 146.313 191.987 145.006 192.6C143.726 193.187 142.18 193.48 140.366 193.48ZM153.443 193V171.88H159.323V193H153.443ZM174.754 193.48C172.674 193.48 170.847 193.04 169.274 192.16C167.7 191.28 166.46 190.013 165.554 188.36C164.674 186.68 164.234 184.68 164.234 182.36C164.234 180.013 164.674 178.027 165.554 176.4C166.46 174.773 167.7 173.533 169.274 172.68C170.847 171.827 172.674 171.4 174.754 171.4C176.807 171.4 178.607 171.827 180.154 172.68C181.727 173.533 182.954 174.773 183.834 176.4C184.74 178.027 185.194 180.013 185.194 182.36C185.194 184.68 184.74 186.68 183.834 188.36C182.954 190.013 181.727 191.28 180.154 192.16C178.607 193.04 176.807 193.48 174.754 193.48ZM174.754 188.64C176.114 188.64 177.18 188.08 177.954 186.96C178.754 185.84 179.154 184.307 179.154 182.36C179.154 180.387 178.754 178.88 177.954 177.84C177.18 176.773 176.114 176.24 174.754 176.24C173.367 176.24 172.274 176.773 171.474 177.84C170.674 178.88 170.274 180.387 170.274 182.36C170.274 184.307 170.674 185.84 171.474 186.96C172.274 188.08 173.367 188.64 174.754 188.64ZM190.122 193V171.88H196.042L201.042 181.08L203.362 186.12H203.522C203.442 185.347 203.336 184.48 203.202 183.52C203.096 182.533 203.002 181.533 202.922 180.52C202.842 179.507 202.802 178.56 202.802 177.68V171.88H208.202V193H202.442L197.242 183.76L194.962 178.76H194.802C194.936 179.987 195.082 181.373 195.242 182.92C195.429 184.44 195.522 185.867 195.522 187.2V193H190.122ZM219.62 182.8L219.22 184.44H223.34L222.9 182.8C222.633 181.787 222.367 180.693 222.1 179.52C221.86 178.32 221.593 177.2 221.3 176.16H221.14C220.9 177.227 220.647 178.347 220.38 179.52C220.14 180.693 219.887 181.787 219.62 182.8ZM211.06 193L217.86 171.88H224.86L231.7 193H225.54L224.42 188.68H218.14L217.02 193H211.06ZM234.497 193V171.88H240.377V188.2H248.777V193H234.497ZM259.741 193.48C258.061 193.48 256.448 193.213 254.901 192.68C253.381 192.12 252.075 191.4 250.981 190.52L253.781 186.56C254.768 187.307 255.781 187.893 256.821 188.32C257.888 188.747 258.955 188.96 260.021 188.96C260.875 188.96 261.488 188.787 261.861 188.44C262.261 188.093 262.461 187.667 262.461 187.16C262.461 186.6 262.221 186.147 261.741 185.8C261.261 185.453 260.648 185.147 259.901 184.88L257.661 184.04C256.701 183.693 255.795 183.267 254.941 182.76C254.115 182.227 253.435 181.573 252.901 180.8C252.395 180.027 252.141 179.093 252.141 178C252.141 176.667 252.488 175.507 253.181 174.52C253.875 173.507 254.848 172.733 256.101 172.2C257.355 171.64 258.808 171.36 260.461 171.36C262.195 171.36 263.688 171.64 264.941 172.2C266.221 172.76 267.315 173.387 268.221 174.08L265.341 177.84C264.568 177.307 263.755 176.867 262.901 176.52C262.075 176.147 261.208 175.96 260.301 175.96C258.781 175.96 258.021 176.533 258.021 177.68C258.021 178.16 258.248 178.547 258.701 178.84C259.181 179.133 259.808 179.427 260.581 179.72L262.781 180.52C263.821 180.867 264.755 181.28 265.581 181.76C266.435 182.24 267.115 182.867 267.621 183.64C268.128 184.413 268.381 185.427 268.381 186.68C268.381 187.96 268.035 189.12 267.341 190.16C266.675 191.173 265.688 191.987 264.381 192.6C263.101 193.187 261.555 193.48 259.741 193.48ZM286.745 173.24C286.745 173.72 286.812 174.227 286.945 174.76C287.105 175.293 287.319 175.827 287.585 176.36C288.519 175.8 289.305 175.213 289.945 174.6C290.585 173.987 290.905 173.24 290.905 172.36C290.905 171.747 290.759 171.253 290.465 170.88C290.172 170.507 289.719 170.32 289.105 170.32C288.439 170.32 287.879 170.587 287.425 171.12C286.972 171.627 286.745 172.333 286.745 173.24ZM287.425 193.48C285.532 193.48 283.932 193.147 282.625 192.48C281.345 191.787 280.372 190.88 279.705 189.76C279.065 188.613 278.745 187.373 278.745 186.04C278.745 184.227 279.212 182.76 280.145 181.64C281.105 180.493 282.225 179.507 283.505 178.68C282.999 177.747 282.599 176.827 282.305 175.92C282.039 174.987 281.905 174.107 281.905 173.28C281.905 172.027 282.185 170.893 282.745 169.88C283.332 168.84 284.159 168.013 285.225 167.4C286.292 166.76 287.545 166.44 288.985 166.44C290.959 166.44 292.519 166.973 293.665 168.04C294.812 169.107 295.385 170.547 295.385 172.36C295.385 173.48 295.119 174.493 294.585 175.4C294.052 176.28 293.372 177.08 292.545 177.8C291.719 178.493 290.852 179.147 289.945 179.76C290.692 180.613 291.505 181.453 292.385 182.28C293.292 183.08 294.225 183.827 295.185 184.52C295.852 183.667 296.439 182.72 296.945 181.68C297.452 180.64 297.865 179.507 298.185 178.28H303.545C303.065 179.853 302.465 181.373 301.745 182.84C301.052 184.307 300.199 185.72 299.185 187.08C300.012 187.507 300.799 187.867 301.545 188.16C302.319 188.427 303.039 188.613 303.705 188.72L302.305 193.48C301.239 193.267 300.132 192.933 298.985 192.48C297.865 192.027 296.745 191.48 295.625 190.84C294.532 191.667 293.305 192.32 291.945 192.8C290.585 193.253 289.079 193.48 287.425 193.48ZM284.305 185.68C284.305 186.667 284.665 187.467 285.385 188.08C286.105 188.693 287.039 189 288.185 189C289.279 189 290.372 188.653 291.465 187.96C290.479 187.133 289.519 186.267 288.585 185.36C287.679 184.453 286.839 183.52 286.065 182.56C285.559 183.013 285.132 183.493 284.785 184C284.465 184.507 284.305 185.067 284.305 185.68ZM327.033 193.48C324.66 193.48 322.5 192.973 320.553 191.96C318.633 190.947 317.1 189.453 315.953 187.48C314.833 185.48 314.273 183.027 314.273 180.12C314.273 177.24 314.846 174.787 315.993 172.76C317.166 170.707 318.713 169.147 320.633 168.08C322.553 166.987 324.673 166.44 326.993 166.44C328.886 166.44 330.513 166.787 331.873 167.48C333.233 168.173 334.34 168.96 335.193 169.84L332.113 173.6C331.446 173.013 330.74 172.52 329.993 172.12C329.246 171.72 328.313 171.52 327.193 171.52C325.166 171.52 323.513 172.267 322.233 173.76C320.953 175.253 320.313 177.307 320.313 179.92C320.313 182.587 320.926 184.667 322.153 186.16C323.38 187.653 325.206 188.4 327.633 188.4C328.166 188.4 328.686 188.333 329.193 188.2C329.7 188.067 330.113 187.867 330.433 187.6V183.12H326.113V178.32H335.633V190.32C334.726 191.2 333.513 191.947 331.993 192.56C330.5 193.173 328.846 193.48 327.033 193.48ZM341.021 193V171.88H349.381C351.007 171.88 352.487 172.093 353.821 172.52C355.181 172.92 356.274 173.613 357.101 174.6C357.927 175.587 358.341 176.973 358.341 178.76C358.341 180.2 357.994 181.427 357.301 182.44C356.634 183.453 355.741 184.253 354.621 184.84L359.541 193H353.341L349.381 186H346.901V193H341.021ZM346.901 182H349.061C350.287 182 351.207 181.747 351.821 181.24C352.461 180.707 352.781 180 352.781 179.12C352.781 178.16 352.447 177.48 351.781 177.08C351.114 176.68 350.181 176.48 348.981 176.48H346.901V182ZM372.723 193.48C370.643 193.48 368.816 193.04 367.243 192.16C365.669 191.28 364.429 190.013 363.523 188.36C362.643 186.68 362.203 184.68 362.203 182.36C362.203 180.013 362.643 178.027 363.523 176.4C364.429 174.773 365.669 173.533 367.243 172.68C368.816 171.827 370.643 171.4 372.723 171.4C374.776 171.4 376.576 171.827 378.123 172.68C379.696 173.533 380.923 174.773 381.803 176.4C382.709 178.027 383.163 180.013 383.163 182.36C383.163 184.68 382.709 186.68 381.803 188.36C380.923 190.013 379.696 191.28 378.123 192.16C376.576 193.04 374.776 193.48 372.723 193.48ZM372.723 188.64C374.083 188.64 375.149 188.08 375.923 186.96C376.723 185.84 377.123 184.307 377.123 182.36C377.123 180.387 376.723 178.88 375.923 177.84C375.149 176.773 374.083 176.24 372.723 176.24C371.336 176.24 370.243 176.773 369.443 177.84C368.643 178.88 368.243 180.387 368.243 182.36C368.243 184.307 368.643 185.84 369.443 186.96C370.243 188.08 371.336 188.64 372.723 188.64ZM389.259 193L385.219 171.92H390.979L392.339 181.12C392.473 182.213 392.606 183.32 392.739 184.44C392.873 185.533 393.006 186.627 393.139 187.72H393.299C393.513 186.627 393.739 185.52 393.979 184.4C394.219 183.28 394.433 182.187 394.619 181.12L396.859 171.92H401.579L403.739 181.12C403.953 182.187 404.179 183.28 404.419 184.4C404.659 185.52 404.886 186.627 405.099 187.72H405.259C405.393 186.627 405.526 185.52 405.659 184.4C405.819 183.28 405.953 182.187 406.059 181.12L407.419 171.92H412.779L408.939 193H401.859L399.899 184.64C399.579 182.96 399.313 181.32 399.099 179.72H398.939C398.833 180.493 398.713 181.307 398.579 182.16C398.446 182.987 398.273 183.813 398.059 184.64L396.219 193H389.259ZM416.411 193V171.88H422.291V193H416.411ZM428.443 193V171.88H434.363L439.363 181.08L441.683 186.12H441.843C441.763 185.347 441.656 184.48 441.523 183.52C441.416 182.533 441.323 181.533 441.243 180.52C441.163 179.507 441.123 178.56 441.123 177.68V171.88H446.523V193H440.763L435.563 183.76L433.283 178.76H433.123C433.256 179.987 433.403 181.373 433.563 182.92C433.749 184.44 433.843 185.867 433.843 187.2V193H428.443ZM462.66 193.48C460.58 193.48 458.687 193.08 456.98 192.28C455.3 191.48 453.954 190.28 452.94 188.68C451.954 187.053 451.46 185.027 451.46 182.6C451.46 180.2 451.967 178.173 452.98 176.52C454.02 174.84 455.394 173.573 457.1 172.72C458.834 171.84 460.727 171.4 462.78 171.4C464.354 171.4 465.727 171.693 466.9 172.28C468.1 172.84 469.1 173.493 469.9 174.24L466.74 177.72C466.18 177.213 465.607 176.84 465.02 176.6C464.434 176.333 463.7 176.2 462.82 176.2C461.274 176.2 459.98 176.76 458.94 177.88C457.927 178.973 457.42 180.547 457.42 182.6C457.42 184.52 457.874 186.04 458.78 187.16C459.714 188.253 461.154 188.8 463.1 188.8C463.954 188.8 464.647 188.613 465.18 188.24V184.92H461.78V180.84H470.34V190.88C469.514 191.627 468.42 192.253 467.06 192.76C465.7 193.24 464.234 193.48 462.66 193.48Z" fill="white"/>
<defs>
<filter id="filter0_d_9_5610" x="93.0642" y="0.0605469" width="287.918" height="188.243" filterUnits="userSpaceOnUse" color-interpolation-filters="sRGB">
<feFlood flood-opacity="0" result="BackgroundImageFix"/>
<feColorMatrix in="SourceAlpha" type="matrix" values="0 0 0 0 0 0 0 0 0 0 0 0 0 0 0 0 0 0 127 0" result="hardAlpha"/>
<feMorphology radius="5" operator="dilate" in="SourceAlpha" result="effect1_dropShadow_9_5610"/>
<feOffset/>
<feGaussianBlur stdDeviation="25"/>
<feComposite in2="hardAlpha" operator="out"/>
<feColorMatrix type="matrix" values="0 0 0 0 1 0 0 0 0 1 0 0 0 0 1 0 0 0 0.25 0"/>
<feBlend mode="normal" in2="BackgroundImageFix" result="effect1_dropShadow_9_5610"/>
<feBlend mode="normal" in="SourceGraphic" in2="effect1_dropShadow_9_5610" result="shape"/>
</filter>
</defs>
</svg>
