<svg width="1366" height="5400" viewBox="0 0 1366 5400" fill="none" xmlns="http://www.w3.org/2000/svg">
<path d="M1620.7 1824.45C1621.12 1824.18 1621.12 1824.18 1621.12 1824.18L1621.13 1824.19L1621.15 1824.22L1621.23 1824.34C1621.3 1824.45 1621.4 1824.62 1621.54 1824.83C1621.82 1825.26 1622.23 1825.91 1622.76 1826.75C1623.82 1828.45 1625.37 1830.95 1627.33 1834.2C1631.24 1840.71 1636.77 1850.2 1643.26 1862.16C1656.22 1886.08 1672.98 1919.85 1688.18 1959.3C1718.42 2037.82 1742.5 2138.89 1717.99 2229.42C1740.32 2214.73 1763.95 2198.4 1788.9 2180.1C1809.47 2157.37 1833.9 2138.45 1861.05 2124.22C1872.52 2115.11 1884.31 2105.34 1894.75 2095.24C1899.9 2084.21 1900.54 2071.52 1898 2057.81C1895.45 2044.07 1889.72 2029.34 1882.2 2014.32C1869.4 1988.76 1851.45 1962.42 1835.33 1938.76C1832.51 1934.62 1829.74 1930.56 1827.07 1926.6L1826.82 1926.23L1827.15 1925.94C1833.11 1920.71 1839.47 1915.94 1846.16 1911.68L1846.17 1911.68L1846.18 1911.67C1849.32 1909.85 1852.21 1906.96 1853.77 1903.76C1855.32 1900.58 1855.54 1897.14 1853.47 1894.11L1853.46 1894.1L1853.45 1894.08C1834.71 1862.48 1820.88 1828.21 1812.45 1792.44C1811.26 1789.14 1808.82 1786.43 1805.65 1784.9C1802.48 1783.38 1798.83 1783.16 1795.49 1784.31L1795.48 1784.32C1784.51 1787.87 1772.95 1789.26 1761.45 1788.4L1761.12 1788.38L1761.02 1788.07C1735.38 1715.22 1734.08 1636.02 1757.29 1562.36L1757.29 1562.34L1757.3 1562.32C1769.45 1532.59 1789.28 1514.29 1812.53 1505.31C1835.76 1496.33 1862.36 1496.67 1888.03 1504.12C1939.29 1518.99 1987.04 1562.25 1997.15 1616.69C1999.05 1617.89 2000.68 1618.41 2002.08 1618.41C2003.5 1618.41 2004.72 1617.87 2005.77 1616.85C2007.92 1614.77 2009.36 1610.73 2010.16 1605.42C2011.76 1594.83 2010.75 1579.66 2008.39 1566.66L2008.38 1566.65L2008.38 1566.64C2006.62 1554.05 2000.14 1538.31 1989.69 1521.19C1979.24 1504.07 1964.85 1485.61 1947.3 1467.56C1912.21 1431.48 1864.52 1397.1 1810.61 1378.58C1756.71 1360.07 1696.59 1357.4 1636.59 1384.7C1576.58 1412.01 1516.63 1469.31 1463.11 1570.85C1438.81 1629.08 1442.93 1705.52 1453.17 1767.47C1458.28 1798.44 1464.92 1825.76 1470.28 1845.34C1472.96 1855.13 1475.32 1862.98 1477.01 1868.39C1477.85 1871.09 1478.53 1873.18 1478.99 1874.6C1479.23 1875.3 1479.41 1875.84 1479.53 1876.2C1479.59 1876.38 1479.63 1876.52 1479.67 1876.61L1479.7 1876.71L1479.7 1876.71L1479.71 1876.73C1479.73 1876.76 1479.75 1876.81 1479.78 1876.88C1479.85 1877.01 1479.94 1877.2 1480.07 1877.45C1480.32 1877.96 1480.68 1878.72 1481.15 1879.71C1482.08 1881.7 1483.41 1884.63 1485.02 1888.43C1488.23 1896.01 1492.52 1907.03 1496.88 1920.77C1505.59 1948.25 1514.55 1986.64 1515.53 2030.25C1517.47 2117.38 1487.55 2225.34 1360.23 2308.82C1360.41 2308.99 1360.64 2309.21 1360.92 2309.48C1361.68 2310.18 1362.81 2311.19 1364.32 2312.43C1367.32 2314.91 1371.81 2318.29 1377.72 2321.9C1389.55 2329.11 1407.08 2337.22 1429.86 2340.78C1475.41 2347.9 1542.08 2336.89 1626.4 2264.08C1687.53 2157.81 1686.02 2047.99 1669.2 1964.7C1660.79 1923.05 1648.55 1888.04 1638.42 1863.45C1633.35 1851.15 1628.81 1841.46 1625.54 1834.85C1623.9 1831.54 1622.58 1829 1621.68 1827.29C1621.22 1826.43 1620.87 1825.79 1620.63 1825.35C1620.51 1825.13 1620.42 1824.97 1620.36 1824.86L1620.29 1824.74L1620.27 1824.71L1620.27 1824.7C1620.27 1824.7 1620.27 1824.7 1620.7 1824.45ZM1620.7 1824.45L1621.12 1824.18L1620.27 1824.7L1620.7 1824.45Z" stroke="#5E12B2"/>
<path d="M2125.48 3022.2L2125.51 3022.47L2125.75 3022.59C2137.07 3028.22 2149.25 3031.89 2161.78 3033.47L2161.85 3032.97L2161.88 3033.47C2163.98 3033.33 2166.09 3033.63 2168.06 3034.37C2170.03 3035.11 2171.82 3036.26 2173.31 3037.75C2174.8 3039.24 2175.95 3041.03 2176.69 3043C2177.43 3044.98 2177.74 3047.08 2177.59 3049.18L2177.59 3049.26L2177.6 3049.33C2186.97 3088.58 2184.98 3129.68 2171.87 3167.84L2171.85 3167.88L2171.85 3167.91C2171.15 3171.63 2169.27 3175.02 2166.48 3177.57C2163.69 3180.12 2160.15 3181.7 2156.38 3182.06L2156.37 3182.06L2156.36 3182.06C2141.75 3184.29 2127.35 3187.69 2113.3 3192.24L2113.05 3192.32L2112.97 3192.57C2093.57 3259.27 2058.84 3320.51 2011.56 3371.4L2011.4 3371.57L2011.43 3371.79C2013.08 3387.3 2017.82 3402.33 2025.36 3415.98L2025.37 3415.99L2025.38 3416.01C2027.52 3419.23 2028.31 3423.17 2027.58 3426.96C2026.84 3430.76 2024.64 3434.12 2021.45 3436.31L2021.4 3436.34L2021.35 3436.4C1995.42 3467.81 1961.12 3491.22 1922.42 3503.93L1922.4 3503.93L1922.38 3503.94C1918.95 3505.42 1915.15 3505.8 1911.49 3505.04C1907.84 3504.27 1904.51 3502.39 1901.96 3499.66L1901.96 3499.66L1901.95 3499.65C1892.81 3490.4 1882.94 3481.9 1872.45 3474.22L1872.21 3474.04L1871.94 3474.17C1814.72 3500.59 1752.43 3514.2 1689.4 3514.06H1689.4H1685H1684.68L1684.55 3514.35C1680.54 3523 1677.69 3532.15 1676.05 3541.54L1676.05 3541.56L1676.05 3541.58C1675.84 3543.52 1675.26 3545.4 1674.32 3547.11C1673.39 3548.82 1672.12 3550.33 1670.6 3551.54C1669.08 3552.76 1667.33 3553.66 1665.45 3554.2C1663.58 3554.74 1661.62 3554.9 1659.68 3554.67L1659.61 3554.66L1659.53 3554.67C1619.79 3561.93 1578.8 3557.71 1541.36 3542.52L1541.33 3542.51L1541.29 3542.5C1537.66 3541.58 1534.42 3539.52 1532.05 3536.62C1529.68 3533.71 1528.3 3530.12 1528.13 3526.38L1528.13 3526.37L1528.13 3526.36C1526.86 3510.63 1524.02 3495.07 1519.65 3479.9L1519.59 3479.67L1519.37 3479.58C1456.16 3452.69 1400.09 3411.44 1355.61 3359.1C1311.13 3306.76 1279.47 3244.77 1263.14 3178.06C1251.51 3101.46 1262.06 3023.13 1293.54 2952.34C1296.73 2947.88 1300.8 2944.13 1305.5 2941.32C1310.22 2938.5 1315.47 2936.69 1320.92 2936L1320.93 2936L1320.95 2936C1327.4 2934.82 1331.27 2935.67 1333.49 2937.44C1335.71 2939.21 1336.45 2942 1336.39 2945.06C1336.33 2948.11 1335.47 2951.33 1334.61 2953.81C1334.19 2955.04 1333.76 2956.08 1333.45 2956.82C1333.29 2957.18 1333.16 2957.47 1333.07 2957.66C1333.05 2957.71 1333.03 2957.75 1333.01 2957.79C1332.99 2957.83 1332.98 2957.86 1332.96 2957.89L1332.94 2957.94L1332.93 2957.96L1332.93 2957.96L1332.93 2957.96L1332.91 2958L1332.89 2958.05C1332.47 2959.64 1331.92 2961.2 1331.36 2962.8C1331.03 2963.76 1330.69 2964.73 1330.36 2965.73C1329.52 2968.35 1328.83 2971.1 1328.82 2974.03C1293.24 3116.15 1395.62 3231.22 1520.96 3273.82C1583.65 3295.12 1652.15 3298.33 1712.11 3277.72C1772.09 3257.1 1823.49 3212.66 1851.98 3138.74L1851.98 3138.73L1851.98 3138.72C1871.8 3078.07 1871.85 3032.1 1860.34 2997.26C1848.84 2962.42 1825.81 2938.77 1799.61 2922.73C1747.24 2890.67 1682.14 2888.98 1670.79 2888.98L1670.78 2888.98C1667.42 2889.07 1664.17 2887.87 1661.68 2885.63C1659.23 2883.42 1657.71 2880.37 1657.43 2877.09C1674.42 2850.96 1694.53 2827 1717.32 2805.74C1763.47 2813.04 1831.69 2831.06 1891.1 2875.03C1950.6 2919.08 2001.29 2989.18 2012.1 3100.71L2013.1 3100.66C2012.42 2960.98 1978.82 2875.74 1934.42 2824.13C1890.52 2773.11 1836.14 2755.05 1792.8 2749.73C1833.47 2725.88 1877.22 2707.73 1922.83 2695.76C1978.96 2731.41 2026.33 2779.25 2061.41 2835.73C2096.53 2892.27 2118.43 2956.01 2125.48 3022.2Z" stroke="#5E12B2"/>
<path d="M2232.19 2821.97C2232.21 2821.92 2232.23 2821.87 2232.25 2821.84L2232.28 2821.82C2232.4 2821.76 2232.58 2821.68 2232.81 2821.56C2233.28 2821.33 2233.97 2820.99 2234.86 2820.55C2236.64 2819.65 2239.22 2818.33 2242.44 2816.61C2248.87 2813.18 2257.84 2808.19 2268 2801.93C2290.68 2790.7 2310.86 2775.01 2327.34 2755.81C2340.19 2743.74 2349.88 2728.69 2355.54 2711.99C2372.87 2673.72 2376.68 2630.69 2366.34 2589.96C2356.01 2549.23 2332.12 2513.22 2298.62 2487.85C2265.12 2462.48 2223.99 2449.25 2181.98 2450.33C2139.98 2451.41 2099.6 2466.74 2067.46 2493.78L2060.74 2497.48L2060.68 2497.51L2060.64 2497.56L2060.98 2497.92C2060.64 2497.56 2060.64 2497.56 2060.64 2497.56L2060.63 2497.56L2060.63 2497.57L2060.59 2497.6L2060.47 2497.71C2060.38 2497.79 2060.27 2497.89 2060.14 2498.02L2059.95 2498.19C2059.49 2498.6 2058.81 2499.22 2057.9 2500.03C2056.09 2501.64 2053.4 2503.99 2049.87 2506.97C2042.81 2512.93 2032.41 2521.39 2019.05 2531.36L2018.76 2531.58L2018.88 2531.92C2020.78 2537.56 2023.17 2543.03 2026.02 2548.25L2026.03 2548.26L2026.04 2548.28C2028.11 2551.58 2028.8 2555.57 2027.94 2559.37C2027.08 2563.16 2024.76 2566.46 2021.49 2568.55C1984.46 2584.12 1950.15 2605.51 1919.86 2631.9L1919.85 2631.92L1919.83 2631.93C1917.12 2634.8 1913.45 2635.23 1909.72 2634.12C1905.98 2633.01 1902.25 2630.37 1899.59 2627.22L1899.58 2627.2L1899.57 2627.19L1890.43 2617.72L1890.16 2617.43L1889.81 2617.64C1834.44 2651.17 1776.79 2680.79 1717.28 2706.27L1716.92 2706.42L1716.98 2706.81C1717.43 2709.64 1718.24 2712.41 1719.38 2715.04C1720.79 2718.69 1720.73 2722.75 1719.2 2726.36C1717.67 2729.97 1714.8 2732.84 1711.19 2734.36L1711.12 2734.39L1711.07 2734.43C1679.71 2759.76 1641.75 2775.58 1601.68 2780.01L1601.65 2780.01L1601.62 2780.02C1597.96 2780.83 1594.14 2780.51 1590.67 2779.1C1587.2 2777.69 1584.24 2775.25 1582.19 2772.12C1578.74 2766.71 1575.01 2761.5 1570.99 2756.5L1570.79 2756.26L1570.48 2756.33C1521.86 2768.48 1472.09 2775.39 1422.01 2776.96L1421.8 2776.97L1421.66 2777.12C1411.95 2787.59 1404.34 2799.82 1399.23 2813.16L1399.22 2813.17L1399.21 2813.19C1398.08 2816.92 1395.51 2820.05 1392.08 2821.89C1388.64 2823.73 1384.62 2824.13 1380.88 2823.01L1380.82 2822.99L1380.75 2822.99C1340.53 2822.49 1301.24 2810.8 1267.3 2789.22L1267.27 2789.21L1267.24 2789.19C1263.83 2787.57 1261.01 2784.92 1259.18 2781.61C1257.35 2778.3 1256.6 2774.51 1257.03 2770.75L1257.04 2770.74L1257.04 2770.73C1257.58 2762.93 1257.58 2755.1 1257.04 2747.31L1257.01 2746.99L1256.72 2746.88C1126.25 2695.43 1067.4 2611.56 1043.18 2530.54C1095.3 2563.91 1193.8 2614.13 1323.6 2621.74C1454.36 2629.4 1616.84 2593.82 1795.62 2454.32L1795.04 2453.51C1579.9 2595.24 1408.9 2603.32 1281.65 2563.02C1154.49 2522.74 1070.93 2434.13 1030.65 2382.03C1032.86 2357.07 1037.52 2332.39 1044.58 2308.34C1132.22 2397.35 1265.1 2421.75 1394.83 2410.17C1524.86 2398.58 1651.86 2350.83 1727.25 2295.61C1802.48 2240.49 1909.34 2196.36 2017.2 2185.08C2125.07 2173.79 2233.87 2195.35 2313.09 2271.53C2393.84 2357.86 2435.3 2435.56 2451.12 2503.69C2466.93 2571.81 2457.1 2630.41 2435.2 2678.56C2413.31 2726.72 2379.34 2764.45 2346.87 2790.82C2330.64 2804 2314.78 2814.34 2301.01 2821.71C2287.22 2829.1 2275.55 2833.5 2267.67 2834.84L2267.66 2834.84L2267.64 2834.85C2255.14 2837.89 2246.71 2838.53 2241.08 2837.81C2235.47 2837.09 2232.73 2835.03 2231.48 2832.73C2230.21 2830.39 2230.39 2827.66 2230.93 2825.46C2231.2 2824.36 2231.55 2823.42 2231.83 2822.75C2231.97 2822.41 2232.1 2822.15 2232.19 2821.97Z" stroke="#5E12B2"/>
<path d="M32.9176 2956.49V2956.38L32.8681 2956.27L32.8678 2956.27L32.8663 2956.27L32.8599 2956.26L32.8335 2956.2C32.8102 2956.15 32.7756 2956.07 32.7313 2955.98C32.6428 2955.78 32.5156 2955.49 32.3626 2955.13C32.0565 2954.4 31.6473 2953.36 31.2369 2952.12C30.4137 2949.65 29.5963 2946.43 29.5757 2943.37C29.555 2940.31 30.3311 2937.52 32.5834 2935.75C34.845 2933.98 38.7305 2933.13 45.1884 2934.31L45.1984 2934.31L45.2084 2934.31C50.7878 2935.09 56.1294 2937.08 60.8611 2940.14C65.5826 2943.19 69.5836 2947.24 72.5866 2951.99C104.076 3022.78 114.629 3101.12 102.996 3177.72C86.8361 3244.51 55.2389 3306.58 10.7422 3358.94C-33.7589 3411.31 -89.9218 3452.51 -153.235 3479.24L-153.461 3479.33L-153.524 3479.57C-157.552 3494.81 -160.385 3510.33 -161.998 3526.01L-162 3526.03L-162 3526.04C-162.17 3529.78 -163.541 3533.37 -165.912 3536.28C-168.282 3539.18 -171.525 3541.24 -175.16 3542.16L-175.194 3542.17L-175.226 3542.18C-212.663 3557.37 -253.652 3561.59 -293.398 3554.34L-293.472 3554.32L-293.546 3554.33C-295.463 3554.56 -297.406 3554.4 -299.259 3553.86C-301.112 3553.32 -302.837 3552.41 -304.333 3551.19C-305.828 3549.97 -307.062 3548.46 -307.962 3546.75C-308.863 3545.04 -309.41 3543.17 -309.572 3541.25L-309.574 3541.23L-309.578 3541.21C-311.233 3531.77 -314.21 3522.61 -318.42 3514L-318.557 3513.72H-318.87H-323.269C-386.291 3513.83 -448.581 3500.22 -505.81 3473.83L-506.076 3473.71L-506.313 3473.88C-516.773 3481.48 -526.536 3489.99 -535.485 3499.32L-535.488 3499.32C-538.089 3502.08 -541.477 3503.98 -545.191 3504.74C-548.905 3505.51 -552.766 3505.11 -556.247 3503.61L-556.267 3503.6L-556.288 3503.59C-594.863 3490.83 -629.042 3467.42 -654.88 3436.06L-654.931 3436L-655 3435.96C-656.638 3434.93 -658.052 3433.58 -659.158 3431.99C-660.263 3430.41 -661.037 3428.61 -661.434 3426.72C-661.831 3424.83 -661.842 3422.87 -661.467 3420.98C-661.092 3419.08 -660.339 3417.28 -659.252 3415.68L-659.239 3415.66L-659.228 3415.64C-651.647 3401.98 -646.799 3386.97 -644.955 3371.46L-644.928 3371.23L-645.086 3371.06C-692.491 3320.26 -727.238 3258.99 -746.499 3192.23L-746.573 3191.98L-746.827 3191.9C-760.891 3187.39 -775.287 3183.99 -789.883 3181.73L-789.895 3181.72L-789.908 3181.72C-793.697 3181.33 -797.265 3179.74 -800.103 3177.2C-802.941 3174.66 -804.905 3171.28 -805.716 3167.56L-805.721 3167.54L-805.728 3167.51C-818.082 3129.15 -819.369 3088.07 -809.442 3049L-809.423 3048.93L-809.428 3048.85C-809.561 3046.93 -809.308 3045.01 -808.686 3043.19C-808.063 3041.37 -807.083 3039.69 -805.802 3038.26C-804.522 3036.83 -802.968 3035.67 -801.231 3034.85C-799.495 3034.02 -797.611 3033.56 -795.691 3033.47L-795.672 3033.47L-795.652 3033.47C-783.001 3031.92 -770.703 3028.25 -759.28 3022.59L-759.033 3022.47L-759.004 3022.2C-751.979 2956 -730.088 2892.25 -694.967 2835.71C-659.883 2779.22 -612.504 2731.39 -556.361 2695.76C-510.731 2707.67 -466.97 2725.83 -426.322 2749.73C-469.174 2755.05 -523.889 2773.11 -568.076 2824.13C-612.766 2875.74 -646.628 2960.98 -646.628 3100.66L-645.631 3100.71C-634.815 2989.17 -584.551 2919.08 -525.266 2875.03C-466.063 2831.05 -397.836 2813.04 -350.844 2805.74C-327.949 2826.99 -307.725 2850.95 -290.619 2877.08C-290.985 2880.39 -292.572 2883.45 -295.071 2885.65C-297.615 2887.89 -300.914 2889.08 -304.303 2888.98L-304.31 2888.98H-304.317C-315.671 2888.98 -380.684 2890.67 -433.011 2922.73C-459.19 2938.77 -482.21 2962.42 -493.729 2997.26C-505.247 3032.1 -505.248 3078.07 -485.513 3138.72L-485.509 3138.73L-485.504 3138.74C-457.362 3212.66 -406.168 3257.1 -346.318 3277.69C-286.483 3298.28 -218.026 3295.02 -155.332 3273.6C-29.9766 3230.79 72.5825 3115.27 36.9656 2972.28C36.4606 2970.14 35.7662 2968.07 35.1003 2966.1C34.8657 2965.4 34.6345 2964.71 34.4164 2964.04C33.5728 2961.42 32.9176 2958.94 32.9176 2956.49Z" stroke="#5E12B2"/>
<path d="M-694.198 2498.9C-694.198 2498.9 -694.198 2498.9 -694.525 2499.28L-694.198 2498.9L-694.238 2498.86L-694.284 2498.84L-701.008 2495.14C-727.969 2472.19 -760.94 2457.45 -796.019 2452.66C-831.115 2447.86 -866.85 2453.23 -898.989 2468.12C-931.129 2483.01 -958.326 2506.8 -977.359 2536.68C-996.392 2566.55 -1006.46 2601.26 -1006.38 2636.68C-1006.4 2663.17 -1000.61 2689.34 -989.422 2713.35C-983.884 2730.02 -974.315 2745.07 -961.565 2757.17C-944.954 2775.88 -924.78 2791.1 -902.222 2801.93C-890.544 2809.18 -878.5 2815.82 -866.139 2821.83C-866.136 2821.84 -866.133 2821.85 -866.13 2821.85C-866.114 2821.88 -866.097 2821.92 -866.077 2821.96C-865.991 2822.14 -865.87 2822.41 -865.733 2822.74C-865.459 2823.41 -865.122 2824.36 -864.871 2825.45C-864.364 2827.65 -864.221 2830.38 -865.529 2832.72C-866.822 2835.03 -869.61 2837.09 -875.255 2837.81C-880.91 2838.53 -889.366 2837.89 -901.863 2834.85L-901.88 2834.84L-901.898 2834.84C-909.858 2833.5 -921.606 2829.1 -935.455 2821.71C-949.294 2814.34 -965.203 2804 -981.482 2790.82C-1014.04 2764.45 -1048.06 2726.72 -1069.98 2678.56C-1091.89 2630.41 -1101.71 2571.81 -1085.86 2503.69C-1070.01 2435.56 -1028.49 2357.86 -947.651 2271.53C-868.6 2195.35 -759.882 2173.71 -652.062 2184.95C-544.237 2196.19 -437.378 2240.33 -362.148 2295.61C-286.762 2351 -159.677 2398.75 -29.5604 2410.3C100.253 2421.83 233.208 2397.35 320.849 2308.35C327.684 2332.43 332.239 2357.1 334.455 2382.03C294.337 2434.8 210.778 2523.42 83.5796 2563.52C-43.7146 2603.66 -214.804 2595.24 -429.939 2453.51L-430.521 2454.32C-251.74 2593.65 -89.2618 2629.48 41.4976 2621.99C171.297 2614.55 269.798 2564.42 321.927 2530.55C298.032 2611.57 239.193 2695.45 111.412 2749.93L111.13 2750.05L111.109 2750.35C110.562 2758.15 110.562 2765.98 111.109 2773.77L111.11 2773.79L111.113 2773.81C111.626 2777.53 110.947 2781.32 109.173 2784.63C107.398 2787.94 104.62 2790.61 101.238 2792.24L101.212 2792.25L101.187 2792.27C67.1305 2813.87 27.7286 2825.57 -12.6006 2826.03L-12.6656 2826.03L-12.7284 2826.05C-16.4629 2827.09 -20.4528 2826.64 -23.8689 2824.81C-27.2849 2822.98 -29.8645 2819.91 -31.0717 2816.23L-31.0753 2816.21L-31.0795 2816.2C-36.1313 2802.92 -43.6252 2790.7 -53.1741 2780.17L-53.3151 2780.02L-53.5247 2780.01C-104.235 2778.01 -154.58 2770.52 -203.68 2757.69L-204.005 2757.6L-204.206 2757.87L-204.214 2757.88C-208.27 2763.29 -212.339 2768.72 -215.395 2773.47L-215.398 2773.47C-217.361 2776.62 -220.255 2779.07 -223.678 2780.48C-227.101 2781.9 -230.881 2782.21 -234.49 2781.37L-234.518 2781.37L-234.547 2781.36C-274.702 2776.87 -312.755 2761.06 -344.279 2735.78L-344.333 2735.74L-344.398 2735.71C-346.183 2734.96 -347.802 2733.87 -349.163 2732.49C-350.524 2731.11 -351.6 2729.48 -352.33 2727.69C-353.06 2725.89 -353.428 2723.97 -353.415 2722.04C-353.402 2720.1 -353.007 2718.19 -352.253 2716.4L-352.247 2716.39L-352.242 2716.37C-351.309 2713.69 -350.514 2710.96 -349.858 2708.2L-349.761 2707.79L-350.148 2707.62C-409.658 2682.14 -467.311 2652.52 -522.684 2618.99L-523.001 2618.8L-523.277 2619.04C-526.608 2622.04 -529.778 2625.21 -532.771 2628.54C-535.457 2630.88 -539.114 2633.53 -542.823 2634.85C-546.535 2636.17 -550.193 2636.13 -553.047 2633.28L-553.06 2633.26L-553.073 2633.25C-583.366 2606.87 -617.673 2585.48 -654.702 2569.9C-656.353 2568.9 -657.787 2567.58 -658.918 2566.01C-660.055 2564.44 -660.862 2562.65 -661.29 2560.76C-661.718 2558.86 -661.758 2556.9 -661.407 2554.99C-661.057 2553.08 -660.323 2551.26 -659.25 2549.64L-659.238 2549.62L-659.227 2549.6C-656.422 2544.39 -654.142 2538.92 -652.42 2533.26L-652.32 2532.94L-652.59 2532.72C-665.954 2522.24 -676.357 2513.78 -683.419 2507.94C-686.95 2505.02 -689.645 2502.76 -691.458 2501.23C-692.364 2500.46 -693.049 2499.88 -693.508 2499.49C-693.737 2499.29 -693.91 2499.14 -694.025 2499.05L-694.155 2498.93L-694.188 2498.91L-694.196 2498.9L-694.198 2498.9L-694.198 2498.9Z" stroke="#5E12B2"/>
<mask id="path-6-inside-1_197_3556" fill="white">
<path d="M980.017 2482.69C980.017 2482.69 1013.86 2435.99 973.249 2431.92C934.668 2438.35 874.428 2517.55 874.428 2517.55C885.165 2443.59 912.991 2373.15 955.699 2311.82C998.407 2250.49 1054.82 2199.95 1120.46 2164.23C1281.22 2101.28 1296.11 2249.17 1296.11 2249.17C1296.11 2249.17 1296.11 2278.62 1313.37 2283.02C1383.08 2175.74 1344.16 1962.19 1344.16 1962.19C1344.16 1962.19 1337.4 1894.5 1302.54 1899.92C1148.55 1905.33 1095.08 2048.49 1031.8 2110.08C968.511 2171.67 870.029 2143.92 867.321 2119.56C866.909 2094.08 868.607 2068.61 872.398 2043.41C889.361 2061.31 911.698 2073.19 936.022 2077.25H944.144C982.048 2077.25 1011.83 2043.41 1042.29 2009.57C1067.78 1975.35 1100.18 1946.87 1137.39 1925.98L1142.8 1923.61L1146.52 1918.53C1187.47 1861.34 1159.38 1735.1 1156 1720.89C1155.33 1717.94 1154.07 1715.15 1152.3 1712.69C1150.53 1710.23 1148.28 1708.15 1145.7 1706.57C1143.11 1704.99 1140.23 1703.95 1137.24 1703.5C1134.24 1703.06 1131.18 1703.21 1128.25 1703.97C1122.31 1705.42 1117.18 1709.13 1113.95 1714.32C1110.73 1719.51 1109.66 1725.76 1110.99 1731.72C1121.48 1775.38 1129.94 1853.55 1110.99 1887.06C1070.4 1910.39 1034.76 1941.43 1006.08 1978.43C981.371 2007.2 958.358 2034.27 940.76 2031.9C908.609 2028.18 882.551 1966.59 873.075 1948.65V1928.35C873.075 1928.35 933.315 1955.42 1017.58 1804.82C1017.58 1804.82 1104.9 1645.42 1173.26 1657.27C1241.62 1669.11 1247.37 1777.75 1193.23 1876.23C1199.32 1924.28 1287.65 1761.84 1287.65 1761.84C1287.65 1761.84 1363.79 1612.93 1363.79 1606.16C1367.52 1592.29 1385.11 1572.32 1341.46 1534.42C1297.8 1496.51 1224.36 1445.41 1059.21 1497.87C1088.87 1451.78 1130.11 1414.3 1178.82 1389.17C1227.52 1364.05 1281.98 1352.16 1336.72 1354.71C1372.25 1354.71 1417.94 1384.49 1404.4 1461.99C1409.48 1522.23 1464.64 1447.78 1474.8 1424.77C1484.95 1401.75 1719.14 1055.2 1235.53 538.426C1313.03 690.718 1290.69 857.563 1184.77 913.065C1078.84 968.567 926.546 889.375 846.339 736.406C766.132 583.437 788.468 413.547 895.411 358.045C917.135 347.439 940.791 341.369 964.938 340.206C989.084 339.042 1013.21 342.809 1035.86 351.276C923.659 258.391 805.77 172.602 682.879 94.4102C70.6645 485.632 -121.9 820.336 -163.189 1056.22C-152.806 1038.43 -138.001 1023.63 -120.212 1013.26C-102.423 1002.88 -82.2531 997.278 -61.6605 996.995C-44.7208 997.818 -28.11 1001.98 -12.7795 1009.23C2.55107 1016.48 16.3002 1026.69 27.6804 1039.26C39.0605 1051.84 47.8481 1066.53 53.5399 1082.51C59.2317 1098.49 61.7158 1115.43 60.8501 1132.37C62.5076 1166.55 50.5419 1200 27.5764 1225.37C4.61094 1250.75 -27.4801 1265.98 -61.6605 1267.74C-85.9464 1267.11 -109.499 1259.28 -129.325 1245.24C-149.15 1231.2 -164.354 1211.58 -173.003 1188.88C-169.604 1271.59 -147.872 1352.5 -109.379 1425.78C-99.5643 1448.79 -44.0623 1523.25 -39.3243 1463.01C-51.1692 1385.51 -5.48159 1355.73 28.3611 1355.73C83.1512 1353.19 137.648 1365.07 186.406 1390.19C235.164 1415.31 276.475 1452.79 306.21 1498.88C141.396 1446.43 72.0182 1501.59 23.6231 1536.79C-24.7719 1571.98 -2.43579 1594.66 1.62534 1608.53C1.62534 1613.95 78.1099 1762.18 78.1099 1762.18C78.1099 1762.18 166.439 1924.62 172.193 1876.57C118.044 1778.08 124.136 1669.79 192.498 1657.6C260.86 1645.42 348.175 1805.16 348.175 1805.16C432.443 1955.76 492.683 1928.68 492.683 1928.68V1948.99C483.545 1966.93 458.84 2028.52 424.997 2032.24C407.399 2034.61 384.048 2007.54 359.343 1978.77C330.907 1941.48 295.364 1910.2 254.769 1886.72C236.494 1852.88 245.293 1775.04 254.769 1731.38C256.339 1725.32 255.439 1718.89 252.266 1713.49C249.092 1708.1 243.906 1704.19 237.847 1702.61C231.789 1701.04 225.354 1701.94 219.96 1705.12C214.565 1708.29 210.652 1713.48 209.081 1719.54C205.697 1733.75 177.607 1859.98 218.895 1917.18L222.28 1922.25L228.033 1924.62C265.174 1945.61 297.556 1974.07 323.131 2008.21C353.928 2042.06 383.032 2075.9 421.275 2075.9H429.059C453.407 2071.91 475.766 2060.02 492.683 2042.06C496.579 2067.25 498.39 2092.72 498.098 2118.2C495.39 2140.88 396.569 2170.32 333.284 2108.73C269.998 2047.13 215.511 1905.67 62.5422 1898.56C28.6995 1892.13 20.9157 1960.83 20.9157 1960.83C20.9157 1960.83 -17.665 2174.72 51.7125 2283.02C67.2801 2280.31 69.3107 2249.17 69.3107 2249.17C69.3107 2249.17 83.8631 2100.6 244.616 2163.55C310.34 2199.22 366.834 2249.73 409.605 2311.06C452.376 2372.4 480.244 2442.87 490.991 2516.87C490.991 2516.87 430.751 2437.68 391.832 2431.25C352.913 2435.31 385.063 2482.01 385.063 2482.01C385.063 2482.01 405.369 2522.28 362.388 2622.46C319.408 2722.63 19.562 3081.7 383.032 3502.37C619.931 3815.75 513.665 4006.29 513.665 4006.29C508.023 4013.04 504.552 4021.33 503.707 4030.09C502.861 4038.85 504.681 4047.65 508.927 4055.36C540.401 4069.23 623.654 3975.83 624.669 3800.18C624.669 3777.17 624.669 3753.14 621.962 3728.44C621.962 3716.25 619.931 3704.07 618.239 3691.55C616.547 3679.03 614.178 3657.71 611.471 3641.46C611.471 3631.31 608.425 3621.16 606.394 3610.67C604.364 3600.17 601.318 3583.93 598.61 3570.39V3565.99C592.18 3536.89 585.073 3508.46 577.29 3480.03C577.29 3477.66 577.29 3475.29 574.921 3472.59C571.198 3459.05 567.137 3445.85 563.076 3432.65C569.026 3428.16 575.504 3424.41 582.366 3421.48C586.113 3420.11 589.171 3417.32 590.88 3413.71C592.589 3410.1 592.813 3405.97 591.503 3402.19C572.028 3367.25 558.207 3329.44 550.554 3290.18C550.554 3282.05 539.386 3279.35 531.263 3281.04C522.993 3282.55 514.623 3283.46 506.22 3283.75L500.128 3270.21C486.016 3216.94 481.999 3161.5 488.283 3106.75C499.491 3104.93 510.918 3104.93 522.126 3106.75C524.031 3107.06 525.974 3107.06 527.879 3106.75C530.781 3106.22 533.494 3104.94 535.749 3103.04C538.005 3101.14 539.725 3098.69 540.739 3095.92C545.722 3056.2 557.153 3017.56 574.582 2981.53C578.643 2974.42 571.536 2966.3 564.091 2962.92C552.148 2956.92 540.814 2949.78 530.248 2941.6C544.088 2903.21 561.185 2866.07 581.351 2830.59C610.514 2796.85 635.827 2759.96 656.82 2720.6C660.543 2714.17 663.927 2707.07 667.311 2699.96L682.54 2666.12C690.171 2684.82 698.756 2703.12 708.261 2720.94C729.549 2760.17 755.084 2796.94 784.407 2830.59C805.546 2866.37 823.441 2903.98 837.878 2942.95C827.178 2951.14 815.864 2958.49 804.036 2964.95C796.59 2968.33 789.822 2976.45 793.883 2983.56C811.141 3019.66 822.564 3058.27 827.725 3097.95C828.271 3099.89 829.195 3101.7 830.446 3103.28C831.696 3104.86 833.248 3106.18 835.011 3107.15C836.773 3108.13 838.712 3108.74 840.715 3108.96C842.718 3109.19 844.744 3109.01 846.677 3108.44C857.757 3105.82 869.206 3105.13 880.52 3106.41C886.955 3161.14 883.052 3216.58 869.014 3269.87C866.645 3274.27 864.614 3278.67 862.583 3283.41C854.293 3283.12 846.035 3282.21 837.878 3280.7C829.418 3280.7 819.265 3280.7 818.249 3289.84C810.648 3329.07 796.945 3366.87 777.638 3401.86C776.943 3403.72 776.629 3405.71 776.715 3407.69C776.8 3409.68 777.282 3411.63 778.134 3413.43C778.986 3415.23 780.19 3416.84 781.674 3418.16C783.158 3419.49 784.893 3420.5 786.776 3421.15C793.504 3424.12 799.864 3427.87 805.728 3432.31C766.694 3551.03 745.592 3674.9 743.119 3799.85C743.119 3975.49 827.387 4070.59 858.861 4055.02C863.201 4047.34 865.075 4038.52 864.227 4029.74C863.379 4020.96 859.852 4012.65 854.123 4005.95C854.123 4005.95 747.857 3815.41 984.755 3502.03C1348.23 3082.38 1048.38 2723.65 1005.4 2622.12C962.419 2520.59 980.017 2482.69 980.017 2482.69ZM672.387 929.309C643.445 927.907 616.244 915.07 596.762 893.621C577.28 872.172 567.111 843.864 568.49 814.921C567.331 800.572 569.157 786.139 573.852 772.53C578.548 758.922 586.011 746.433 595.772 735.852C605.533 725.271 617.38 716.826 630.566 711.051C643.752 705.275 657.992 702.293 672.387 702.293C686.783 702.293 701.023 705.275 714.209 711.051C727.395 716.826 739.242 725.271 749.003 735.852C758.764 746.433 766.227 758.922 770.923 772.53C775.618 786.139 777.444 800.572 776.284 814.921C777.574 843.841 767.374 872.098 747.91 893.527C728.447 914.956 701.298 927.819 672.387 929.309ZM818.249 1125.26C814.25 1111.43 813.32 1096.9 815.523 1082.67C817.727 1068.45 823.01 1054.88 831.005 1042.91C839 1030.94 849.513 1020.86 861.809 1013.38C874.105 1005.9 887.887 1001.19 902.191 999.594C916.495 997.994 930.976 999.537 944.622 1004.12C958.267 1008.7 970.747 1016.2 981.19 1026.11C991.632 1036.01 999.785 1048.08 1005.08 1061.47C1010.37 1074.85 1012.67 1089.23 1011.83 1103.6C1015.83 1117.43 1016.76 1131.96 1014.56 1146.18C1012.35 1160.41 1007.07 1173.98 999.074 1185.95C991.079 1197.92 980.566 1207.99 968.27 1215.48C955.974 1222.96 942.192 1227.66 927.888 1229.26C913.584 1230.86 899.103 1229.32 885.458 1224.74C871.812 1220.16 859.332 1212.66 848.889 1202.75C838.447 1192.84 830.294 1180.78 825.002 1167.39C819.71 1154.01 817.405 1139.63 818.249 1125.26Z"/>
</mask>
<path d="M980.017 2482.69C980.017 2482.69 1013.86 2435.99 973.249 2431.92C934.668 2438.35 874.428 2517.55 874.428 2517.55C885.165 2443.59 912.991 2373.15 955.699 2311.82C998.407 2250.49 1054.82 2199.95 1120.46 2164.23C1281.22 2101.28 1296.11 2249.17 1296.11 2249.17C1296.11 2249.17 1296.11 2278.62 1313.37 2283.02C1383.08 2175.74 1344.16 1962.19 1344.16 1962.19C1344.16 1962.19 1337.4 1894.5 1302.54 1899.92C1148.55 1905.33 1095.08 2048.49 1031.8 2110.08C968.511 2171.67 870.029 2143.92 867.321 2119.56C866.909 2094.08 868.607 2068.61 872.398 2043.41C889.361 2061.31 911.698 2073.19 936.022 2077.25H944.144C982.048 2077.25 1011.83 2043.41 1042.29 2009.57C1067.78 1975.35 1100.18 1946.87 1137.39 1925.98L1142.8 1923.61L1146.52 1918.53C1187.47 1861.34 1159.38 1735.1 1156 1720.89C1155.33 1717.94 1154.07 1715.15 1152.3 1712.69C1150.53 1710.23 1148.28 1708.15 1145.7 1706.57C1143.11 1704.99 1140.23 1703.95 1137.24 1703.5C1134.24 1703.06 1131.18 1703.21 1128.25 1703.97C1122.31 1705.42 1117.18 1709.13 1113.95 1714.32C1110.73 1719.51 1109.66 1725.76 1110.99 1731.72C1121.48 1775.38 1129.94 1853.55 1110.99 1887.06C1070.4 1910.39 1034.76 1941.43 1006.08 1978.43C981.371 2007.2 958.358 2034.27 940.76 2031.9C908.609 2028.18 882.551 1966.59 873.075 1948.65V1928.35C873.075 1928.35 933.315 1955.42 1017.58 1804.82C1017.58 1804.82 1104.9 1645.42 1173.26 1657.27C1241.62 1669.11 1247.37 1777.75 1193.23 1876.23C1199.32 1924.28 1287.65 1761.84 1287.65 1761.84C1287.65 1761.84 1363.79 1612.93 1363.79 1606.16C1367.52 1592.29 1385.11 1572.32 1341.46 1534.42C1297.8 1496.51 1224.36 1445.41 1059.21 1497.87C1088.87 1451.78 1130.11 1414.3 1178.82 1389.17C1227.52 1364.05 1281.98 1352.16 1336.72 1354.71C1372.25 1354.71 1417.94 1384.49 1404.4 1461.99C1409.48 1522.23 1464.64 1447.78 1474.8 1424.77C1484.95 1401.75 1719.14 1055.2 1235.53 538.426C1313.03 690.718 1290.69 857.563 1184.77 913.065C1078.84 968.567 926.546 889.375 846.339 736.406C766.132 583.437 788.468 413.547 895.411 358.045C917.135 347.439 940.791 341.369 964.938 340.206C989.084 339.042 1013.21 342.809 1035.86 351.276C923.659 258.391 805.77 172.602 682.879 94.4102C70.6645 485.632 -121.9 820.336 -163.189 1056.22C-152.806 1038.43 -138.001 1023.63 -120.212 1013.26C-102.423 1002.88 -82.2531 997.278 -61.6605 996.995C-44.7208 997.818 -28.11 1001.98 -12.7795 1009.23C2.55107 1016.48 16.3002 1026.69 27.6804 1039.26C39.0605 1051.84 47.8481 1066.53 53.5399 1082.51C59.2317 1098.49 61.7158 1115.43 60.8501 1132.37C62.5076 1166.55 50.5419 1200 27.5764 1225.37C4.61094 1250.75 -27.4801 1265.98 -61.6605 1267.74C-85.9464 1267.11 -109.499 1259.28 -129.325 1245.24C-149.15 1231.2 -164.354 1211.58 -173.003 1188.88C-169.604 1271.59 -147.872 1352.5 -109.379 1425.78C-99.5643 1448.79 -44.0623 1523.25 -39.3243 1463.01C-51.1692 1385.51 -5.48159 1355.73 28.3611 1355.73C83.1512 1353.19 137.648 1365.07 186.406 1390.19C235.164 1415.31 276.475 1452.79 306.21 1498.88C141.396 1446.43 72.0182 1501.59 23.6231 1536.79C-24.7719 1571.98 -2.43579 1594.66 1.62534 1608.53C1.62534 1613.95 78.1099 1762.18 78.1099 1762.18C78.1099 1762.18 166.439 1924.62 172.193 1876.57C118.044 1778.08 124.136 1669.79 192.498 1657.6C260.86 1645.42 348.175 1805.16 348.175 1805.16C432.443 1955.76 492.683 1928.68 492.683 1928.68V1948.99C483.545 1966.93 458.84 2028.52 424.997 2032.24C407.399 2034.61 384.048 2007.54 359.343 1978.77C330.907 1941.48 295.364 1910.2 254.769 1886.72C236.494 1852.88 245.293 1775.04 254.769 1731.38C256.339 1725.32 255.439 1718.89 252.266 1713.49C249.092 1708.1 243.906 1704.19 237.847 1702.61C231.789 1701.04 225.354 1701.94 219.96 1705.12C214.565 1708.29 210.652 1713.48 209.081 1719.54C205.697 1733.75 177.607 1859.98 218.895 1917.18L222.28 1922.25L228.033 1924.62C265.174 1945.61 297.556 1974.07 323.131 2008.21C353.928 2042.06 383.032 2075.9 421.275 2075.9H429.059C453.407 2071.91 475.766 2060.02 492.683 2042.06C496.579 2067.25 498.39 2092.72 498.098 2118.2C495.39 2140.88 396.569 2170.32 333.284 2108.73C269.998 2047.13 215.511 1905.67 62.5422 1898.56C28.6995 1892.13 20.9157 1960.83 20.9157 1960.83C20.9157 1960.83 -17.665 2174.72 51.7125 2283.02C67.2801 2280.31 69.3107 2249.17 69.3107 2249.17C69.3107 2249.17 83.8631 2100.6 244.616 2163.55C310.34 2199.22 366.834 2249.73 409.605 2311.06C452.376 2372.4 480.244 2442.87 490.991 2516.87C490.991 2516.87 430.751 2437.68 391.832 2431.25C352.913 2435.31 385.063 2482.01 385.063 2482.01C385.063 2482.01 405.369 2522.28 362.388 2622.46C319.408 2722.63 19.562 3081.7 383.032 3502.37C619.931 3815.75 513.665 4006.29 513.665 4006.29C508.023 4013.04 504.552 4021.33 503.707 4030.09C502.861 4038.85 504.681 4047.65 508.927 4055.36C540.401 4069.23 623.654 3975.83 624.669 3800.18C624.669 3777.17 624.669 3753.14 621.962 3728.44C621.962 3716.25 619.931 3704.07 618.239 3691.55C616.547 3679.03 614.178 3657.71 611.471 3641.46C611.471 3631.31 608.425 3621.16 606.394 3610.67C604.364 3600.17 601.318 3583.93 598.61 3570.39V3565.99C592.18 3536.89 585.073 3508.46 577.29 3480.03C577.29 3477.66 577.29 3475.29 574.921 3472.59C571.198 3459.05 567.137 3445.85 563.076 3432.65C569.026 3428.16 575.504 3424.41 582.366 3421.48C586.113 3420.11 589.171 3417.32 590.88 3413.71C592.589 3410.1 592.813 3405.97 591.503 3402.19C572.028 3367.25 558.207 3329.44 550.554 3290.18C550.554 3282.05 539.386 3279.35 531.263 3281.04C522.993 3282.55 514.623 3283.46 506.22 3283.75L500.128 3270.21C486.016 3216.94 481.999 3161.5 488.283 3106.75C499.491 3104.93 510.918 3104.93 522.126 3106.75C524.031 3107.06 525.974 3107.06 527.879 3106.75C530.781 3106.22 533.494 3104.94 535.749 3103.04C538.005 3101.14 539.725 3098.69 540.739 3095.92C545.722 3056.2 557.153 3017.56 574.582 2981.53C578.643 2974.42 571.536 2966.3 564.091 2962.92C552.148 2956.92 540.814 2949.78 530.248 2941.6C544.088 2903.21 561.185 2866.07 581.351 2830.59C610.514 2796.85 635.827 2759.96 656.82 2720.6C660.543 2714.17 663.927 2707.07 667.311 2699.96L682.54 2666.12C690.171 2684.82 698.756 2703.12 708.261 2720.94C729.549 2760.17 755.084 2796.94 784.407 2830.59C805.546 2866.37 823.441 2903.98 837.878 2942.95C827.178 2951.14 815.864 2958.49 804.036 2964.95C796.59 2968.33 789.822 2976.45 793.883 2983.56C811.141 3019.66 822.564 3058.27 827.725 3097.95C828.271 3099.89 829.195 3101.7 830.446 3103.28C831.696 3104.86 833.248 3106.18 835.011 3107.15C836.773 3108.13 838.712 3108.74 840.715 3108.96C842.718 3109.19 844.744 3109.01 846.677 3108.44C857.757 3105.82 869.206 3105.13 880.52 3106.41C886.955 3161.14 883.052 3216.58 869.014 3269.87C866.645 3274.27 864.614 3278.67 862.583 3283.41C854.293 3283.12 846.035 3282.21 837.878 3280.7C829.418 3280.7 819.265 3280.7 818.249 3289.84C810.648 3329.07 796.945 3366.87 777.638 3401.86C776.943 3403.72 776.629 3405.71 776.715 3407.69C776.8 3409.68 777.282 3411.63 778.134 3413.43C778.986 3415.23 780.19 3416.84 781.674 3418.16C783.158 3419.49 784.893 3420.5 786.776 3421.15C793.504 3424.12 799.864 3427.87 805.728 3432.31C766.694 3551.03 745.592 3674.9 743.119 3799.85C743.119 3975.49 827.387 4070.59 858.861 4055.02C863.201 4047.34 865.075 4038.52 864.227 4029.74C863.379 4020.96 859.852 4012.65 854.123 4005.95C854.123 4005.95 747.857 3815.41 984.755 3502.03C1348.23 3082.38 1048.38 2723.65 1005.4 2622.12C962.419 2520.59 980.017 2482.69 980.017 2482.69ZM672.387 929.309C643.445 927.907 616.244 915.07 596.762 893.621C577.28 872.172 567.111 843.864 568.49 814.921C567.331 800.572 569.157 786.139 573.852 772.53C578.548 758.922 586.011 746.433 595.772 735.852C605.533 725.271 617.38 716.826 630.566 711.051C643.752 705.275 657.992 702.293 672.387 702.293C686.783 702.293 701.023 705.275 714.209 711.051C727.395 716.826 739.242 725.271 749.003 735.852C758.764 746.433 766.227 758.922 770.923 772.53C775.618 786.139 777.444 800.572 776.284 814.921C777.574 843.841 767.374 872.098 747.91 893.527C728.447 914.956 701.298 927.819 672.387 929.309ZM818.249 1125.26C814.25 1111.43 813.32 1096.9 815.523 1082.67C817.727 1068.45 823.01 1054.88 831.005 1042.91C839 1030.94 849.513 1020.86 861.809 1013.38C874.105 1005.9 887.887 1001.19 902.191 999.594C916.495 997.994 930.976 999.537 944.622 1004.12C958.267 1008.7 970.747 1016.2 981.19 1026.11C991.632 1036.01 999.785 1048.08 1005.08 1061.47C1010.37 1074.85 1012.67 1089.23 1011.83 1103.6C1015.83 1117.43 1016.76 1131.96 1014.56 1146.18C1012.35 1160.41 1007.07 1173.98 999.074 1185.95C991.079 1197.92 980.566 1207.99 968.27 1215.48C955.974 1222.96 942.192 1227.66 927.888 1229.26C913.584 1230.86 899.103 1229.32 885.458 1224.74C871.812 1220.16 859.332 1212.66 848.889 1202.75C838.447 1192.84 830.294 1180.78 825.002 1167.39C819.71 1154.01 817.405 1139.63 818.249 1125.26Z" stroke="#5E12B2" stroke-width="2" mask="url(#path-6-inside-1_197_3556)"/>
<path d="M-254.944 1828.17C-255.361 1827.9 -255.362 1827.9 -255.363 1827.9L-255.368 1827.91L-255.389 1827.94L-255.469 1828.06C-255.54 1828.17 -255.645 1828.33 -255.784 1828.55C-256.061 1828.98 -256.471 1829.62 -257.003 1830.46C-258.069 1832.14 -259.623 1834.63 -261.584 1837.87C-265.505 1844.34 -271.049 1853.78 -277.544 1865.69C-290.534 1889.5 -307.328 1923.15 -322.546 1962.52C-352.823 2040.84 -376.895 2141.88 -352.248 2233.06C-361.859 2226.2 -371.713 2219.51 -381.802 2212.66C-383.244 2211.68 -384.69 2210.7 -386.142 2209.72C-398.142 2201.56 -410.475 2193.11 -423.144 2183.82C-443.712 2161.1 -468.131 2142.18 -495.277 2127.94C-505.402 2118.83 -516.869 2109.05 -529.005 2098.94C-539.993 2076.17 -532.486 2047.05 -517.454 2017.03C-503.158 1988.47 -482.137 1959.26 -464.099 1934.2C-463.163 1932.9 -462.235 1931.61 -461.317 1930.33L-461.723 1930.04L-461.388 1929.67C-467.287 1924.35 -473.654 1919.57 -480.412 1915.4L-480.427 1915.39L-480.442 1915.38C-483.908 1913.57 -486.697 1910.69 -488.085 1907.5C-489.466 1904.33 -489.455 1900.88 -487.369 1897.83L-487.359 1897.82L-487.35 1897.8C-468.811 1866.14 -455.106 1831.88 -446.691 1796.17C-445.435 1792.83 -442.931 1790.12 -439.708 1788.6C-436.476 1787.07 -432.776 1786.87 -429.396 1788.03L-429.39 1788.04C-418.426 1791.64 -406.856 1793.03 -395.352 1792.12L-395.026 1792.1L-394.919 1791.79C-369.566 1718.87 -368.378 1639.73 -391.53 1566.08L-391.536 1566.06L-391.543 1566.04C-403.606 1536.31 -423.397 1518.01 -446.625 1509.03C-469.841 1500.05 -496.449 1500.39 -522.144 1507.84C-573.447 1522.71 -621.279 1565.97 -631.389 1620.42C-633.252 1621.61 -634.848 1622.13 -636.205 1622.13C-637.587 1622.12 -638.778 1621.58 -639.809 1620.54C-641.912 1618.44 -643.324 1614.33 -644.105 1608.89C-645.66 1598.04 -644.653 1582.37 -642.288 1568.34L-642.287 1568.34L-642.286 1568.33C-640.564 1555.82 -634.12 1540.15 -623.701 1523.08C-613.287 1506.02 -598.923 1487.6 -581.4 1469.59C-546.352 1433.56 -498.698 1399.19 -444.808 1380.65C-390.926 1362.12 -330.821 1359.4 -270.824 1386.63C-210.824 1413.87 -150.87 1471.08 -97.3504 1572.54C-73.2214 1629.59 -77.5128 1705.6 -87.8733 1767.43C-93.0519 1798.33 -99.7422 1825.66 -105.138 1845.27C-107.836 1855.07 -110.209 1862.94 -111.909 1868.36C-112.758 1871.07 -113.439 1873.17 -113.907 1874.59C-114.142 1875.29 -114.323 1875.83 -114.445 1876.2C-114.506 1876.38 -114.553 1876.51 -114.584 1876.61L-114.619 1876.71L-114.619 1876.71L-114.628 1876.73C-114.645 1876.76 -114.67 1876.81 -114.703 1876.87C-114.768 1877 -114.865 1877.2 -114.991 1877.45C-115.243 1877.96 -115.612 1878.72 -116.083 1879.72C-117.024 1881.71 -118.37 1884.65 -119.991 1888.46C-123.233 1896.07 -127.577 1907.12 -131.984 1920.92C-140.799 1948.51 -149.874 1987.08 -150.912 2030.96C-152.986 2118.64 -122.971 2227.53 5.19244 2312.54C5.01654 2312.71 4.78717 2312.92 4.50476 2313.18C3.75391 2313.88 2.62811 2314.87 1.13379 2316.1C-1.85492 2318.54 -6.31714 2321.87 -12.2011 2325.43C-23.9691 2332.53 -41.4212 2340.51 -64.1466 2343.99C-109.565 2350.94 -176.155 2339.93 -260.645 2267.8C-321.776 2161.36 -320.259 2051.54 -303.441 1968.3C-295.03 1926.66 -282.794 1891.69 -272.661 1867.12C-267.595 1854.84 -263.055 1845.16 -259.782 1838.55C-258.146 1835.25 -256.827 1832.71 -255.917 1831.01C-255.462 1830.15 -255.109 1829.5 -254.871 1829.07C-254.752 1828.85 -254.661 1828.69 -254.6 1828.58L-254.531 1828.46L-254.514 1828.43L-254.51 1828.42C-254.509 1828.42 -254.509 1828.42 -254.944 1828.17ZM-254.944 1828.17L-255.361 1827.9L-254.509 1828.42L-254.944 1828.17Z" stroke="#5E12B2"/>
<path d="M1620.7 5666.75C1621.12 5666.48 1621.12 5666.48 1621.12 5666.48L1621.13 5666.49L1621.15 5666.52L1621.23 5666.65C1621.3 5666.76 1621.4 5666.92 1621.54 5667.13C1621.82 5667.57 1622.23 5668.21 1622.76 5669.06C1623.82 5670.75 1625.37 5673.25 1627.33 5676.51C1631.24 5683.01 1636.77 5692.5 1643.26 5704.46C1656.22 5728.38 1672.98 5762.16 1688.18 5801.61C1718.42 5880.12 1742.5 5981.19 1717.99 6071.72C1740.32 6057.03 1763.95 6040.7 1788.9 6022.41C1809.47 5999.68 1833.9 5980.76 1861.05 5966.52C1872.52 5957.41 1884.31 5947.64 1894.75 5937.54C1899.9 5926.51 1900.54 5913.82 1898 5900.11C1895.45 5886.37 1889.72 5871.64 1882.2 5856.62C1869.4 5831.06 1851.45 5804.72 1835.33 5781.06C1832.51 5776.92 1829.74 5772.86 1827.07 5768.9L1826.82 5768.54L1827.15 5768.24C1833.11 5763.01 1839.47 5758.24 1846.16 5753.98L1846.17 5753.98L1846.18 5753.97C1849.32 5752.16 1852.21 5749.26 1853.77 5746.07C1855.32 5742.88 1855.54 5739.44 1853.47 5736.41L1853.46 5736.4L1853.45 5736.39C1834.71 5704.78 1820.88 5670.51 1812.45 5634.75C1811.26 5631.44 1808.82 5628.73 1805.65 5627.2C1802.48 5625.68 1798.83 5625.47 1795.49 5626.62L1795.48 5626.62C1784.51 5630.18 1772.95 5631.56 1761.45 5630.7L1761.12 5630.68L1761.02 5630.37C1735.38 5557.52 1734.08 5478.32 1757.29 5404.66L1757.29 5404.64L1757.3 5404.62C1769.45 5374.89 1789.28 5356.59 1812.53 5347.61C1835.76 5338.63 1862.36 5338.97 1888.03 5346.42C1939.29 5361.29 1987.04 5404.55 1997.15 5458.99C1999.05 5460.19 2000.68 5460.71 2002.08 5460.71C2003.5 5460.71 2004.72 5460.17 2005.77 5459.15C2007.92 5457.07 2009.36 5453.03 2010.16 5447.72C2011.76 5437.13 2010.75 5421.96 2008.39 5408.96L2008.38 5408.95L2008.38 5408.94C2006.62 5396.35 2000.14 5380.61 1989.69 5363.49C1979.24 5346.37 1964.85 5327.91 1947.3 5309.87C1912.21 5273.78 1864.52 5239.4 1810.61 5220.88C1756.71 5202.37 1696.59 5199.7 1636.59 5227.01C1576.58 5254.31 1516.63 5311.61 1463.11 5413.15C1438.81 5471.39 1442.93 5547.82 1453.17 5609.77C1458.28 5640.74 1464.92 5668.06 1470.28 5687.64C1472.96 5697.43 1475.32 5705.28 1477.01 5710.69C1477.85 5713.39 1478.53 5715.48 1478.99 5716.9C1479.23 5717.6 1479.41 5718.14 1479.53 5718.5C1479.59 5718.68 1479.63 5718.82 1479.67 5718.91L1479.7 5719.01L1479.7 5719.01L1479.71 5719.03C1479.73 5719.07 1479.75 5719.11 1479.78 5719.18C1479.85 5719.31 1479.94 5719.5 1480.07 5719.76C1480.32 5720.26 1480.68 5721.02 1481.15 5722.01C1482.08 5724 1483.41 5726.94 1485.02 5730.73C1488.23 5738.31 1492.52 5749.33 1496.88 5763.07C1505.59 5790.55 1514.55 5828.94 1515.53 5872.55C1517.47 5959.68 1487.55 6067.64 1360.23 6151.12C1360.41 6151.29 1360.64 6151.52 1360.92 6151.78C1361.68 6152.48 1362.81 6153.5 1364.32 6154.73C1367.32 6157.21 1371.81 6160.59 1377.72 6164.2C1389.55 6171.41 1407.08 6179.52 1429.86 6183.08C1475.41 6190.2 1542.08 6179.19 1626.4 6106.39C1687.53 6000.11 1686.02 5890.29 1669.2 5807C1660.79 5765.35 1648.55 5730.35 1638.42 5705.75C1633.35 5693.46 1628.81 5683.77 1625.54 5677.15C1623.9 5673.84 1622.58 5671.3 1621.68 5669.59C1621.22 5668.74 1620.87 5668.09 1620.63 5667.65C1620.51 5667.44 1620.42 5667.27 1620.36 5667.16L1620.29 5667.04L1620.27 5667.01L1620.27 5667C1620.27 5667 1620.27 5667 1620.7 5666.75ZM1620.7 5666.75L1621.12 5666.48L1620.27 5667L1620.7 5666.75Z" stroke="#5E12B2"/>
<mask id="path-9-inside-2_197_3556" fill="white">
<path d="M980.017 6324.99C980.017 6324.99 1013.86 6278.29 973.249 6274.23C934.668 6280.66 874.428 6359.85 874.428 6359.85C885.165 6285.89 912.991 6215.45 955.699 6154.12C998.407 6092.79 1054.82 6042.26 1120.46 6006.53C1281.22 5943.58 1296.11 6091.48 1296.11 6091.48C1296.11 6091.48 1296.11 6120.92 1313.37 6125.32C1383.08 6018.04 1344.16 5804.49 1344.16 5804.49C1344.16 5804.49 1337.4 5736.8 1302.54 5742.22C1148.55 5747.63 1095.08 5890.79 1031.8 5952.38C968.511 6013.98 870.029 5986.23 867.321 5961.86C866.909 5936.38 868.607 5910.91 872.398 5885.71C889.361 5903.61 911.698 5915.49 936.022 5919.55H944.144C982.048 5919.55 1011.83 5885.71 1042.29 5851.87C1067.78 5817.65 1100.18 5789.17 1137.39 5768.28L1142.8 5765.91L1146.52 5760.83C1187.47 5703.64 1159.38 5577.41 1156 5563.19C1155.33 5560.24 1154.07 5557.45 1152.3 5554.99C1150.53 5552.53 1148.28 5550.45 1145.7 5548.87C1143.11 5547.29 1140.23 5546.25 1137.24 5545.8C1134.24 5545.36 1131.18 5545.52 1128.25 5546.27C1122.31 5547.72 1117.18 5551.44 1113.95 5556.62C1110.73 5561.81 1109.66 5568.06 1110.99 5574.02C1121.48 5617.68 1129.94 5695.85 1110.99 5729.36C1070.4 5752.69 1034.76 5783.73 1006.08 5820.73C981.371 5849.5 958.358 5876.57 940.76 5874.21C908.609 5870.48 882.551 5808.89 873.075 5790.95V5770.65C873.075 5770.65 933.315 5797.72 1017.58 5647.12C1017.58 5647.12 1104.9 5487.72 1173.26 5499.57C1241.62 5511.41 1247.37 5620.05 1193.23 5718.53C1199.32 5766.59 1287.65 5604.14 1287.65 5604.14C1287.65 5604.14 1363.79 5455.23 1363.79 5448.46C1367.52 5434.59 1385.11 5414.62 1341.46 5376.72C1297.8 5338.81 1224.36 5287.71 1059.21 5340.17C1088.87 5294.08 1130.11 5256.6 1178.82 5231.47C1227.52 5206.35 1281.98 5194.46 1336.72 5197.01C1372.25 5197.01 1417.94 5226.8 1404.4 5304.3C1409.48 5364.54 1464.64 5290.08 1474.8 5267.07C1484.95 5244.05 1719.14 4897.51 1235.53 4380.73C1313.03 4533.02 1290.69 4699.86 1184.77 4755.37C1078.84 4810.87 926.546 4731.68 846.339 4578.71C766.132 4425.74 788.468 4255.85 895.411 4200.35C917.135 4189.74 940.791 4183.67 964.938 4182.51C989.084 4181.34 1013.21 4185.11 1035.86 4193.58C923.659 4100.69 805.77 4014.9 682.879 3936.71C70.6645 4327.93 -121.9 4662.64 -163.189 4898.52C-152.806 4880.74 -138.001 4865.94 -120.212 4855.56C-102.423 4845.18 -82.2531 4839.58 -61.6605 4839.3C-44.7208 4840.12 -28.11 4844.28 -12.7795 4851.53C2.55107 4858.78 16.3002 4868.99 27.6804 4881.56C39.0605 4894.14 47.8481 4908.84 53.5399 4924.81C59.2317 4940.79 61.7158 4957.73 60.8501 4974.67C62.5076 5008.85 50.5419 5042.3 27.5764 5067.68C4.61094 5093.05 -27.4801 5108.29 -61.6605 5110.04C-85.9464 5109.42 -109.499 5101.59 -129.325 5087.55C-149.15 5073.5 -164.354 5053.89 -173.003 5031.18C-169.604 5113.89 -147.872 5194.8 -109.379 5268.08C-99.5643 5291.1 -44.0623 5365.55 -39.3243 5305.31C-51.1692 5227.81 -5.48159 5198.03 28.3611 5198.03C83.1512 5195.49 137.648 5207.37 186.406 5232.49C235.164 5257.62 276.475 5295.09 306.21 5341.18C141.396 5288.73 72.0182 5343.89 23.6231 5379.09C-24.7719 5414.28 -2.43579 5436.96 1.62534 5450.83C1.62534 5456.25 78.1099 5604.48 78.1099 5604.48C78.1099 5604.48 166.439 5766.92 172.193 5718.87C118.044 5620.39 124.136 5512.09 192.498 5499.91C260.86 5487.72 348.175 5647.46 348.175 5647.46C432.443 5798.06 492.683 5770.99 492.683 5770.99V5791.29C483.545 5809.23 458.84 5870.82 424.997 5874.54C407.399 5876.91 384.048 5849.84 359.343 5821.07C330.907 5783.78 295.364 5752.5 254.769 5729.02C236.494 5695.18 245.293 5617.34 254.769 5573.68C256.339 5567.62 255.439 5561.19 252.266 5555.8C249.092 5550.4 243.906 5546.49 237.847 5544.92C231.789 5543.35 225.354 5544.25 219.96 5547.42C214.565 5550.59 210.652 5555.78 209.081 5561.84C205.697 5576.05 177.607 5702.29 218.895 5759.48L222.28 5764.56L228.033 5766.92C265.174 5787.91 297.556 5816.37 323.131 5850.52C353.928 5884.36 383.032 5918.2 421.275 5918.2H429.059C453.407 5914.21 475.766 5902.32 492.683 5884.36C496.579 5909.55 498.39 5935.02 498.098 5960.5C495.39 5983.18 396.569 6012.62 333.284 5951.03C269.998 5889.43 215.511 5747.97 62.5422 5740.87C28.6995 5734.44 20.9157 5803.14 20.9157 5803.14C20.9157 5803.14 -17.665 6017.02 51.7125 6125.32C67.2801 6122.61 69.3107 6091.48 69.3107 6091.48C69.3107 6091.48 83.8631 5942.91 244.616 6005.85C310.34 6041.52 366.834 6092.03 409.605 6153.36C452.376 6214.7 480.244 6285.17 490.991 6359.17C490.991 6359.17 430.751 6279.98 391.832 6273.55C352.913 6277.61 385.063 6324.31 385.063 6324.31C385.063 6324.31 405.369 6364.59 362.388 6464.76C319.408 6564.94 19.562 6924.01 383.032 7344.67C619.931 7658.05 513.665 7848.59 513.665 7848.59C508.023 7855.34 504.552 7863.63 503.707 7872.39C502.861 7881.15 504.681 7889.96 508.927 7897.66C540.401 7911.54 623.654 7818.13 624.669 7642.49C624.669 7619.47 624.669 7595.44 621.962 7570.74C621.962 7558.56 619.931 7546.37 618.239 7533.85C616.547 7521.33 614.178 7500.01 611.471 7483.76C611.471 7473.61 608.425 7463.46 606.394 7452.97C604.364 7442.48 601.318 7426.23 598.61 7412.69V7408.3C592.18 7379.19 585.073 7350.76 577.29 7322.33C577.29 7319.97 577.29 7317.6 574.921 7314.89C571.198 7301.35 567.137 7288.15 563.076 7274.95C569.026 7270.46 575.504 7266.71 582.366 7263.79C586.113 7262.41 589.171 7259.62 590.88 7256.01C592.589 7252.4 592.813 7248.27 591.503 7244.5C572.028 7209.55 558.207 7171.74 550.554 7132.48C550.554 7124.35 539.386 7121.65 531.263 7123.34C522.993 7124.85 514.623 7125.76 506.22 7126.05L500.128 7112.51C486.016 7059.24 481.999 7003.8 488.283 6949.05C499.491 6947.24 510.918 6947.24 522.126 6949.05C524.031 6949.37 525.974 6949.37 527.879 6949.05C530.781 6948.52 533.494 6947.24 535.749 6945.34C538.005 6943.45 539.725 6940.99 540.739 6938.22C545.722 6898.5 557.153 6859.87 574.582 6823.83C578.643 6816.72 571.536 6808.6 564.091 6805.22C552.148 6799.22 540.814 6792.08 530.248 6783.9C544.088 6745.51 561.185 6708.37 581.351 6672.89C610.514 6639.15 635.827 6602.26 656.82 6562.9C660.543 6556.47 663.927 6549.37 667.311 6542.26L682.54 6508.42C690.171 6527.12 698.756 6545.42 708.261 6563.24C729.549 6602.47 755.084 6639.24 784.407 6672.89C805.546 6708.68 823.441 6746.28 837.878 6785.25C827.178 6793.44 815.864 6800.8 804.036 6807.25C796.59 6810.63 789.822 6818.76 793.883 6825.86C811.141 6861.96 822.564 6900.57 827.725 6940.25C828.271 6942.19 829.195 6944 830.446 6945.58C831.696 6947.16 833.248 6948.48 835.011 6949.45C836.773 6950.43 838.712 6951.05 840.715 6951.27C842.718 6951.49 844.744 6951.31 846.677 6950.74C857.757 6948.12 869.206 6947.43 880.52 6948.71C886.955 7003.44 883.052 7058.89 869.014 7112.17C866.645 7116.57 864.614 7120.97 862.583 7125.71C854.293 7125.42 846.035 7124.52 837.878 7123C829.418 7123 819.265 7123 818.249 7132.14C810.648 7171.37 796.945 7209.17 777.638 7244.16C776.943 7246.02 776.629 7248.01 776.715 7250C776.8 7251.98 777.282 7253.93 778.134 7255.73C778.986 7257.53 780.19 7259.14 781.674 7260.47C783.158 7261.79 784.893 7262.8 786.776 7263.45C793.504 7266.43 799.864 7270.17 805.728 7274.62C766.694 7393.33 745.592 7517.21 743.119 7642.15C743.119 7817.79 827.387 7912.89 858.861 7897.32C863.201 7889.64 865.075 7880.82 864.227 7872.04C863.379 7863.26 859.852 7854.96 854.123 7848.25C854.123 7848.25 747.857 7657.72 984.755 7344.33C1348.23 6924.68 1048.38 6565.95 1005.4 6464.42C962.419 6362.89 980.017 6324.99 980.017 6324.99ZM672.387 4771.61C643.445 4770.21 616.244 4757.37 596.762 4735.92C577.28 4714.47 567.111 4686.17 568.49 4657.22C567.331 4642.87 569.157 4628.44 573.852 4614.83C578.548 4601.22 586.011 4588.74 595.772 4578.15C605.533 4567.57 617.38 4559.13 630.566 4553.35C643.752 4547.58 657.992 4544.59 672.387 4544.59C686.783 4544.59 701.023 4547.58 714.209 4553.35C727.395 4559.13 739.242 4567.57 749.003 4578.15C758.764 4588.74 766.227 4601.22 770.923 4614.83C775.618 4628.44 777.444 4642.87 776.284 4657.22C777.574 4686.14 767.374 4714.4 747.91 4735.83C728.447 4757.26 701.298 4770.12 672.387 4771.61ZM818.249 4967.56C814.25 4953.73 813.32 4939.2 815.523 4924.98C817.727 4910.75 823.01 4897.18 831.005 4885.21C839 4873.24 849.513 4863.17 861.809 4855.68C874.105 4848.2 887.887 4843.5 902.191 4841.9C916.495 4840.3 930.976 4841.84 944.622 4846.42C958.267 4851 970.747 4858.5 981.19 4868.41C991.632 4878.32 999.785 4890.38 1005.08 4903.77C1010.37 4917.15 1012.67 4931.53 1011.83 4945.9C1015.83 4959.73 1016.76 4974.26 1014.56 4988.48C1012.35 5002.71 1007.07 5016.28 999.074 5028.25C991.079 5040.22 980.566 5050.29 968.27 5057.78C955.974 5065.26 942.192 5069.96 927.888 5071.57C913.584 5073.17 899.103 5071.62 885.458 5067.04C871.812 5062.46 859.332 5054.96 848.889 5045.05C838.447 5035.15 830.294 5023.08 825.002 5009.69C819.71 4996.31 817.405 4981.93 818.249 4967.56Z"/>
</mask>
<path d="M980.017 6324.99C980.017 6324.99 1013.86 6278.29 973.249 6274.23C934.668 6280.66 874.428 6359.85 874.428 6359.85C885.165 6285.89 912.991 6215.45 955.699 6154.12C998.407 6092.79 1054.82 6042.26 1120.46 6006.53C1281.22 5943.58 1296.11 6091.48 1296.11 6091.48C1296.11 6091.48 1296.11 6120.92 1313.37 6125.32C1383.08 6018.04 1344.16 5804.49 1344.16 5804.49C1344.16 5804.49 1337.4 5736.8 1302.54 5742.22C1148.55 5747.63 1095.08 5890.79 1031.8 5952.38C968.511 6013.98 870.029 5986.23 867.321 5961.86C866.909 5936.38 868.607 5910.91 872.398 5885.71C889.361 5903.61 911.698 5915.49 936.022 5919.55H944.144C982.048 5919.55 1011.83 5885.71 1042.29 5851.87C1067.78 5817.65 1100.18 5789.17 1137.39 5768.28L1142.8 5765.91L1146.52 5760.83C1187.47 5703.64 1159.38 5577.41 1156 5563.19C1155.33 5560.24 1154.07 5557.45 1152.3 5554.99C1150.53 5552.53 1148.28 5550.45 1145.7 5548.87C1143.11 5547.29 1140.23 5546.25 1137.24 5545.8C1134.24 5545.36 1131.18 5545.52 1128.25 5546.27C1122.31 5547.72 1117.18 5551.44 1113.95 5556.62C1110.73 5561.81 1109.66 5568.06 1110.99 5574.02C1121.48 5617.68 1129.94 5695.85 1110.99 5729.36C1070.4 5752.69 1034.76 5783.73 1006.08 5820.73C981.371 5849.5 958.358 5876.57 940.76 5874.21C908.609 5870.48 882.551 5808.89 873.075 5790.95V5770.65C873.075 5770.65 933.315 5797.72 1017.58 5647.12C1017.58 5647.12 1104.9 5487.72 1173.26 5499.57C1241.62 5511.41 1247.37 5620.05 1193.23 5718.53C1199.32 5766.59 1287.65 5604.14 1287.65 5604.14C1287.65 5604.14 1363.79 5455.23 1363.79 5448.46C1367.52 5434.59 1385.11 5414.62 1341.46 5376.72C1297.8 5338.81 1224.36 5287.71 1059.21 5340.17C1088.87 5294.08 1130.11 5256.6 1178.82 5231.47C1227.52 5206.35 1281.98 5194.46 1336.72 5197.01C1372.25 5197.01 1417.94 5226.8 1404.4 5304.3C1409.48 5364.54 1464.64 5290.08 1474.8 5267.07C1484.95 5244.05 1719.14 4897.51 1235.53 4380.73C1313.03 4533.02 1290.69 4699.86 1184.77 4755.37C1078.84 4810.87 926.546 4731.68 846.339 4578.71C766.132 4425.74 788.468 4255.85 895.411 4200.35C917.135 4189.74 940.791 4183.67 964.938 4182.51C989.084 4181.34 1013.21 4185.11 1035.86 4193.58C923.659 4100.69 805.77 4014.9 682.879 3936.71C70.6645 4327.93 -121.9 4662.64 -163.189 4898.52C-152.806 4880.74 -138.001 4865.94 -120.212 4855.56C-102.423 4845.18 -82.2531 4839.58 -61.6605 4839.3C-44.7208 4840.12 -28.11 4844.28 -12.7795 4851.53C2.55107 4858.78 16.3002 4868.99 27.6804 4881.56C39.0605 4894.14 47.8481 4908.84 53.5399 4924.81C59.2317 4940.79 61.7158 4957.73 60.8501 4974.67C62.5076 5008.85 50.5419 5042.3 27.5764 5067.68C4.61094 5093.05 -27.4801 5108.29 -61.6605 5110.04C-85.9464 5109.42 -109.499 5101.59 -129.325 5087.55C-149.15 5073.5 -164.354 5053.89 -173.003 5031.18C-169.604 5113.89 -147.872 5194.8 -109.379 5268.08C-99.5643 5291.1 -44.0623 5365.55 -39.3243 5305.31C-51.1692 5227.81 -5.48159 5198.03 28.3611 5198.03C83.1512 5195.49 137.648 5207.37 186.406 5232.49C235.164 5257.62 276.475 5295.09 306.21 5341.18C141.396 5288.73 72.0182 5343.89 23.6231 5379.09C-24.7719 5414.28 -2.43579 5436.96 1.62534 5450.83C1.62534 5456.25 78.1099 5604.48 78.1099 5604.48C78.1099 5604.48 166.439 5766.92 172.193 5718.87C118.044 5620.39 124.136 5512.09 192.498 5499.91C260.86 5487.72 348.175 5647.46 348.175 5647.46C432.443 5798.06 492.683 5770.99 492.683 5770.99V5791.29C483.545 5809.23 458.84 5870.82 424.997 5874.54C407.399 5876.91 384.048 5849.84 359.343 5821.07C330.907 5783.78 295.364 5752.5 254.769 5729.02C236.494 5695.18 245.293 5617.34 254.769 5573.68C256.339 5567.62 255.439 5561.19 252.266 5555.8C249.092 5550.4 243.906 5546.49 237.847 5544.92C231.789 5543.35 225.354 5544.25 219.96 5547.42C214.565 5550.59 210.652 5555.78 209.081 5561.84C205.697 5576.05 177.607 5702.29 218.895 5759.48L222.28 5764.56L228.033 5766.92C265.174 5787.91 297.556 5816.37 323.131 5850.52C353.928 5884.36 383.032 5918.2 421.275 5918.2H429.059C453.407 5914.21 475.766 5902.32 492.683 5884.36C496.579 5909.55 498.39 5935.02 498.098 5960.5C495.39 5983.18 396.569 6012.62 333.284 5951.03C269.998 5889.43 215.511 5747.97 62.5422 5740.87C28.6995 5734.44 20.9157 5803.14 20.9157 5803.14C20.9157 5803.14 -17.665 6017.02 51.7125 6125.32C67.2801 6122.61 69.3107 6091.48 69.3107 6091.48C69.3107 6091.48 83.8631 5942.91 244.616 6005.85C310.34 6041.52 366.834 6092.03 409.605 6153.36C452.376 6214.7 480.244 6285.17 490.991 6359.17C490.991 6359.17 430.751 6279.98 391.832 6273.55C352.913 6277.61 385.063 6324.31 385.063 6324.31C385.063 6324.31 405.369 6364.59 362.388 6464.76C319.408 6564.94 19.562 6924.01 383.032 7344.67C619.931 7658.05 513.665 7848.59 513.665 7848.59C508.023 7855.34 504.552 7863.63 503.707 7872.39C502.861 7881.15 504.681 7889.96 508.927 7897.66C540.401 7911.54 623.654 7818.13 624.669 7642.49C624.669 7619.47 624.669 7595.44 621.962 7570.74C621.962 7558.56 619.931 7546.37 618.239 7533.85C616.547 7521.33 614.178 7500.01 611.471 7483.76C611.471 7473.61 608.425 7463.46 606.394 7452.97C604.364 7442.48 601.318 7426.23 598.61 7412.69V7408.3C592.18 7379.19 585.073 7350.76 577.29 7322.33C577.29 7319.97 577.29 7317.6 574.921 7314.89C571.198 7301.35 567.137 7288.15 563.076 7274.95C569.026 7270.46 575.504 7266.71 582.366 7263.79C586.113 7262.41 589.171 7259.62 590.88 7256.01C592.589 7252.4 592.813 7248.27 591.503 7244.5C572.028 7209.55 558.207 7171.74 550.554 7132.48C550.554 7124.35 539.386 7121.65 531.263 7123.34C522.993 7124.85 514.623 7125.76 506.22 7126.05L500.128 7112.51C486.016 7059.24 481.999 7003.8 488.283 6949.05C499.491 6947.24 510.918 6947.24 522.126 6949.05C524.031 6949.37 525.974 6949.37 527.879 6949.05C530.781 6948.52 533.494 6947.24 535.749 6945.34C538.005 6943.45 539.725 6940.99 540.739 6938.22C545.722 6898.5 557.153 6859.87 574.582 6823.83C578.643 6816.72 571.536 6808.6 564.091 6805.22C552.148 6799.22 540.814 6792.08 530.248 6783.9C544.088 6745.51 561.185 6708.37 581.351 6672.89C610.514 6639.15 635.827 6602.26 656.82 6562.9C660.543 6556.47 663.927 6549.37 667.311 6542.26L682.54 6508.42C690.171 6527.12 698.756 6545.42 708.261 6563.24C729.549 6602.47 755.084 6639.24 784.407 6672.89C805.546 6708.68 823.441 6746.28 837.878 6785.25C827.178 6793.44 815.864 6800.8 804.036 6807.25C796.59 6810.63 789.822 6818.76 793.883 6825.86C811.141 6861.96 822.564 6900.57 827.725 6940.25C828.271 6942.19 829.195 6944 830.446 6945.58C831.696 6947.16 833.248 6948.48 835.011 6949.45C836.773 6950.43 838.712 6951.05 840.715 6951.27C842.718 6951.49 844.744 6951.31 846.677 6950.74C857.757 6948.12 869.206 6947.43 880.52 6948.71C886.955 7003.44 883.052 7058.89 869.014 7112.17C866.645 7116.57 864.614 7120.97 862.583 7125.71C854.293 7125.42 846.035 7124.52 837.878 7123C829.418 7123 819.265 7123 818.249 7132.14C810.648 7171.37 796.945 7209.17 777.638 7244.16C776.943 7246.02 776.629 7248.01 776.715 7250C776.8 7251.98 777.282 7253.93 778.134 7255.73C778.986 7257.53 780.19 7259.14 781.674 7260.47C783.158 7261.79 784.893 7262.8 786.776 7263.45C793.504 7266.43 799.864 7270.17 805.728 7274.62C766.694 7393.33 745.592 7517.21 743.119 7642.15C743.119 7817.79 827.387 7912.89 858.861 7897.32C863.201 7889.64 865.075 7880.82 864.227 7872.04C863.379 7863.26 859.852 7854.96 854.123 7848.25C854.123 7848.25 747.857 7657.72 984.755 7344.33C1348.23 6924.68 1048.38 6565.95 1005.4 6464.42C962.419 6362.89 980.017 6324.99 980.017 6324.99ZM672.387 4771.61C643.445 4770.21 616.244 4757.37 596.762 4735.92C577.28 4714.47 567.111 4686.17 568.49 4657.22C567.331 4642.87 569.157 4628.44 573.852 4614.83C578.548 4601.22 586.011 4588.74 595.772 4578.15C605.533 4567.57 617.38 4559.13 630.566 4553.35C643.752 4547.58 657.992 4544.59 672.387 4544.59C686.783 4544.59 701.023 4547.58 714.209 4553.35C727.395 4559.13 739.242 4567.57 749.003 4578.15C758.764 4588.74 766.227 4601.22 770.923 4614.83C775.618 4628.44 777.444 4642.87 776.284 4657.22C777.574 4686.14 767.374 4714.4 747.91 4735.83C728.447 4757.26 701.298 4770.12 672.387 4771.61ZM818.249 4967.56C814.25 4953.73 813.32 4939.2 815.523 4924.98C817.727 4910.75 823.01 4897.18 831.005 4885.21C839 4873.24 849.513 4863.17 861.809 4855.68C874.105 4848.2 887.887 4843.5 902.191 4841.9C916.495 4840.3 930.976 4841.84 944.622 4846.42C958.267 4851 970.747 4858.5 981.19 4868.41C991.632 4878.32 999.785 4890.38 1005.08 4903.77C1010.37 4917.15 1012.67 4931.53 1011.83 4945.9C1015.83 4959.73 1016.76 4974.26 1014.56 4988.48C1012.35 5002.71 1007.07 5016.28 999.074 5028.25C991.079 5040.22 980.566 5050.29 968.27 5057.78C955.974 5065.26 942.192 5069.96 927.888 5071.57C913.584 5073.17 899.103 5071.62 885.458 5067.04C871.812 5062.46 859.332 5054.96 848.889 5045.05C838.447 5035.15 830.294 5023.08 825.002 5009.69C819.71 4996.31 817.405 4981.93 818.249 4967.56Z" stroke="#5E12B2" stroke-width="2" mask="url(#path-9-inside-2_197_3556)"/>
<path d="M-254.944 5670.47C-255.361 5670.2 -255.362 5670.2 -255.363 5670.2L-255.368 5670.21L-255.389 5670.24L-255.469 5670.36C-255.54 5670.47 -255.645 5670.63 -255.784 5670.85C-256.061 5671.28 -256.471 5671.92 -257.003 5672.76C-258.069 5674.44 -259.623 5676.93 -261.584 5680.17C-265.505 5686.64 -271.049 5696.09 -277.544 5707.99C-290.534 5731.8 -307.328 5765.45 -322.546 5804.82C-352.823 5883.15 -376.895 5984.18 -352.248 6075.36C-361.859 6068.5 -371.713 6061.81 -381.802 6054.96C-383.244 6053.99 -384.69 6053 -386.142 6052.02C-398.142 6043.86 -410.475 6035.42 -423.144 6026.13C-443.712 6003.4 -468.131 5984.48 -495.277 5970.25C-505.402 5961.13 -516.869 5951.35 -529.005 5941.24C-539.993 5918.47 -532.486 5889.35 -517.454 5859.33C-503.158 5830.78 -482.137 5801.57 -464.099 5776.5C-463.163 5775.2 -462.235 5773.91 -461.317 5772.63L-461.723 5772.34L-461.388 5771.97C-467.287 5766.65 -473.654 5761.88 -480.412 5757.7L-480.427 5757.69L-480.442 5757.68C-483.908 5755.87 -486.697 5752.99 -488.085 5749.8C-489.466 5746.63 -489.455 5743.18 -487.369 5740.13L-487.359 5740.12L-487.35 5740.1C-468.811 5708.44 -455.106 5674.18 -446.691 5638.47C-445.435 5635.14 -442.931 5632.42 -439.708 5630.9C-436.476 5629.38 -432.776 5629.17 -429.396 5630.34L-429.39 5630.34C-418.426 5633.94 -406.856 5635.33 -395.352 5634.42L-395.026 5634.4L-394.919 5634.09C-369.566 5561.17 -368.378 5482.03 -391.53 5408.38L-391.536 5408.36L-391.543 5408.34C-403.606 5378.61 -423.397 5360.32 -446.625 5351.33C-469.841 5342.35 -496.449 5342.69 -522.144 5350.14C-573.447 5365.01 -621.279 5408.27 -631.389 5462.72C-633.252 5463.91 -634.848 5464.43 -636.205 5464.43C-637.587 5464.43 -638.778 5463.88 -639.809 5462.85C-641.912 5460.74 -643.324 5456.63 -644.105 5451.19C-645.66 5440.35 -644.653 5424.67 -642.288 5410.65L-642.287 5410.64L-642.286 5410.63C-640.564 5398.12 -634.12 5382.45 -623.701 5365.39C-613.287 5348.33 -598.923 5329.9 -581.4 5311.89C-546.352 5275.86 -498.698 5241.5 -444.808 5222.95C-390.926 5204.42 -330.821 5201.7 -270.824 5228.93C-210.824 5256.17 -150.87 5313.39 -97.3504 5414.84C-73.2214 5471.89 -77.5128 5547.9 -87.8733 5609.73C-93.0519 5640.63 -99.7422 5667.96 -105.138 5687.57C-107.836 5697.37 -110.209 5705.24 -111.909 5710.66C-112.758 5713.37 -113.439 5715.47 -113.907 5716.89C-114.142 5717.6 -114.323 5718.14 -114.445 5718.5C-114.506 5718.68 -114.553 5718.82 -114.584 5718.91L-114.619 5719.01L-114.619 5719.01L-114.628 5719.03C-114.645 5719.06 -114.67 5719.11 -114.703 5719.18C-114.768 5719.31 -114.865 5719.5 -114.991 5719.75C-115.243 5720.26 -115.612 5721.02 -116.083 5722.02C-117.024 5724.01 -118.37 5726.95 -119.991 5730.76C-123.233 5738.37 -127.577 5749.42 -131.984 5763.22C-140.799 5790.81 -149.874 5829.38 -150.912 5873.26C-152.986 5960.94 -122.971 6069.83 5.19244 6154.84C5.01654 6155.01 4.78717 6155.23 4.50476 6155.49C3.75391 6156.18 2.62811 6157.18 1.13379 6158.4C-1.85492 6160.84 -6.31714 6164.18 -12.2011 6167.73C-23.9691 6174.84 -41.4212 6182.81 -64.1466 6186.29C-109.565 6193.24 -176.155 6182.24 -260.645 6110.11C-321.776 6003.66 -320.259 5893.84 -303.441 5810.6C-295.03 5768.97 -282.794 5733.99 -272.661 5709.43C-267.595 5697.14 -263.055 5687.46 -259.782 5680.86C-258.146 5677.55 -256.827 5675.02 -255.917 5673.31C-255.462 5672.45 -255.109 5671.81 -254.871 5671.37C-254.752 5671.16 -254.661 5670.99 -254.6 5670.88L-254.531 5670.76L-254.514 5670.73L-254.51 5670.72C-254.509 5670.72 -254.509 5670.72 -254.944 5670.47ZM-254.944 5670.47L-255.361 5670.2L-254.509 5670.72L-254.944 5670.47Z" stroke="#5E12B2"/>
</svg>
