<svg width="703" height="204" viewBox="0 0 703 204" fill="none" xmlns="http://www.w3.org/2000/svg">
<g filter="url(#filter0_d_9_5611)">
<path d="M109.796 70.0574C109.796 70.4196 109.651 70.7457 109.361 71.0354C109.144 71.2528 108.854 71.3615 108.492 71.3615H74.3691C74.0069 71.3615 73.8257 71.5426 73.8257 71.9048V85.2714C73.8257 85.6336 74.0069 85.8147 74.3691 85.8147H96.212C96.5742 85.8147 96.864 85.9596 97.0814 86.2494C97.3712 86.4668 97.5161 86.7566 97.5161 87.1188V99.8333C97.5161 100.196 97.3712 100.522 97.0814 100.811C96.864 101.029 96.5742 101.137 96.212 101.137H74.3691C74.0069 101.137 73.8257 101.318 73.8257 101.681V116.025C73.8257 116.388 74.0069 116.569 74.3691 116.569H108.492C108.854 116.569 109.144 116.714 109.361 117.003C109.651 117.221 109.796 117.511 109.796 117.873V130.696C109.796 131.058 109.651 131.384 109.361 131.674C109.144 131.891 108.854 132 108.492 132H57.0904C56.7281 132 56.4021 131.891 56.1123 131.674C55.895 131.384 55.7863 131.058 55.7863 130.696V57.2342C55.7863 56.872 55.895 56.5822 56.1123 56.3648C56.4021 56.075 56.7281 55.9302 57.0904 55.9302H108.492C108.854 55.9302 109.144 56.075 109.361 56.3648C109.651 56.5822 109.796 56.872 109.796 57.2342V70.0574ZM122.744 132C122.237 132 121.875 131.855 121.657 131.565C121.44 131.276 121.476 130.913 121.766 130.479L142.305 94.2911C142.45 94.0737 142.45 93.8564 142.305 93.6391L121.766 57.4515L121.549 56.7995C121.549 56.2199 121.947 55.9302 122.744 55.9302H139.479C140.276 55.9302 140.82 56.2199 141.109 56.7995L153.389 79.6205C153.607 79.9103 153.824 79.9103 154.041 79.6205L166.43 56.7995C166.72 56.2199 167.263 55.9302 168.06 55.9302H184.795C185.302 55.9302 185.628 56.075 185.773 56.3648C185.918 56.6546 185.882 57.0169 185.665 57.4515L165.234 93.6391C165.162 93.8564 165.162 94.0737 165.234 94.2911L185.665 130.479C185.809 130.768 185.882 130.986 185.882 131.131C185.882 131.71 185.52 132 184.795 132H168.168C167.444 132 166.901 131.71 166.538 131.131L154.041 108.418C153.824 108.056 153.607 108.056 153.389 108.418L141.001 131.131C140.638 131.71 140.095 132 139.371 132H122.744ZM254.615 55.9302C254.977 55.9302 255.267 56.075 255.484 56.3648C255.774 56.5822 255.919 56.872 255.919 57.2342V70.1661C255.919 70.5283 255.774 70.8543 255.484 71.1441C255.267 71.3615 254.977 71.4701 254.615 71.4701H235.597C235.235 71.4701 235.054 71.6513 235.054 72.0135V130.696C235.054 131.058 234.909 131.384 234.619 131.674C234.402 131.891 234.112 132 233.75 132H218.319C217.956 132 217.63 131.891 217.34 131.674C217.123 131.384 217.014 131.058 217.014 130.696V72.0135C217.014 71.6513 216.833 71.4701 216.471 71.4701H198.106C197.743 71.4701 197.417 71.3615 197.128 71.1441C196.91 70.8543 196.802 70.5283 196.802 70.1661V57.2342C196.802 56.872 196.91 56.5822 197.128 56.3648C197.417 56.075 197.743 55.9302 198.106 55.9302H254.615ZM323.169 70.0574C323.169 70.4196 323.024 70.7457 322.735 71.0354C322.517 71.2528 322.227 71.3615 321.865 71.3615H287.742C287.38 71.3615 287.199 71.5426 287.199 71.9048V85.2714C287.199 85.6336 287.38 85.8147 287.742 85.8147H309.585C309.948 85.8147 310.237 85.9596 310.455 86.2494C310.745 86.4668 310.889 86.7566 310.889 87.1188V99.8333C310.889 100.196 310.745 100.522 310.455 100.811C310.237 101.029 309.948 101.137 309.585 101.137H287.742C287.38 101.137 287.199 101.318 287.199 101.681V116.025C287.199 116.388 287.38 116.569 287.742 116.569H321.865C322.227 116.569 322.517 116.714 322.735 117.003C323.024 117.221 323.169 117.511 323.169 117.873V130.696C323.169 131.058 323.024 131.384 322.735 131.674C322.517 131.891 322.227 132 321.865 132H270.464C270.101 132 269.775 131.891 269.486 131.674C269.268 131.384 269.16 131.058 269.16 130.696V57.2342C269.16 56.872 269.268 56.5822 269.486 56.3648C269.775 56.075 270.101 55.9302 270.464 55.9302H321.865C322.227 55.9302 322.517 56.075 322.735 56.3648C323.024 56.5822 323.169 56.872 323.169 57.2342V70.0574ZM380.455 57.2342C380.455 56.872 380.564 56.5822 380.781 56.3648C381.071 56.075 381.397 55.9302 381.759 55.9302H397.19C397.553 55.9302 397.843 56.075 398.06 56.3648C398.35 56.5822 398.495 56.872 398.495 57.2342V130.696C398.495 131.058 398.35 131.384 398.06 131.674C397.843 131.891 397.553 132 397.19 132H382.411C381.687 132 381.18 131.71 380.89 131.131L355.895 89.6182C355.751 89.4009 355.606 89.3284 355.461 89.4009C355.316 89.4009 355.243 89.5458 355.243 89.8356L355.352 130.696C355.352 131.058 355.207 131.384 354.917 131.674C354.7 131.891 354.41 132 354.048 132H338.617C338.254 132 337.928 131.891 337.639 131.674C337.421 131.384 337.313 131.058 337.313 130.696V57.2342C337.313 56.872 337.421 56.5822 337.639 56.3648C337.928 56.075 338.254 55.9302 338.617 55.9302H353.505C354.229 55.9302 354.736 56.2199 355.026 56.7995L379.912 98.2033C380.057 98.4206 380.202 98.5293 380.346 98.5293C380.491 98.4568 380.564 98.2757 380.564 97.9859L380.455 57.2342ZM442.301 132.869C436.288 132.869 431.035 131.928 426.544 130.044C422.124 128.088 418.683 125.335 416.22 121.785C413.829 118.163 412.634 113.997 412.634 109.288V107.223C412.634 106.861 412.742 106.571 412.96 106.354C413.249 106.064 413.575 105.919 413.938 105.919H429.043C429.405 105.919 429.695 106.064 429.912 106.354C430.202 106.571 430.347 106.861 430.347 107.223V108.527C430.347 110.918 431.542 113.019 433.933 114.83C436.324 116.569 439.548 117.438 443.605 117.438C446.793 117.438 449.147 116.75 450.669 115.373C452.19 113.997 452.951 112.403 452.951 110.592C452.951 109.143 452.48 107.984 451.538 107.114C450.669 106.172 449.473 105.412 447.952 104.832C446.43 104.18 444.076 103.311 440.888 102.224C440.454 102.007 440.019 101.862 439.584 101.789C439.149 101.645 438.751 101.5 438.389 101.355C433.68 99.8333 429.586 98.2033 426.109 96.4645C422.631 94.6533 419.661 92.1901 417.198 89.0749C414.735 85.8872 413.503 81.975 413.503 77.3384C413.503 72.8466 414.662 68.9345 416.981 65.6019C419.371 62.1969 422.668 59.5887 426.87 57.7776C431.072 55.9664 435.817 55.0608 441.106 55.0608C446.684 55.0608 451.683 56.0751 456.102 58.1036C460.594 60.1321 464.108 62.9938 466.643 66.6886C469.179 70.3834 470.447 74.6216 470.447 79.4031V80.9245C470.447 81.2868 470.302 81.6128 470.012 81.9026C469.795 82.1199 469.505 82.2286 469.143 82.2286H454.037C453.675 82.2286 453.349 82.1199 453.059 81.9026C452.842 81.6128 452.733 81.2868 452.733 80.9245V80.1638C452.733 77.6282 451.61 75.3823 449.365 73.4262C447.119 71.4701 444.112 70.4921 440.345 70.4921C437.519 70.4921 435.31 71.0717 433.716 72.2308C432.122 73.39 431.325 75.0201 431.325 77.121C431.325 78.7149 431.832 80.0552 432.847 81.1419C433.861 82.1561 435.418 83.1342 437.519 84.076C439.693 84.9454 442.989 86.1045 447.408 87.5535C452.48 89.2922 456.428 90.8136 459.254 92.1177C462.079 93.4217 464.723 95.5589 467.187 98.5293C469.722 101.427 470.99 105.267 470.99 110.048C470.99 114.758 469.795 118.815 467.404 122.22C465.013 125.625 461.644 128.269 457.298 130.153C453.023 131.964 448.024 132.869 442.301 132.869ZM486.49 132C486.128 132 485.802 131.891 485.512 131.674C485.295 131.384 485.186 131.058 485.186 130.696V57.2342C485.186 56.872 485.295 56.5822 485.512 56.3648C485.802 56.075 486.128 55.9302 486.49 55.9302H501.921C502.284 55.9302 502.574 56.075 502.791 56.3648C503.081 56.5822 503.226 56.872 503.226 57.2342V130.696C503.226 131.058 503.081 131.384 502.791 131.674C502.574 131.891 502.284 132 501.921 132H486.49ZM540.136 132C539.411 132 538.94 131.638 538.723 130.913L516.771 57.4515L516.663 57.0169C516.663 56.2924 517.061 55.9302 517.858 55.9302H534.485C535.282 55.9302 535.789 56.2924 536.006 57.0169L548.503 106.462C548.576 106.68 548.684 106.788 548.829 106.788C548.974 106.788 549.083 106.68 549.155 106.462L561.435 57.0169C561.652 56.2924 562.16 55.9302 562.957 55.9302H579.257C579.692 55.9302 580.018 56.075 580.235 56.3648C580.453 56.6546 580.489 57.0169 580.344 57.4515L558.066 130.913C557.849 131.638 557.378 132 556.654 132H540.136ZM647.379 70.0574C647.379 70.4196 647.234 70.7457 646.944 71.0354C646.727 71.2528 646.437 71.3615 646.075 71.3615H611.952C611.59 71.3615 611.409 71.5426 611.409 71.9048V85.2714C611.409 85.6336 611.59 85.8147 611.952 85.8147H633.795C634.157 85.8147 634.447 85.9596 634.664 86.2494C634.954 86.4668 635.099 86.7566 635.099 87.1188V99.8333C635.099 100.196 634.954 100.522 634.664 100.811C634.447 101.029 634.157 101.137 633.795 101.137H611.952C611.59 101.137 611.409 101.318 611.409 101.681V116.025C611.409 116.388 611.59 116.569 611.952 116.569H646.075C646.437 116.569 646.727 116.714 646.944 117.003C647.234 117.221 647.379 117.511 647.379 117.873V130.696C647.379 131.058 647.234 131.384 646.944 131.674C646.727 131.891 646.437 132 646.075 132H594.673C594.311 132 593.985 131.891 593.695 131.674C593.478 131.384 593.369 131.058 593.369 130.696V57.2342C593.369 56.872 593.478 56.5822 593.695 56.3648C593.985 56.075 594.311 55.9302 594.673 55.9302H646.075C646.437 55.9302 646.727 56.075 646.944 56.3648C647.234 56.5822 647.379 56.872 647.379 57.2342V70.0574Z" fill="#D9D9D9" fill-opacity="0.5" shape-rendering="crispEdges"/>
</g>
<path d="M123.009 193V166.92H131.969C133.889 166.92 135.622 167.187 137.169 167.72C138.742 168.227 139.996 169.093 140.929 170.32C141.862 171.547 142.329 173.213 142.329 175.32C142.329 177.347 141.862 179.013 140.929 180.32C139.996 181.627 138.756 182.6 137.209 183.24C135.662 183.853 133.969 184.16 132.129 184.16H128.889V193H123.009ZM128.889 179.48H131.769C134.969 179.48 136.569 178.093 136.569 175.32C136.569 173.96 136.142 173 135.289 172.44C134.436 171.88 133.209 171.6 131.609 171.6H128.889V179.48ZM146.837 193V171.88H155.197C156.824 171.88 158.304 172.093 159.637 172.52C160.997 172.92 162.09 173.613 162.917 174.6C163.744 175.587 164.157 176.973 164.157 178.76C164.157 180.2 163.81 181.427 163.117 182.44C162.45 183.453 161.557 184.253 160.437 184.84L165.357 193H159.157L155.197 186H152.717V193H146.837ZM152.717 182H154.877C156.104 182 157.024 181.747 157.637 181.24C158.277 180.707 158.597 180 158.597 179.12C158.597 178.16 158.264 177.48 157.597 177.08C156.93 176.68 155.997 176.48 154.797 176.48H152.717V182ZM178.539 193.48C176.459 193.48 174.632 193.04 173.059 192.16C171.486 191.28 170.246 190.013 169.339 188.36C168.459 186.68 168.019 184.68 168.019 182.36C168.019 180.013 168.459 178.027 169.339 176.4C170.246 174.773 171.486 173.533 173.059 172.68C174.632 171.827 176.459 171.4 178.539 171.4C180.592 171.4 182.392 171.827 183.939 172.68C185.512 173.533 186.739 174.773 187.619 176.4C188.526 178.027 188.979 180.013 188.979 182.36C188.979 184.68 188.526 186.68 187.619 188.36C186.739 190.013 185.512 191.28 183.939 192.16C182.392 193.04 180.592 193.48 178.539 193.48ZM178.539 188.64C179.899 188.64 180.966 188.08 181.739 186.96C182.539 185.84 182.939 184.307 182.939 182.36C182.939 180.387 182.539 178.88 181.739 177.84C180.966 176.773 179.899 176.24 178.539 176.24C177.152 176.24 176.059 176.773 175.259 177.84C174.459 178.88 174.059 180.387 174.059 182.36C174.059 184.307 174.459 185.84 175.259 186.96C176.059 188.08 177.152 188.64 178.539 188.64ZM193.907 193V171.88H208.387V176.68H199.787V180.92H207.187V185.32H199.787V193H193.907ZM212.931 193V171.88H227.291V176.44H218.811V180.12H226.091V184.4H218.811V188.44H227.691V193H212.931ZM239.972 193.48C238.292 193.48 236.678 193.213 235.132 192.68C233.612 192.12 232.305 191.4 231.212 190.52L234.012 186.56C234.998 187.307 236.012 187.893 237.052 188.32C238.118 188.747 239.185 188.96 240.252 188.96C241.105 188.96 241.718 188.787 242.092 188.44C242.492 188.093 242.692 187.667 242.692 187.16C242.692 186.6 242.452 186.147 241.972 185.8C241.492 185.453 240.878 185.147 240.132 184.88L237.892 184.04C236.932 183.693 236.025 183.267 235.172 182.76C234.345 182.227 233.665 181.573 233.132 180.8C232.625 180.027 232.372 179.093 232.372 178C232.372 176.667 232.718 175.507 233.412 174.52C234.105 173.507 235.078 172.733 236.332 172.2C237.585 171.64 239.038 171.36 240.692 171.36C242.425 171.36 243.918 171.64 245.172 172.2C246.452 172.76 247.545 173.387 248.452 174.08L245.572 177.84C244.798 177.307 243.985 176.867 243.132 176.52C242.305 176.147 241.438 175.96 240.532 175.96C239.012 175.96 238.252 176.533 238.252 177.68C238.252 178.16 238.478 178.547 238.932 178.84C239.412 179.133 240.038 179.427 240.812 179.72L243.012 180.52C244.052 180.867 244.985 181.28 245.812 181.76C246.665 182.24 247.345 182.867 247.852 183.64C248.358 184.413 248.612 185.427 248.612 186.68C248.612 187.96 248.265 189.12 247.572 190.16C246.905 191.173 245.918 191.987 244.612 192.6C243.332 193.187 241.785 193.48 239.972 193.48ZM259.737 193.48C258.057 193.48 256.444 193.213 254.897 192.68C253.377 192.12 252.071 191.4 250.977 190.52L253.777 186.56C254.764 187.307 255.777 187.893 256.817 188.32C257.884 188.747 258.951 188.96 260.017 188.96C260.871 188.96 261.484 188.787 261.857 188.44C262.257 188.093 262.457 187.667 262.457 187.16C262.457 186.6 262.217 186.147 261.737 185.8C261.257 185.453 260.644 185.147 259.897 184.88L257.657 184.04C256.697 183.693 255.791 183.267 254.937 182.76C254.111 182.227 253.431 181.573 252.897 180.8C252.391 180.027 252.137 179.093 252.137 178C252.137 176.667 252.484 175.507 253.177 174.52C253.871 173.507 254.844 172.733 256.097 172.2C257.351 171.64 258.804 171.36 260.457 171.36C262.191 171.36 263.684 171.64 264.937 172.2C266.217 172.76 267.311 173.387 268.217 174.08L265.337 177.84C264.564 177.307 263.751 176.867 262.897 176.52C262.071 176.147 261.204 175.96 260.297 175.96C258.777 175.96 258.017 176.533 258.017 177.68C258.017 178.16 258.244 178.547 258.697 178.84C259.177 179.133 259.804 179.427 260.577 179.72L262.777 180.52C263.817 180.867 264.751 181.28 265.577 181.76C266.431 182.24 267.111 182.867 267.617 183.64C268.124 184.413 268.377 185.427 268.377 186.68C268.377 187.96 268.031 189.12 267.337 190.16C266.671 191.173 265.684 191.987 264.377 192.6C263.097 193.187 261.551 193.48 259.737 193.48ZM272.814 193V171.88H278.694V193H272.814ZM294.125 193.48C292.045 193.48 290.218 193.04 288.645 192.16C287.072 191.28 285.832 190.013 284.925 188.36C284.045 186.68 283.605 184.68 283.605 182.36C283.605 180.013 284.045 178.027 284.925 176.4C285.832 174.773 287.072 173.533 288.645 172.68C290.218 171.827 292.045 171.4 294.125 171.4C296.178 171.4 297.978 171.827 299.525 172.68C301.098 173.533 302.325 174.773 303.205 176.4C304.112 178.027 304.565 180.013 304.565 182.36C304.565 184.68 304.112 186.68 303.205 188.36C302.325 190.013 301.098 191.28 299.525 192.16C297.978 193.04 296.178 193.48 294.125 193.48ZM294.125 188.64C295.485 188.64 296.552 188.08 297.325 186.96C298.125 185.84 298.525 184.307 298.525 182.36C298.525 180.387 298.125 178.88 297.325 177.84C296.552 176.773 295.485 176.24 294.125 176.24C292.738 176.24 291.645 176.773 290.845 177.84C290.045 178.88 289.645 180.387 289.645 182.36C289.645 184.307 290.045 185.84 290.845 186.96C291.645 188.08 292.738 188.64 294.125 188.64ZM309.493 193V171.88H315.413L320.413 181.08L322.733 186.12H322.893C322.813 185.347 322.707 184.48 322.573 183.52C322.467 182.533 322.373 181.533 322.293 180.52C322.213 179.507 322.173 178.56 322.173 177.68V171.88H327.573V193H321.813L316.613 183.76L314.333 178.76H314.173C314.307 179.987 314.453 181.373 314.613 182.92C314.8 184.44 314.893 185.867 314.893 187.2V193H309.493ZM338.991 182.8L338.591 184.44H342.711L342.271 182.8C342.004 181.787 341.738 180.693 341.471 179.52C341.231 178.32 340.964 177.2 340.671 176.16H340.511C340.271 177.227 340.018 178.347 339.751 179.52C339.511 180.693 339.258 181.787 338.991 182.8ZM330.431 193L337.231 171.88H344.231L351.071 193H344.911L343.791 188.68H337.511L336.391 193H330.431ZM353.868 193V171.88H359.748V188.2H368.148V193H353.868ZM380.704 193V166.92H397.024V171.88H386.584V177.12H395.464V182.04H386.584V188.04H397.424V193H380.704ZM399.978 193L406.058 182.16L400.338 171.88H406.818L408.378 175.2C408.592 175.68 408.832 176.213 409.098 176.8C409.365 177.387 409.645 178.027 409.938 178.72H410.098C410.365 178.027 410.618 177.387 410.858 176.8C411.098 176.213 411.312 175.68 411.498 175.2L412.818 171.88H419.058L413.338 182.4L419.418 193H412.938L411.138 189.36C410.872 188.8 410.605 188.24 410.338 187.68C410.072 187.093 409.792 186.467 409.498 185.8H409.338C409.098 186.467 408.858 187.093 408.618 187.68C408.378 188.24 408.152 188.8 407.938 189.36L406.218 193H399.978ZM422.97 193V171.88H431.53C433.157 171.88 434.637 172.093 435.97 172.52C437.33 172.947 438.423 173.68 439.25 174.72C440.077 175.733 440.49 177.133 440.49 178.92C440.49 180.653 440.063 182.067 439.21 183.16C438.383 184.253 437.29 185.053 435.93 185.56C434.57 186.067 433.103 186.32 431.53 186.32H428.85V193H422.97ZM428.85 182.28H431.33C432.503 182.28 433.383 182.013 433.97 181.48C434.583 180.92 434.89 180.187 434.89 179.28C434.89 178.293 434.597 177.587 434.01 177.16C433.423 176.707 432.53 176.48 431.33 176.48H428.85V182.28ZM445.001 193V171.88H459.361V176.44H450.881V180.12H458.161V184.4H450.881V188.44H459.761V193H445.001ZM464.962 193V171.88H473.322C474.949 171.88 476.429 172.093 477.762 172.52C479.122 172.92 480.215 173.613 481.042 174.6C481.869 175.587 482.282 176.973 482.282 178.76C482.282 180.2 481.935 181.427 481.242 182.44C480.575 183.453 479.682 184.253 478.562 184.84L483.482 193H477.282L473.322 186H470.842V193H464.962ZM470.842 182H473.002C474.229 182 475.149 181.747 475.762 181.24C476.402 180.707 476.722 180 476.722 179.12C476.722 178.16 476.389 177.48 475.722 177.08C475.055 176.68 474.122 176.48 472.922 176.48H470.842V182ZM487.384 193V171.88H493.264V193H487.384ZM499.415 193V171.88H513.775V176.44H505.295V180.12H512.575V184.4H505.295V188.44H514.175V193H499.415ZM519.376 193V171.88H525.296L530.296 181.08L532.616 186.12H532.776C532.696 185.347 532.589 184.48 532.456 183.52C532.349 182.533 532.256 181.533 532.176 180.52C532.096 179.507 532.056 178.56 532.056 177.68V171.88H537.456V193H531.696L526.496 183.76L524.216 178.76H524.056C524.189 179.987 524.336 181.373 524.496 182.92C524.683 184.44 524.776 185.867 524.776 187.2V193H519.376ZM553.034 193.48C551.114 193.48 549.341 193.08 547.714 192.28C546.114 191.48 544.821 190.28 543.834 188.68C542.874 187.053 542.394 185.027 542.394 182.6C542.394 180.2 542.901 178.173 543.914 176.52C544.954 174.84 546.301 173.573 547.954 172.72C549.634 171.84 551.447 171.4 553.394 171.4C554.807 171.4 556.101 171.68 557.274 172.24C558.447 172.773 559.434 173.427 560.234 174.2L557.034 177.72C556.474 177.213 555.914 176.84 555.354 176.6C554.821 176.36 554.181 176.24 553.434 176.24C552.047 176.24 550.847 176.787 549.834 177.88C548.847 178.947 548.354 180.453 548.354 182.4C548.354 184.427 548.807 185.973 549.714 187.04C550.621 188.107 551.807 188.64 553.274 188.64C554.154 188.64 554.914 188.48 555.554 188.16C556.221 187.84 556.794 187.44 557.274 186.96L560.474 190.4C559.514 191.44 558.394 192.213 557.114 192.72C555.834 193.227 554.474 193.48 553.034 193.48ZM564.415 193V171.88H578.775V176.44H570.295V180.12H577.575V184.4H570.295V188.44H579.175V193H564.415Z" fill="white"/>
<defs>
<filter id="filter0_d_9_5611" x="0.786255" y="0.0605469" width="701.592" height="187.809" filterUnits="userSpaceOnUse" color-interpolation-filters="sRGB">
<feFlood flood-opacity="0" result="BackgroundImageFix"/>
<feColorMatrix in="SourceAlpha" type="matrix" values="0 0 0 0 0 0 0 0 0 0 0 0 0 0 0 0 0 0 127 0" result="hardAlpha"/>
<feMorphology radius="5" operator="dilate" in="SourceAlpha" result="effect1_dropShadow_9_5611"/>
<feOffset/>
<feGaussianBlur stdDeviation="25"/>
<feComposite in2="hardAlpha" operator="out"/>
<feColorMatrix type="matrix" values="0 0 0 0 1 0 0 0 0 1 0 0 0 0 1 0 0 0 0.25 0"/>
<feBlend mode="normal" in2="BackgroundImageFix" result="effect1_dropShadow_9_5611"/>
<feBlend mode="normal" in="SourceGraphic" in2="effect1_dropShadow_9_5611" result="shape"/>
</filter>
</defs>
</svg>
