<svg width="598" height="204" viewBox="0 0 598 204" fill="none" xmlns="http://www.w3.org/2000/svg">
<g filter="url(#filter0_d_9_5609)">
<path d="M78.072 132C77.7097 132 77.3837 131.891 77.0939 131.674C76.8766 131.384 76.7679 131.058 76.7679 130.696V57.2342C76.7679 56.872 76.8766 56.5822 77.0939 56.3648C77.3837 56.075 77.7097 55.9302 78.072 55.9302H105.783C111.434 55.9302 116.433 56.9082 120.78 58.8643C125.127 60.8204 128.495 63.6096 130.886 67.232C133.277 70.8543 134.472 75.0201 134.472 79.7291V108.201C134.472 112.91 133.277 117.076 130.886 120.698C128.495 124.321 125.127 127.11 120.78 129.066C116.433 131.022 111.434 132 105.783 132H78.072ZM94.8073 116.025C94.8073 116.388 94.9885 116.569 95.3507 116.569H106.544C109.442 116.569 111.796 115.554 113.607 113.526C115.419 111.425 116.36 108.636 116.433 105.158V82.7719C116.433 79.2945 115.491 76.5415 113.607 74.5129C111.796 72.412 109.406 71.3615 106.435 71.3615H95.3507C94.9885 71.3615 94.8073 71.5426 94.8073 71.9048V116.025ZM150.682 132C150.32 132 149.994 131.891 149.704 131.674C149.487 131.384 149.378 131.058 149.378 130.696V57.2342C149.378 56.872 149.487 56.5822 149.704 56.3648C149.994 56.075 150.32 55.9302 150.682 55.9302H166.113C166.476 55.9302 166.766 56.075 166.983 56.3648C167.273 56.5822 167.418 56.872 167.418 57.2342V130.696C167.418 131.058 167.273 131.384 166.983 131.674C166.766 131.891 166.476 132 166.113 132H150.682ZM204.328 132C203.603 132 203.132 131.638 202.915 130.913L180.963 57.4515L180.855 57.0169C180.855 56.2924 181.253 55.9302 182.05 55.9302H198.677C199.474 55.9302 199.981 56.2924 200.198 57.0169L212.695 106.462C212.768 106.68 212.876 106.788 213.021 106.788C213.166 106.788 213.275 106.68 213.347 106.462L225.627 57.0169C225.844 56.2924 226.352 55.9302 227.149 55.9302H243.449C243.884 55.9302 244.21 56.075 244.427 56.3648C244.645 56.6546 244.681 57.0169 244.536 57.4515L222.258 130.913C222.041 131.638 221.57 132 220.846 132H204.328ZM311.571 70.0574C311.571 70.4196 311.426 70.7457 311.136 71.0354C310.919 71.2528 310.629 71.3615 310.267 71.3615H276.144C275.782 71.3615 275.601 71.5426 275.601 71.9048V85.2714C275.601 85.6336 275.782 85.8147 276.144 85.8147H297.987C298.349 85.8147 298.639 85.9596 298.856 86.2494C299.146 86.4668 299.291 86.7566 299.291 87.1188V99.8333C299.291 100.196 299.146 100.522 298.856 100.811C298.639 101.029 298.349 101.137 297.987 101.137H276.144C275.782 101.137 275.601 101.318 275.601 101.681V116.025C275.601 116.388 275.782 116.569 276.144 116.569H310.267C310.629 116.569 310.919 116.714 311.136 117.003C311.426 117.221 311.571 117.511 311.571 117.873V130.696C311.571 131.058 311.426 131.384 311.136 131.674C310.919 131.891 310.629 132 310.267 132H258.865C258.503 132 258.177 131.891 257.887 131.674C257.67 131.384 257.561 131.058 257.561 130.696V57.2342C257.561 56.872 257.67 56.5822 257.887 56.3648C258.177 56.075 258.503 55.9302 258.865 55.9302H310.267C310.629 55.9302 310.919 56.075 311.136 56.3648C311.426 56.5822 311.571 56.872 311.571 57.2342V70.0574ZM366.466 132C365.741 132 365.234 131.674 364.944 131.022L352.121 102.115C351.976 101.826 351.759 101.681 351.469 101.681H344.297C343.935 101.681 343.754 101.862 343.754 102.224V130.696C343.754 131.058 343.609 131.384 343.319 131.674C343.102 131.891 342.812 132 342.449 132H327.018C326.656 132 326.33 131.891 326.04 131.674C325.823 131.384 325.714 131.058 325.714 130.696V57.2342C325.714 56.872 325.823 56.5822 326.04 56.3648C326.33 56.075 326.656 55.9302 327.018 55.9302H359.294C364.075 55.9302 368.277 56.9082 371.899 58.8643C375.522 60.8204 378.311 63.6096 380.267 67.232C382.296 70.7819 383.31 74.8752 383.31 79.5118C383.31 84.3658 382.114 88.5677 379.724 92.1177C377.333 95.6676 374 98.2395 369.726 99.8333C369.364 99.9782 369.255 100.232 369.4 100.594L383.745 130.479C383.889 130.768 383.962 130.986 383.962 131.131C383.962 131.71 383.563 132 382.767 132H366.466ZM344.297 71.3615C343.935 71.3615 343.754 71.5426 343.754 71.9048V87.3361C343.754 87.6984 343.935 87.8795 344.297 87.8795H356.359C359.04 87.8795 361.213 87.155 362.88 85.7061C364.546 84.1847 365.379 82.1924 365.379 79.7291C365.379 77.1935 364.546 75.165 362.88 73.6436C361.213 72.1222 359.04 71.3615 356.359 71.3615H344.297ZM425.502 132.869C419.489 132.869 414.237 131.928 409.745 130.044C405.326 128.088 401.884 125.335 399.421 121.785C397.03 118.163 395.835 113.997 395.835 109.288V107.223C395.835 106.861 395.944 106.571 396.161 106.354C396.451 106.064 396.777 105.919 397.139 105.919H412.244C412.607 105.919 412.896 106.064 413.114 106.354C413.404 106.571 413.548 106.861 413.548 107.223V108.527C413.548 110.918 414.744 113.019 417.135 114.83C419.525 116.569 422.749 117.438 426.806 117.438C429.994 117.438 432.349 116.75 433.87 115.373C435.391 113.997 436.152 112.403 436.152 110.592C436.152 109.143 435.681 107.984 434.739 107.114C433.87 106.172 432.675 105.412 431.153 104.832C429.632 104.18 427.277 103.311 424.09 102.224C423.655 102.007 423.22 101.862 422.786 101.789C422.351 101.645 421.952 101.5 421.59 101.355C416.881 99.8333 412.788 98.2033 409.31 96.4645C405.833 94.6533 402.862 92.1901 400.399 89.0749C397.936 85.8872 396.704 81.975 396.704 77.3384C396.704 72.8466 397.864 68.9345 400.182 65.6019C402.573 62.1969 405.869 59.5887 410.071 57.7776C414.273 55.9664 419.018 55.0608 424.307 55.0608C429.885 55.0608 434.884 56.0751 439.304 58.1036C443.795 60.1321 447.309 62.9938 449.845 66.6886C452.38 70.3834 453.648 74.6216 453.648 79.4031V80.9245C453.648 81.2868 453.503 81.6128 453.213 81.9026C452.996 82.1199 452.706 82.2286 452.344 82.2286H437.239C436.877 82.2286 436.551 82.1199 436.261 81.9026C436.043 81.6128 435.935 81.2868 435.935 80.9245V80.1638C435.935 77.6282 434.812 75.3823 432.566 73.4262C430.32 71.4701 427.314 70.4921 423.546 70.4921C420.721 70.4921 418.511 71.0717 416.917 72.2308C415.323 73.39 414.527 75.0201 414.527 77.121C414.527 78.7149 415.034 80.0552 416.048 81.1419C417.062 82.1561 418.62 83.1342 420.721 84.076C422.894 84.9454 426.191 86.1045 430.61 87.5535C435.681 89.2922 439.63 90.8136 442.455 92.1177C445.28 93.4217 447.925 95.5589 450.388 98.5293C452.924 101.427 454.192 105.267 454.192 110.048C454.192 114.758 452.996 118.815 450.605 122.22C448.215 125.625 444.846 128.269 440.499 130.153C436.225 131.964 431.226 132.869 425.502 132.869ZM522.397 70.0574C522.397 70.4196 522.252 70.7457 521.962 71.0354C521.745 71.2528 521.455 71.3615 521.093 71.3615H486.97C486.608 71.3615 486.427 71.5426 486.427 71.9048V85.2714C486.427 85.6336 486.608 85.8147 486.97 85.8147H508.813C509.175 85.8147 509.465 85.9596 509.683 86.2494C509.972 86.4668 510.117 86.7566 510.117 87.1188V99.8333C510.117 100.196 509.972 100.522 509.683 100.811C509.465 101.029 509.175 101.137 508.813 101.137H486.97C486.608 101.137 486.427 101.318 486.427 101.681V116.025C486.427 116.388 486.608 116.569 486.97 116.569H521.093C521.455 116.569 521.745 116.714 521.962 117.003C522.252 117.221 522.397 117.511 522.397 117.873V130.696C522.397 131.058 522.252 131.384 521.962 131.674C521.745 131.891 521.455 132 521.093 132H469.692C469.329 132 469.003 131.891 468.714 131.674C468.496 131.384 468.388 131.058 468.388 130.696V57.2342C468.388 56.872 468.496 56.5822 468.714 56.3648C469.003 56.075 469.329 55.9302 469.692 55.9302H521.093C521.455 55.9302 521.745 56.075 521.962 56.3648C522.252 56.5822 522.397 56.872 522.397 57.2342V70.0574Z" fill="#D9D9D9" fill-opacity="0.5" shape-rendering="crispEdges"/>
</g>
<path d="M8.41317 193V171.88H1.25317V166.92H21.4932V171.88H14.3332V193H8.41317ZM24.466 193V171.88H38.826V176.44H30.346V180.12H37.626V184.4H30.346V188.44H39.226V193H24.466ZM49.6669 182.8L49.2669 184.44H53.3869L52.9469 182.8C52.6803 181.787 52.4136 180.693 52.1469 179.52C51.9069 178.32 51.6403 177.2 51.3469 176.16H51.1869C50.9469 177.227 50.6936 178.347 50.4269 179.52C50.1869 180.693 49.9336 181.787 49.6669 182.8ZM41.1069 193L47.9069 171.88H54.9069L61.7469 193H55.5869L54.4669 188.68H48.1869L47.0669 193H41.1069ZM64.5441 193V171.88H70.5441L73.8641 180.48L75.1441 184.04H75.3041L76.6241 180.48L79.8241 171.88H85.7841V193H80.5041V187.08C80.5041 186.36 80.5441 185.52 80.6241 184.56C80.7308 183.573 80.8374 182.6 80.9441 181.64C81.0774 180.68 81.1841 179.84 81.2641 179.12H81.1041L79.1041 184.08L76.1041 191.32H74.1841L71.1841 184.08L69.2241 179.12H69.0641C69.1708 179.84 69.2774 180.68 69.3841 181.64C69.4908 182.6 69.5841 183.573 69.6641 184.56C69.7708 185.52 69.8241 186.36 69.8241 187.08V193H64.5441ZM99.9347 193V166.92H106.375L110.575 178.52C110.841 179.267 111.095 180.053 111.335 180.88C111.575 181.707 111.828 182.52 112.095 183.32H112.255C112.521 182.52 112.761 181.707 112.975 180.88C113.215 180.053 113.468 179.267 113.735 178.52L117.855 166.92H124.255V193H118.895V183.44C118.895 182.587 118.935 181.64 119.015 180.6C119.121 179.533 119.228 178.467 119.335 177.4C119.468 176.333 119.575 175.387 119.655 174.56H119.495L117.375 180.76L113.655 190.72H110.415L106.695 180.76L104.615 174.56H104.455C104.561 175.387 104.668 176.333 104.775 177.4C104.881 178.467 104.975 179.533 105.055 180.6C105.161 181.64 105.215 182.587 105.215 183.44V193H99.9347ZM130.403 193V171.88H144.763V176.44H136.283V180.12H143.563V184.4H136.283V188.44H145.163V193H130.403ZM150.364 193V171.88H156.364L159.684 180.48L160.964 184.04H161.124L162.444 180.48L165.644 171.88H171.604V193H166.324V187.08C166.324 186.36 166.364 185.52 166.444 184.56C166.551 183.573 166.658 182.6 166.764 181.64C166.898 180.68 167.004 179.84 167.084 179.12H166.924L164.924 184.08L161.924 191.32H160.004L157.004 184.08L155.044 179.12H154.884C154.991 179.84 155.098 180.68 155.204 181.64C155.311 182.6 155.404 183.573 155.484 184.56C155.591 185.52 155.644 186.36 155.644 187.08V193H150.364ZM177.747 193V171.88H185.707C187.281 171.88 188.707 172.027 189.987 172.32C191.267 172.613 192.281 173.147 193.027 173.92C193.801 174.667 194.187 175.747 194.187 177.16C194.187 178.067 193.894 178.973 193.307 179.88C192.747 180.76 191.827 181.36 190.547 181.68V181.84C192.067 182.16 193.214 182.72 193.987 183.52C194.787 184.32 195.187 185.427 195.187 186.84C195.187 188.28 194.787 189.453 193.987 190.36C193.187 191.267 192.121 191.933 190.787 192.36C189.481 192.787 188.014 193 186.387 193H177.747ZM183.627 180.32H185.787C186.881 180.32 187.654 180.12 188.107 179.72C188.587 179.293 188.827 178.747 188.827 178.08C188.827 177.387 188.574 176.893 188.067 176.6C187.561 176.307 186.801 176.16 185.787 176.16H183.627V180.32ZM183.627 188.72H185.987C188.361 188.72 189.547 187.907 189.547 186.28C189.547 184.76 188.361 184 185.987 184H183.627V188.72ZM199.583 193V171.88H213.943V176.44H205.463V180.12H212.743V184.4H205.463V188.44H214.343V193H199.583ZM219.544 193V171.88H227.904C229.531 171.88 231.011 172.093 232.344 172.52C233.704 172.92 234.797 173.613 235.624 174.6C236.451 175.587 236.864 176.973 236.864 178.76C236.864 180.2 236.517 181.427 235.824 182.44C235.157 183.453 234.264 184.253 233.144 184.84L238.064 193H231.864L227.904 186H225.424V193H219.544ZM225.424 182H227.584C228.811 182 229.731 181.747 230.344 181.24C230.984 180.707 231.304 180 231.304 179.12C231.304 178.16 230.971 177.48 230.304 177.08C229.637 176.68 228.704 176.48 227.504 176.48H225.424V182ZM248.655 193.48C246.975 193.48 245.362 193.213 243.815 192.68C242.295 192.12 240.989 191.4 239.895 190.52L242.695 186.56C243.682 187.307 244.695 187.893 245.735 188.32C246.802 188.747 247.869 188.96 248.935 188.96C249.789 188.96 250.402 188.787 250.775 188.44C251.175 188.093 251.375 187.667 251.375 187.16C251.375 186.6 251.135 186.147 250.655 185.8C250.175 185.453 249.562 185.147 248.815 184.88L246.575 184.04C245.615 183.693 244.709 183.267 243.855 182.76C243.029 182.227 242.349 181.573 241.815 180.8C241.309 180.027 241.055 179.093 241.055 178C241.055 176.667 241.402 175.507 242.095 174.52C242.789 173.507 243.762 172.733 245.015 172.2C246.269 171.64 247.722 171.36 249.375 171.36C251.109 171.36 252.602 171.64 253.855 172.2C255.135 172.76 256.229 173.387 257.135 174.08L254.255 177.84C253.482 177.307 252.669 176.867 251.815 176.52C250.989 176.147 250.122 175.96 249.215 175.96C247.695 175.96 246.935 176.533 246.935 177.68C246.935 178.16 247.162 178.547 247.615 178.84C248.095 179.133 248.722 179.427 249.495 179.72L251.695 180.52C252.735 180.867 253.669 181.28 254.495 181.76C255.349 182.24 256.029 182.867 256.535 183.64C257.042 184.413 257.295 185.427 257.295 186.68C257.295 187.96 256.949 189.12 256.255 190.16C255.589 191.173 254.602 191.987 253.295 192.6C252.015 193.187 250.469 193.48 248.655 193.48ZM274.979 182.8L274.579 184.44H278.699L278.259 182.8C277.993 181.787 277.726 180.693 277.459 179.52C277.219 178.32 276.953 177.2 276.659 176.16H276.499C276.259 177.227 276.006 178.347 275.739 179.52C275.499 180.693 275.246 181.787 274.979 182.8ZM266.419 193L273.219 171.88H280.219L287.059 193H280.899L279.779 188.68H273.499L272.379 193H266.419ZM299.257 193.48C297.337 193.48 295.563 193.08 293.937 192.28C292.337 191.48 291.043 190.28 290.057 188.68C289.097 187.053 288.617 185.027 288.617 182.6C288.617 180.2 289.123 178.173 290.137 176.52C291.177 174.84 292.523 173.573 294.177 172.72C295.857 171.84 297.67 171.4 299.617 171.4C301.03 171.4 302.323 171.68 303.497 172.24C304.67 172.773 305.657 173.427 306.457 174.2L303.257 177.72C302.697 177.213 302.137 176.84 301.577 176.6C301.043 176.36 300.403 176.24 299.657 176.24C298.27 176.24 297.07 176.787 296.057 177.88C295.07 178.947 294.577 180.453 294.577 182.4C294.577 184.427 295.03 185.973 295.937 187.04C296.843 188.107 298.03 188.64 299.497 188.64C300.377 188.64 301.137 188.48 301.777 188.16C302.443 187.84 303.017 187.44 303.497 186.96L306.697 190.4C305.737 191.44 304.617 192.213 303.337 192.72C302.057 193.227 300.697 193.48 299.257 193.48ZM310.638 193V171.88H318.998C320.625 171.88 322.105 172.093 323.438 172.52C324.798 172.92 325.891 173.613 326.718 174.6C327.545 175.587 327.958 176.973 327.958 178.76C327.958 180.2 327.611 181.427 326.918 182.44C326.251 183.453 325.358 184.253 324.238 184.84L329.158 193H322.958L318.998 186H316.518V193H310.638ZM316.518 182H318.678C319.905 182 320.825 181.747 321.438 181.24C322.078 180.707 322.398 180 322.398 179.12C322.398 178.16 322.065 177.48 321.398 177.08C320.731 176.68 319.798 176.48 318.598 176.48H316.518V182ZM342.34 193.48C340.26 193.48 338.433 193.04 336.86 192.16C335.286 191.28 334.046 190.013 333.14 188.36C332.26 186.68 331.82 184.68 331.82 182.36C331.82 180.013 332.26 178.027 333.14 176.4C334.046 174.773 335.286 173.533 336.86 172.68C338.433 171.827 340.26 171.4 342.34 171.4C344.393 171.4 346.193 171.827 347.74 172.68C349.313 173.533 350.54 174.773 351.42 176.4C352.326 178.027 352.78 180.013 352.78 182.36C352.78 184.68 352.326 186.68 351.42 188.36C350.54 190.013 349.313 191.28 347.74 192.16C346.193 193.04 344.393 193.48 342.34 193.48ZM342.34 188.64C343.7 188.64 344.766 188.08 345.54 186.96C346.34 185.84 346.74 184.307 346.74 182.36C346.74 180.387 346.34 178.88 345.54 177.84C344.766 176.773 343.7 176.24 342.34 176.24C340.953 176.24 339.86 176.773 339.06 177.84C338.26 178.88 337.86 180.387 337.86 182.36C337.86 184.307 338.26 185.84 339.06 186.96C339.86 188.08 340.953 188.64 342.34 188.64ZM364.788 193.48C363.108 193.48 361.495 193.213 359.948 192.68C358.428 192.12 357.122 191.4 356.028 190.52L358.828 186.56C359.815 187.307 360.828 187.893 361.868 188.32C362.935 188.747 364.002 188.96 365.068 188.96C365.922 188.96 366.535 188.787 366.908 188.44C367.308 188.093 367.508 187.667 367.508 187.16C367.508 186.6 367.268 186.147 366.788 185.8C366.308 185.453 365.695 185.147 364.948 184.88L362.708 184.04C361.748 183.693 360.842 183.267 359.988 182.76C359.162 182.227 358.482 181.573 357.948 180.8C357.442 180.027 357.188 179.093 357.188 178C357.188 176.667 357.535 175.507 358.228 174.52C358.922 173.507 359.895 172.733 361.148 172.2C362.402 171.64 363.855 171.36 365.508 171.36C367.242 171.36 368.735 171.64 369.988 172.2C371.268 172.76 372.362 173.387 373.268 174.08L370.388 177.84C369.615 177.307 368.802 176.867 367.948 176.52C367.122 176.147 366.255 175.96 365.348 175.96C363.828 175.96 363.068 176.533 363.068 177.68C363.068 178.16 363.295 178.547 363.748 178.84C364.228 179.133 364.855 179.427 365.628 179.72L367.828 180.52C368.868 180.867 369.802 181.28 370.628 181.76C371.482 182.24 372.162 182.867 372.668 183.64C373.175 184.413 373.428 185.427 373.428 186.68C373.428 187.96 373.082 189.12 372.388 190.16C371.722 191.173 370.735 191.987 369.428 192.6C368.148 193.187 366.602 193.48 364.788 193.48ZM384.554 193.48C382.874 193.48 381.26 193.213 379.714 192.68C378.194 192.12 376.887 191.4 375.794 190.52L378.594 186.56C379.58 187.307 380.594 187.893 381.634 188.32C382.7 188.747 383.767 188.96 384.834 188.96C385.687 188.96 386.3 188.787 386.674 188.44C387.074 188.093 387.274 187.667 387.274 187.16C387.274 186.6 387.034 186.147 386.554 185.8C386.074 185.453 385.46 185.147 384.714 184.88L382.474 184.04C381.514 183.693 380.607 183.267 379.754 182.76C378.927 182.227 378.247 181.573 377.714 180.8C377.207 180.027 376.954 179.093 376.954 178C376.954 176.667 377.3 175.507 377.994 174.52C378.687 173.507 379.66 172.733 380.914 172.2C382.167 171.64 383.62 171.36 385.274 171.36C387.007 171.36 388.5 171.64 389.754 172.2C391.034 172.76 392.127 173.387 393.034 174.08L390.154 177.84C389.38 177.307 388.567 176.867 387.714 176.52C386.887 176.147 386.02 175.96 385.114 175.96C383.594 175.96 382.834 176.533 382.834 177.68C382.834 178.16 383.06 178.547 383.514 178.84C383.994 179.133 384.62 179.427 385.394 179.72L387.594 180.52C388.634 180.867 389.567 181.28 390.394 181.76C391.247 182.24 391.927 182.867 392.434 183.64C392.94 184.413 393.194 185.427 393.194 186.68C393.194 187.96 392.847 189.12 392.154 190.16C391.487 191.173 390.5 191.987 389.194 192.6C387.914 193.187 386.367 193.48 384.554 193.48ZM409.438 193V176.68H403.558V171.88H421.198V176.68H415.318V193H409.438ZM425.286 193V171.88H431.166V179.64H438.086V171.88H444.006V193H438.086V184.72H431.166V193H425.286ZM450.13 193V171.88H464.49V176.44H456.01V180.12H463.29V184.4H456.01V188.44H464.89V193H450.13ZM480.419 193L475.579 166.92H481.619L483.419 179.12C483.579 180.48 483.752 181.853 483.939 183.24C484.125 184.6 484.299 185.973 484.459 187.36H484.619C484.885 185.973 485.139 184.6 485.379 183.24C485.645 181.853 485.912 180.48 486.179 179.12L488.979 166.92H493.979L496.779 179.12C497.045 180.427 497.299 181.773 497.539 183.16C497.805 184.547 498.072 185.947 498.339 187.36H498.499C498.685 185.947 498.859 184.56 499.019 183.2C499.205 181.813 499.392 180.453 499.579 179.12L501.379 166.92H507.019L502.379 193H494.979L492.419 181.16C492.205 180.147 492.005 179.133 491.819 178.12C491.659 177.08 491.512 176.08 491.379 175.12H491.219C491.059 176.08 490.885 177.08 490.699 178.12C490.539 179.133 490.352 180.147 490.139 181.16L487.699 193H480.419ZM520.23 193.48C518.15 193.48 516.324 193.04 514.75 192.16C513.177 191.28 511.937 190.013 511.03 188.36C510.15 186.68 509.71 184.68 509.71 182.36C509.71 180.013 510.15 178.027 511.03 176.4C511.937 174.773 513.177 173.533 514.75 172.68C516.324 171.827 518.15 171.4 520.23 171.4C522.284 171.4 524.084 171.827 525.63 172.68C527.204 173.533 528.43 174.773 529.31 176.4C530.217 178.027 530.67 180.013 530.67 182.36C530.67 184.68 530.217 186.68 529.31 188.36C528.43 190.013 527.204 191.28 525.63 192.16C524.084 193.04 522.284 193.48 520.23 193.48ZM520.23 188.64C521.59 188.64 522.657 188.08 523.43 186.96C524.23 185.84 524.63 184.307 524.63 182.36C524.63 180.387 524.23 178.88 523.43 177.84C522.657 176.773 521.59 176.24 520.23 176.24C518.844 176.24 517.75 176.773 516.95 177.84C516.15 178.88 515.75 180.387 515.75 182.36C515.75 184.307 516.15 185.84 516.95 186.96C517.75 188.08 518.844 188.64 520.23 188.64ZM535.599 193V171.88H543.959C545.585 171.88 547.065 172.093 548.399 172.52C549.759 172.92 550.852 173.613 551.679 174.6C552.505 175.587 552.919 176.973 552.919 178.76C552.919 180.2 552.572 181.427 551.879 182.44C551.212 183.453 550.319 184.253 549.199 184.84L554.119 193H547.919L543.959 186H541.479V193H535.599ZM541.479 182H543.639C544.865 182 545.785 181.747 546.399 181.24C547.039 180.707 547.359 180 547.359 179.12C547.359 178.16 547.025 177.48 546.359 177.08C545.692 176.68 544.759 176.48 543.559 176.48H541.479V182ZM558.021 193V171.88H563.901V188.2H572.301V193H558.021ZM576.849 193V171.88H583.449C585.715 171.88 587.715 172.227 589.449 172.92C591.209 173.587 592.595 174.68 593.609 176.2C594.622 177.72 595.129 179.76 595.129 182.32C595.129 184.88 594.622 186.947 593.609 188.52C592.622 190.067 591.275 191.2 589.569 191.92C587.889 192.64 585.982 193 583.849 193H576.849ZM582.729 188.44H583.809C585.462 188.44 586.755 187.973 587.689 187.04C588.622 186.08 589.089 184.507 589.089 182.32C589.089 180.187 588.622 178.68 587.689 177.8C586.755 176.893 585.462 176.44 583.809 176.44H582.729V188.44Z" fill="white"/>
<defs>
<filter id="filter0_d_9_5609" x="21.7679" y="0.0605469" width="555.629" height="187.809" filterUnits="userSpaceOnUse" color-interpolation-filters="sRGB">
<feFlood flood-opacity="0" result="BackgroundImageFix"/>
<feColorMatrix in="SourceAlpha" type="matrix" values="0 0 0 0 0 0 0 0 0 0 0 0 0 0 0 0 0 0 127 0" result="hardAlpha"/>
<feMorphology radius="5" operator="dilate" in="SourceAlpha" result="effect1_dropShadow_9_5609"/>
<feOffset/>
<feGaussianBlur stdDeviation="25"/>
<feComposite in2="hardAlpha" operator="out"/>
<feColorMatrix type="matrix" values="0 0 0 0 1 0 0 0 0 1 0 0 0 0 1 0 0 0 0.25 0"/>
<feBlend mode="normal" in2="BackgroundImageFix" result="effect1_dropShadow_9_5609"/>
<feBlend mode="normal" in="SourceGraphic" in2="effect1_dropShadow_9_5609" result="shape"/>
</filter>
</defs>
</svg>
