<svg width="703" height="638" viewBox="0 0 703 638" fill="none" xmlns="http://www.w3.org/2000/svg">
<g filter="url(#filter0_d_9_5601)">
<path d="M312.379 95.7038C313.973 98.964 314.77 102.84 314.77 107.332C314.77 111.534 314.045 115.192 312.596 118.307C310.713 122.727 307.634 126.24 303.359 128.849C299.085 131.384 294.086 132.652 288.363 132.652C282.712 132.652 277.749 131.348 273.475 128.74C269.2 126.132 266.085 122.546 264.129 117.981C262.752 114.794 262.064 111.208 262.064 107.223V74.9476C262.064 71.0354 263.115 67.5942 265.216 64.6239C267.389 61.5811 270.396 59.2265 274.235 57.5602C278.148 55.8939 282.639 55.0608 287.711 55.0608C292.637 55.0608 296.984 55.8939 300.751 57.5602C304.591 59.1541 307.561 61.4724 309.662 64.5152C311.763 67.4855 312.814 70.8906 312.814 74.7303V78.4251C312.814 78.7873 312.669 79.1133 312.379 79.4031C312.162 79.6205 311.872 79.7291 311.51 79.7291H296.078C295.716 79.7291 295.39 79.6205 295.1 79.4031C294.883 79.1133 294.774 78.7873 294.774 78.4251V77.3384C294.774 75.3823 294.086 73.7522 292.709 72.4482C291.405 71.1441 289.703 70.4921 287.602 70.4921C285.429 70.4921 283.617 71.1803 282.168 72.5568C280.792 73.8609 280.104 75.5272 280.104 77.5557V86.0321C280.104 86.2494 280.176 86.3943 280.321 86.4668C280.466 86.5392 280.611 86.503 280.756 86.3581C283.581 84.1847 287.24 83.098 291.731 83.098C296.151 83.098 300.172 84.1847 303.794 86.3581C307.489 88.5315 310.35 91.6468 312.379 95.7038ZM295.1 113.526C296.187 111.86 296.73 109.904 296.73 107.658C296.73 105.339 296.151 103.275 294.992 101.463C293.47 99.29 291.297 98.2033 288.471 98.2033C285.356 98.2033 283.11 99.3262 281.734 101.572C280.719 103.166 280.212 105.194 280.212 107.658C280.212 109.904 280.683 111.86 281.625 113.526C283.002 115.989 285.247 117.221 288.363 117.221C291.333 117.221 293.579 115.989 295.1 113.526ZM353.992 133.304C345.66 133.304 339.104 130.986 334.322 126.349C329.541 121.64 327.15 115.265 327.15 107.223V80.7072C327.15 72.738 329.541 66.4713 334.322 61.9071C339.104 57.3429 345.66 55.0608 353.992 55.0608C362.323 55.0608 368.916 57.3791 373.77 62.0157C378.624 66.5799 381.051 72.8104 381.051 80.7072V107.223C381.051 115.265 378.624 121.64 373.77 126.349C368.916 130.986 362.323 133.304 353.992 133.304ZM353.992 117.764C356.745 117.764 358.918 116.931 360.512 115.265C362.178 113.526 363.011 111.171 363.011 108.201V80.0552C363.011 77.0848 362.178 74.7665 360.512 73.1002C358.918 71.3615 356.745 70.4921 353.992 70.4921C351.311 70.4921 349.174 71.3615 347.58 73.1002C345.986 74.7665 345.189 77.0848 345.189 80.0552V108.201C345.189 111.171 345.95 113.526 347.471 115.265C349.065 116.931 351.239 117.764 353.992 117.764ZM438.678 92.1177C439.04 92.1177 439.33 92.2626 439.547 92.5524C439.837 92.7697 439.982 93.0595 439.982 93.4217V106.245C439.982 106.607 439.837 106.933 439.547 107.223C439.33 107.44 439.04 107.549 438.678 107.549H424.877C424.514 107.549 424.333 107.73 424.333 108.092V121.785C424.333 122.147 424.188 122.473 423.899 122.763C423.681 122.98 423.391 123.089 423.029 123.089H410.315C409.952 123.089 409.626 122.98 409.337 122.763C409.119 122.473 409.011 122.147 409.011 121.785V108.092C409.011 107.73 408.829 107.549 408.467 107.549H394.557C394.195 107.549 393.869 107.44 393.579 107.223C393.362 106.933 393.253 106.607 393.253 106.245V93.4217C393.253 93.0595 393.362 92.7697 393.579 92.5524C393.869 92.2626 394.195 92.1177 394.557 92.1177H408.467C408.829 92.1177 409.011 91.9365 409.011 91.5743V77.6644C409.011 77.3022 409.119 77.0124 409.337 76.795C409.626 76.5052 409.952 76.3603 410.315 76.3603H423.029C423.391 76.3603 423.681 76.5052 423.899 76.795C424.188 77.0124 424.333 77.3022 424.333 77.6644V91.5743C424.333 91.9365 424.514 92.1177 424.877 92.1177H438.678Z" fill="#D9D9D9" fill-opacity="0.5" shape-rendering="crispEdges"/>
</g>
<path d="M117.638 193V166.92H126.598C128.518 166.92 130.251 167.187 131.798 167.72C133.371 168.227 134.625 169.093 135.558 170.32C136.491 171.547 136.958 173.213 136.958 175.32C136.958 177.347 136.491 179.013 135.558 180.32C134.625 181.627 133.385 182.6 131.838 183.24C130.291 183.853 128.598 184.16 126.758 184.16H123.518V193H117.638ZM123.518 179.48H126.398C129.598 179.48 131.198 178.093 131.198 175.32C131.198 173.96 130.771 173 129.918 172.44C129.065 171.88 127.838 171.6 126.238 171.6H123.518V179.48ZM141.466 193V171.88H149.826C151.453 171.88 152.933 172.093 154.266 172.52C155.626 172.92 156.719 173.613 157.546 174.6C158.373 175.587 158.786 176.973 158.786 178.76C158.786 180.2 158.439 181.427 157.746 182.44C157.079 183.453 156.186 184.253 155.066 184.84L159.986 193H153.786L149.826 186H147.346V193H141.466ZM147.346 182H149.506C150.733 182 151.653 181.747 152.266 181.24C152.906 180.707 153.226 180 153.226 179.12C153.226 178.16 152.893 177.48 152.226 177.08C151.559 176.68 150.626 176.48 149.426 176.48H147.346V182ZM173.168 193.48C171.088 193.48 169.261 193.04 167.688 192.16C166.115 191.28 164.875 190.013 163.968 188.36C163.088 186.68 162.648 184.68 162.648 182.36C162.648 180.013 163.088 178.027 163.968 176.4C164.875 174.773 166.115 173.533 167.688 172.68C169.261 171.827 171.088 171.4 173.168 171.4C175.221 171.4 177.021 171.827 178.568 172.68C180.141 173.533 181.368 174.773 182.248 176.4C183.155 178.027 183.608 180.013 183.608 182.36C183.608 184.68 183.155 186.68 182.248 188.36C181.368 190.013 180.141 191.28 178.568 192.16C177.021 193.04 175.221 193.48 173.168 193.48ZM173.168 188.64C174.528 188.64 175.595 188.08 176.368 186.96C177.168 185.84 177.568 184.307 177.568 182.36C177.568 180.387 177.168 178.88 176.368 177.84C175.595 176.773 174.528 176.24 173.168 176.24C171.781 176.24 170.688 176.773 169.888 177.84C169.088 178.88 168.688 180.387 168.688 182.36C168.688 184.307 169.088 185.84 169.888 186.96C170.688 188.08 171.781 188.64 173.168 188.64ZM188.536 193V171.88H203.016V176.68H194.416V180.92H201.816V185.32H194.416V193H188.536ZM207.56 193V171.88H221.92V176.44H213.44V180.12H220.72V184.4H213.44V188.44H222.32V193H207.56ZM234.601 193.48C232.921 193.48 231.307 193.213 229.761 192.68C228.241 192.12 226.934 191.4 225.841 190.52L228.641 186.56C229.627 187.307 230.641 187.893 231.681 188.32C232.747 188.747 233.814 188.96 234.881 188.96C235.734 188.96 236.347 188.787 236.721 188.44C237.121 188.093 237.321 187.667 237.321 187.16C237.321 186.6 237.081 186.147 236.601 185.8C236.121 185.453 235.507 185.147 234.761 184.88L232.521 184.04C231.561 183.693 230.654 183.267 229.801 182.76C228.974 182.227 228.294 181.573 227.761 180.8C227.254 180.027 227.001 179.093 227.001 178C227.001 176.667 227.347 175.507 228.041 174.52C228.734 173.507 229.707 172.733 230.961 172.2C232.214 171.64 233.667 171.36 235.321 171.36C237.054 171.36 238.547 171.64 239.801 172.2C241.081 172.76 242.174 173.387 243.081 174.08L240.201 177.84C239.427 177.307 238.614 176.867 237.761 176.52C236.934 176.147 236.067 175.96 235.161 175.96C233.641 175.96 232.881 176.533 232.881 177.68C232.881 178.16 233.107 178.547 233.561 178.84C234.041 179.133 234.667 179.427 235.441 179.72L237.641 180.52C238.681 180.867 239.614 181.28 240.441 181.76C241.294 182.24 241.974 182.867 242.481 183.64C242.987 184.413 243.241 185.427 243.241 186.68C243.241 187.96 242.894 189.12 242.201 190.16C241.534 191.173 240.547 191.987 239.241 192.6C237.961 193.187 236.414 193.48 234.601 193.48ZM254.366 193.48C252.686 193.48 251.073 193.213 249.526 192.68C248.006 192.12 246.7 191.4 245.606 190.52L248.406 186.56C249.393 187.307 250.406 187.893 251.446 188.32C252.513 188.747 253.58 188.96 254.646 188.96C255.5 188.96 256.113 188.787 256.486 188.44C256.886 188.093 257.086 187.667 257.086 187.16C257.086 186.6 256.846 186.147 256.366 185.8C255.886 185.453 255.273 185.147 254.526 184.88L252.286 184.04C251.326 183.693 250.42 183.267 249.566 182.76C248.74 182.227 248.06 181.573 247.526 180.8C247.02 180.027 246.766 179.093 246.766 178C246.766 176.667 247.113 175.507 247.806 174.52C248.5 173.507 249.473 172.733 250.726 172.2C251.98 171.64 253.433 171.36 255.086 171.36C256.82 171.36 258.313 171.64 259.566 172.2C260.846 172.76 261.94 173.387 262.846 174.08L259.966 177.84C259.193 177.307 258.38 176.867 257.526 176.52C256.7 176.147 255.833 175.96 254.926 175.96C253.406 175.96 252.646 176.533 252.646 177.68C252.646 178.16 252.873 178.547 253.326 178.84C253.806 179.133 254.433 179.427 255.206 179.72L257.406 180.52C258.446 180.867 259.38 181.28 260.206 181.76C261.06 182.24 261.74 182.867 262.246 183.64C262.753 184.413 263.006 185.427 263.006 186.68C263.006 187.96 262.66 189.12 261.966 190.16C261.3 191.173 260.313 191.987 259.006 192.6C257.726 193.187 256.18 193.48 254.366 193.48ZM267.443 193V171.88H273.323V193H267.443ZM288.754 193.48C286.674 193.48 284.847 193.04 283.274 192.16C281.7 191.28 280.46 190.013 279.554 188.36C278.674 186.68 278.234 184.68 278.234 182.36C278.234 180.013 278.674 178.027 279.554 176.4C280.46 174.773 281.7 173.533 283.274 172.68C284.847 171.827 286.674 171.4 288.754 171.4C290.807 171.4 292.607 171.827 294.154 172.68C295.727 173.533 296.954 174.773 297.834 176.4C298.74 178.027 299.194 180.013 299.194 182.36C299.194 184.68 298.74 186.68 297.834 188.36C296.954 190.013 295.727 191.28 294.154 192.16C292.607 193.04 290.807 193.48 288.754 193.48ZM288.754 188.64C290.114 188.64 291.18 188.08 291.954 186.96C292.754 185.84 293.154 184.307 293.154 182.36C293.154 180.387 292.754 178.88 291.954 177.84C291.18 176.773 290.114 176.24 288.754 176.24C287.367 176.24 286.274 176.773 285.474 177.84C284.674 178.88 284.274 180.387 284.274 182.36C284.274 184.307 284.674 185.84 285.474 186.96C286.274 188.08 287.367 188.64 288.754 188.64ZM304.122 193V171.88H310.042L315.042 181.08L317.362 186.12H317.522C317.442 185.347 317.336 184.48 317.202 183.52C317.096 182.533 317.002 181.533 316.922 180.52C316.842 179.507 316.802 178.56 316.802 177.68V171.88H322.202V193H316.442L311.242 183.76L308.962 178.76H308.802C308.936 179.987 309.082 181.373 309.242 182.92C309.429 184.44 309.522 185.867 309.522 187.2V193H304.122ZM333.62 182.8L333.22 184.44H337.34L336.9 182.8C336.633 181.787 336.367 180.693 336.1 179.52C335.86 178.32 335.593 177.2 335.3 176.16H335.14C334.9 177.227 334.647 178.347 334.38 179.52C334.14 180.693 333.887 181.787 333.62 182.8ZM325.06 193L331.86 171.88H338.86L345.7 193H339.54L338.42 188.68H332.14L331.02 193H325.06ZM348.497 193V171.88H354.377V188.2H362.777V193H348.497ZM373.741 193.48C372.061 193.48 370.448 193.213 368.901 192.68C367.381 192.12 366.075 191.4 364.981 190.52L367.781 186.56C368.768 187.307 369.781 187.893 370.821 188.32C371.888 188.747 372.955 188.96 374.021 188.96C374.875 188.96 375.488 188.787 375.861 188.44C376.261 188.093 376.461 187.667 376.461 187.16C376.461 186.6 376.221 186.147 375.741 185.8C375.261 185.453 374.648 185.147 373.901 184.88L371.661 184.04C370.701 183.693 369.795 183.267 368.941 182.76C368.115 182.227 367.435 181.573 366.901 180.8C366.395 180.027 366.141 179.093 366.141 178C366.141 176.667 366.488 175.507 367.181 174.52C367.875 173.507 368.848 172.733 370.101 172.2C371.355 171.64 372.808 171.36 374.461 171.36C376.195 171.36 377.688 171.64 378.941 172.2C380.221 172.76 381.315 173.387 382.221 174.08L379.341 177.84C378.568 177.307 377.755 176.867 376.901 176.52C376.075 176.147 375.208 175.96 374.301 175.96C372.781 175.96 372.021 176.533 372.021 177.68C372.021 178.16 372.248 178.547 372.701 178.84C373.181 179.133 373.808 179.427 374.581 179.72L376.781 180.52C377.821 180.867 378.755 181.28 379.581 181.76C380.435 182.24 381.115 182.867 381.621 183.64C382.128 184.413 382.381 185.427 382.381 186.68C382.381 187.96 382.035 189.12 381.341 190.16C380.675 191.173 379.688 191.987 378.381 192.6C377.101 193.187 375.555 193.48 373.741 193.48ZM400.745 173.24C400.745 173.72 400.812 174.227 400.945 174.76C401.105 175.293 401.319 175.827 401.585 176.36C402.519 175.8 403.305 175.213 403.945 174.6C404.585 173.987 404.905 173.24 404.905 172.36C404.905 171.747 404.759 171.253 404.465 170.88C404.172 170.507 403.719 170.32 403.105 170.32C402.439 170.32 401.879 170.587 401.425 171.12C400.972 171.627 400.745 172.333 400.745 173.24ZM401.425 193.48C399.532 193.48 397.932 193.147 396.625 192.48C395.345 191.787 394.372 190.88 393.705 189.76C393.065 188.613 392.745 187.373 392.745 186.04C392.745 184.227 393.212 182.76 394.145 181.64C395.105 180.493 396.225 179.507 397.505 178.68C396.999 177.747 396.599 176.827 396.305 175.92C396.039 174.987 395.905 174.107 395.905 173.28C395.905 172.027 396.185 170.893 396.745 169.88C397.332 168.84 398.159 168.013 399.225 167.4C400.292 166.76 401.545 166.44 402.985 166.44C404.959 166.44 406.519 166.973 407.665 168.04C408.812 169.107 409.385 170.547 409.385 172.36C409.385 173.48 409.119 174.493 408.585 175.4C408.052 176.28 407.372 177.08 406.545 177.8C405.719 178.493 404.852 179.147 403.945 179.76C404.692 180.613 405.505 181.453 406.385 182.28C407.292 183.08 408.225 183.827 409.185 184.52C409.852 183.667 410.439 182.72 410.945 181.68C411.452 180.64 411.865 179.507 412.185 178.28H417.545C417.065 179.853 416.465 181.373 415.745 182.84C415.052 184.307 414.199 185.72 413.185 187.08C414.012 187.507 414.799 187.867 415.545 188.16C416.319 188.427 417.039 188.613 417.705 188.72L416.305 193.48C415.239 193.267 414.132 192.933 412.985 192.48C411.865 192.027 410.745 191.48 409.625 190.84C408.532 191.667 407.305 192.32 405.945 192.8C404.585 193.253 403.079 193.48 401.425 193.48ZM398.305 185.68C398.305 186.667 398.665 187.467 399.385 188.08C400.105 188.693 401.039 189 402.185 189C403.279 189 404.372 188.653 405.465 187.96C404.479 187.133 403.519 186.267 402.585 185.36C401.679 184.453 400.839 183.52 400.065 182.56C399.559 183.013 399.132 183.493 398.785 184C398.465 184.507 398.305 185.067 398.305 185.68ZM441.033 193.48C438.66 193.48 436.5 192.973 434.553 191.96C432.633 190.947 431.1 189.453 429.953 187.48C428.833 185.48 428.273 183.027 428.273 180.12C428.273 177.24 428.846 174.787 429.993 172.76C431.166 170.707 432.713 169.147 434.633 168.08C436.553 166.987 438.673 166.44 440.993 166.44C442.886 166.44 444.513 166.787 445.873 167.48C447.233 168.173 448.34 168.96 449.193 169.84L446.113 173.6C445.446 173.013 444.74 172.52 443.993 172.12C443.246 171.72 442.313 171.52 441.193 171.52C439.166 171.52 437.513 172.267 436.233 173.76C434.953 175.253 434.313 177.307 434.313 179.92C434.313 182.587 434.926 184.667 436.153 186.16C437.38 187.653 439.206 188.4 441.633 188.4C442.166 188.4 442.686 188.333 443.193 188.2C443.7 188.067 444.113 187.867 444.433 187.6V183.12H440.113V178.32H449.633V190.32C448.726 191.2 447.513 191.947 445.993 192.56C444.5 193.173 442.846 193.48 441.033 193.48ZM455.021 193V171.88H463.381C465.007 171.88 466.487 172.093 467.821 172.52C469.181 172.92 470.274 173.613 471.101 174.6C471.927 175.587 472.341 176.973 472.341 178.76C472.341 180.2 471.994 181.427 471.301 182.44C470.634 183.453 469.741 184.253 468.621 184.84L473.541 193H467.341L463.381 186H460.901V193H455.021ZM460.901 182H463.061C464.287 182 465.207 181.747 465.821 181.24C466.461 180.707 466.781 180 466.781 179.12C466.781 178.16 466.447 177.48 465.781 177.08C465.114 176.68 464.181 176.48 462.981 176.48H460.901V182ZM486.723 193.48C484.643 193.48 482.816 193.04 481.243 192.16C479.669 191.28 478.429 190.013 477.523 188.36C476.643 186.68 476.203 184.68 476.203 182.36C476.203 180.013 476.643 178.027 477.523 176.4C478.429 174.773 479.669 173.533 481.243 172.68C482.816 171.827 484.643 171.4 486.723 171.4C488.776 171.4 490.576 171.827 492.123 172.68C493.696 173.533 494.923 174.773 495.803 176.4C496.709 178.027 497.163 180.013 497.163 182.36C497.163 184.68 496.709 186.68 495.803 188.36C494.923 190.013 493.696 191.28 492.123 192.16C490.576 193.04 488.776 193.48 486.723 193.48ZM486.723 188.64C488.083 188.64 489.149 188.08 489.923 186.96C490.723 185.84 491.123 184.307 491.123 182.36C491.123 180.387 490.723 178.88 489.923 177.84C489.149 176.773 488.083 176.24 486.723 176.24C485.336 176.24 484.243 176.773 483.443 177.84C482.643 178.88 482.243 180.387 482.243 182.36C482.243 184.307 482.643 185.84 483.443 186.96C484.243 188.08 485.336 188.64 486.723 188.64ZM503.259 193L499.219 171.92H504.979L506.339 181.12C506.473 182.213 506.606 183.32 506.739 184.44C506.873 185.533 507.006 186.627 507.139 187.72H507.299C507.513 186.627 507.739 185.52 507.979 184.4C508.219 183.28 508.433 182.187 508.619 181.12L510.859 171.92H515.579L517.739 181.12C517.953 182.187 518.179 183.28 518.419 184.4C518.659 185.52 518.886 186.627 519.099 187.72H519.259C519.393 186.627 519.526 185.52 519.659 184.4C519.819 183.28 519.953 182.187 520.059 181.12L521.419 171.92H526.779L522.939 193H515.859L513.899 184.64C513.579 182.96 513.313 181.32 513.099 179.72H512.939C512.833 180.493 512.713 181.307 512.579 182.16C512.446 182.987 512.273 183.813 512.059 184.64L510.219 193H503.259ZM530.411 193V171.88H536.291V193H530.411ZM542.443 193V171.88H548.363L553.363 181.08L555.683 186.12H555.843C555.763 185.347 555.656 184.48 555.523 183.52C555.416 182.533 555.323 181.533 555.243 180.52C555.163 179.507 555.123 178.56 555.123 177.68V171.88H560.523V193H554.763L549.563 183.76L547.283 178.76H547.123C547.256 179.987 547.403 181.373 547.563 182.92C547.749 184.44 547.843 185.867 547.843 187.2V193H542.443ZM576.66 193.48C574.58 193.48 572.687 193.08 570.98 192.28C569.3 191.48 567.954 190.28 566.94 188.68C565.954 187.053 565.46 185.027 565.46 182.6C565.46 180.2 565.967 178.173 566.98 176.52C568.02 174.84 569.394 173.573 571.1 172.72C572.834 171.84 574.727 171.4 576.78 171.4C578.354 171.4 579.727 171.693 580.9 172.28C582.1 172.84 583.1 173.493 583.9 174.24L580.74 177.72C580.18 177.213 579.607 176.84 579.02 176.6C578.434 176.333 577.7 176.2 576.82 176.2C575.274 176.2 573.98 176.76 572.94 177.88C571.927 178.973 571.42 180.547 571.42 182.6C571.42 184.52 571.874 186.04 572.78 187.16C573.714 188.253 575.154 188.8 577.1 188.8C577.954 188.8 578.647 188.613 579.18 188.24V184.92H575.78V180.84H584.34V190.88C583.514 191.627 582.42 192.253 581.06 192.76C579.7 193.24 578.234 193.48 576.66 193.48Z" fill="white"/>
<g filter="url(#filter1_d_9_5601)">
<path d="M130.072 349C129.71 349 129.384 348.891 129.094 348.674C128.877 348.384 128.768 348.058 128.768 347.696V274.234C128.768 273.872 128.877 273.582 129.094 273.365C129.384 273.075 129.71 272.93 130.072 272.93H157.783C163.434 272.93 168.433 273.908 172.78 275.864C177.127 277.82 180.495 280.61 182.886 284.232C185.277 287.854 186.472 292.02 186.472 296.729V325.201C186.472 329.91 185.277 334.076 182.886 337.698C180.495 341.321 177.127 344.11 172.78 346.066C168.433 348.022 163.434 349 157.783 349H130.072ZM146.807 333.025C146.807 333.388 146.988 333.569 147.351 333.569H158.544C161.442 333.569 163.796 332.554 165.607 330.526C167.419 328.425 168.36 325.636 168.433 322.158V299.772C168.433 296.294 167.491 293.541 165.607 291.513C163.796 289.412 161.406 288.361 158.435 288.361H147.351C146.988 288.361 146.807 288.543 146.807 288.905V333.025ZM202.682 349C202.32 349 201.994 348.891 201.704 348.674C201.487 348.384 201.378 348.058 201.378 347.696V274.234C201.378 273.872 201.487 273.582 201.704 273.365C201.994 273.075 202.32 272.93 202.682 272.93H218.113C218.476 272.93 218.766 273.075 218.983 273.365C219.273 273.582 219.418 273.872 219.418 274.234V347.696C219.418 348.058 219.273 348.384 218.983 348.674C218.766 348.891 218.476 349 218.113 349H202.682ZM256.328 349C255.603 349 255.132 348.638 254.915 347.913L232.963 274.452L232.855 274.017C232.855 273.292 233.253 272.93 234.05 272.93H250.677C251.474 272.93 251.981 273.292 252.198 274.017L264.695 323.462C264.768 323.68 264.876 323.788 265.021 323.788C265.166 323.788 265.275 323.68 265.347 323.462L277.627 274.017C277.844 273.292 278.352 272.93 279.149 272.93H295.449C295.884 272.93 296.21 273.075 296.427 273.365C296.645 273.655 296.681 274.017 296.536 274.452L274.258 347.913C274.041 348.638 273.57 349 272.846 349H256.328ZM363.571 287.057C363.571 287.42 363.426 287.746 363.136 288.035C362.919 288.253 362.629 288.361 362.267 288.361H328.144C327.782 288.361 327.601 288.543 327.601 288.905V302.271C327.601 302.634 327.782 302.815 328.144 302.815H349.987C350.349 302.815 350.639 302.96 350.856 303.249C351.146 303.467 351.291 303.757 351.291 304.119V316.833C351.291 317.196 351.146 317.522 350.856 317.811C350.639 318.029 350.349 318.137 349.987 318.137H328.144C327.782 318.137 327.601 318.318 327.601 318.681V333.025C327.601 333.388 327.782 333.569 328.144 333.569H362.267C362.629 333.569 362.919 333.714 363.136 334.003C363.426 334.221 363.571 334.511 363.571 334.873V347.696C363.571 348.058 363.426 348.384 363.136 348.674C362.919 348.891 362.629 349 362.267 349H310.865C310.503 349 310.177 348.891 309.887 348.674C309.67 348.384 309.561 348.058 309.561 347.696V274.234C309.561 273.872 309.67 273.582 309.887 273.365C310.177 273.075 310.503 272.93 310.865 272.93H362.267C362.629 272.93 362.919 273.075 363.136 273.365C363.426 273.582 363.571 273.872 363.571 274.234V287.057ZM418.466 349C417.741 349 417.234 348.674 416.944 348.022L404.121 319.115C403.976 318.826 403.759 318.681 403.469 318.681H396.297C395.935 318.681 395.754 318.862 395.754 319.224V347.696C395.754 348.058 395.609 348.384 395.319 348.674C395.102 348.891 394.812 349 394.449 349H379.018C378.656 349 378.33 348.891 378.04 348.674C377.823 348.384 377.714 348.058 377.714 347.696V274.234C377.714 273.872 377.823 273.582 378.04 273.365C378.33 273.075 378.656 272.93 379.018 272.93H411.294C416.075 272.93 420.277 273.908 423.899 275.864C427.522 277.82 430.311 280.61 432.267 284.232C434.296 287.782 435.31 291.875 435.31 296.512C435.31 301.366 434.114 305.568 431.724 309.118C429.333 312.668 426 315.239 421.726 316.833C421.364 316.978 421.255 317.232 421.4 317.594L435.745 347.479C435.889 347.768 435.962 347.986 435.962 348.131C435.962 348.71 435.563 349 434.767 349H418.466ZM396.297 288.361C395.935 288.361 395.754 288.543 395.754 288.905V304.336C395.754 304.698 395.935 304.879 396.297 304.879H408.359C411.04 304.879 413.213 304.155 414.88 302.706C416.546 301.185 417.379 299.192 417.379 296.729C417.379 294.193 416.546 292.165 414.88 290.644C413.213 289.122 411.04 288.361 408.359 288.361H396.297ZM477.502 349.869C471.489 349.869 466.237 348.928 461.745 347.044C457.326 345.088 453.884 342.335 451.421 338.785C449.03 335.163 447.835 330.997 447.835 326.288V324.223C447.835 323.861 447.944 323.571 448.161 323.354C448.451 323.064 448.777 322.919 449.139 322.919H464.244C464.607 322.919 464.896 323.064 465.114 323.354C465.404 323.571 465.548 323.861 465.548 324.223V325.527C465.548 327.918 466.744 330.019 469.135 331.83C471.525 333.569 474.749 334.438 478.806 334.438C481.994 334.438 484.349 333.75 485.87 332.373C487.391 330.997 488.152 329.403 488.152 327.592C488.152 326.143 487.681 324.984 486.739 324.114C485.87 323.172 484.675 322.412 483.153 321.832C481.632 321.18 479.277 320.311 476.09 319.224C475.655 319.007 475.22 318.862 474.786 318.789C474.351 318.645 473.952 318.5 473.59 318.355C468.881 316.833 464.788 315.203 461.31 313.465C457.833 311.653 454.862 309.19 452.399 306.075C449.936 302.887 448.704 298.975 448.704 294.338C448.704 289.847 449.864 285.934 452.182 282.602C454.573 279.197 457.869 276.589 462.071 274.778C466.273 272.966 471.018 272.061 476.307 272.061C481.885 272.061 486.884 273.075 491.304 275.104C495.795 277.132 499.309 279.994 501.845 283.689C504.38 287.383 505.648 291.622 505.648 296.403V297.925C505.648 298.287 505.503 298.613 505.213 298.903C504.996 299.12 504.706 299.229 504.344 299.229H489.239C488.877 299.229 488.551 299.12 488.261 298.903C488.043 298.613 487.935 298.287 487.935 297.925V297.164C487.935 294.628 486.812 292.382 484.566 290.426C482.32 288.47 479.314 287.492 475.546 287.492C472.721 287.492 470.511 288.072 468.917 289.231C467.323 290.39 466.527 292.02 466.527 294.121C466.527 295.715 467.034 297.055 468.048 298.142C469.062 299.156 470.62 300.134 472.721 301.076C474.894 301.945 478.191 303.105 482.61 304.553C487.681 306.292 491.63 307.814 494.455 309.118C497.28 310.422 499.925 312.559 502.388 315.529C504.924 318.427 506.192 322.267 506.192 327.048C506.192 331.758 504.996 335.815 502.605 339.22C500.215 342.625 496.846 345.269 492.499 347.153C488.225 348.964 483.226 349.869 477.502 349.869ZM574.397 287.057C574.397 287.42 574.252 287.746 573.962 288.035C573.745 288.253 573.455 288.361 573.093 288.361H538.97C538.608 288.361 538.427 288.543 538.427 288.905V302.271C538.427 302.634 538.608 302.815 538.97 302.815H560.813C561.175 302.815 561.465 302.96 561.683 303.249C561.972 303.467 562.117 303.757 562.117 304.119V316.833C562.117 317.196 561.972 317.522 561.683 317.811C561.465 318.029 561.175 318.137 560.813 318.137H538.97C538.608 318.137 538.427 318.318 538.427 318.681V333.025C538.427 333.388 538.608 333.569 538.97 333.569H573.093C573.455 333.569 573.745 333.714 573.962 334.003C574.252 334.221 574.397 334.511 574.397 334.873V347.696C574.397 348.058 574.252 348.384 573.962 348.674C573.745 348.891 573.455 349 573.093 349H521.692C521.329 349 521.003 348.891 520.714 348.674C520.496 348.384 520.388 348.058 520.388 347.696V274.234C520.388 273.872 520.496 273.582 520.714 273.365C521.003 273.075 521.329 272.93 521.692 272.93H573.093C573.455 272.93 573.745 273.075 573.962 273.365C574.252 273.582 574.397 273.872 574.397 274.234V287.057Z" fill="#D9D9D9" fill-opacity="0.5" shape-rendering="crispEdges"/>
</g>
<path d="M60.4132 410V388.88H53.2532V383.92H73.4932V388.88H66.3332V410H60.4132ZM76.466 410V388.88H90.826V393.44H82.346V397.12H89.626V401.4H82.346V405.44H91.226V410H76.466ZM101.667 399.8L101.267 401.44H105.387L104.947 399.8C104.68 398.787 104.414 397.693 104.147 396.52C103.907 395.32 103.64 394.2 103.347 393.16H103.187C102.947 394.227 102.694 395.347 102.427 396.52C102.187 397.693 101.934 398.787 101.667 399.8ZM93.1069 410L99.9069 388.88H106.907L113.747 410H107.587L106.467 405.68H100.187L99.0669 410H93.1069ZM116.544 410V388.88H122.544L125.864 397.48L127.144 401.04H127.304L128.624 397.48L131.824 388.88H137.784V410H132.504V404.08C132.504 403.36 132.544 402.52 132.624 401.56C132.731 400.573 132.837 399.6 132.944 398.64C133.077 397.68 133.184 396.84 133.264 396.12H133.104L131.104 401.08L128.104 408.32H126.184L123.184 401.08L121.224 396.12H121.064C121.171 396.84 121.277 397.68 121.384 398.64C121.491 399.6 121.584 400.573 121.664 401.56C121.771 402.52 121.824 403.36 121.824 404.08V410H116.544ZM151.935 410V383.92H158.375L162.575 395.52C162.841 396.267 163.095 397.053 163.335 397.88C163.575 398.707 163.828 399.52 164.095 400.32H164.255C164.521 399.52 164.761 398.707 164.975 397.88C165.215 397.053 165.468 396.267 165.735 395.52L169.855 383.92H176.255V410H170.895V400.44C170.895 399.587 170.935 398.64 171.015 397.6C171.121 396.533 171.228 395.467 171.335 394.4C171.468 393.333 171.575 392.387 171.655 391.56H171.495L169.375 397.76L165.655 407.72H162.415L158.695 397.76L156.615 391.56H156.455C156.561 392.387 156.668 393.333 156.775 394.4C156.881 395.467 156.975 396.533 157.055 397.6C157.161 398.64 157.215 399.587 157.215 400.44V410H151.935ZM182.403 410V388.88H196.763V393.44H188.283V397.12H195.563V401.4H188.283V405.44H197.163V410H182.403ZM202.364 410V388.88H208.364L211.684 397.48L212.964 401.04H213.124L214.444 397.48L217.644 388.88H223.604V410H218.324V404.08C218.324 403.36 218.364 402.52 218.444 401.56C218.551 400.573 218.658 399.6 218.764 398.64C218.898 397.68 219.004 396.84 219.084 396.12H218.924L216.924 401.08L213.924 408.32H212.004L209.004 401.08L207.044 396.12H206.884C206.991 396.84 207.098 397.68 207.204 398.64C207.311 399.6 207.404 400.573 207.484 401.56C207.591 402.52 207.644 403.36 207.644 404.08V410H202.364ZM229.747 410V388.88H237.707C239.281 388.88 240.707 389.027 241.987 389.32C243.267 389.613 244.281 390.147 245.027 390.92C245.801 391.667 246.187 392.747 246.187 394.16C246.187 395.067 245.894 395.973 245.307 396.88C244.747 397.76 243.827 398.36 242.547 398.68V398.84C244.067 399.16 245.214 399.72 245.987 400.52C246.787 401.32 247.187 402.427 247.187 403.84C247.187 405.28 246.787 406.453 245.987 407.36C245.187 408.267 244.121 408.933 242.787 409.36C241.481 409.787 240.014 410 238.387 410H229.747ZM235.627 397.32H237.787C238.881 397.32 239.654 397.12 240.107 396.72C240.587 396.293 240.827 395.747 240.827 395.08C240.827 394.387 240.574 393.893 240.067 393.6C239.561 393.307 238.801 393.16 237.787 393.16H235.627V397.32ZM235.627 405.72H237.987C240.361 405.72 241.547 404.907 241.547 403.28C241.547 401.76 240.361 401 237.987 401H235.627V405.72ZM251.583 410V388.88H265.943V393.44H257.463V397.12H264.743V401.4H257.463V405.44H266.343V410H251.583ZM271.544 410V388.88H279.904C281.531 388.88 283.011 389.093 284.344 389.52C285.704 389.92 286.797 390.613 287.624 391.6C288.451 392.587 288.864 393.973 288.864 395.76C288.864 397.2 288.517 398.427 287.824 399.44C287.157 400.453 286.264 401.253 285.144 401.84L290.064 410H283.864L279.904 403H277.424V410H271.544ZM277.424 399H279.584C280.811 399 281.731 398.747 282.344 398.24C282.984 397.707 283.304 397 283.304 396.12C283.304 395.16 282.971 394.48 282.304 394.08C281.637 393.68 280.704 393.48 279.504 393.48H277.424V399ZM300.655 410.48C298.975 410.48 297.362 410.213 295.815 409.68C294.295 409.12 292.989 408.4 291.895 407.52L294.695 403.56C295.682 404.307 296.695 404.893 297.735 405.32C298.802 405.747 299.869 405.96 300.935 405.96C301.789 405.96 302.402 405.787 302.775 405.44C303.175 405.093 303.375 404.667 303.375 404.16C303.375 403.6 303.135 403.147 302.655 402.8C302.175 402.453 301.562 402.147 300.815 401.88L298.575 401.04C297.615 400.693 296.709 400.267 295.855 399.76C295.029 399.227 294.349 398.573 293.815 397.8C293.309 397.027 293.055 396.093 293.055 395C293.055 393.667 293.402 392.507 294.095 391.52C294.789 390.507 295.762 389.733 297.015 389.2C298.269 388.64 299.722 388.36 301.375 388.36C303.109 388.36 304.602 388.64 305.855 389.2C307.135 389.76 308.229 390.387 309.135 391.08L306.255 394.84C305.482 394.307 304.669 393.867 303.815 393.52C302.989 393.147 302.122 392.96 301.215 392.96C299.695 392.96 298.935 393.533 298.935 394.68C298.935 395.16 299.162 395.547 299.615 395.84C300.095 396.133 300.722 396.427 301.495 396.72L303.695 397.52C304.735 397.867 305.669 398.28 306.495 398.76C307.349 399.24 308.029 399.867 308.535 400.64C309.042 401.413 309.295 402.427 309.295 403.68C309.295 404.96 308.949 406.12 308.255 407.16C307.589 408.173 306.602 408.987 305.295 409.6C304.015 410.187 302.469 410.48 300.655 410.48ZM326.979 399.8L326.579 401.44H330.699L330.259 399.8C329.993 398.787 329.726 397.693 329.459 396.52C329.219 395.32 328.953 394.2 328.659 393.16H328.499C328.259 394.227 328.006 395.347 327.739 396.52C327.499 397.693 327.246 398.787 326.979 399.8ZM318.419 410L325.219 388.88H332.219L339.059 410H332.899L331.779 405.68H325.499L324.379 410H318.419ZM351.257 410.48C349.337 410.48 347.563 410.08 345.937 409.28C344.337 408.48 343.043 407.28 342.057 405.68C341.097 404.053 340.617 402.027 340.617 399.6C340.617 397.2 341.123 395.173 342.137 393.52C343.177 391.84 344.523 390.573 346.177 389.72C347.857 388.84 349.67 388.4 351.617 388.4C353.03 388.4 354.323 388.68 355.497 389.24C356.67 389.773 357.657 390.427 358.457 391.2L355.257 394.72C354.697 394.213 354.137 393.84 353.577 393.6C353.043 393.36 352.403 393.24 351.657 393.24C350.27 393.24 349.07 393.787 348.057 394.88C347.07 395.947 346.577 397.453 346.577 399.4C346.577 401.427 347.03 402.973 347.937 404.04C348.843 405.107 350.03 405.64 351.497 405.64C352.377 405.64 353.137 405.48 353.777 405.16C354.443 404.84 355.017 404.44 355.497 403.96L358.697 407.4C357.737 408.44 356.617 409.213 355.337 409.72C354.057 410.227 352.697 410.48 351.257 410.48ZM362.638 410V388.88H370.998C372.625 388.88 374.105 389.093 375.438 389.52C376.798 389.92 377.891 390.613 378.718 391.6C379.545 392.587 379.958 393.973 379.958 395.76C379.958 397.2 379.611 398.427 378.918 399.44C378.251 400.453 377.358 401.253 376.238 401.84L381.158 410H374.958L370.998 403H368.518V410H362.638ZM368.518 399H370.678C371.905 399 372.825 398.747 373.438 398.24C374.078 397.707 374.398 397 374.398 396.12C374.398 395.16 374.065 394.48 373.398 394.08C372.731 393.68 371.798 393.48 370.598 393.48H368.518V399ZM394.34 410.48C392.26 410.48 390.433 410.04 388.86 409.16C387.286 408.28 386.046 407.013 385.14 405.36C384.26 403.68 383.82 401.68 383.82 399.36C383.82 397.013 384.26 395.027 385.14 393.4C386.046 391.773 387.286 390.533 388.86 389.68C390.433 388.827 392.26 388.4 394.34 388.4C396.393 388.4 398.193 388.827 399.74 389.68C401.313 390.533 402.54 391.773 403.42 393.4C404.326 395.027 404.78 397.013 404.78 399.36C404.78 401.68 404.326 403.68 403.42 405.36C402.54 407.013 401.313 408.28 399.74 409.16C398.193 410.04 396.393 410.48 394.34 410.48ZM394.34 405.64C395.7 405.64 396.766 405.08 397.54 403.96C398.34 402.84 398.74 401.307 398.74 399.36C398.74 397.387 398.34 395.88 397.54 394.84C396.766 393.773 395.7 393.24 394.34 393.24C392.953 393.24 391.86 393.773 391.06 394.84C390.26 395.88 389.86 397.387 389.86 399.36C389.86 401.307 390.26 402.84 391.06 403.96C391.86 405.08 392.953 405.64 394.34 405.64ZM416.788 410.48C415.108 410.48 413.495 410.213 411.948 409.68C410.428 409.12 409.122 408.4 408.028 407.52L410.828 403.56C411.815 404.307 412.828 404.893 413.868 405.32C414.935 405.747 416.002 405.96 417.068 405.96C417.922 405.96 418.535 405.787 418.908 405.44C419.308 405.093 419.508 404.667 419.508 404.16C419.508 403.6 419.268 403.147 418.788 402.8C418.308 402.453 417.695 402.147 416.948 401.88L414.708 401.04C413.748 400.693 412.842 400.267 411.988 399.76C411.162 399.227 410.482 398.573 409.948 397.8C409.442 397.027 409.188 396.093 409.188 395C409.188 393.667 409.535 392.507 410.228 391.52C410.922 390.507 411.895 389.733 413.148 389.2C414.402 388.64 415.855 388.36 417.508 388.36C419.242 388.36 420.735 388.64 421.988 389.2C423.268 389.76 424.362 390.387 425.268 391.08L422.388 394.84C421.615 394.307 420.802 393.867 419.948 393.52C419.122 393.147 418.255 392.96 417.348 392.96C415.828 392.96 415.068 393.533 415.068 394.68C415.068 395.16 415.295 395.547 415.748 395.84C416.228 396.133 416.855 396.427 417.628 396.72L419.828 397.52C420.868 397.867 421.802 398.28 422.628 398.76C423.482 399.24 424.162 399.867 424.668 400.64C425.175 401.413 425.428 402.427 425.428 403.68C425.428 404.96 425.082 406.12 424.388 407.16C423.722 408.173 422.735 408.987 421.428 409.6C420.148 410.187 418.602 410.48 416.788 410.48ZM436.554 410.48C434.874 410.48 433.26 410.213 431.714 409.68C430.194 409.12 428.887 408.4 427.794 407.52L430.594 403.56C431.58 404.307 432.594 404.893 433.634 405.32C434.7 405.747 435.767 405.96 436.834 405.96C437.687 405.96 438.3 405.787 438.674 405.44C439.074 405.093 439.274 404.667 439.274 404.16C439.274 403.6 439.034 403.147 438.554 402.8C438.074 402.453 437.46 402.147 436.714 401.88L434.474 401.04C433.514 400.693 432.607 400.267 431.754 399.76C430.927 399.227 430.247 398.573 429.714 397.8C429.207 397.027 428.954 396.093 428.954 395C428.954 393.667 429.3 392.507 429.994 391.52C430.687 390.507 431.66 389.733 432.914 389.2C434.167 388.64 435.62 388.36 437.274 388.36C439.007 388.36 440.5 388.64 441.754 389.2C443.034 389.76 444.127 390.387 445.034 391.08L442.154 394.84C441.38 394.307 440.567 393.867 439.714 393.52C438.887 393.147 438.02 392.96 437.114 392.96C435.594 392.96 434.834 393.533 434.834 394.68C434.834 395.16 435.06 395.547 435.514 395.84C435.994 396.133 436.62 396.427 437.394 396.72L439.594 397.52C440.634 397.867 441.567 398.28 442.394 398.76C443.247 399.24 443.927 399.867 444.434 400.64C444.94 401.413 445.194 402.427 445.194 403.68C445.194 404.96 444.847 406.12 444.154 407.16C443.487 408.173 442.5 408.987 441.194 409.6C439.914 410.187 438.367 410.48 436.554 410.48ZM461.438 410V393.68H455.558V388.88H473.198V393.68H467.318V410H461.438ZM477.286 410V388.88H483.166V396.64H490.086V388.88H496.006V410H490.086V401.72H483.166V410H477.286ZM502.13 410V388.88H516.49V393.44H508.01V397.12H515.29V401.4H508.01V405.44H516.89V410H502.13ZM532.419 410L527.579 383.92H533.619L535.419 396.12C535.579 397.48 535.752 398.853 535.939 400.24C536.125 401.6 536.299 402.973 536.459 404.36H536.619C536.885 402.973 537.139 401.6 537.379 400.24C537.645 398.853 537.912 397.48 538.179 396.12L540.979 383.92H545.979L548.779 396.12C549.045 397.427 549.299 398.773 549.539 400.16C549.805 401.547 550.072 402.947 550.339 404.36H550.499C550.685 402.947 550.859 401.56 551.019 400.2C551.205 398.813 551.392 397.453 551.579 396.12L553.379 383.92H559.019L554.379 410H546.979L544.419 398.16C544.205 397.147 544.005 396.133 543.819 395.12C543.659 394.08 543.512 393.08 543.379 392.12H543.219C543.059 393.08 542.885 394.08 542.699 395.12C542.539 396.133 542.352 397.147 542.139 398.16L539.699 410H532.419ZM572.23 410.48C570.15 410.48 568.324 410.04 566.75 409.16C565.177 408.28 563.937 407.013 563.03 405.36C562.15 403.68 561.71 401.68 561.71 399.36C561.71 397.013 562.15 395.027 563.03 393.4C563.937 391.773 565.177 390.533 566.75 389.68C568.324 388.827 570.15 388.4 572.23 388.4C574.284 388.4 576.084 388.827 577.63 389.68C579.204 390.533 580.43 391.773 581.31 393.4C582.217 395.027 582.67 397.013 582.67 399.36C582.67 401.68 582.217 403.68 581.31 405.36C580.43 407.013 579.204 408.28 577.63 409.16C576.084 410.04 574.284 410.48 572.23 410.48ZM572.23 405.64C573.59 405.64 574.657 405.08 575.43 403.96C576.23 402.84 576.63 401.307 576.63 399.36C576.63 397.387 576.23 395.88 575.43 394.84C574.657 393.773 573.59 393.24 572.23 393.24C570.844 393.24 569.75 393.773 568.95 394.84C568.15 395.88 567.75 397.387 567.75 399.36C567.75 401.307 568.15 402.84 568.95 403.96C569.75 405.08 570.844 405.64 572.23 405.64ZM587.599 410V388.88H595.959C597.585 388.88 599.065 389.093 600.399 389.52C601.759 389.92 602.852 390.613 603.679 391.6C604.505 392.587 604.919 393.973 604.919 395.76C604.919 397.2 604.572 398.427 603.879 399.44C603.212 400.453 602.319 401.253 601.199 401.84L606.119 410H599.919L595.959 403H593.479V410H587.599ZM593.479 399H595.639C596.865 399 597.785 398.747 598.399 398.24C599.039 397.707 599.359 397 599.359 396.12C599.359 395.16 599.025 394.48 598.359 394.08C597.692 393.68 596.759 393.48 595.559 393.48H593.479V399ZM610.021 410V388.88H615.901V405.2H624.301V410H610.021ZM628.849 410V388.88H635.449C637.715 388.88 639.715 389.227 641.449 389.92C643.209 390.587 644.595 391.68 645.609 393.2C646.622 394.72 647.129 396.76 647.129 399.32C647.129 401.88 646.622 403.947 645.609 405.52C644.622 407.067 643.275 408.2 641.569 408.92C639.889 409.64 637.982 410 635.849 410H628.849ZM634.729 405.44H635.809C637.462 405.44 638.755 404.973 639.689 404.04C640.622 403.08 641.089 401.507 641.089 399.32C641.089 397.187 640.622 395.68 639.689 394.8C638.755 393.893 637.462 393.44 635.809 393.44H634.729V405.44Z" fill="white"/>
<g filter="url(#filter2_d_9_5601)">
<path d="M109.796 504.057C109.796 504.42 109.651 504.746 109.361 505.035C109.144 505.253 108.854 505.361 108.492 505.361H74.3691C74.0069 505.361 73.8257 505.543 73.8257 505.905V519.271C73.8257 519.634 74.0069 519.815 74.3691 519.815H96.212C96.5742 519.815 96.864 519.96 97.0814 520.249C97.3712 520.467 97.5161 520.757 97.5161 521.119V533.833C97.5161 534.196 97.3712 534.522 97.0814 534.811C96.864 535.029 96.5742 535.137 96.212 535.137H74.3691C74.0069 535.137 73.8257 535.318 73.8257 535.681V550.025C73.8257 550.388 74.0069 550.569 74.3691 550.569H108.492C108.854 550.569 109.144 550.714 109.361 551.003C109.651 551.221 109.796 551.511 109.796 551.873V564.696C109.796 565.058 109.651 565.384 109.361 565.674C109.144 565.891 108.854 566 108.492 566H57.0904C56.7281 566 56.4021 565.891 56.1123 565.674C55.895 565.384 55.7863 565.058 55.7863 564.696V491.234C55.7863 490.872 55.895 490.582 56.1123 490.365C56.4021 490.075 56.7281 489.93 57.0904 489.93H108.492C108.854 489.93 109.144 490.075 109.361 490.365C109.651 490.582 109.796 490.872 109.796 491.234V504.057ZM122.744 566C122.237 566 121.875 565.855 121.657 565.565C121.44 565.276 121.476 564.913 121.766 564.479L142.305 528.291C142.45 528.074 142.45 527.856 142.305 527.639L121.766 491.452L121.549 490.8C121.549 490.22 121.947 489.93 122.744 489.93H139.479C140.276 489.93 140.82 490.22 141.109 490.8L153.389 513.62C153.607 513.91 153.824 513.91 154.041 513.62L166.43 490.8C166.72 490.22 167.263 489.93 168.06 489.93H184.795C185.302 489.93 185.628 490.075 185.773 490.365C185.918 490.655 185.882 491.017 185.665 491.452L165.234 527.639C165.162 527.856 165.162 528.074 165.234 528.291L185.665 564.479C185.809 564.768 185.882 564.986 185.882 565.131C185.882 565.71 185.52 566 184.795 566H168.168C167.444 566 166.901 565.71 166.538 565.131L154.041 542.418C153.824 542.056 153.607 542.056 153.389 542.418L141.001 565.131C140.638 565.71 140.095 566 139.371 566H122.744ZM254.615 489.93C254.977 489.93 255.267 490.075 255.484 490.365C255.774 490.582 255.919 490.872 255.919 491.234V504.166C255.919 504.528 255.774 504.854 255.484 505.144C255.267 505.361 254.977 505.47 254.615 505.47H235.597C235.235 505.47 235.054 505.651 235.054 506.013V564.696C235.054 565.058 234.909 565.384 234.619 565.674C234.402 565.891 234.112 566 233.75 566H218.319C217.956 566 217.63 565.891 217.34 565.674C217.123 565.384 217.014 565.058 217.014 564.696V506.013C217.014 505.651 216.833 505.47 216.471 505.47H198.106C197.743 505.47 197.417 505.361 197.128 505.144C196.91 504.854 196.802 504.528 196.802 504.166V491.234C196.802 490.872 196.91 490.582 197.128 490.365C197.417 490.075 197.743 489.93 198.106 489.93H254.615ZM323.169 504.057C323.169 504.42 323.024 504.746 322.735 505.035C322.517 505.253 322.227 505.361 321.865 505.361H287.742C287.38 505.361 287.199 505.543 287.199 505.905V519.271C287.199 519.634 287.38 519.815 287.742 519.815H309.585C309.948 519.815 310.237 519.96 310.455 520.249C310.745 520.467 310.889 520.757 310.889 521.119V533.833C310.889 534.196 310.745 534.522 310.455 534.811C310.237 535.029 309.948 535.137 309.585 535.137H287.742C287.38 535.137 287.199 535.318 287.199 535.681V550.025C287.199 550.388 287.38 550.569 287.742 550.569H321.865C322.227 550.569 322.517 550.714 322.735 551.003C323.024 551.221 323.169 551.511 323.169 551.873V564.696C323.169 565.058 323.024 565.384 322.735 565.674C322.517 565.891 322.227 566 321.865 566H270.464C270.101 566 269.775 565.891 269.486 565.674C269.268 565.384 269.16 565.058 269.16 564.696V491.234C269.16 490.872 269.268 490.582 269.486 490.365C269.775 490.075 270.101 489.93 270.464 489.93H321.865C322.227 489.93 322.517 490.075 322.735 490.365C323.024 490.582 323.169 490.872 323.169 491.234V504.057ZM380.455 491.234C380.455 490.872 380.564 490.582 380.781 490.365C381.071 490.075 381.397 489.93 381.759 489.93H397.19C397.553 489.93 397.843 490.075 398.06 490.365C398.35 490.582 398.495 490.872 398.495 491.234V564.696C398.495 565.058 398.35 565.384 398.06 565.674C397.843 565.891 397.553 566 397.19 566H382.411C381.687 566 381.18 565.71 380.89 565.131L355.895 523.618C355.751 523.401 355.606 523.328 355.461 523.401C355.316 523.401 355.243 523.546 355.243 523.836L355.352 564.696C355.352 565.058 355.207 565.384 354.917 565.674C354.7 565.891 354.41 566 354.048 566H338.617C338.254 566 337.928 565.891 337.639 565.674C337.421 565.384 337.313 565.058 337.313 564.696V491.234C337.313 490.872 337.421 490.582 337.639 490.365C337.928 490.075 338.254 489.93 338.617 489.93H353.505C354.229 489.93 354.736 490.22 355.026 490.8L379.912 532.203C380.057 532.421 380.202 532.529 380.346 532.529C380.491 532.457 380.564 532.276 380.564 531.986L380.455 491.234ZM442.301 566.869C436.288 566.869 431.035 565.928 426.544 564.044C422.124 562.088 418.683 559.335 416.22 555.785C413.829 552.163 412.634 547.997 412.634 543.288V541.223C412.634 540.861 412.742 540.571 412.96 540.354C413.249 540.064 413.575 539.919 413.938 539.919H429.043C429.405 539.919 429.695 540.064 429.912 540.354C430.202 540.571 430.347 540.861 430.347 541.223V542.527C430.347 544.918 431.542 547.019 433.933 548.83C436.324 550.569 439.548 551.438 443.605 551.438C446.793 551.438 449.147 550.75 450.669 549.373C452.19 547.997 452.951 546.403 452.951 544.592C452.951 543.143 452.48 541.984 451.538 541.114C450.669 540.172 449.473 539.412 447.952 538.832C446.43 538.18 444.076 537.311 440.888 536.224C440.454 536.007 440.019 535.862 439.584 535.789C439.149 535.645 438.751 535.5 438.389 535.355C433.68 533.833 429.586 532.203 426.109 530.465C422.631 528.653 419.661 526.19 417.198 523.075C414.735 519.887 413.503 515.975 413.503 511.338C413.503 506.847 414.662 502.934 416.981 499.602C419.371 496.197 422.668 493.589 426.87 491.778C431.072 489.966 435.817 489.061 441.106 489.061C446.684 489.061 451.683 490.075 456.102 492.104C460.594 494.132 464.108 496.994 466.643 500.689C469.179 504.383 470.447 508.622 470.447 513.403V514.925C470.447 515.287 470.302 515.613 470.012 515.903C469.795 516.12 469.505 516.229 469.143 516.229H454.037C453.675 516.229 453.349 516.12 453.059 515.903C452.842 515.613 452.733 515.287 452.733 514.925V514.164C452.733 511.628 451.61 509.382 449.365 507.426C447.119 505.47 444.112 504.492 440.345 504.492C437.519 504.492 435.31 505.072 433.716 506.231C432.122 507.39 431.325 509.02 431.325 511.121C431.325 512.715 431.832 514.055 432.847 515.142C433.861 516.156 435.418 517.134 437.519 518.076C439.693 518.945 442.989 520.105 447.408 521.553C452.48 523.292 456.428 524.814 459.254 526.118C462.079 527.422 464.723 529.559 467.187 532.529C469.722 535.427 470.99 539.267 470.99 544.048C470.99 548.758 469.795 552.815 467.404 556.22C465.013 559.625 461.644 562.269 457.298 564.153C453.023 565.964 448.024 566.869 442.301 566.869ZM486.49 566C486.128 566 485.802 565.891 485.512 565.674C485.295 565.384 485.186 565.058 485.186 564.696V491.234C485.186 490.872 485.295 490.582 485.512 490.365C485.802 490.075 486.128 489.93 486.49 489.93H501.921C502.284 489.93 502.574 490.075 502.791 490.365C503.081 490.582 503.226 490.872 503.226 491.234V564.696C503.226 565.058 503.081 565.384 502.791 565.674C502.574 565.891 502.284 566 501.921 566H486.49ZM540.136 566C539.411 566 538.94 565.638 538.723 564.913L516.771 491.452L516.663 491.017C516.663 490.292 517.061 489.93 517.858 489.93H534.485C535.282 489.93 535.789 490.292 536.006 491.017L548.503 540.462C548.576 540.68 548.684 540.788 548.829 540.788C548.974 540.788 549.083 540.68 549.155 540.462L561.435 491.017C561.652 490.292 562.16 489.93 562.957 489.93H579.257C579.692 489.93 580.018 490.075 580.235 490.365C580.453 490.655 580.489 491.017 580.344 491.452L558.066 564.913C557.849 565.638 557.378 566 556.654 566H540.136ZM647.379 504.057C647.379 504.42 647.234 504.746 646.944 505.035C646.727 505.253 646.437 505.361 646.075 505.361H611.952C611.59 505.361 611.409 505.543 611.409 505.905V519.271C611.409 519.634 611.59 519.815 611.952 519.815H633.795C634.157 519.815 634.447 519.96 634.664 520.249C634.954 520.467 635.099 520.757 635.099 521.119V533.833C635.099 534.196 634.954 534.522 634.664 534.811C634.447 535.029 634.157 535.137 633.795 535.137H611.952C611.59 535.137 611.409 535.318 611.409 535.681V550.025C611.409 550.388 611.59 550.569 611.952 550.569H646.075C646.437 550.569 646.727 550.714 646.944 551.003C647.234 551.221 647.379 551.511 647.379 551.873V564.696C647.379 565.058 647.234 565.384 646.944 565.674C646.727 565.891 646.437 566 646.075 566H594.673C594.311 566 593.985 565.891 593.695 565.674C593.478 565.384 593.369 565.058 593.369 564.696V491.234C593.369 490.872 593.478 490.582 593.695 490.365C593.985 490.075 594.311 489.93 594.673 489.93H646.075C646.437 489.93 646.727 490.075 646.944 490.365C647.234 490.582 647.379 490.872 647.379 491.234V504.057Z" fill="#D9D9D9" fill-opacity="0.5" shape-rendering="crispEdges"/>
</g>
<path d="M123.009 627V600.92H131.969C133.889 600.92 135.622 601.187 137.169 601.72C138.742 602.227 139.996 603.093 140.929 604.32C141.862 605.547 142.329 607.213 142.329 609.32C142.329 611.347 141.862 613.013 140.929 614.32C139.996 615.627 138.756 616.6 137.209 617.24C135.662 617.853 133.969 618.16 132.129 618.16H128.889V627H123.009ZM128.889 613.48H131.769C134.969 613.48 136.569 612.093 136.569 609.32C136.569 607.96 136.142 607 135.289 606.44C134.436 605.88 133.209 605.6 131.609 605.6H128.889V613.48ZM146.837 627V605.88H155.197C156.824 605.88 158.304 606.093 159.637 606.52C160.997 606.92 162.09 607.613 162.917 608.6C163.744 609.587 164.157 610.973 164.157 612.76C164.157 614.2 163.81 615.427 163.117 616.44C162.45 617.453 161.557 618.253 160.437 618.84L165.357 627H159.157L155.197 620H152.717V627H146.837ZM152.717 616H154.877C156.104 616 157.024 615.747 157.637 615.24C158.277 614.707 158.597 614 158.597 613.12C158.597 612.16 158.264 611.48 157.597 611.08C156.93 610.68 155.997 610.48 154.797 610.48H152.717V616ZM178.539 627.48C176.459 627.48 174.632 627.04 173.059 626.16C171.486 625.28 170.246 624.013 169.339 622.36C168.459 620.68 168.019 618.68 168.019 616.36C168.019 614.013 168.459 612.027 169.339 610.4C170.246 608.773 171.486 607.533 173.059 606.68C174.632 605.827 176.459 605.4 178.539 605.4C180.592 605.4 182.392 605.827 183.939 606.68C185.512 607.533 186.739 608.773 187.619 610.4C188.526 612.027 188.979 614.013 188.979 616.36C188.979 618.68 188.526 620.68 187.619 622.36C186.739 624.013 185.512 625.28 183.939 626.16C182.392 627.04 180.592 627.48 178.539 627.48ZM178.539 622.64C179.899 622.64 180.966 622.08 181.739 620.96C182.539 619.84 182.939 618.307 182.939 616.36C182.939 614.387 182.539 612.88 181.739 611.84C180.966 610.773 179.899 610.24 178.539 610.24C177.152 610.24 176.059 610.773 175.259 611.84C174.459 612.88 174.059 614.387 174.059 616.36C174.059 618.307 174.459 619.84 175.259 620.96C176.059 622.08 177.152 622.64 178.539 622.64ZM193.907 627V605.88H208.387V610.68H199.787V614.92H207.187V619.32H199.787V627H193.907ZM212.931 627V605.88H227.291V610.44H218.811V614.12H226.091V618.4H218.811V622.44H227.691V627H212.931ZM239.972 627.48C238.292 627.48 236.678 627.213 235.132 626.68C233.612 626.12 232.305 625.4 231.212 624.52L234.012 620.56C234.998 621.307 236.012 621.893 237.052 622.32C238.118 622.747 239.185 622.96 240.252 622.96C241.105 622.96 241.718 622.787 242.092 622.44C242.492 622.093 242.692 621.667 242.692 621.16C242.692 620.6 242.452 620.147 241.972 619.8C241.492 619.453 240.878 619.147 240.132 618.88L237.892 618.04C236.932 617.693 236.025 617.267 235.172 616.76C234.345 616.227 233.665 615.573 233.132 614.8C232.625 614.027 232.372 613.093 232.372 612C232.372 610.667 232.718 609.507 233.412 608.52C234.105 607.507 235.078 606.733 236.332 606.2C237.585 605.64 239.038 605.36 240.692 605.36C242.425 605.36 243.918 605.64 245.172 606.2C246.452 606.76 247.545 607.387 248.452 608.08L245.572 611.84C244.798 611.307 243.985 610.867 243.132 610.52C242.305 610.147 241.438 609.96 240.532 609.96C239.012 609.96 238.252 610.533 238.252 611.68C238.252 612.16 238.478 612.547 238.932 612.84C239.412 613.133 240.038 613.427 240.812 613.72L243.012 614.52C244.052 614.867 244.985 615.28 245.812 615.76C246.665 616.24 247.345 616.867 247.852 617.64C248.358 618.413 248.612 619.427 248.612 620.68C248.612 621.96 248.265 623.12 247.572 624.16C246.905 625.173 245.918 625.987 244.612 626.6C243.332 627.187 241.785 627.48 239.972 627.48ZM259.737 627.48C258.057 627.48 256.444 627.213 254.897 626.68C253.377 626.12 252.071 625.4 250.977 624.52L253.777 620.56C254.764 621.307 255.777 621.893 256.817 622.32C257.884 622.747 258.951 622.96 260.017 622.96C260.871 622.96 261.484 622.787 261.857 622.44C262.257 622.093 262.457 621.667 262.457 621.16C262.457 620.6 262.217 620.147 261.737 619.8C261.257 619.453 260.644 619.147 259.897 618.88L257.657 618.04C256.697 617.693 255.791 617.267 254.937 616.76C254.111 616.227 253.431 615.573 252.897 614.8C252.391 614.027 252.137 613.093 252.137 612C252.137 610.667 252.484 609.507 253.177 608.52C253.871 607.507 254.844 606.733 256.097 606.2C257.351 605.64 258.804 605.36 260.457 605.36C262.191 605.36 263.684 605.64 264.937 606.2C266.217 606.76 267.311 607.387 268.217 608.08L265.337 611.84C264.564 611.307 263.751 610.867 262.897 610.52C262.071 610.147 261.204 609.96 260.297 609.96C258.777 609.96 258.017 610.533 258.017 611.68C258.017 612.16 258.244 612.547 258.697 612.84C259.177 613.133 259.804 613.427 260.577 613.72L262.777 614.52C263.817 614.867 264.751 615.28 265.577 615.76C266.431 616.24 267.111 616.867 267.617 617.64C268.124 618.413 268.377 619.427 268.377 620.68C268.377 621.96 268.031 623.12 267.337 624.16C266.671 625.173 265.684 625.987 264.377 626.6C263.097 627.187 261.551 627.48 259.737 627.48ZM272.814 627V605.88H278.694V627H272.814ZM294.125 627.48C292.045 627.48 290.218 627.04 288.645 626.16C287.072 625.28 285.832 624.013 284.925 622.36C284.045 620.68 283.605 618.68 283.605 616.36C283.605 614.013 284.045 612.027 284.925 610.4C285.832 608.773 287.072 607.533 288.645 606.68C290.218 605.827 292.045 605.4 294.125 605.4C296.178 605.4 297.978 605.827 299.525 606.68C301.098 607.533 302.325 608.773 303.205 610.4C304.112 612.027 304.565 614.013 304.565 616.36C304.565 618.68 304.112 620.68 303.205 622.36C302.325 624.013 301.098 625.28 299.525 626.16C297.978 627.04 296.178 627.48 294.125 627.48ZM294.125 622.64C295.485 622.64 296.552 622.08 297.325 620.96C298.125 619.84 298.525 618.307 298.525 616.36C298.525 614.387 298.125 612.88 297.325 611.84C296.552 610.773 295.485 610.24 294.125 610.24C292.738 610.24 291.645 610.773 290.845 611.84C290.045 612.88 289.645 614.387 289.645 616.36C289.645 618.307 290.045 619.84 290.845 620.96C291.645 622.08 292.738 622.64 294.125 622.64ZM309.493 627V605.88H315.413L320.413 615.08L322.733 620.12H322.893C322.813 619.347 322.707 618.48 322.573 617.52C322.467 616.533 322.373 615.533 322.293 614.52C322.213 613.507 322.173 612.56 322.173 611.68V605.88H327.573V627H321.813L316.613 617.76L314.333 612.76H314.173C314.307 613.987 314.453 615.373 314.613 616.92C314.8 618.44 314.893 619.867 314.893 621.2V627H309.493ZM338.991 616.8L338.591 618.44H342.711L342.271 616.8C342.004 615.787 341.738 614.693 341.471 613.52C341.231 612.32 340.964 611.2 340.671 610.16H340.511C340.271 611.227 340.018 612.347 339.751 613.52C339.511 614.693 339.258 615.787 338.991 616.8ZM330.431 627L337.231 605.88H344.231L351.071 627H344.911L343.791 622.68H337.511L336.391 627H330.431ZM353.868 627V605.88H359.748V622.2H368.148V627H353.868ZM380.704 627V600.92H397.024V605.88H386.584V611.12H395.464V616.04H386.584V622.04H397.424V627H380.704ZM399.978 627L406.058 616.16L400.338 605.88H406.818L408.378 609.2C408.592 609.68 408.832 610.213 409.098 610.8C409.365 611.387 409.645 612.027 409.938 612.72H410.098C410.365 612.027 410.618 611.387 410.858 610.8C411.098 610.213 411.312 609.68 411.498 609.2L412.818 605.88H419.058L413.338 616.4L419.418 627H412.938L411.138 623.36C410.872 622.8 410.605 622.24 410.338 621.68C410.072 621.093 409.792 620.467 409.498 619.8H409.338C409.098 620.467 408.858 621.093 408.618 621.68C408.378 622.24 408.152 622.8 407.938 623.36L406.218 627H399.978ZM422.97 627V605.88H431.53C433.157 605.88 434.637 606.093 435.97 606.52C437.33 606.947 438.423 607.68 439.25 608.72C440.077 609.733 440.49 611.133 440.49 612.92C440.49 614.653 440.063 616.067 439.21 617.16C438.383 618.253 437.29 619.053 435.93 619.56C434.57 620.067 433.103 620.32 431.53 620.32H428.85V627H422.97ZM428.85 616.28H431.33C432.503 616.28 433.383 616.013 433.97 615.48C434.583 614.92 434.89 614.187 434.89 613.28C434.89 612.293 434.597 611.587 434.01 611.16C433.423 610.707 432.53 610.48 431.33 610.48H428.85V616.28ZM445.001 627V605.88H459.361V610.44H450.881V614.12H458.161V618.4H450.881V622.44H459.761V627H445.001ZM464.962 627V605.88H473.322C474.949 605.88 476.429 606.093 477.762 606.52C479.122 606.92 480.215 607.613 481.042 608.6C481.869 609.587 482.282 610.973 482.282 612.76C482.282 614.2 481.935 615.427 481.242 616.44C480.575 617.453 479.682 618.253 478.562 618.84L483.482 627H477.282L473.322 620H470.842V627H464.962ZM470.842 616H473.002C474.229 616 475.149 615.747 475.762 615.24C476.402 614.707 476.722 614 476.722 613.12C476.722 612.16 476.389 611.48 475.722 611.08C475.055 610.68 474.122 610.48 472.922 610.48H470.842V616ZM487.384 627V605.88H493.264V627H487.384ZM499.415 627V605.88H513.775V610.44H505.295V614.12H512.575V618.4H505.295V622.44H514.175V627H499.415ZM519.376 627V605.88H525.296L530.296 615.08L532.616 620.12H532.776C532.696 619.347 532.589 618.48 532.456 617.52C532.349 616.533 532.256 615.533 532.176 614.52C532.096 613.507 532.056 612.56 532.056 611.68V605.88H537.456V627H531.696L526.496 617.76L524.216 612.76H524.056C524.189 613.987 524.336 615.373 524.496 616.92C524.683 618.44 524.776 619.867 524.776 621.2V627H519.376ZM553.034 627.48C551.114 627.48 549.341 627.08 547.714 626.28C546.114 625.48 544.821 624.28 543.834 622.68C542.874 621.053 542.394 619.027 542.394 616.6C542.394 614.2 542.901 612.173 543.914 610.52C544.954 608.84 546.301 607.573 547.954 606.72C549.634 605.84 551.447 605.4 553.394 605.4C554.807 605.4 556.101 605.68 557.274 606.24C558.447 606.773 559.434 607.427 560.234 608.2L557.034 611.72C556.474 611.213 555.914 610.84 555.354 610.6C554.821 610.36 554.181 610.24 553.434 610.24C552.047 610.24 550.847 610.787 549.834 611.88C548.847 612.947 548.354 614.453 548.354 616.4C548.354 618.427 548.807 619.973 549.714 621.04C550.621 622.107 551.807 622.64 553.274 622.64C554.154 622.64 554.914 622.48 555.554 622.16C556.221 621.84 556.794 621.44 557.274 620.96L560.474 624.4C559.514 625.44 558.394 626.213 557.114 626.72C555.834 627.227 554.474 627.48 553.034 627.48ZM564.415 627V605.88H578.775V610.44H570.295V614.12H577.575V618.4H570.295V622.44H579.175V627H564.415Z" fill="white"/>
<defs>
<filter id="filter0_d_9_5601" x="207.064" y="0.0605469" width="287.918" height="188.243" filterUnits="userSpaceOnUse" color-interpolation-filters="sRGB">
<feFlood flood-opacity="0" result="BackgroundImageFix"/>
<feColorMatrix in="SourceAlpha" type="matrix" values="0 0 0 0 0 0 0 0 0 0 0 0 0 0 0 0 0 0 127 0" result="hardAlpha"/>
<feMorphology radius="5" operator="dilate" in="SourceAlpha" result="effect1_dropShadow_9_5601"/>
<feOffset/>
<feGaussianBlur stdDeviation="25"/>
<feComposite in2="hardAlpha" operator="out"/>
<feColorMatrix type="matrix" values="0 0 0 0 1 0 0 0 0 1 0 0 0 0 1 0 0 0 0.25 0"/>
<feBlend mode="normal" in2="BackgroundImageFix" result="effect1_dropShadow_9_5601"/>
<feBlend mode="normal" in="SourceGraphic" in2="effect1_dropShadow_9_5601" result="shape"/>
</filter>
<filter id="filter1_d_9_5601" x="73.7679" y="217.061" width="555.629" height="187.809" filterUnits="userSpaceOnUse" color-interpolation-filters="sRGB">
<feFlood flood-opacity="0" result="BackgroundImageFix"/>
<feColorMatrix in="SourceAlpha" type="matrix" values="0 0 0 0 0 0 0 0 0 0 0 0 0 0 0 0 0 0 127 0" result="hardAlpha"/>
<feMorphology radius="5" operator="dilate" in="SourceAlpha" result="effect1_dropShadow_9_5601"/>
<feOffset/>
<feGaussianBlur stdDeviation="25"/>
<feComposite in2="hardAlpha" operator="out"/>
<feColorMatrix type="matrix" values="0 0 0 0 1 0 0 0 0 1 0 0 0 0 1 0 0 0 0.25 0"/>
<feBlend mode="normal" in2="BackgroundImageFix" result="effect1_dropShadow_9_5601"/>
<feBlend mode="normal" in="SourceGraphic" in2="effect1_dropShadow_9_5601" result="shape"/>
</filter>
<filter id="filter2_d_9_5601" x="0.786255" y="434.061" width="701.592" height="187.809" filterUnits="userSpaceOnUse" color-interpolation-filters="sRGB">
<feFlood flood-opacity="0" result="BackgroundImageFix"/>
<feColorMatrix in="SourceAlpha" type="matrix" values="0 0 0 0 0 0 0 0 0 0 0 0 0 0 0 0 0 0 127 0" result="hardAlpha"/>
<feMorphology radius="5" operator="dilate" in="SourceAlpha" result="effect1_dropShadow_9_5601"/>
<feOffset/>
<feGaussianBlur stdDeviation="25"/>
<feComposite in2="hardAlpha" operator="out"/>
<feColorMatrix type="matrix" values="0 0 0 0 1 0 0 0 0 1 0 0 0 0 1 0 0 0 0.25 0"/>
<feBlend mode="normal" in2="BackgroundImageFix" result="effect1_dropShadow_9_5601"/>
<feBlend mode="normal" in="SourceGraphic" in2="effect1_dropShadow_9_5601" result="shape"/>
</filter>
</defs>
</svg>
