<svg width="1366" height="3963" viewBox="0 0 1366 3963" fill="none" xmlns="http://www.w3.org/2000/svg">
<path d="M1717.99 2135.42C1742.5 2044.89 1718.42 1943.82 1688.18 1865.3C1672.98 1825.85 1656.22 1792.08 1643.26 1768.16C1636.77 1756.2 1631.24 1746.71 1627.33 1740.2C1625.37 1736.95 1623.82 1734.45 1622.76 1732.75C1622.23 1731.91 1621.82 1731.26 1621.54 1730.83C1621.4 1730.62 1621.3 1730.45 1621.23 1730.34L1621.15 1730.22L1621.13 1730.19L1621.12 1730.18C1621.12 1730.18 1621.12 1730.18 1620.7 1730.45L1621.12 1730.18L1620.27 1730.7L1620.42 1730.61C1620.27 1730.7 1620.27 1730.7 1620.27 1730.7L1620.27 1730.71L1620.29 1730.74L1620.36 1730.86C1620.42 1730.97 1620.51 1731.13 1620.63 1731.35C1620.87 1731.79 1621.22 1732.43 1621.68 1733.29C1622.58 1735 1623.9 1737.54 1625.54 1740.85C1628.81 1747.46 1633.35 1757.15 1638.42 1769.45C1648.55 1794.04 1660.79 1829.05 1669.2 1870.7C1686.02 1953.99 1687.53 2063.81 1626.4 2170.08C1542.08 2242.89 1475.41 2253.9 1429.86 2246.78C1407.08 2243.22 1389.55 2235.11 1377.72 2227.9C1371.81 2224.29 1367.32 2220.91 1364.32 2218.43C1362.81 2217.19 1361.68 2216.18 1360.92 2215.48C1360.64 2215.21 1360.41 2214.99 1360.23 2214.82C1487.55 2131.34 1517.47 2023.38 1515.53 1936.25C1514.55 1892.64 1505.59 1854.25 1496.88 1826.77C1492.52 1813.03 1488.23 1802.01 1485.02 1794.43C1483.41 1790.63 1482.08 1787.7 1481.15 1785.71C1480.68 1784.72 1480.32 1783.96 1480.07 1783.45C1480.02 1783.36 1479.98 1783.27 1479.94 1783.19C1479.88 1783.06 1479.82 1782.96 1479.78 1782.88C1479.75 1782.81 1479.73 1782.76 1479.71 1782.73L1479.7 1782.71L1479.7 1782.71L1479.67 1782.61C1479.63 1782.52 1479.59 1782.38 1479.53 1782.2C1479.41 1781.84 1479.23 1781.3 1478.99 1780.6C1478.53 1779.18 1477.85 1777.09 1477.01 1774.39C1475.32 1768.98 1472.96 1761.13 1470.28 1751.34C1464.92 1731.76 1458.28 1704.44 1453.17 1673.47C1442.93 1611.52 1438.81 1535.08 1463.11 1476.85C1516.63 1375.31 1576.58 1318.01 1636.59 1290.7C1696.59 1263.4 1756.71 1266.07 1810.61 1284.58C1864.52 1303.1 1912.21 1337.48 1947.3 1373.56C1964.85 1391.61 1979.24 1410.07 1989.69 1427.19C2000.14 1444.31 2006.62 1460.05 2008.38 1472.64L2008.38 1472.65L2008.39 1472.66C2010.75 1485.66 2011.76 1500.83 2010.16 1511.42C2009.36 1516.73 2007.92 1520.77 2005.77 1522.85C2004.72 1523.87 2003.5 1524.41 2002.08 1524.41C2000.68 1524.41 1999.05 1523.89 1997.15 1522.69C1987.04 1468.25 1939.29 1424.99 1888.03 1410.12C1862.36 1402.67 1835.76 1402.33 1812.53 1411.31C1789.28 1420.29 1769.45 1438.59 1757.3 1468.32L1757.29 1468.34L1757.29 1468.36C1734.08 1542.02 1735.38 1621.22 1761.02 1694.07L1761.12 1694.38L1761.45 1694.4C1772.95 1695.26 1784.51 1693.87 1795.48 1690.32L1795.49 1690.31C1798.83 1689.16 1802.48 1689.38 1805.65 1690.9C1808.82 1692.43 1811.26 1695.14 1812.45 1698.44C1820.88 1734.21 1834.71 1768.48 1853.45 1800.08L1853.46 1800.1L1853.47 1800.11C1855.54 1803.14 1855.32 1806.58 1853.77 1809.76C1852.21 1812.96 1849.32 1815.85 1846.18 1817.67L1846.17 1817.68L1846.16 1817.68C1839.47 1821.94 1833.11 1826.71 1827.15 1831.94L1826.82 1832.23L1827.07 1832.6C1829.74 1836.56 1832.51 1840.62 1835.33 1844.76C1851.45 1868.42 1869.4 1894.76 1882.2 1920.32C1889.72 1935.34 1895.45 1950.07 1898 1963.81C1900.54 1977.52 1899.9 1990.21 1894.75 2001.24C1884.31 2011.34 1872.52 2021.11 1861.05 2030.22C1833.9 2044.45 1809.47 2063.37 1788.9 2086.1C1763.95 2104.4 1740.32 2120.73 1717.99 2135.42Z" stroke="#5E12B2"/>
<path d="M2161.78 2939.47L2161.83 2939.48L2161.88 2939.47C2163.98 2939.33 2166.09 2939.63 2168.06 2940.37C2170.03 2941.11 2171.82 2942.26 2173.31 2943.75C2174.8 2945.24 2175.95 2947.03 2176.69 2949C2177.43 2950.98 2177.74 2953.08 2177.59 2955.18L2177.59 2955.26L2177.6 2955.34C2186.97 2994.58 2184.98 3035.69 2171.87 3073.84L2171.85 3073.88L2171.85 3073.92C2171.15 3077.63 2169.27 3081.02 2166.48 3083.57C2163.69 3086.12 2160.15 3087.7 2156.38 3088.06L2156.37 3088.06L2156.36 3088.07C2141.75 3090.29 2127.35 3093.69 2113.3 3098.24L2113.05 3098.32L2112.97 3098.57C2093.57 3165.27 2058.84 3226.51 2011.56 3277.4L2011.4 3277.57L2011.43 3277.79C2013.08 3293.3 2017.82 3308.33 2025.36 3321.98L2025.37 3322L2025.38 3322.01C2027.52 3325.23 2028.31 3329.17 2027.58 3332.96C2026.84 3336.76 2024.64 3340.12 2021.45 3342.31L2021.4 3342.35L2021.35 3342.4C1995.42 3373.81 1961.12 3397.22 1922.42 3409.93L1922.4 3409.94L1922.38 3409.94C1918.95 3411.42 1915.15 3411.8 1911.49 3411.04C1907.84 3410.27 1904.51 3408.39 1901.96 3405.66L1901.96 3405.66L1901.95 3405.65C1892.81 3396.41 1882.94 3387.9 1872.45 3380.22L1872.21 3380.04L1871.94 3380.17C1814.72 3406.59 1752.43 3420.2 1689.4 3420.06H1689.4H1685H1684.68L1684.55 3420.35C1680.54 3429 1677.69 3438.15 1676.05 3447.54L1676.05 3447.56L1676.05 3447.58C1675.84 3449.52 1675.26 3451.4 1674.32 3453.11C1673.39 3454.82 1672.12 3456.33 1670.6 3457.54C1669.08 3458.76 1667.33 3459.67 1665.45 3460.2C1663.58 3460.74 1661.62 3460.9 1659.68 3460.67L1659.61 3460.66L1659.53 3460.68C1619.79 3467.93 1578.8 3463.71 1541.36 3448.52L1541.33 3448.51L1541.29 3448.5C1537.66 3447.58 1534.42 3445.52 1532.05 3442.62C1529.68 3439.71 1528.3 3436.12 1528.13 3432.38L1528.13 3432.37L1528.13 3432.36C1526.86 3416.63 1524.02 3401.07 1519.65 3385.9L1519.59 3385.67L1519.37 3385.58C1456.16 3358.69 1400.09 3317.44 1355.61 3265.1C1311.13 3212.76 1279.47 3150.77 1263.14 3084.06C1251.51 3007.46 1262.06 2929.13 1293.54 2858.34C1296.73 2853.88 1300.8 2850.13 1305.5 2847.32C1310.22 2844.5 1315.47 2842.69 1320.92 2842L1320.93 2842L1320.95 2842C1327.4 2840.83 1331.27 2841.67 1333.49 2843.44C1335.71 2845.21 1336.45 2848 1336.39 2851.06C1336.33 2854.11 1335.47 2857.33 1334.61 2859.81C1334.19 2861.04 1333.76 2862.08 1333.45 2862.82C1333.29 2863.18 1333.16 2863.47 1333.07 2863.66C1333.05 2863.71 1333.03 2863.75 1333.01 2863.78C1332.99 2863.82 1332.98 2863.86 1332.96 2863.89L1332.94 2863.94L1332.93 2863.96L1332.93 2863.96L1332.93 2863.96L1332.91 2864.01L1332.89 2864.05C1332.47 2865.64 1331.92 2867.2 1331.36 2868.8C1331.03 2869.76 1330.69 2870.73 1330.36 2871.73C1329.52 2874.35 1328.83 2877.1 1328.82 2880.03C1293.24 3022.15 1395.62 3137.22 1520.96 3179.82C1583.65 3201.12 1652.15 3204.33 1712.11 3183.72C1772.09 3163.1 1823.49 3118.66 1851.98 3044.74L1851.98 3044.73L1851.98 3044.72C1871.8 2984.07 1871.85 2938.1 1860.34 2903.26C1848.84 2868.42 1825.81 2844.77 1799.61 2828.73C1747.24 2796.67 1682.14 2794.98 1670.79 2794.98L1670.78 2794.98C1667.42 2795.07 1664.17 2793.87 1661.68 2791.63C1659.23 2789.42 1657.71 2786.37 1657.43 2783.09C1674.42 2756.96 1694.53 2733.01 1717.32 2711.75C1763.47 2719.04 1831.69 2737.06 1891.1 2781.04C1950.6 2825.08 2001.29 2895.18 2012.1 3006.71L2013.1 3006.66C2012.42 2866.98 1978.82 2781.74 1934.42 2730.14C1890.52 2679.11 1836.14 2661.05 1792.8 2655.73C1833.47 2631.88 1877.22 2613.73 1922.83 2601.76C1978.96 2637.41 2026.33 2685.25 2061.41 2741.73C2096.53 2798.27 2118.43 2862.01 2125.48 2928.2L2125.51 2928.47L2125.75 2928.59C2137.07 2934.22 2149.25 2937.89 2161.78 2939.47Z" stroke="#5E12B2"/>
<path d="M2232.19 2727.97C2232.21 2727.92 2232.23 2727.87 2232.25 2727.84L2232.28 2727.82C2232.4 2727.76 2232.58 2727.68 2232.81 2727.56C2233.28 2727.33 2233.97 2726.99 2234.86 2726.55C2236.64 2725.65 2239.22 2724.33 2242.44 2722.61C2248.87 2719.18 2257.84 2714.19 2268 2707.93C2290.68 2696.7 2310.86 2681.01 2327.34 2661.81C2340.19 2649.74 2349.88 2634.69 2355.54 2617.99C2372.87 2579.72 2376.68 2536.69 2366.34 2495.96C2356 2455.23 2332.12 2419.22 2298.62 2393.85C2265.12 2368.47 2223.99 2355.25 2181.98 2356.33C2139.98 2357.41 2099.6 2372.74 2067.46 2399.78L2060.74 2403.48L2060.68 2403.51L2060.64 2403.56L2060.98 2403.92C2060.64 2403.56 2060.64 2403.56 2060.64 2403.56L2060.63 2403.56L2060.63 2403.56L2060.59 2403.59L2060.47 2403.71C2060.35 2403.82 2060.18 2403.98 2059.95 2404.19C2059.49 2404.6 2058.81 2405.22 2057.9 2406.03C2056.09 2407.64 2053.4 2409.99 2049.87 2412.97C2042.81 2418.93 2032.41 2427.39 2019.05 2437.36L2018.76 2437.58L2018.88 2437.92C2020.78 2443.56 2023.17 2449.03 2026.02 2454.25L2026.03 2454.26L2026.04 2454.27C2028.11 2457.57 2028.8 2461.56 2027.94 2465.37C2027.08 2469.16 2024.76 2472.46 2021.49 2474.55C1984.46 2490.12 1950.15 2511.51 1919.86 2537.9L1919.85 2537.92L1919.83 2537.93C1917.12 2540.8 1913.45 2541.23 1909.72 2540.12C1905.98 2539.01 1902.25 2536.37 1899.59 2533.22L1899.58 2533.2L1899.57 2533.19L1890.43 2523.72L1890.16 2523.43L1889.81 2523.64C1834.44 2557.17 1776.79 2586.79 1717.28 2612.27L1716.92 2612.42L1716.98 2612.81C1717.43 2615.64 1718.24 2618.41 1719.38 2621.04C1720.79 2624.69 1720.73 2628.75 1719.2 2632.36C1717.67 2635.96 1714.8 2638.84 1711.19 2640.36L1711.12 2640.39L1711.07 2640.43C1679.71 2665.76 1641.75 2681.58 1601.68 2686.01L1601.65 2686.01L1601.62 2686.02C1597.96 2686.83 1594.14 2686.51 1590.67 2685.1C1587.2 2683.69 1584.24 2681.25 1582.19 2678.12C1578.74 2672.71 1575.01 2667.5 1570.99 2662.5L1570.79 2662.26L1570.48 2662.33C1521.86 2674.48 1472.09 2681.39 1422.01 2682.96L1421.8 2682.97L1421.66 2683.12C1411.95 2693.59 1404.34 2705.82 1399.23 2719.16L1399.22 2719.17L1399.21 2719.19C1398.08 2722.92 1395.51 2726.05 1392.08 2727.89C1388.64 2729.73 1384.62 2730.13 1380.88 2729.01L1380.82 2728.99L1380.75 2728.99C1340.53 2728.49 1301.24 2716.8 1267.3 2695.22L1267.27 2695.21L1267.24 2695.19C1263.83 2693.57 1261.01 2690.92 1259.18 2687.61C1257.35 2684.3 1256.6 2680.51 1257.03 2676.75L1257.04 2676.74L1257.04 2676.73C1257.58 2668.93 1257.58 2661.1 1257.04 2653.31L1257.01 2652.99L1256.72 2652.88C1126.25 2601.43 1067.4 2517.56 1043.18 2436.54C1095.3 2469.91 1193.8 2520.13 1323.6 2527.73C1454.36 2535.4 1616.84 2499.82 1795.62 2360.32L1795.04 2359.51C1579.9 2501.24 1408.9 2509.32 1281.65 2469.01C1154.49 2428.74 1070.93 2340.13 1030.65 2288.03C1032.86 2263.07 1037.52 2238.39 1044.58 2214.34C1132.22 2303.35 1265.1 2327.75 1394.83 2316.17C1524.86 2304.58 1651.86 2256.83 1727.25 2201.61C1802.48 2146.49 1909.34 2102.36 2017.2 2091.08C2125.07 2079.79 2233.87 2101.35 2313.09 2177.53C2393.84 2263.86 2435.3 2341.56 2451.11 2409.69C2466.93 2477.81 2457.1 2536.41 2435.2 2584.56C2413.31 2632.72 2379.34 2670.45 2346.87 2696.82C2330.64 2710 2314.78 2720.34 2301.01 2727.71C2287.22 2735.1 2275.55 2739.5 2267.67 2740.84L2267.66 2740.84L2267.64 2740.85C2255.14 2743.89 2246.71 2744.53 2241.08 2743.81C2235.47 2743.09 2232.73 2741.03 2231.48 2738.73C2230.21 2736.39 2230.39 2733.66 2230.93 2731.46C2231.2 2730.36 2231.55 2729.42 2231.83 2728.75C2231.97 2728.41 2232.1 2728.15 2232.19 2727.97Z" stroke="#5E12B2"/>
<path d="M45.1984 2840.31L45.1885 2840.31C38.7305 2839.13 34.845 2839.98 32.5834 2841.75C30.3311 2843.52 29.555 2846.31 29.5756 2849.37C29.5963 2852.43 30.4136 2855.65 31.2369 2858.12C31.6473 2859.36 32.0564 2860.4 32.3625 2861.13C32.5156 2861.49 32.6428 2861.78 32.7313 2861.98C32.7756 2862.08 32.8102 2862.15 32.8335 2862.2L32.8599 2862.26L32.8663 2862.27L32.8678 2862.27L32.8681 2862.27L32.9176 2862.38V2862.49C32.9176 2864.95 33.5728 2867.42 34.4164 2870.04C34.6345 2870.71 34.8656 2871.4 35.1003 2872.1C35.7657 2874.07 36.4598 2876.13 36.9647 2878.28C36.965 2878.28 36.9653 2878.28 36.9655 2878.28L36.4788 2878.4C107.548 3163.69 -372.679 3339.67 -485.037 3044.56L45.1984 2840.31ZM45.1984 2840.31L45.2084 2840.31C50.7877 2841.09 56.1293 2843.08 60.8611 2846.14C65.5826 2849.19 69.5836 2853.24 72.5866 2857.99C104.076 2928.78 114.629 3007.12 102.996 3083.73C86.8358 3150.51 55.2388 3212.58 10.7423 3264.94C-33.7589 3317.31 -89.9218 3358.51 -153.235 3385.24L-153.461 3385.33L-153.524 3385.57C-157.552 3400.81 -160.385 3416.33 -161.998 3432.01L-162 3432.03L-162 3432.04C-162.17 3435.78 -163.541 3439.38 -165.912 3442.28C-168.282 3445.18 -171.525 3447.25 -175.16 3448.16L-175.194 3448.17L-175.226 3448.18C-212.663 3463.37 -253.652 3467.59 -293.398 3460.34L-293.472 3460.32L-293.546 3460.33C-295.463 3460.56 -297.406 3460.4 -299.259 3459.86C-301.112 3459.32 -302.837 3458.41 -304.333 3457.19C-305.828 3455.97 -307.062 3454.46 -307.962 3452.75C-308.863 3451.04 -309.41 3449.17 -309.572 3447.25L-309.574 3447.23L-309.578 3447.21C-311.233 3437.77 -314.21 3428.61 -318.42 3420L-318.557 3419.72H-318.87H-323.269C-386.291 3419.83 -448.581 3406.22 -505.81 3379.83L-506.076 3379.71L-506.313 3379.88C-516.773 3387.48 -526.536 3395.99 -535.485 3405.32L-535.488 3405.32C-538.089 3408.08 -541.477 3409.98 -545.191 3410.74C-548.905 3411.51 -552.766 3411.11 -556.247 3409.61L-556.267 3409.6L-556.288 3409.59C-594.863 3396.83 -629.042 3373.42 -654.88 3342.06L-654.931 3342L-655 3341.96C-656.638 3340.93 -658.052 3339.58 -659.158 3337.99C-660.263 3336.41 -661.037 3334.61 -661.434 3332.72C-661.831 3330.83 -661.842 3328.87 -661.467 3326.98C-661.092 3325.08 -660.339 3323.28 -659.252 3321.68L-659.239 3321.66L-659.228 3321.64C-651.647 3307.98 -646.799 3292.97 -644.955 3277.46L-644.928 3277.23L-645.086 3277.06C-692.491 3226.26 -727.238 3164.99 -746.499 3098.24L-746.573 3097.98L-746.827 3097.9C-760.891 3093.39 -775.287 3089.99 -789.883 3087.73L-789.895 3087.72L-789.908 3087.72C-793.697 3087.33 -797.265 3085.74 -800.103 3083.2C-802.941 3080.66 -804.905 3077.29 -805.716 3073.56L-805.721 3073.54L-805.728 3073.52C-818.082 3035.15 -819.369 2994.07 -809.442 2955L-809.423 2954.93L-809.428 2954.85C-809.561 2952.93 -809.308 2951.01 -808.686 2949.19C-808.063 2947.37 -807.083 2945.7 -805.802 2944.26C-804.522 2942.83 -802.968 2941.67 -801.231 2940.85C-799.495 2940.02 -797.611 2939.56 -795.691 2939.47L-795.672 2939.47L-795.652 2939.47C-783.001 2937.93 -770.703 2934.25 -759.28 2928.59L-759.033 2928.47L-759.004 2928.2C-751.979 2862 -730.088 2798.25 -694.967 2741.71C-659.883 2685.22 -612.504 2637.39 -556.361 2601.76C-510.731 2613.67 -466.97 2631.83 -426.322 2655.73M45.1984 2840.31L-426.322 2655.73M-426.322 2655.73C-469.174 2661.05 -523.889 2679.11 -568.076 2730.13C-612.766 2781.74 -646.628 2866.98 -646.628 3006.66L-645.631 3006.71C-634.815 2895.17 -584.551 2825.08 -525.266 2781.03C-466.063 2737.05 -397.836 2719.04 -350.844 2711.74C-327.949 2732.99 -307.725 2756.95 -290.619 2783.08L-426.322 2655.73Z" stroke="#5E12B2"/>
<path d="M-694.198 2404.9C-694.198 2404.9 -694.198 2404.9 -694.525 2405.27L-694.198 2404.9L-694.238 2404.86L-694.284 2404.84L-701.008 2401.14C-727.969 2378.19 -760.94 2363.45 -796.019 2358.66C-831.115 2353.86 -866.85 2359.23 -898.989 2374.12C-931.129 2389.01 -958.326 2412.8 -977.359 2442.68C-996.392 2472.55 -1006.46 2507.26 -1006.38 2542.68C-1006.4 2569.17 -1000.61 2595.34 -989.422 2619.35C-983.884 2636.02 -974.315 2651.07 -961.565 2663.17C-944.954 2681.88 -924.78 2697.1 -902.221 2707.93C-890.544 2715.18 -878.5 2721.82 -866.139 2727.83C-866.121 2727.87 -866.1 2727.91 -866.077 2727.96C-865.991 2728.14 -865.87 2728.41 -865.733 2728.74C-865.459 2729.41 -865.122 2730.36 -864.871 2731.45C-864.364 2733.65 -864.221 2736.38 -865.529 2738.72C-866.822 2741.03 -869.61 2743.09 -875.255 2743.81C-880.91 2744.53 -889.366 2743.89 -901.863 2740.85L-901.88 2740.84L-901.898 2740.84C-909.858 2739.5 -921.606 2735.1 -935.455 2727.71C-949.294 2720.34 -965.203 2710 -981.482 2696.82C-1014.04 2670.45 -1048.06 2632.72 -1069.98 2584.56C-1091.89 2536.41 -1101.71 2477.81 -1085.86 2409.69C-1070.01 2341.56 -1028.49 2263.86 -947.651 2177.53C-868.6 2101.35 -759.882 2079.71 -652.062 2090.95C-544.237 2102.19 -437.378 2146.32 -362.148 2201.61C-286.762 2257 -159.677 2304.75 -29.5604 2316.3C100.253 2327.83 233.208 2303.35 320.849 2214.35C327.684 2238.43 332.239 2263.1 334.455 2288.03C294.337 2340.8 210.778 2429.42 83.5796 2469.52C-43.7146 2509.66 -214.804 2501.24 -429.939 2359.51L-430.521 2360.32C-251.74 2499.65 -89.2618 2535.48 41.4976 2527.99C171.297 2520.55 269.798 2470.42 321.927 2436.55C298.032 2517.57 239.193 2601.45 111.412 2655.93L111.13 2656.05L111.109 2656.35C110.562 2664.15 110.562 2671.98 111.109 2679.77L111.11 2679.79L111.113 2679.81C111.626 2683.53 110.947 2687.32 109.173 2690.63C107.398 2693.94 104.62 2696.61 101.238 2698.24L101.212 2698.25L101.187 2698.27C67.1304 2719.87 27.7286 2731.57 -12.6006 2732.03L-12.6658 2732.03L-12.7284 2732.05C-16.4629 2733.09 -20.4529 2732.64 -23.8689 2730.81C-27.2849 2728.98 -29.8645 2725.91 -31.0717 2722.22L-31.0753 2722.21L-31.0795 2722.2C-36.1312 2708.92 -43.6252 2696.7 -53.1741 2686.17L-53.3151 2686.02L-53.5247 2686.01C-104.235 2684.01 -154.58 2676.52 -203.68 2663.69L-204.005 2663.6L-204.206 2663.87L-204.215 2663.88C-208.27 2669.29 -212.339 2674.72 -215.395 2679.47L-215.398 2679.47C-217.361 2682.62 -220.255 2685.07 -223.678 2686.48C-227.101 2687.9 -230.881 2688.21 -234.49 2687.37L-234.518 2687.37L-234.547 2687.36C-274.702 2682.87 -312.755 2667.06 -344.279 2641.78L-344.333 2641.74L-344.398 2641.71C-346.183 2640.96 -347.802 2639.87 -349.163 2638.49C-350.524 2637.11 -351.6 2635.48 -352.33 2633.69C-353.06 2631.89 -353.428 2629.97 -353.415 2628.04C-353.402 2626.1 -353.007 2624.18 -352.253 2622.4L-352.247 2622.39L-352.242 2622.37C-351.309 2619.69 -350.514 2616.96 -349.858 2614.2L-349.761 2613.79L-350.148 2613.62C-409.658 2588.14 -467.311 2558.52 -522.684 2524.99L-523.001 2524.8L-523.277 2525.04C-526.609 2528.04 -529.778 2531.2 -532.77 2534.54C-535.457 2536.88 -539.114 2539.53 -542.823 2540.85C-546.535 2542.17 -550.193 2542.13 -553.047 2539.28L-553.06 2539.26L-553.073 2539.25C-583.366 2512.87 -617.673 2491.48 -654.702 2475.9C-656.353 2474.9 -657.787 2473.58 -658.918 2472.01C-660.055 2470.44 -660.862 2468.65 -661.29 2466.75C-661.718 2464.86 -661.758 2462.9 -661.407 2460.99C-661.057 2459.08 -660.323 2457.26 -659.25 2455.64L-659.238 2455.62L-659.227 2455.6C-656.422 2450.39 -654.142 2444.92 -652.42 2439.26L-652.32 2438.94L-652.59 2438.72C-665.954 2428.24 -676.357 2419.78 -683.419 2413.94C-686.95 2411.02 -689.645 2408.76 -691.458 2407.23C-692.364 2406.46 -693.049 2405.88 -693.508 2405.49C-693.737 2405.29 -693.91 2405.14 -694.025 2405.04L-694.155 2404.93L-694.188 2404.91L-694.196 2404.9L-694.198 2404.9L-694.198 2404.9Z" stroke="#5E12B2"/>
<mask id="path-6-inside-1_8_5196" fill="white">
<path d="M980.017 2388.69C980.017 2388.69 1013.86 2341.99 973.249 2337.92C934.668 2344.35 874.428 2423.55 874.428 2423.55C885.165 2349.59 912.991 2279.15 955.699 2217.82C998.407 2156.49 1054.82 2105.95 1120.46 2070.23C1281.22 2007.28 1296.11 2155.17 1296.11 2155.17C1296.11 2155.17 1296.11 2184.62 1313.37 2189.02C1383.08 2081.74 1344.16 1868.19 1344.16 1868.19C1344.16 1868.19 1337.4 1800.5 1302.54 1805.92C1148.55 1811.33 1095.08 1954.49 1031.8 2016.08C968.511 2077.67 870.029 2049.92 867.321 2025.56C866.909 2000.08 868.607 1974.61 872.398 1949.41C889.361 1967.31 911.698 1979.19 936.022 1983.25H944.144C982.048 1983.25 1011.83 1949.41 1042.29 1915.57C1067.78 1881.35 1100.18 1852.87 1137.39 1831.98L1142.8 1829.61L1146.52 1824.53C1187.47 1767.34 1159.38 1641.1 1156 1626.89C1155.33 1623.94 1154.07 1621.15 1152.3 1618.69C1150.53 1616.23 1148.28 1614.15 1145.7 1612.57C1143.11 1610.99 1140.23 1609.95 1137.24 1609.5C1134.24 1609.06 1131.18 1609.21 1128.25 1609.97C1122.31 1611.42 1117.18 1615.13 1113.95 1620.32C1110.73 1625.51 1109.66 1631.76 1110.99 1637.72C1121.48 1681.38 1129.94 1759.55 1110.99 1793.06C1070.4 1816.39 1034.76 1847.43 1006.08 1884.43C981.371 1913.2 958.358 1940.27 940.76 1937.9C908.609 1934.18 882.551 1872.59 873.075 1854.65V1834.35C873.075 1834.35 933.315 1861.42 1017.58 1710.82C1017.58 1710.82 1104.9 1551.42 1173.26 1563.27C1241.62 1575.11 1247.37 1683.75 1193.23 1782.23C1199.32 1830.28 1287.65 1667.84 1287.65 1667.84C1287.65 1667.84 1363.79 1518.93 1363.79 1512.16C1367.52 1498.29 1385.11 1478.32 1341.46 1440.42C1297.8 1402.51 1224.36 1351.41 1059.21 1403.87C1088.87 1357.78 1130.11 1320.3 1178.82 1295.17C1227.52 1270.05 1281.98 1258.16 1336.72 1260.71C1372.25 1260.71 1417.94 1290.49 1404.4 1367.99C1409.48 1428.23 1464.64 1353.78 1474.8 1330.77C1484.95 1307.75 1719.14 961.204 1235.53 444.426C1313.03 596.718 1290.69 763.563 1184.77 819.065C1078.84 874.567 926.546 795.375 846.339 642.406C766.132 489.437 788.468 319.547 895.411 264.045C917.135 253.439 940.791 247.369 964.938 246.206C989.084 245.042 1013.21 248.809 1035.86 257.276C923.659 164.391 805.77 78.6024 682.879 0.410156C70.6645 391.632 -121.9 726.336 -163.189 962.219C-152.806 944.434 -138.001 929.634 -120.212 919.257C-102.423 908.88 -82.2531 903.278 -61.6605 902.995C-44.7208 903.818 -28.11 907.976 -12.7795 915.229C2.55107 922.482 16.3002 932.688 27.6804 945.263C39.0605 957.837 47.8481 972.534 53.5399 988.51C59.2317 1004.49 61.7158 1021.43 60.8501 1038.37C62.5076 1072.55 50.5419 1106 27.5764 1131.37C4.61093 1156.75 -27.4801 1171.98 -61.6605 1173.74C-85.9464 1173.11 -109.499 1165.28 -129.325 1151.24C-149.15 1137.2 -164.354 1117.58 -173.003 1094.88C-169.604 1177.59 -147.872 1258.5 -109.379 1331.78C-99.5643 1354.79 -44.0623 1429.25 -39.3243 1369.01C-51.1692 1291.51 -5.4816 1261.73 28.3611 1261.73C83.1512 1259.19 137.648 1271.07 186.406 1296.19C235.164 1321.31 276.475 1358.79 306.21 1404.88C141.396 1352.43 72.0182 1407.59 23.6231 1442.79C-24.7719 1477.98 -2.43579 1500.66 1.62534 1514.53C1.62534 1519.95 78.1099 1668.18 78.1099 1668.18C78.1099 1668.18 166.439 1830.62 172.193 1782.57C118.044 1684.08 124.136 1575.79 192.498 1563.6C260.86 1551.42 348.175 1711.16 348.175 1711.16C432.443 1861.76 492.683 1834.68 492.683 1834.68V1854.99C483.545 1872.93 458.84 1934.52 424.997 1938.24C407.399 1940.61 384.048 1913.54 359.343 1884.77C330.907 1847.48 295.364 1816.2 254.769 1792.72C236.494 1758.88 245.293 1681.04 254.769 1637.38C256.339 1631.32 255.439 1624.89 252.266 1619.49C249.092 1614.1 243.906 1610.19 237.847 1608.61C231.789 1607.04 225.354 1607.94 219.96 1611.12C214.565 1614.29 210.652 1619.48 209.081 1625.54C205.697 1639.75 177.607 1765.98 218.895 1823.18L222.28 1828.25L228.033 1830.62C265.174 1851.61 297.556 1880.07 323.131 1914.21C353.928 1948.06 383.032 1981.9 421.275 1981.9H429.059C453.407 1977.91 475.766 1966.02 492.683 1948.06C496.579 1973.25 498.39 1998.72 498.098 2024.2C495.39 2046.88 396.57 2076.32 333.284 2014.73C269.998 1953.13 215.511 1811.67 62.5422 1804.56C28.6995 1798.13 20.9157 1866.83 20.9157 1866.83C20.9157 1866.83 -17.665 2080.72 51.7125 2189.02C67.2802 2186.31 69.3107 2155.17 69.3107 2155.17C69.3107 2155.17 83.8631 2006.6 244.616 2069.55C310.34 2105.22 366.834 2155.73 409.605 2217.06C452.376 2278.4 480.244 2348.87 490.991 2422.87C490.991 2422.87 430.751 2343.68 391.832 2337.25C352.913 2341.31 385.063 2388.01 385.063 2388.01C385.063 2388.01 405.369 2428.28 362.388 2528.46C319.408 2628.63 19.562 2987.7 383.032 3408.37C619.931 3721.75 513.665 3912.29 513.665 3912.29C508.023 3919.04 504.552 3927.33 503.707 3936.09C502.861 3944.85 504.681 3953.65 508.927 3961.36C540.401 3975.23 623.654 3881.83 624.669 3706.18C624.669 3683.17 624.669 3659.14 621.962 3634.44C621.962 3622.25 619.931 3610.07 618.239 3597.55C616.547 3585.03 614.178 3563.71 611.471 3547.46C611.471 3537.31 608.425 3527.16 606.394 3516.67C604.364 3506.17 601.318 3489.93 598.61 3476.39V3471.99C592.18 3442.89 585.073 3414.46 577.29 3386.03C577.29 3383.66 577.29 3381.29 574.921 3378.59C571.198 3365.05 567.137 3351.85 563.076 3338.65C569.026 3334.16 575.504 3330.41 582.366 3327.48C586.113 3326.11 589.171 3323.32 590.88 3319.71C592.589 3316.1 592.813 3311.97 591.503 3308.19C572.028 3273.25 558.207 3235.44 550.554 3196.18C550.554 3188.05 539.386 3185.35 531.263 3187.04C522.993 3188.55 514.623 3189.46 506.22 3189.75L500.128 3176.21C486.016 3122.94 481.999 3067.5 488.283 3012.75C499.491 3010.93 510.918 3010.93 522.126 3012.75C524.031 3013.06 525.974 3013.06 527.879 3012.75C530.781 3012.22 533.494 3010.94 535.749 3009.04C538.005 3007.14 539.725 3004.69 540.739 3001.92C545.722 2962.2 557.153 2923.56 574.582 2887.53C578.643 2880.42 571.536 2872.3 564.091 2868.92C552.148 2862.92 540.814 2855.78 530.248 2847.6C544.088 2809.21 561.185 2772.07 581.351 2736.59C610.515 2702.85 635.827 2665.96 656.82 2626.6C660.543 2620.17 663.927 2613.07 667.311 2605.96L682.54 2572.12C690.171 2590.82 698.756 2609.12 708.261 2626.94C729.549 2666.17 755.084 2702.94 784.407 2736.59C805.546 2772.37 823.441 2809.98 837.878 2848.95C827.178 2857.14 815.864 2864.49 804.036 2870.95C796.59 2874.33 789.822 2882.45 793.883 2889.56C811.141 2925.66 822.564 2964.27 827.725 3003.95C828.271 3005.89 829.195 3007.7 830.446 3009.28C831.696 3010.86 833.248 3012.18 835.011 3013.15C836.773 3014.13 838.712 3014.74 840.715 3014.96C842.718 3015.19 844.744 3015.01 846.677 3014.44C857.757 3011.82 869.206 3011.13 880.52 3012.41C886.955 3067.14 883.052 3122.58 869.014 3175.87C866.645 3180.27 864.614 3184.67 862.583 3189.41C854.293 3189.12 846.035 3188.21 837.878 3186.7C829.418 3186.7 819.265 3186.7 818.249 3195.84C810.648 3235.07 796.945 3272.87 777.638 3307.86C776.943 3309.72 776.629 3311.71 776.715 3313.69C776.8 3315.68 777.282 3317.63 778.134 3319.43C778.986 3321.23 780.19 3322.84 781.674 3324.16C783.158 3325.49 784.893 3326.5 786.776 3327.15C793.504 3330.12 799.864 3333.87 805.728 3338.31C766.694 3457.03 745.592 3580.9 743.119 3705.85C743.119 3881.49 827.387 3976.59 858.861 3961.02C863.201 3953.34 865.075 3944.52 864.227 3935.74C863.38 3926.96 859.852 3918.65 854.123 3911.95C854.123 3911.95 747.857 3721.41 984.755 3408.03C1348.23 2988.38 1048.38 2629.65 1005.4 2528.12C962.419 2426.59 980.017 2388.69 980.017 2388.69ZM672.387 835.309C643.445 833.907 616.244 821.07 596.762 799.621C577.28 778.172 567.111 749.865 568.49 720.921C567.331 706.572 569.157 692.139 573.852 678.53C578.548 664.922 586.011 652.433 595.772 641.852C605.533 631.271 617.38 622.826 630.566 617.051C643.752 611.275 657.992 608.293 672.387 608.293C686.783 608.293 701.023 611.275 714.209 617.051C727.395 622.826 739.242 631.271 749.003 641.852C758.764 652.433 766.227 664.922 770.923 678.53C775.618 692.139 777.444 706.572 776.284 720.921C777.574 749.841 767.374 778.098 747.91 799.527C728.447 820.956 701.298 833.819 672.387 835.309ZM818.249 1031.26C814.25 1017.43 813.32 1002.9 815.523 988.675C817.727 974.451 823.01 960.88 831.005 948.911C839 936.943 849.513 926.865 861.809 919.382C874.105 911.9 887.887 907.194 902.191 905.594C916.495 903.994 930.976 905.537 944.622 910.117C958.267 914.696 970.747 922.202 981.19 932.107C991.632 942.013 999.785 954.081 1005.08 967.466C1010.37 980.851 1012.67 995.231 1011.83 1009.6C1015.83 1023.43 1016.76 1037.96 1014.56 1052.18C1012.35 1066.41 1007.07 1079.98 999.074 1091.95C991.079 1103.92 980.566 1113.99 968.27 1121.48C955.974 1128.96 942.192 1133.66 927.888 1135.26C913.584 1136.86 899.103 1135.32 885.458 1130.74C871.812 1126.16 859.332 1118.66 848.889 1108.75C838.447 1098.84 830.294 1086.78 825.002 1073.39C819.71 1060.01 817.405 1045.63 818.249 1031.26Z"/>
</mask>
<path d="M980.017 2388.69C980.017 2388.69 1013.86 2341.99 973.249 2337.92C934.668 2344.35 874.428 2423.55 874.428 2423.55C885.165 2349.59 912.991 2279.15 955.699 2217.82C998.407 2156.49 1054.82 2105.95 1120.46 2070.23C1281.22 2007.28 1296.11 2155.17 1296.11 2155.17C1296.11 2155.17 1296.11 2184.62 1313.37 2189.02C1383.08 2081.74 1344.16 1868.19 1344.16 1868.19C1344.16 1868.19 1337.4 1800.5 1302.54 1805.92C1148.55 1811.33 1095.08 1954.49 1031.8 2016.08C968.511 2077.67 870.029 2049.92 867.321 2025.56C866.909 2000.08 868.607 1974.61 872.398 1949.41C889.361 1967.31 911.698 1979.19 936.022 1983.25H944.144C982.048 1983.25 1011.83 1949.41 1042.29 1915.57C1067.78 1881.35 1100.18 1852.87 1137.39 1831.98L1142.8 1829.61L1146.52 1824.53C1187.47 1767.34 1159.38 1641.1 1156 1626.89C1155.33 1623.94 1154.07 1621.15 1152.3 1618.69C1150.53 1616.23 1148.28 1614.15 1145.7 1612.57C1143.11 1610.99 1140.23 1609.95 1137.24 1609.5C1134.24 1609.06 1131.18 1609.21 1128.25 1609.97C1122.31 1611.42 1117.18 1615.13 1113.95 1620.32C1110.73 1625.51 1109.66 1631.76 1110.99 1637.72C1121.48 1681.38 1129.94 1759.55 1110.99 1793.06C1070.4 1816.39 1034.76 1847.43 1006.08 1884.43C981.371 1913.2 958.358 1940.27 940.76 1937.9C908.609 1934.18 882.551 1872.59 873.075 1854.65V1834.35C873.075 1834.35 933.315 1861.42 1017.58 1710.82C1017.58 1710.82 1104.9 1551.42 1173.26 1563.27C1241.62 1575.11 1247.37 1683.75 1193.23 1782.23C1199.32 1830.28 1287.65 1667.84 1287.65 1667.84C1287.65 1667.84 1363.79 1518.93 1363.79 1512.16C1367.52 1498.29 1385.11 1478.32 1341.46 1440.42C1297.8 1402.51 1224.36 1351.41 1059.21 1403.87C1088.87 1357.78 1130.11 1320.3 1178.82 1295.17C1227.52 1270.05 1281.98 1258.16 1336.72 1260.71C1372.25 1260.71 1417.94 1290.49 1404.4 1367.99C1409.48 1428.23 1464.64 1353.78 1474.8 1330.77C1484.95 1307.75 1719.14 961.204 1235.53 444.426C1313.03 596.718 1290.69 763.563 1184.77 819.065C1078.84 874.567 926.546 795.375 846.339 642.406C766.132 489.437 788.468 319.547 895.411 264.045C917.135 253.439 940.791 247.369 964.938 246.206C989.084 245.042 1013.21 248.809 1035.86 257.276C923.659 164.391 805.77 78.6024 682.879 0.410156C70.6645 391.632 -121.9 726.336 -163.189 962.219C-152.806 944.434 -138.001 929.634 -120.212 919.257C-102.423 908.88 -82.2531 903.278 -61.6605 902.995C-44.7208 903.818 -28.11 907.976 -12.7795 915.229C2.55107 922.482 16.3002 932.688 27.6804 945.263C39.0605 957.837 47.8481 972.534 53.5399 988.51C59.2317 1004.49 61.7158 1021.43 60.8501 1038.37C62.5076 1072.55 50.5419 1106 27.5764 1131.37C4.61093 1156.75 -27.4801 1171.98 -61.6605 1173.74C-85.9464 1173.11 -109.499 1165.28 -129.325 1151.24C-149.15 1137.2 -164.354 1117.58 -173.003 1094.88C-169.604 1177.59 -147.872 1258.5 -109.379 1331.78C-99.5643 1354.79 -44.0623 1429.25 -39.3243 1369.01C-51.1692 1291.51 -5.4816 1261.73 28.3611 1261.73C83.1512 1259.19 137.648 1271.07 186.406 1296.19C235.164 1321.31 276.475 1358.79 306.21 1404.88C141.396 1352.43 72.0182 1407.59 23.6231 1442.79C-24.7719 1477.98 -2.43579 1500.66 1.62534 1514.53C1.62534 1519.95 78.1099 1668.18 78.1099 1668.18C78.1099 1668.18 166.439 1830.62 172.193 1782.57C118.044 1684.08 124.136 1575.79 192.498 1563.6C260.86 1551.42 348.175 1711.16 348.175 1711.16C432.443 1861.76 492.683 1834.68 492.683 1834.68V1854.99C483.545 1872.93 458.84 1934.52 424.997 1938.24C407.399 1940.61 384.048 1913.54 359.343 1884.77C330.907 1847.48 295.364 1816.2 254.769 1792.72C236.494 1758.88 245.293 1681.04 254.769 1637.38C256.339 1631.32 255.439 1624.89 252.266 1619.49C249.092 1614.1 243.906 1610.19 237.847 1608.61C231.789 1607.04 225.354 1607.94 219.96 1611.12C214.565 1614.29 210.652 1619.48 209.081 1625.54C205.697 1639.75 177.607 1765.98 218.895 1823.18L222.28 1828.25L228.033 1830.62C265.174 1851.61 297.556 1880.07 323.131 1914.21C353.928 1948.06 383.032 1981.9 421.275 1981.9H429.059C453.407 1977.91 475.766 1966.02 492.683 1948.06C496.579 1973.25 498.39 1998.72 498.098 2024.2C495.39 2046.88 396.57 2076.32 333.284 2014.73C269.998 1953.13 215.511 1811.67 62.5422 1804.56C28.6995 1798.13 20.9157 1866.83 20.9157 1866.83C20.9157 1866.83 -17.665 2080.72 51.7125 2189.02C67.2802 2186.31 69.3107 2155.17 69.3107 2155.17C69.3107 2155.17 83.8631 2006.6 244.616 2069.55C310.34 2105.22 366.834 2155.73 409.605 2217.06C452.376 2278.4 480.244 2348.87 490.991 2422.87C490.991 2422.87 430.751 2343.68 391.832 2337.25C352.913 2341.31 385.063 2388.01 385.063 2388.01C385.063 2388.01 405.369 2428.28 362.388 2528.46C319.408 2628.63 19.562 2987.7 383.032 3408.37C619.931 3721.75 513.665 3912.29 513.665 3912.29C508.023 3919.04 504.552 3927.33 503.707 3936.09C502.861 3944.85 504.681 3953.65 508.927 3961.36C540.401 3975.23 623.654 3881.83 624.669 3706.18C624.669 3683.17 624.669 3659.14 621.962 3634.44C621.962 3622.25 619.931 3610.07 618.239 3597.55C616.547 3585.03 614.178 3563.71 611.471 3547.46C611.471 3537.31 608.425 3527.16 606.394 3516.67C604.364 3506.17 601.318 3489.93 598.61 3476.39V3471.99C592.18 3442.89 585.073 3414.46 577.29 3386.03C577.29 3383.66 577.29 3381.29 574.921 3378.59C571.198 3365.05 567.137 3351.85 563.076 3338.65C569.026 3334.16 575.504 3330.41 582.366 3327.48C586.113 3326.11 589.171 3323.32 590.88 3319.71C592.589 3316.1 592.813 3311.97 591.503 3308.19C572.028 3273.25 558.207 3235.44 550.554 3196.18C550.554 3188.05 539.386 3185.35 531.263 3187.04C522.993 3188.55 514.623 3189.46 506.22 3189.75L500.128 3176.21C486.016 3122.94 481.999 3067.5 488.283 3012.75C499.491 3010.93 510.918 3010.93 522.126 3012.75C524.031 3013.06 525.974 3013.06 527.879 3012.75C530.781 3012.22 533.494 3010.94 535.749 3009.04C538.005 3007.14 539.725 3004.69 540.739 3001.92C545.722 2962.2 557.153 2923.56 574.582 2887.53C578.643 2880.42 571.536 2872.3 564.091 2868.92C552.148 2862.92 540.814 2855.78 530.248 2847.6C544.088 2809.21 561.185 2772.07 581.351 2736.59C610.515 2702.85 635.827 2665.96 656.82 2626.6C660.543 2620.17 663.927 2613.07 667.311 2605.96L682.54 2572.12C690.171 2590.82 698.756 2609.12 708.261 2626.94C729.549 2666.17 755.084 2702.94 784.407 2736.59C805.546 2772.37 823.441 2809.98 837.878 2848.95C827.178 2857.14 815.864 2864.49 804.036 2870.95C796.59 2874.33 789.822 2882.45 793.883 2889.56C811.141 2925.66 822.564 2964.27 827.725 3003.95C828.271 3005.89 829.195 3007.7 830.446 3009.28C831.696 3010.86 833.248 3012.18 835.011 3013.15C836.773 3014.13 838.712 3014.74 840.715 3014.96C842.718 3015.19 844.744 3015.01 846.677 3014.44C857.757 3011.82 869.206 3011.13 880.52 3012.41C886.955 3067.14 883.052 3122.58 869.014 3175.87C866.645 3180.27 864.614 3184.67 862.583 3189.41C854.293 3189.12 846.035 3188.21 837.878 3186.7C829.418 3186.7 819.265 3186.7 818.249 3195.84C810.648 3235.07 796.945 3272.87 777.638 3307.86C776.943 3309.72 776.629 3311.71 776.715 3313.69C776.8 3315.68 777.282 3317.63 778.134 3319.43C778.986 3321.23 780.19 3322.84 781.674 3324.16C783.158 3325.49 784.893 3326.5 786.776 3327.15C793.504 3330.12 799.864 3333.87 805.728 3338.31C766.694 3457.03 745.592 3580.9 743.119 3705.85C743.119 3881.49 827.387 3976.59 858.861 3961.02C863.201 3953.34 865.075 3944.52 864.227 3935.74C863.38 3926.96 859.852 3918.65 854.123 3911.95C854.123 3911.95 747.857 3721.41 984.755 3408.03C1348.23 2988.38 1048.38 2629.65 1005.4 2528.12C962.419 2426.59 980.017 2388.69 980.017 2388.69ZM672.387 835.309C643.445 833.907 616.244 821.07 596.762 799.621C577.28 778.172 567.111 749.865 568.49 720.921C567.331 706.572 569.157 692.139 573.852 678.53C578.548 664.922 586.011 652.433 595.772 641.852C605.533 631.271 617.38 622.826 630.566 617.051C643.752 611.275 657.992 608.293 672.387 608.293C686.783 608.293 701.023 611.275 714.209 617.051C727.395 622.826 739.242 631.271 749.003 641.852C758.764 652.433 766.227 664.922 770.923 678.53C775.618 692.139 777.444 706.572 776.284 720.921C777.574 749.841 767.374 778.098 747.91 799.527C728.447 820.956 701.298 833.819 672.387 835.309ZM818.249 1031.26C814.25 1017.43 813.32 1002.9 815.523 988.675C817.727 974.451 823.01 960.88 831.005 948.911C839 936.943 849.513 926.865 861.809 919.382C874.105 911.9 887.887 907.194 902.191 905.594C916.495 903.994 930.976 905.537 944.622 910.117C958.267 914.696 970.747 922.202 981.19 932.107C991.632 942.013 999.785 954.081 1005.08 967.466C1010.37 980.851 1012.67 995.231 1011.83 1009.6C1015.83 1023.43 1016.76 1037.96 1014.56 1052.18C1012.35 1066.41 1007.07 1079.98 999.074 1091.95C991.079 1103.92 980.566 1113.99 968.27 1121.48C955.974 1128.96 942.192 1133.66 927.888 1135.26C913.584 1136.86 899.103 1135.32 885.458 1130.74C871.812 1126.16 859.332 1118.66 848.889 1108.75C838.447 1098.84 830.294 1086.78 825.002 1073.39C819.71 1060.01 817.405 1045.63 818.249 1031.26Z" stroke="#5E12B2" stroke-width="2" mask="url(#path-6-inside-1_8_5196)"/>
<path d="M-254.944 1734.17C-255.361 1733.9 -255.362 1733.9 -255.363 1733.9L-255.368 1733.91L-255.389 1733.94L-255.469 1734.06L-255.525 1734.15C-255.592 1734.25 -255.678 1734.38 -255.784 1734.55C-256.061 1734.98 -256.471 1735.62 -257.003 1736.46C-258.069 1738.14 -259.623 1740.63 -261.584 1743.87C-265.505 1750.34 -271.049 1759.78 -277.544 1771.69C-290.534 1795.5 -307.328 1829.15 -322.546 1868.52C-352.823 1946.84 -376.895 2047.88 -352.248 2139.06C-361.86 2132.2 -371.713 2125.51 -381.803 2118.66C-383.244 2117.68 -384.69 2116.7 -386.142 2115.72C-398.142 2107.56 -410.475 2099.11 -423.144 2089.82C-443.712 2067.1 -468.131 2048.18 -495.277 2033.94C-505.402 2024.83 -516.869 2015.05 -529.005 2004.94C-539.993 1982.17 -532.486 1953.05 -517.454 1923.03C-503.158 1894.47 -482.137 1865.26 -464.099 1840.2C-463.163 1838.9 -462.235 1837.61 -461.317 1836.33L-461.055 1835.97L-461.388 1835.67C-467.287 1830.35 -473.654 1825.57 -480.412 1821.4L-480.427 1821.39L-480.442 1821.38C-483.908 1819.57 -486.697 1816.69 -488.085 1813.5C-489.466 1810.33 -489.455 1806.88 -487.369 1803.83L-487.359 1803.82L-487.35 1803.8C-468.811 1772.14 -455.106 1737.88 -446.691 1702.17C-445.435 1698.83 -442.931 1696.12 -439.708 1694.6C-436.476 1693.07 -432.776 1692.87 -429.396 1694.03L-429.39 1694.04C-418.426 1697.64 -406.856 1699.03 -395.352 1698.12L-395.026 1698.1L-394.919 1697.79C-369.566 1624.87 -368.378 1545.73 -391.53 1472.08L-391.536 1472.06L-391.543 1472.04C-403.606 1442.31 -423.397 1424.01 -446.625 1415.03C-469.841 1406.05 -496.449 1406.39 -522.144 1413.84C-573.447 1428.71 -621.279 1471.97 -631.389 1526.42C-633.252 1527.61 -634.848 1528.13 -636.205 1528.13C-637.587 1528.12 -638.778 1527.58 -639.809 1526.54C-641.912 1524.44 -643.324 1520.33 -644.105 1514.89C-645.66 1504.04 -644.653 1488.37 -642.288 1474.34L-642.287 1474.34L-642.286 1474.33C-640.564 1461.82 -634.12 1446.15 -623.701 1429.08C-613.287 1412.02 -598.923 1393.6 -581.4 1375.59C-546.352 1339.56 -498.698 1305.19 -444.808 1286.65C-390.926 1268.12 -330.821 1265.4 -270.824 1292.63C-210.824 1319.87 -150.87 1377.08 -97.3507 1478.54C-73.2214 1535.59 -77.5128 1611.6 -87.8733 1673.43C-93.0519 1704.33 -99.7422 1731.66 -105.138 1751.27C-107.836 1761.07 -110.209 1768.94 -111.909 1774.36C-112.758 1777.07 -113.439 1779.17 -113.907 1780.59C-114.142 1781.29 -114.323 1781.83 -114.445 1782.2C-114.506 1782.38 -114.553 1782.51 -114.584 1782.61L-114.619 1782.71L-114.619 1782.71L-114.628 1782.73C-114.645 1782.76 -114.67 1782.81 -114.703 1782.87C-114.768 1783 -114.865 1783.2 -114.991 1783.45C-115.243 1783.96 -115.612 1784.72 -116.083 1785.72C-117.024 1787.71 -118.37 1790.65 -119.991 1794.46C-123.233 1802.07 -127.577 1813.12 -131.984 1826.92C-140.799 1854.51 -149.874 1893.08 -150.912 1936.96C-152.986 2024.64 -122.971 2133.53 5.19238 2218.54C5.01642 2218.71 4.78711 2218.92 4.50476 2219.18C3.75391 2219.88 2.62811 2220.87 1.13379 2222.1C-1.85498 2224.54 -6.3172 2227.87 -12.2012 2231.43C-23.9691 2238.53 -41.4212 2246.51 -64.1467 2249.99C-109.565 2256.94 -176.155 2245.93 -260.645 2173.8C-321.776 2067.36 -320.259 1957.54 -303.441 1874.3C-295.03 1832.66 -282.794 1797.69 -272.661 1773.12C-267.595 1760.84 -263.055 1751.16 -259.782 1744.55C-258.146 1741.25 -256.827 1738.71 -255.917 1737.01C-255.462 1736.15 -255.109 1735.5 -254.871 1735.07C-254.752 1734.85 -254.661 1734.69 -254.6 1734.58L-254.531 1734.46L-254.514 1734.43L-254.51 1734.42C-254.509 1734.42 -254.509 1734.42 -254.944 1734.17ZM-254.944 1734.17L-255.361 1733.9L-254.509 1734.42L-254.944 1734.17Z" stroke="#5E12B2"/>
</svg>
