<svg width="24" height="25" viewBox="0 0 24 25" fill="none" xmlns="http://www.w3.org/2000/svg">
<path d="M7.8 2.52148H16.2C19.4 2.52148 22 5.12148 22 8.32148V16.7215C22 18.2597 21.3889 19.735 20.3012 20.8227C19.2135 21.9104 17.7383 22.5215 16.2 22.5215H7.8C4.6 22.5215 2 19.9215 2 16.7215V8.32148C2 6.78323 2.61107 5.30798 3.69878 4.22027C4.78649 3.13255 6.26174 2.52148 7.8 2.52148ZM7.6 4.52148C6.64522 4.52148 5.72955 4.90077 5.05442 5.5759C4.37928 6.25103 4 7.16671 4 8.12148V16.9215C4 18.9115 5.61 20.5215 7.6 20.5215H16.4C17.3548 20.5215 18.2705 20.1422 18.9456 19.4671C19.6207 18.7919 20 17.8763 20 16.9215V8.12148C20 6.13148 18.39 4.52148 16.4 4.52148H7.6ZM17.25 6.02148C17.5815 6.02148 17.8995 6.15318 18.1339 6.3876C18.3683 6.62202 18.5 6.93996 18.5 7.27148C18.5 7.603 18.3683 7.92095 18.1339 8.15537C17.8995 8.38979 17.5815 8.52148 17.25 8.52148C16.9185 8.52148 16.6005 8.38979 16.3661 8.15537C16.1317 7.92095 16 7.603 16 7.27148C16 6.93996 16.1317 6.62202 16.3661 6.3876C16.6005 6.15318 16.9185 6.02148 17.25 6.02148ZM12 7.52148C13.3261 7.52148 14.5979 8.04827 15.5355 8.98595C16.4732 9.92363 17 11.1954 17 12.5215C17 13.8476 16.4732 15.1193 15.5355 16.057C14.5979 16.9947 13.3261 17.5215 12 17.5215C10.6739 17.5215 9.40215 16.9947 8.46447 16.057C7.52678 15.1193 7 13.8476 7 12.5215C7 11.1954 7.52678 9.92363 8.46447 8.98595C9.40215 8.04827 10.6739 7.52148 12 7.52148ZM12 9.52148C11.2044 9.52148 10.4413 9.83755 9.87868 10.4002C9.31607 10.9628 9 11.7258 9 12.5215C9 13.3171 9.31607 14.0802 9.87868 14.6428C10.4413 15.2054 11.2044 15.5215 12 15.5215C12.7956 15.5215 13.5587 15.2054 14.1213 14.6428C14.6839 14.0802 15 13.3171 15 12.5215C15 11.7258 14.6839 10.9628 14.1213 10.4002C13.5587 9.83755 12.7956 9.52148 12 9.52148Z" fill="white"/>
</svg>
