<svg width="41" height="41" viewBox="0 0 41 41" fill="none" xmlns="http://www.w3.org/2000/svg">
<path d="M11.85 0.150391H28.65C35.05 0.150391 40.25 5.35039 40.25 11.7504V28.5504C40.25 31.6269 39.0279 34.5774 36.8524 36.7528C34.677 38.9283 31.7265 40.1504 28.65 40.1504H11.85C5.45 40.1504 0.25 34.9504 0.25 28.5504V11.7504C0.25 8.67388 1.47214 5.72337 3.64756 3.54795C5.82298 1.37253 8.77349 0.150391 11.85 0.150391ZM11.45 4.15039C9.54044 4.15039 7.70909 4.90896 6.35883 6.25922C5.00857 7.60948 4.25 9.44083 4.25 11.3504V28.9504C4.25 32.9304 7.47 36.1504 11.45 36.1504H29.05C30.9596 36.1504 32.7909 35.3918 34.1412 34.0416C35.4914 32.6913 36.25 30.8599 36.25 28.9504V11.3504C36.25 7.37039 33.03 4.15039 29.05 4.15039H11.45ZM30.75 7.15039C31.413 7.15039 32.0489 7.41378 32.5178 7.88262C32.9866 8.35146 33.25 8.98735 33.25 9.65039C33.25 10.3134 32.9866 10.9493 32.5178 11.4182C32.0489 11.887 31.413 12.1504 30.75 12.1504C30.087 12.1504 29.4511 11.887 28.9822 11.4182C28.5134 10.9493 28.25 10.3134 28.25 9.65039C28.25 8.98735 28.5134 8.35146 28.9822 7.88262C29.4511 7.41378 30.087 7.15039 30.75 7.15039ZM20.25 10.1504C22.9022 10.1504 25.4457 11.204 27.3211 13.0793C29.1964 14.9547 30.25 17.4982 30.25 20.1504C30.25 22.8026 29.1964 25.3461 27.3211 27.2215C25.4457 29.0968 22.9022 30.1504 20.25 30.1504C17.5978 30.1504 15.0543 29.0968 13.1789 27.2215C11.3036 25.3461 10.25 22.8026 10.25 20.1504C10.25 17.4982 11.3036 14.9547 13.1789 13.0793C15.0543 11.204 17.5978 10.1504 20.25 10.1504ZM20.25 14.1504C18.6587 14.1504 17.1326 14.7825 16.0074 15.9077C14.8821 17.033 14.25 18.5591 14.25 20.1504C14.25 21.7417 14.8821 23.2678 16.0074 24.393C17.1326 25.5182 18.6587 26.1504 20.25 26.1504C21.8413 26.1504 23.3674 25.5182 24.4926 24.393C25.6179 23.2678 26.25 21.7417 26.25 20.1504C26.25 18.5591 25.6179 17.033 24.4926 15.9077C23.3674 14.7825 21.8413 14.1504 20.25 14.1504Z" fill="white"/>
</svg>
