<svg width="154" height="182" viewBox="0 0 154 182" fill="none" xmlns="http://www.w3.org/2000/svg">
<path d="M4.98096 135.207H13.3724V141.449L20.9373 133.903L26.7677 139.79L19.5584 146.98L27.5564 157.805L20.7008 162.862L13.3724 152.946V161.559H4.98096V135.208V135.207ZM9.82687 158.398V151.642L13.8453 147.651L22.04 158.713L22.9072 158.081L14.634 146.901L22.0409 139.474L21.2919 138.724L9.82687 150.181V138.368H8.76294V158.398H9.82687Z" fill="#00FFF9"/>
<path d="M25.2931 166.076H17.4684H0.476074V130.69H17.7707H25.1776L33.1368 139.81L25.4971 147.43L33.8669 158.758L25.2931 166.076Z" fill="#2C267E"/>
<path d="M29.6831 135.207H38.9806C42.2635 135.207 44.8634 135.997 46.781 137.577C47.9631 138.499 48.9016 139.677 49.5983 141.112C50.294 142.548 50.6424 144.003 50.6424 145.477C50.6424 146.4 50.5106 147.308 50.248 148.203C49.9854 149.099 49.6172 149.889 49.1453 150.574C49.0135 150.785 48.8827 150.963 48.7509 151.107C48.6192 151.252 48.4748 151.41 48.3178 151.581C48.1598 151.753 47.9758 151.937 47.7664 152.134C47.5561 152.331 47.28 152.575 46.9389 152.865L51.8633 161.556H42.3294L38.0746 155.077V161.556H29.6831V135.206V135.207ZM34.6472 158.398V152.393H37.1288C38.4418 152.393 39.6628 152.288 40.7926 152.077L44.5746 158.398H45.8352L41.8953 151.76C44.9942 150.681 46.5445 148.626 46.5445 145.597C46.5445 143.727 45.9932 142.174 44.8895 140.935C44.5213 140.514 44.0819 140.131 43.5702 139.789C43.0576 139.447 42.5261 139.17 41.9748 138.96C41.4234 138.749 40.8061 138.598 40.123 138.505C39.4399 138.413 38.5998 138.367 37.6017 138.367H33.6221V158.397H34.6463L34.6472 158.398ZM34.6472 139.316H38.6656C38.9806 139.316 39.2694 139.33 39.5329 139.356C40.1889 139.409 40.8197 139.54 41.4243 139.751C42.028 139.962 42.5929 140.252 43.1181 140.621C43.9059 141.174 44.5033 141.879 44.9103 142.735C45.3173 143.591 45.5212 144.545 45.5212 145.599C45.5212 147.206 44.9428 148.561 43.7877 149.668C43.0784 150.301 42.1922 150.761 41.1283 151.051C40.0644 151.341 38.6521 151.485 36.8933 151.485H34.6481V139.317L34.6472 139.316ZM38.3507 148.126H38.4689C39.0465 148.126 39.4534 148.106 39.6899 148.066C39.9263 148.027 40.2024 147.915 40.5174 147.731C40.9641 147.467 41.3115 147.118 41.5615 146.684C41.8105 146.249 41.936 145.769 41.936 145.241C41.936 144.714 41.8114 144.228 41.5615 143.78C41.3115 143.332 40.9641 142.977 40.5174 142.713C40.2024 142.555 39.9263 142.45 39.6899 142.397C39.4534 142.345 39.0465 142.318 38.4689 142.318H38.0746V148.126H38.3507Z" fill="#00FFF9"/>
<path d="M59.6051 166.076H25.1775V130.69H38.9807C43.2942 130.69 46.865 131.821 49.5957 134.05C51.2985 135.39 52.662 137.102 53.6502 139.138C54.6446 141.191 55.1482 143.324 55.1482 145.48C55.1482 146.827 54.9541 148.173 54.5715 149.479C54.1835 150.801 53.624 152.006 52.9075 153.063C52.7866 153.252 52.6629 153.431 52.5366 153.6L59.606 166.076H59.6051Z" fill="#2C267E"/>
<path d="M63.1706 135.208H69.4739L79.4419 161.558H71.1686L70.3014 159.189H62.3431L61.4759 161.558H53.2026L63.1706 135.208ZM59.0737 158.399L59.8218 156.423H72.8227L73.5708 158.399H74.6736L66.9914 138.132H65.6522L57.97 158.399H59.0728H59.0737ZM66.3227 139.317L72.469 155.515H60.1773L66.3236 139.317H66.3227ZM68.0959 153.381L66.3227 148.759L64.5495 153.381H68.095H68.0959Z" fill="#00FFF9"/>
<path d="M85.9689 166.076H68.0219L67.1547 163.705H65.4898L64.6226 166.076H46.6755L60.0609 130.69H64.7751H66.3227H67.8694H76.7888L85.9689 166.076Z" fill="#2C267E"/>
<path d="M81.2934 135.208H89.6848V141.016L94.649 135.208H104.932L95.6732 147.258L105.444 161.558H95.2391L89.6839 153.42V161.558H81.2925V135.208H81.2934ZM86.1393 158.399V153.065L90.2362 147.969L97.367 158.399H98.6674L90.9455 147.139L97.9978 138.369H96.6974L86.1384 151.367V138.369H85.0745V158.399H86.1384H86.1393Z" fill="#00FFF9"/>
<path d="M113.992 166.076H76.7888V130.69H114.091L102.635 147.416L113.992 166.076Z" fill="#2C267E"/>
<path d="M107.139 135.208H122.623V142.121H115.531V145.045H122.505V151.603H115.531V154.645H122.898V161.558H107.139V135.208ZM119.983 158.399V157.49H112.104V148.799H119.589V147.85H112.104V139.317H119.983V138.369H111.079V158.399H119.983Z" fill="#00FFF9"/>
<path d="M127.403 166.076H102.635V130.69H127.128V146.639H127.009V150.128H127.403V166.076Z" fill="#2C267E"/>
<path d="M126.562 135.208H133.496L140.745 145.361V135.208H149.018V161.558H142.045L134.835 151.444V161.558H126.562V135.208ZM131.29 158.399V140.186L144.291 158.399H145.315V138.369H144.291V156.582L131.29 138.369H130.226V158.399H131.29Z" fill="#00FFF9"/>
<path d="M148.796 166.076H145.53H139.728H137.771H139.341H122.057V130.69H126.785H127.807H130.052H135.812H137.338H136.24H153.524V166.076H148.796Z" fill="#2C267E"/>
<path d="M20.5366 181.067C19.1622 181.067 17.8384 180.82 16.603 180.334C15.3856 179.854 14.2946 179.181 13.3588 178.332C12.3833 177.447 11.6046 176.391 11.0451 175.196C10.4594 173.943 10.1616 172.598 10.1616 171.2C10.1616 169.802 10.4603 168.436 11.0505 167.184C11.6091 165.998 12.3851 164.95 13.3588 164.067C14.2955 163.218 15.3856 162.545 16.6012 162.065C17.8366 161.578 19.1604 161.331 20.5357 161.331C21.0798 161.331 21.6077 161.365 22.1059 161.432C22.6229 161.503 23.1292 161.609 23.6174 161.749C24.1922 161.915 24.7544 162.139 25.2913 162.418C25.7001 162.63 26.1188 162.878 26.5385 163.153L30.0948 165.485L26.9346 171.01L30.4206 176.49L26.9247 178.978C26.4572 179.311 25.9862 179.605 25.5269 179.851C25.0098 180.129 24.4711 180.362 23.9269 180.544C23.3683 180.73 22.7881 180.868 22.2033 180.951C21.6745 181.027 21.1132 181.065 20.5366 181.065V181.067Z" fill="#2C267E"/>
<path d="M41.448 180.807H20.6196V161.578H23.8665V158.71L25.7498 161.578H28.7223C31.0343 161.578 32.9961 162.219 34.5537 163.483C35.5355 164.261 36.3179 165.243 36.881 166.403C37.4504 167.579 37.7391 168.811 37.7391 170.068C37.7391 170.855 37.6263 171.637 37.4044 172.396C37.3249 172.666 37.2329 172.929 37.1291 173.185L41.448 180.807Z" fill="#2C267E"/>
<path d="M45.071 180.807H29.9639V161.577H44.9645V169.098H45.071V180.807Z" fill="#2C267E"/>
<path d="M57.7941 180.806H34.5879L41.8622 161.576H43.6877L46.191 154.979L48.6943 161.576H50.5198L57.7941 180.806Z" fill="#2C267E"/>
<path d="M60.0404 180.807H47.6774V173.271H45.8022V161.577H61.9309V173.271H60.0404V180.807Z" fill="#2C267E"/>
<path d="M66.3969 161.577H53.9419V180.807H66.3969V161.577Z" fill="#2C267E"/>
<path d="M70.1995 180.807H65.5558H63.4929L56.0173 161.577H79.7632L72.2877 180.807H70.1995Z" fill="#2C267E"/>
<path d="M84.491 180.807H69.3838V161.577H84.3845V169.098H84.491V180.807Z" fill="#2C267E"/>
<path d="M87.0591 181.005C86.4816 181.005 85.8716 180.97 85.2453 180.902C84.5568 180.827 83.9043 180.708 83.3042 180.55L79.9473 179.663V167.363L80.1999 167.43C80.4391 165.542 81.4462 163.884 83.0452 162.793C84.4241 161.853 86.1531 161.376 88.1862 161.376C88.8035 161.376 89.3548 161.408 89.8701 161.472C90.4621 161.546 91.0351 161.67 91.5793 161.839L94.7494 162.826V169.924C94.9759 170.362 95.1645 170.817 95.3134 171.285C95.5661 172.08 95.6942 172.868 95.6942 173.628C95.6942 176.028 94.6113 178.097 92.6441 179.452C91.1497 180.482 89.2709 181.004 87.0582 181.004L87.0591 181.005Z" fill="#2C267E"/>
<path d="M100.969 180.807H88.6057V173.271H86.7305V161.577H102.859V173.271H100.969V180.807Z" fill="#2C267E"/>
<path d="M103.537 181.156C102.395 181.156 101.304 180.97 100.294 180.602C99.2264 180.214 98.2779 179.557 97.4739 178.829C96.6365 178.07 95.9759 177.244 95.5112 176.198C95.0455 175.151 94.8091 173.923 94.8091 172.726V161.575H112.264V172.726C112.264 173.922 112.028 175.149 111.561 176.199C111.093 177.254 110.422 178.175 109.569 178.939C108.768 179.655 107.832 180.212 106.786 180.597C105.776 180.968 104.683 181.155 103.536 181.155L103.537 181.156Z" fill="#2C267E"/>
<path d="M111.92 180.807H104.778V161.577H111.92C113.797 161.577 115.365 161.802 116.713 162.262C117.659 162.586 118.531 163.082 119.307 163.736C120.026 164.342 120.645 165.065 121.15 165.884C121.619 166.647 121.988 167.488 122.243 168.383C122.5 169.285 122.63 170.232 122.63 171.2C122.63 172.981 126.704 174.647 125.853 176.154C125.398 176.97 124.851 177.689 124.23 178.291C123.522 178.978 122.684 179.53 121.742 179.93C120.949 180.267 119.098 180.807 119.098 180.807H111.921H111.92Z" fill="#2C267E"/>
<path d="M127.401 161.577H114.946V180.807H127.401V161.577Z" fill="#2C267E"/>
<path d="M129.557 181.066C128.214 181.066 126.918 180.801 125.706 180.279C124.53 179.772 123.485 179.064 122.598 178.175C121.712 177.288 121.007 176.239 120.501 175.06C119.981 173.847 119.716 172.546 119.716 171.198C119.716 169.85 119.983 168.53 120.507 167.316C121.011 166.148 121.715 165.106 122.599 164.22C123.485 163.332 124.53 162.624 125.705 162.118C126.917 161.595 128.213 161.331 129.557 161.331C130.901 161.331 132.196 161.596 133.408 162.118C134.584 162.625 135.628 163.332 136.515 164.22C137.399 165.108 138.102 166.149 138.606 167.316C139.132 168.532 139.397 169.838 139.397 171.199C139.397 172.56 139.132 173.845 138.612 175.061C138.106 176.24 137.401 177.288 136.515 178.177C135.628 179.065 134.583 179.773 133.408 180.279C132.195 180.803 130.899 181.067 129.557 181.067V181.066Z" fill="#2C267E"/>
<path d="M138.063 181.005C137.485 181.005 136.875 180.97 136.249 180.902C135.561 180.827 134.908 180.708 134.308 180.55L130.951 179.663V167.363L131.204 167.43C131.443 165.542 132.45 163.884 134.049 162.793C135.428 161.853 137.157 161.376 139.19 161.376C139.807 161.376 140.359 161.408 140.874 161.472C141.466 161.546 142.039 161.67 142.583 161.839L145.753 162.826V169.924C145.98 170.362 146.168 170.817 146.317 171.285C146.57 172.08 146.698 172.868 146.698 173.628C146.698 176.028 145.615 178.097 143.648 179.452C142.154 180.482 140.275 181.004 138.062 181.004L138.063 181.005Z" fill="#2C267E"/>
<path d="M4.98096 135.209H13.3724V141.451L20.9373 133.905L26.7677 139.792L19.5584 146.982L27.5564 157.807L20.7008 162.864L13.3724 152.948V161.561H4.98096V135.21V135.209ZM9.82687 158.4V151.644L13.8453 147.653L22.04 158.715L22.9072 158.083L14.634 146.903L22.0409 139.476L21.2919 138.726L9.82687 150.182V138.37H8.76294V158.4H9.82687Z" fill="#FF3EFA"/>
<path d="M29.6831 135.211H38.9806C42.2635 135.211 44.8634 136.001 46.781 137.581C47.9631 138.503 48.9016 139.681 49.5983 141.116C50.294 142.552 50.6424 144.007 50.6424 145.481C50.6424 146.403 50.5106 147.312 50.248 148.207C49.9854 149.103 49.6172 149.893 49.1453 150.578C49.0135 150.789 48.8827 150.967 48.7509 151.111C48.6192 151.255 48.4748 151.414 48.3178 151.585C48.1598 151.757 47.9758 151.94 47.7664 152.138C47.5561 152.335 47.28 152.579 46.9389 152.869L51.8633 161.56H42.3294L38.0746 155.081V161.56H29.6831V135.21V135.211ZM34.6472 158.401V152.397H37.1288C38.4418 152.397 39.6628 152.292 40.7926 152.081L44.5746 158.401H45.8352L41.8953 151.764C44.9942 150.685 46.5445 148.63 46.5445 145.601C46.5445 143.731 45.9932 142.178 44.8895 140.939C44.5213 140.518 44.0819 140.135 43.5702 139.793C43.0576 139.451 42.5261 139.174 41.9748 138.963C41.4234 138.753 40.8061 138.601 40.123 138.509C39.4399 138.417 38.5998 138.371 37.6017 138.371H33.6221V158.401H34.6463L34.6472 158.401ZM34.6472 139.32H38.6656C38.9806 139.32 39.2694 139.334 39.5329 139.36C40.1889 139.413 40.8197 139.544 41.4243 139.755C42.028 139.966 42.5929 140.256 43.1181 140.625C43.9059 141.178 44.5033 141.883 44.9103 142.739C45.3173 143.595 45.5212 144.549 45.5212 145.603C45.5212 147.21 44.9428 148.565 43.7877 149.672C43.0784 150.304 42.1922 150.765 41.1283 151.055C40.0644 151.345 38.6521 151.489 36.8933 151.489H34.6481V139.321L34.6472 139.32ZM38.3507 148.13H38.4689C39.0465 148.13 39.4534 148.11 39.6899 148.07C39.9263 148.03 40.2024 147.919 40.5174 147.735C40.9641 147.471 41.3115 147.122 41.5615 146.688C41.8105 146.253 41.936 145.773 41.936 145.245C41.936 144.718 41.8114 144.232 41.5615 143.784C41.3115 143.336 40.9641 142.981 40.5174 142.717C40.2024 142.559 39.9263 142.454 39.6899 142.401C39.4534 142.349 39.0465 142.322 38.4689 142.322H38.0746V148.13H38.3507Z" fill="#FF3EFA"/>
<path d="M63.1706 135.21H69.4739L79.4419 161.56H71.1686L70.3014 159.19H62.3431L61.4759 161.56H53.2026L63.1706 135.21ZM59.0737 158.401L59.8218 156.425H72.8227L73.5708 158.401H74.6735L66.9914 138.134H65.6522L57.97 158.401H59.0728H59.0737ZM66.3227 139.319L72.469 155.517H60.1773L66.3236 139.319H66.3227ZM68.0959 153.383L66.3227 148.761L64.5495 153.383H68.095H68.0959Z" fill="#FF3EFA"/>
<path d="M81.2936 135.21H89.6851V141.018L94.6492 135.21H104.932L95.6735 147.259L105.444 161.56H95.2394L89.6842 153.422V161.56H81.2927V135.21H81.2936ZM86.1395 158.401V153.067L90.2365 147.971L97.3673 158.401H98.6676L90.9457 147.141L97.998 138.371H96.6977L86.1386 151.369V138.371H85.0747V158.401H86.1386H86.1395Z" fill="#FF3EFA"/>
<path d="M107.14 135.21H122.623V142.123H115.531V145.047H122.505V151.605H115.531V154.647H122.898V161.56H107.14V135.21ZM119.984 158.401V157.492H112.104V148.801H119.589V147.852H112.104V139.319H119.984V138.371H111.08V158.401H119.984Z" fill="#FF3EFA"/>
<path d="M126.562 135.21H133.496L140.745 145.363V135.21H149.018V161.56H142.045L134.835 151.446V161.56H126.562V135.21ZM131.29 158.401V140.188L144.291 158.401H145.315V138.371H144.291V156.583L131.29 138.371H130.226V158.401H131.29Z" fill="#FF3EFA"/>
<path d="M23.4015 175.867C23.1065 176.025 22.8069 176.154 22.5018 176.257C22.1968 176.359 21.8846 176.432 21.5642 176.478C21.2439 176.524 20.901 176.547 20.5355 176.547C19.7224 176.547 18.9599 176.407 18.2488 176.126C17.5377 175.846 16.9151 175.464 16.3817 174.98C15.8484 174.496 15.4288 173.927 15.1238 173.276C14.8188 172.623 14.6663 171.93 14.6663 171.197C14.6663 170.464 14.8188 169.759 15.1238 169.111C15.4288 168.464 15.8475 167.898 16.3817 167.414C16.9151 166.93 17.5377 166.548 18.2488 166.267C18.9599 165.987 19.7224 165.847 20.5355 165.847C20.8811 165.847 21.2033 165.867 21.5038 165.907C21.8034 165.948 22.0958 166.01 22.38 166.091C22.6643 166.172 22.944 166.285 23.2184 166.427C23.4927 166.57 23.7769 166.738 24.072 166.932L22.4107 169.835C22.1869 169.601 21.9026 169.413 21.557 169.27C21.2114 169.127 20.8613 169.055 20.5048 169.055C20.1899 169.055 19.8921 169.112 19.6132 169.224C19.3335 169.336 19.0871 169.489 18.8742 169.683C18.6612 169.876 18.4934 170.103 18.3715 170.363C18.2497 170.623 18.1883 170.9 18.1883 171.196C18.1883 171.492 18.2497 171.77 18.3715 172.03C18.4934 172.29 18.6612 172.517 18.8742 172.71C19.0871 172.904 19.3335 173.057 19.6132 173.169C19.893 173.281 20.1953 173.337 20.5202 173.337C20.8856 173.337 21.224 173.269 21.5336 173.131C21.8431 172.994 22.1716 172.772 22.5172 172.466L24.3157 175.294C24.0007 175.518 23.6957 175.709 23.4006 175.867H23.4015Z" fill="#00F3FF"/>
<path d="M25.1243 166.091H28.7222C29.9927 166.091 30.998 166.397 31.7407 167.007C32.1982 167.364 32.561 167.82 32.8308 168.376C33.0997 168.931 33.2351 169.494 33.2351 170.064C33.2351 170.421 33.1845 170.773 33.0826 171.119C32.9806 171.466 32.8389 171.772 32.6557 172.036C32.6043 172.117 32.5538 172.186 32.5032 172.242C32.4527 172.298 32.3967 172.359 32.3354 172.426C32.274 172.493 32.2027 172.564 32.1224 172.64C32.0412 172.716 31.9338 172.811 31.8021 172.924L33.7079 176.286H30.0189L28.3729 173.78V176.286H25.1261V166.091H25.1243ZM28.4776 171.089H28.5236C28.7474 171.089 28.9044 171.082 28.9965 171.067C29.0885 171.051 29.195 171.008 29.3168 170.937C29.4892 170.834 29.6237 170.699 29.7211 170.531C29.8177 170.363 29.8655 170.177 29.8655 169.974C29.8655 169.77 29.8168 169.581 29.7211 169.408C29.6246 169.235 29.4901 169.098 29.3168 168.996C29.195 168.934 29.0885 168.893 28.9965 168.873C28.9053 168.853 28.7474 168.843 28.5236 168.843H28.3711V171.089H28.4776Z" fill="#00F3FF"/>
<path d="M34.4688 166.091H40.4598V168.766H37.7156V169.897H40.4138V172.434H37.7156V173.611H40.5663V176.286H34.4688V166.091Z" fill="#00F3FF"/>
<path d="M44.9717 166.091H47.4109L51.2678 176.286H48.0669L47.7313 175.37H44.6522L44.3166 176.286H41.1157L44.9726 166.091H44.9717ZM46.8767 173.122L46.1908 171.334L45.505 173.122H46.8767Z" fill="#00F3FF"/>
<path d="M52.1818 168.75H50.3066V166.091H57.4248V168.75H55.5343V176.286H52.1809V168.75H52.1818Z" fill="#00F3FF"/>
<path d="M58.4465 166.091H61.8919V176.286H58.4465V166.091Z" fill="#00F3FF"/>
<path d="M66.1603 166.091L67.883 170.524L69.6211 166.091H73.1729L69.2096 176.286H66.5727L62.6094 166.091H66.1612H66.1603Z" fill="#00F3FF"/>
<path d="M73.8884 166.091H79.8795V168.766H77.1362V169.897H79.8344V172.434H77.1362V173.611H79.9869V176.286H73.8893V166.091H73.8884Z" fill="#00F3FF"/>
<path d="M84.4519 173.231C84.645 173.283 84.8887 173.321 85.1838 173.346C85.4788 173.372 85.7378 173.384 85.9616 173.384C86.6014 173.384 86.9218 173.211 86.9218 172.865C86.9218 172.722 86.8758 172.564 86.7846 172.391C86.6935 172.218 86.5202 171.953 86.2666 171.595C86.0934 171.351 85.9436 171.142 85.8172 170.969C85.69 170.796 85.5862 170.653 85.505 170.541C85.2 170.103 84.9816 169.71 84.8499 169.364C84.7181 169.017 84.6513 168.666 84.6513 168.309C84.6513 167.544 84.9609 166.95 85.5808 166.528C86.2008 166.105 87.0698 165.894 88.187 165.894C88.6138 165.894 88.9901 165.914 89.315 165.954C89.6398 165.995 89.9503 166.061 90.2444 166.153V168.905L90.138 168.89C90.036 168.89 89.9475 168.887 89.8708 168.882C89.7941 168.878 89.731 168.875 89.6804 168.875C89.4566 168.875 89.2789 168.919 89.1471 169.005C89.0145 169.092 88.9486 169.207 88.9486 169.349C88.9486 169.421 88.9739 169.508 89.0253 169.609L89.2085 169.884C89.2698 169.966 89.3529 170.071 89.4603 170.197C89.5676 170.324 89.6913 170.48 89.8338 170.663C89.9764 170.847 90.1055 171.022 90.2228 171.191C90.3392 171.359 90.4484 171.515 90.5504 171.657C90.7534 171.973 90.9113 172.307 91.0232 172.658C91.1351 173.009 91.1911 173.333 91.1911 173.629C91.1911 174.525 90.8256 175.226 90.0937 175.731C89.3619 176.235 88.3503 176.487 87.0599 176.487C86.6429 176.487 86.2008 176.462 85.7333 176.411C85.2659 176.36 84.839 176.284 84.4528 176.182V173.232L84.4519 173.231Z" fill="#00F3FF"/>
<path d="M93.1106 168.75H91.2354V166.091H98.3544V168.75H96.4639V176.286H93.1106V168.75Z" fill="#00F3FF"/>
<path d="M102.729 166.091V171.975C102.729 172.526 102.792 172.923 102.92 173.167C103.047 173.411 103.253 173.534 103.537 173.534C103.821 173.534 104.027 173.411 104.154 173.167C104.281 172.923 104.344 172.526 104.344 171.975V166.091H107.759V172.725C107.759 173.286 107.654 173.8 107.447 174.268C107.238 174.737 106.946 175.14 106.571 175.475C106.194 175.812 105.75 176.074 105.237 176.263C104.723 176.451 104.157 176.546 103.537 176.546C102.917 176.546 102.347 176.452 101.829 176.263C101.311 176.074 100.867 175.812 100.496 175.475C100.125 175.14 99.8351 174.737 99.6267 174.268C99.4182 173.8 99.3145 173.285 99.3145 172.725V166.091H102.729Z" fill="#00F3FF"/>
<path d="M109.283 166.091H111.92C113.282 166.091 114.395 166.238 115.258 166.534C115.675 166.677 116.059 166.896 116.409 167.191C116.76 167.487 117.061 167.841 117.316 168.254C117.569 168.666 117.768 169.122 117.91 169.622C118.053 170.121 118.124 170.646 118.124 171.196C118.124 172.195 117.891 173.107 117.423 173.933C117.179 174.371 116.902 174.741 116.592 175.041C116.282 175.342 115.911 175.584 115.479 175.767C115.047 175.951 114.539 176.083 113.955 176.164C113.37 176.246 112.693 176.286 111.92 176.286H109.283V166.091ZM112.683 173.382C113.008 173.382 113.308 173.328 113.583 173.221C113.857 173.115 114.093 172.964 114.291 172.771C114.489 172.577 114.644 172.345 114.756 172.075C114.868 171.805 114.923 171.512 114.923 171.196C114.923 170.88 114.868 170.587 114.756 170.318C114.644 170.048 114.489 169.815 114.291 169.622C114.092 169.428 113.857 169.275 113.583 169.163C113.308 169.051 113.009 168.995 112.683 168.995H112.576V173.382H112.683Z" fill="#00F3FF"/>
<path d="M119.451 166.091H122.896V176.286H119.451V166.091Z" fill="#00F3FF"/>
<path d="M124.641 169.111C124.92 168.464 125.301 167.898 125.784 167.414C126.267 166.93 126.833 166.548 127.484 166.267C128.135 165.987 128.825 165.847 129.557 165.847C130.289 165.847 130.979 165.987 131.63 166.267C132.28 166.548 132.846 166.93 133.33 167.414C133.813 167.898 134.193 168.464 134.473 169.111C134.753 169.758 134.893 170.453 134.893 171.197C134.893 171.941 134.753 172.624 134.473 173.276C134.193 173.928 133.813 174.497 133.33 174.98C132.847 175.464 132.28 175.846 131.63 176.126C130.979 176.406 130.289 176.547 129.557 176.547C128.825 176.547 128.134 176.407 127.484 176.126C126.833 175.846 126.267 175.464 125.784 174.98C125.301 174.496 124.92 173.927 124.641 173.276C124.361 172.623 124.221 171.93 124.221 171.197C124.221 170.464 124.361 169.759 124.641 169.111ZM127.591 172.03C127.702 172.29 127.855 172.517 128.048 172.71C128.241 172.904 128.468 173.057 128.727 173.169C128.986 173.281 129.263 173.337 129.558 173.337C129.853 173.337 130.129 173.281 130.389 173.169C130.648 173.057 130.874 172.904 131.067 172.71C131.261 172.517 131.413 172.29 131.525 172.03C131.637 171.77 131.693 171.492 131.693 171.196C131.693 170.9 131.637 170.624 131.525 170.363C131.413 170.103 131.261 169.876 131.067 169.683C130.874 169.489 130.648 169.336 130.389 169.224C130.13 169.112 129.853 169.055 129.558 169.055C129.263 169.055 128.987 169.112 128.727 169.224C128.468 169.336 128.241 169.489 128.048 169.683C127.855 169.876 127.702 170.103 127.591 170.363C127.479 170.623 127.423 170.9 127.423 171.196C127.423 171.492 127.479 171.77 127.591 172.03Z" fill="#00F3FF"/>
<path d="M135.456 173.231C135.649 173.283 135.893 173.321 136.188 173.346C136.483 173.372 136.742 173.384 136.966 173.384C137.606 173.384 137.926 173.211 137.926 172.865C137.926 172.722 137.88 172.564 137.789 172.391C137.698 172.218 137.524 171.953 137.271 171.595C137.098 171.351 136.948 171.142 136.821 170.969C136.694 170.796 136.59 170.653 136.509 170.541C136.204 170.103 135.986 169.71 135.854 169.364C135.722 169.017 135.655 168.666 135.655 168.309C135.655 167.544 135.965 166.95 136.585 166.528C137.205 166.105 138.074 165.894 139.191 165.894C139.618 165.894 139.994 165.914 140.319 165.954C140.644 165.995 140.954 166.061 141.249 166.153V168.905L141.142 168.89C141.04 168.89 140.952 168.887 140.875 168.882C140.798 168.878 140.735 168.875 140.685 168.875C140.461 168.875 140.283 168.919 140.151 169.005C140.019 169.092 139.953 169.207 139.953 169.349C139.953 169.421 139.978 169.508 140.029 169.609L140.213 169.884C140.274 169.966 140.357 170.071 140.464 170.197C140.572 170.324 140.695 170.48 140.838 170.663C140.981 170.847 141.11 171.022 141.227 171.191C141.343 171.359 141.453 171.515 141.555 171.657C141.758 171.973 141.915 172.307 142.027 172.658C142.139 173.009 142.195 173.333 142.195 173.629C142.195 174.525 141.83 175.226 141.098 175.731C140.366 176.235 139.354 176.487 138.064 176.487C137.647 176.487 137.205 176.462 136.737 176.411C136.27 176.36 135.843 176.284 135.457 176.182V173.232L135.456 173.231Z" fill="#00F3FF"/>
<path d="M131.701 64.5407C127.209 63.1237 121.773 64.2502 117.296 65.8266C117.313 64.3977 116.789 60.9392 112.43 55.7325C108.384 49.22 117.647 45.1091 121.587 49.7539C123.131 49.4336 117.115 36.1416 104.285 43.0812C98.8244 46.6555 98.3615 52.9364 98.5465 56.2555C97.802 55.5117 97.1694 55.0565 96.9916 54.8783C96.9916 54.0775 97.6305 47.4844 100.985 41.7194C114.576 15.568 76.5503 1.14222 75.7635 0.847226V0.841797C75.7635 0.841797 75.7607 0.841797 75.7562 0.844512C75.7517 0.842702 75.749 0.841797 75.749 0.841797V0.847226C74.9621 1.14222 36.9357 15.568 50.5295 41.7194C53.8837 47.4844 54.5226 54.0775 54.5226 54.8783C54.3449 55.0565 53.7123 55.5108 52.9678 56.2555C53.1528 52.9364 52.689 46.6546 47.2294 43.0812C34.3999 36.1416 28.3836 49.4336 29.9276 49.7539C33.8675 45.11 43.1298 49.22 39.0843 55.7325C34.7248 60.9392 34.2014 64.3977 34.2185 65.8266C29.7417 64.2502 24.3056 63.1237 19.8134 64.5407C10.3373 67.5305 12.8929 81.1961 21.1445 86.4273C21.0876 78.657 25.2676 78.2987 29.7733 79.9583C27.0318 80.7853 22.4602 83.49 22.7409 92.3263C25.2965 113.546 45.7386 111.624 48.5334 109.702C50.7695 108.741 60.1925 102.816 56.0396 90.7246C56.7579 96.6499 44.94 103.937 40.8675 96.4897C38.9083 90.7798 44.7424 88.9302 47.5705 88.3783C51.0755 89.4868 55.3113 90.0659 59.485 88.1955C57.9012 93.7325 58.5284 101.033 62.8717 108.084C67.677 115.882 59.2332 125.943 59.2332 125.943C67.0697 125.088 75.7598 119.418 72.9137 104.444C68.9034 90.8568 74.8493 86.2871 75.7562 85.6826C76.664 86.288 82.6091 90.8568 78.5988 104.444C75.7526 119.418 84.4428 125.088 92.2793 125.943C92.2793 125.943 83.8364 115.882 88.6408 108.084C92.9849 101.034 93.6121 93.7325 92.0275 88.1955C96.2002 90.065 100.437 89.4868 103.942 88.3783C106.77 88.9302 112.604 90.7798 110.645 96.4897C106.572 103.937 94.7537 96.6499 95.4729 90.7246C91.3209 102.816 100.743 108.741 102.979 109.702C105.774 111.624 126.217 113.546 128.772 92.3263C129.052 83.4909 124.481 80.7862 121.739 79.9583C126.245 78.2987 130.425 78.657 130.368 86.4273C138.62 81.1961 141.175 67.5296 131.699 64.5407H131.701ZM101.527 65.214C101.927 67.2744 102.161 70.209 100.978 72.4097C97.4302 72.9897 93.3865 72.6856 90.6297 69.5457C92.9507 68.2598 95.9078 68.0978 99.5987 70.3592C100.678 68.4607 101.273 66.7477 101.527 65.214ZM50.534 72.4097C49.3528 70.208 49.5865 67.2744 49.9854 65.214C50.2389 66.7477 50.8345 68.4607 51.9129 70.3592C55.6037 68.0987 58.5609 68.2598 60.8819 69.5457C58.125 72.6856 54.0823 72.9897 50.5331 72.4097H50.534Z" fill="#00F3FF"/>
<path d="M56.1445 93.1248C56.1445 93.1248 56.1355 93.171 56.1157 93.2551C55.8892 107.946 41.8414 106.354 37.7526 102.854C36.1987 101.503 33.6647 98.489 32.4113 93.5456C31.1579 88.6022 36.9937 82.8498 36.9937 82.8498L43.6002 86.3997C41.3379 84.5374 35.9866 80.3831 33.4662 80.555C33.4662 80.555 20.2902 82.8769 26.3589 98.5714C36.0209 115.467 49.2772 107.459 49.2772 107.459C49.2772 107.459 56.8638 103.856 56.1445 93.1257V93.1248Z" fill="#FF3EFA"/>
<path d="M114.498 82.8506L107.949 86.3697C107.278 86.9208 106.866 87.2809 106.866 87.2809C113.573 85.8394 118.125 99.8526 107.984 101.854C97.6361 103.016 95.5028 93.769 95.3738 93.1582C95.538 107.955 109.642 106.363 113.74 102.855C115.166 102.361 117.827 98.4898 119.081 93.5464C120.334 88.603 114.498 82.8506 114.498 82.8506Z" fill="#FF3EFA"/>
<path d="M89.4521 123.961C84.895 121.727 81.0733 112.582 84.1081 106.017C87.1428 99.4507 86.5039 92.5644 83.7886 87.7595C79.9552 79.9122 75.9043 82.7862 75.9043 82.7862L75.9251 85.7977C77.2236 86.7541 82.4133 91.5193 78.5998 104.44C75.9936 118.148 83.0559 124.058 90.2814 125.616C90.6839 125.059 90.5359 124.491 89.453 123.96L89.4521 123.961Z" fill="#FF3EFA"/>
<path d="M115.516 46.057C116.563 46.0453 117.783 46.2109 119.205 46.6054C119.198 46.5982 119.192 46.5927 119.186 46.5855C117.772 46.2 116.556 46.0389 115.515 46.057H115.516Z" fill="#FF3EFA"/>
<path d="M106.341 71.8052C106.781 71.378 109.893 68.0272 106.292 61.7066C101.293 53.006 110.6 41.6144 119.054 46.442C108.906 35.4457 95.8088 50.9755 101.318 60.5899C105.683 68.0634 102.915 72.6548 102.915 72.6548C102.915 72.6548 104.333 72.4205 106.341 71.8052Z" fill="#FF3EFA"/>
<path d="M114.706 67.6748C111.639 69.6873 108.036 71.1749 106.763 71.6726C109.123 70.9161 112.165 69.6547 114.706 67.6748Z" fill="#FF3EFA"/>
<path d="M45.2974 61.7084C50.3202 52.9671 40.9009 41.5058 32.4156 46.5116C32.3858 46.5442 32.3569 46.5732 32.3271 46.6057C43.8797 43.4024 42.2292 55.2004 41.3774 56.2148C39.2504 60.5863 36.2219 62.9354 36.6379 67.5142C40.4786 70.0949 45.3001 71.8549 45.3001 71.8549C45.3001 71.8549 41.4324 68.4905 45.2974 61.7084Z" fill="#FF3EFA"/>
<path d="M52.3318 74.7002C53.1936 74.4948 54.0671 74.3201 54.9524 74.2885C56.851 74.2197 58.7668 74.8332 60.2739 75.9924C61.7818 77.1515 62.8692 78.8473 63.2951 80.7041C63.6976 79.9458 64.443 79.4481 65.1234 78.9269C65.8038 78.4066 66.4842 77.7687 66.6448 76.9253C66.7576 76.3308 66.5925 75.7218 66.4219 75.1418C66.0826 73.9908 65.709 72.8352 65.0891 71.8091C64.4682 70.7829 63.5739 69.8825 62.4514 69.4663C62.3747 69.4373 62.2952 69.4111 62.2131 69.4093C62.0922 69.4066 61.9776 69.4581 61.872 69.5161C61.1194 69.9341 60.6799 70.7404 60.0717 71.3503C58.9834 72.4407 57.4123 72.856 55.9197 73.2279L52.3318 74.6993V74.7002Z" fill="#FF3EFA"/>
<path d="M66.292 74.8204L66.3306 74.9373C66.3996 74.7772 66.4319 74.6846 66.4319 74.6846L66.292 74.8204Z" fill="#FF3EFA"/>
<path d="M66.3308 74.9396C65.6106 76.6064 60.8162 85.715 44.6045 78.3474C44.5368 78.3166 43.3961 77.9719 43.3285 77.9411C20.3108 63.3334 12.1657 73.1868 21.1474 86.0209C21.2403 78.6514 25.348 78.3302 29.7725 79.9599C28.2538 80.4178 32.0962 78.7953 32.9481 80.5571C33.7783 80.7336 35.7167 82.3579 36.9936 82.8528C41.1861 84.4762 39.4887 85.1639 44.979 86.857C46.5257 85.7168 46.2162 88.645 47.5698 88.3808C51.0747 89.4893 55.233 89.6341 59.4057 87.7646C59.0114 89.1427 61.419 85.5585 61.3224 87.1239C65.5222 86.7873 65.2623 84.2409 67.9235 80.3445L66.3308 74.9405V74.9396Z" fill="#FF3EFA"/>
<path d="M85.2083 14.9897C83.4423 12.0651 79.7911 10.8507 77.5848 8.24283C76.2248 6.63574 75.4795 4.51829 75.5327 2.4108C74.467 2.39451 73.3949 2.3547 72.3228 2.32031C64.0478 6.18329 44.0063 17.546 48.1583 35.4339C48.3631 35.8013 48.5661 36.1687 48.7638 36.537C49.7447 38.3648 50.62 40.342 50.8952 42.3735C53.9291 47.973 54.522 54.1081 54.522 54.8791C54.3442 55.0574 53.7117 55.5116 52.9672 56.2564L49.9856 65.2148C50.2392 66.7486 50.8348 68.4615 51.9132 70.36C55.604 68.0996 58.5612 68.2607 60.8822 69.5465C58.285 72.5046 54.5464 72.9453 51.1542 72.5019C51.3871 72.9788 51.6316 73.4502 51.8816 73.9189C59.247 74.3768 60.7685 70.5202 60.7685 70.5202C60.7685 70.5202 64.5604 67.334 67.1232 76.4807C68.8026 82.4747 63.4396 85.7323 59.543 87.2652C59.4013 87.6498 59.1649 88.0452 58.8797 88.447C59.081 88.3682 59.2822 88.285 59.4834 88.1954C57.8997 93.7324 58.5269 101.033 62.8702 108.084C65.9338 113.056 63.6119 118.948 61.5256 122.565C65.8246 119.928 68.762 115.093 68.9803 110.029C69.1365 106.41 66.4229 101.989 66.0593 98.3845C65.1144 89.0234 71.2905 80.1853 79.1017 74.9713C77.499 72.4268 75.4325 70.3736 72.9437 68.6914C75.2638 66.7685 76.5235 63.633 76.1806 60.6342C75.8377 57.6354 73.9021 54.8673 71.2084 53.5218C70.8194 53.3272 70.398 53.1462 70.1417 52.7952C69.9387 52.5164 69.8665 52.1672 69.7988 51.8287C69.6842 51.2541 69.5696 50.6795 69.455 50.1049C69.9206 51.0976 71.2409 51.7183 72.3959 52.026C73.8578 52.416 75.6247 52.9798 75.9334 54.4656C77.7319 50.389 78.3554 45.8003 77.7111 41.3899C80.9074 39.3068 84.3185 36.955 85.5169 33.3264C86.0087 31.8379 86.08 30.2489 86.1477 28.6825C86.2325 26.7243 86.3164 24.767 86.4013 22.8089C86.5168 20.1331 86.589 17.28 85.2065 14.9888L85.2083 14.9897Z" fill="#FF3EFA"/>
<path d="M85.8812 35.6505C90.0053 35.6505 93.3486 31.6709 93.3486 26.7618C93.3486 21.8527 90.0053 17.873 85.8812 17.873C81.7571 17.873 78.4138 21.8527 78.4138 26.7618C78.4138 31.6709 81.7571 35.6505 85.8812 35.6505Z" fill="#2C267E"/>
<path d="M79.7238 17.3663C79.9645 15.2546 78.7089 13.3765 76.9194 13.1714C75.1299 12.9663 73.4841 14.5119 73.2434 16.6237C73.0027 18.7354 74.2583 20.6135 76.0478 20.8186C77.8373 21.0237 79.4831 19.4781 79.7238 17.3663Z" fill="#2C267E"/>
<path d="M59.9883 31.3434C60.1088 30.2863 59.4803 29.3462 58.5846 29.2435C57.6888 29.1409 56.865 29.9146 56.7445 30.9717C56.624 32.0288 57.2525 32.969 58.1483 33.0716C59.044 33.1743 59.8678 32.4005 59.9883 31.3434Z" fill="#2C267E"/>
<path d="M76.5149 24.8993C76.6345 23.8004 76.1274 22.8434 75.3823 22.7618C74.6371 22.6803 73.9361 23.505 73.8165 24.604C73.6968 25.7029 74.2039 26.6599 74.9491 26.7414C75.6942 26.823 76.3952 25.9983 76.5149 24.8993Z" fill="#2C267E"/>
<path d="M62.76 31.0699C63.554 31.0699 64.1976 30.5801 64.1976 29.9758C64.1976 29.3716 63.554 28.8818 62.76 28.8818C61.9661 28.8818 61.3225 29.3716 61.3225 29.9758C61.3225 30.5801 61.9661 31.0699 62.76 31.0699Z" fill="#2C267E"/>
<path d="M63.6389 36.4614C64.6531 36.4614 65.4753 35.7922 65.4753 34.9666C65.4753 34.141 64.6531 33.4717 63.6389 33.4717C62.6247 33.4717 61.8025 34.141 61.8025 34.9666C61.8025 35.7922 62.6247 36.4614 63.6389 36.4614Z" fill="#2C267E"/>
<path d="M108.287 77.9402C108.22 77.971 107.079 78.3157 107.011 78.3465C95.9703 83.3641 90.2255 80.7399 87.457 78.0289C86.708 76.7964 85.5493 73.8365 88.9523 70.6269C87.8342 69.9862 86.3434 71.9616 86.3434 71.9616C86.3434 71.9616 84.7461 74.4175 84.8526 76.125C84.8544 76.1585 84.8617 76.1938 84.8653 76.2282L83.5703 80.2115L83.6912 80.3418C84.5422 83.3424 92.209 87.7619 92.209 87.7619C96.3818 89.6314 100.54 89.4866 104.045 88.3781C105.399 88.6424 105.089 85.7141 106.636 86.8543C112.126 85.1612 110.429 84.4735 114.621 82.8511C115.898 82.3561 117.836 80.7318 118.667 80.5553C119.242 79.3654 121.182 79.7201 121.911 79.9337C126.309 78.3329 130.374 78.6886 130.466 86.0191C139.448 73.1841 131.302 63.3307 108.285 77.9393L108.287 77.9402Z" fill="#FF3EFA"/>
<path d="M121.912 79.9346C121.889 79.9427 121.866 79.9508 121.843 79.959C122.335 80.1071 122.262 80.0367 121.912 79.9346Z" fill="#FF3EFA"/>
<path d="M84.8148 92.9168C83.3258 94.8443 82.7907 92.4671 82.6661 91.7305C82.5452 90.9931 82.279 88.5707 84.313 89.9072C84.313 89.9072 83.5397 88.1236 82.621 88.5878C81.7033 89.0521 81.6518 90.5605 81.7349 91.5803C81.7448 91.7025 81.7664 91.7984 81.7971 91.8762C81.7944 91.9595 81.8043 92.0581 81.835 92.1757C82.0868 93.1675 82.6255 94.5764 83.6434 94.7158C84.6623 94.8551 84.8148 92.9159 84.8148 92.9159V92.9168Z" fill="#2C267E"/>
<path d="M83.2697 102.814C81.177 104.054 81.5533 101.647 81.7085 100.916C81.8673 100.186 82.5108 97.8358 83.9095 99.8302C83.9095 99.8302 83.8463 97.8865 82.8221 97.9788C81.7979 98.0711 81.196 99.4537 80.8982 100.433C80.863 100.55 80.8476 100.647 80.8467 100.731C80.8133 100.807 80.7872 100.902 80.7709 101.023C80.6401 102.038 80.622 103.547 81.5181 104.053C82.4142 104.56 83.2688 102.814 83.2688 102.814H83.2697Z" fill="#2C267E"/>
<path d="M82.121 109.641C80.7204 110.932 80.6184 109.027 80.6184 108.443C80.6212 107.858 80.7331 105.954 82.1273 107.253C82.1273 107.253 81.7636 105.775 80.9948 106.013C80.2259 106.25 79.9895 107.408 79.92 108.206C79.9119 108.301 79.9164 108.379 79.929 108.442C79.9155 108.506 79.911 108.583 79.9191 108.678C79.9841 109.476 80.2151 110.635 80.983 110.876C81.751 111.118 82.1219 109.642 82.1219 109.642L82.121 109.641Z" fill="#2C267E"/>
<path d="M66.7178 92.9168C68.2067 94.8443 68.7419 92.4671 68.8664 91.7305C68.9873 90.9931 69.2535 88.5707 67.2195 89.9072C67.2195 89.9072 67.9929 88.1236 68.9115 88.5878C69.8293 89.0521 69.8807 90.5605 69.7977 91.5803C69.7878 91.7025 69.7661 91.7984 69.7354 91.8762C69.7381 91.9595 69.7282 92.0581 69.6975 92.1757C69.4457 93.1675 68.907 94.5764 67.8891 94.7158C66.8703 94.8551 66.7178 92.9159 66.7178 92.9159V92.9168Z" fill="#2C267E"/>
<path d="M68.2628 102.814C70.3555 104.054 69.9792 101.647 69.824 100.916C69.6652 100.186 69.0218 97.8358 67.623 99.8302C67.623 99.8302 67.6862 97.8865 68.7104 97.9788C69.7347 98.0711 70.3366 99.4537 70.6344 100.433C70.6696 100.55 70.6849 100.647 70.6858 100.731C70.7192 100.807 70.7454 100.902 70.7616 101.023C70.8925 102.038 70.9105 103.547 70.0144 104.053C69.1183 104.56 68.2638 102.814 68.2638 102.814H68.2628Z" fill="#2C267E"/>
<path d="M69.4106 109.641C70.8111 110.932 70.9131 109.027 70.9131 108.443C70.9104 107.858 70.7985 105.954 69.4043 107.253C69.4043 107.253 69.768 105.775 70.5368 106.013C71.3057 106.25 71.5421 107.408 71.6116 108.206C71.6197 108.301 71.6152 108.379 71.6026 108.442C71.6161 108.506 71.6206 108.583 71.6125 108.678C71.5475 109.476 71.3165 110.635 70.5485 110.876C69.7806 111.118 69.4097 109.642 69.4097 109.642L69.4106 109.641Z" fill="#2C267E"/>
<path d="M81.7124 62.9401C81.2865 64.5418 82.511 66.4638 82.511 66.4638C79.7957 64.6486 78.6776 60.7521 79.1036 58.5098C79.5295 56.2675 78.9971 55.7336 78.9971 55.7336C78.9971 55.7336 80.1016 56.4141 80.0222 57.7352C79.9428 59.0563 80.3417 59.1767 80.3417 59.1767C80.3417 59.1767 82.0986 60.3775 85.2922 56.7344C88.4868 53.0913 90.5623 51.3693 92.2399 50.4888C93.9165 49.6084 95.1086 50.9693 95.5481 52.9709C95.5481 52.9709 95.7132 54.0251 95.66 54.559C95.0481 53.7582 95.1276 53.5446 94.116 52.7438C94.116 52.7438 93.5574 52.2235 93.3173 52.3701C93.0773 52.5167 92.8914 52.7701 92.8914 52.7701C92.8914 52.7701 93.9292 55.2522 93.8497 57.7614C93.9292 59.8165 92.5187 60.7241 92.5187 60.7241C92.5187 60.7241 88.207 63.9808 81.7115 62.9392L81.7124 62.9401Z" fill="#2C267E"/>
<path d="M95.3538 52.3113C95.3538 52.3113 97.2705 49.8291 95.3141 46.8466C93.3577 43.8641 89.2058 45.1454 87.3486 47.2267C87.4686 42.2416 95.5731 39.5396 98.9075 40.3803C105.695 27.3878 98.1089 11.1333 75.75 2.72592V0.84375C75.75 0.84375 114.719 15.2967 100.984 41.7213C97.6297 47.4864 96.9908 54.0794 96.9908 54.8802C97.6829 55.5743 105.242 60.4318 99.5996 70.3611C87.8341 63.1546 83.5224 80.5574 83.5224 80.5574C83.5224 80.5574 84.4275 62.3537 98.4283 68.0129C100.984 62.5148 98.4816 55.5752 93.4777 57.3361C92.5726 56.8022 93.318 56.1616 93.318 56.1616C93.318 56.1616 96.3528 55.5743 94.9685 52.9049C93.8504 51.4634 95.3547 52.3113 95.3547 52.3113H95.3538Z" fill="#2C267E"/>
<path d="M130.37 86.428C130.476 71.8014 115.571 83.4383 111.737 85.3603C109.182 85.3603 95.8729 95.8235 85.7578 83.118C97.0442 92.9406 110.992 83.0112 120.468 78.6342C129.944 74.2573 132.027 83.3279 132.027 83.3279C143.332 68.846 129.677 59.2035 107.216 72.3516C107.16 72.3823 107.103 72.4122 107.047 72.443C92.5304 79.5246 88.8684 70.2133 88.8684 70.2133C88.8684 70.2133 88.5264 67.6371 90.1236 68.9184C95.8729 76.7122 108.544 69.8794 108.544 69.8794C108.544 69.8794 122.225 61.5517 131.701 64.5414C141.177 67.5312 138.622 81.1969 130.37 86.428Z" fill="#2C267E"/>
<path d="M102.9 72.658C102.9 72.658 105.668 68.0675 101.303 60.5931C95.7663 50.9307 109.022 35.2896 119.19 46.6071C107.637 43.4038 109.288 55.2018 110.14 56.2161C112.269 60.5931 115.303 62.9422 114.877 67.5336L117.22 66.5726C117.22 66.5726 118.285 62.7286 112.429 55.7356C108.384 49.2231 117.646 45.1122 121.586 49.757C123.13 49.4367 117.114 36.1447 104.284 43.0844C96.6182 48.102 98.8011 58.4585 98.8011 58.4585L100.878 62.7286C100.878 62.7286 103.273 69.4013 100.558 73.0851C101.889 73.2453 102.901 72.658 102.901 72.658H102.9Z" fill="#2C267E"/>
<path d="M118.072 80.5547C118.072 80.5547 131.248 82.8766 125.179 98.5711C115.517 115.466 102.261 107.459 102.261 107.459C102.261 107.459 94.6744 103.856 95.3936 93.1254C95.3936 93.1254 97.3103 103.055 108.01 101.853C118.151 99.8515 113.6 85.8383 106.892 87.2798C101.222 87.7603 102.5 88.1603 102.5 88.1603C102.5 88.1603 113.201 89.0407 110.645 96.488C106.573 103.935 94.7538 96.6482 95.473 90.7229C91.321 102.814 100.743 108.739 102.979 109.7C105.774 111.622 126.217 113.544 128.772 92.3246C129.171 79.7529 119.749 79.5928 119.749 79.5928L118.072 80.5538V80.5547Z" fill="#2C267E"/>
<path d="M88.4189 85.4309C88.4189 85.4309 94.6103 94.2454 88.1076 104.52C81.6049 114.796 89.4513 123.964 89.4513 123.964C89.4513 123.964 79.0989 122.946 79.2757 105.972C80.7548 94.8046 84.3274 93.783 76.7355 83.4519C76.278 82.8157 75.7645 82.4845 75.6075 82.7895C75.2384 83.5044 75.6409 85.61 75.6409 85.61C75.6409 85.61 82.9305 89.7635 78.598 104.444C75.7519 119.418 84.442 125.088 92.2785 125.943C92.2785 125.943 83.8356 115.882 88.64 108.084C93.4453 100.286 93.7025 92.1805 91.451 86.495C90.4962 86.7701 88.418 85.43 88.418 85.43L88.4189 85.4309Z" fill="#2C267E"/>
<path d="M113.84 83.2791C113.84 83.2791 123.862 92.0873 113.76 102.857C126.111 92.5678 115.478 82.5986 115.478 82.5986L113.841 83.2791H113.84Z" fill="#2C267E"/>
<path d="M87.4082 77.9968C87.4082 77.9968 91.321 82.7212 100.744 80.2391C110.167 77.757 112.243 75.3545 112.243 75.3545C112.243 75.3545 106.893 80.8526 96.1922 81.7602C91.1613 82.2407 87.4082 77.9968 87.4082 77.9968Z" fill="#2C267E"/>
<path d="M99.0889 82.6396C100.738 84.8729 98.3128 85.0439 97.5674 85.0458C96.8221 85.0439 94.3955 84.8729 96.046 82.6396C96.046 82.6396 94.1645 83.2269 94.4695 84.4549C94.7745 85.6828 96.2499 86.0565 97.2669 86.1633C97.3879 86.176 97.4871 86.1687 97.5683 86.1479C97.6496 86.1687 97.7479 86.176 97.8697 86.1633C98.8868 86.0565 100.362 85.6828 100.667 84.4549C100.972 83.2269 99.0907 82.6396 99.0907 82.6396H99.0889Z" fill="#2C267E"/>
<path d="M109.457 79.2088C111.813 80.672 109.621 81.7308 108.93 82.0086C108.236 82.2828 105.918 83.023 106.628 80.3363C106.628 80.3363 105.096 81.5797 105.832 82.6067C106.569 83.6347 108.077 83.4347 109.061 83.1569C109.179 83.1234 109.267 83.0809 109.336 83.0311C109.419 83.0202 109.513 82.9904 109.621 82.9343C110.527 82.4583 111.759 81.5643 111.591 80.3101C111.422 79.0559 109.457 79.2079 109.457 79.2079V79.2088Z" fill="#2C267E"/>
<path d="M121.415 87.899C123.498 86.0656 123.868 88.4763 123.931 89.221C123.991 89.9657 124.021 92.4053 121.665 90.9403C121.665 90.9403 122.404 92.7727 123.599 92.3664C124.794 91.9601 125.044 90.4553 125.067 89.43C125.069 89.3079 125.054 89.2101 125.026 89.1305C125.04 89.0473 125.04 88.9486 125.017 88.8283C124.827 87.8202 124.334 86.3778 123.089 86.1742C121.843 85.9706 121.415 87.8999 121.415 87.8999V87.899Z" fill="#2C267E"/>
<path d="M108.806 62.7462C110.455 60.6115 111.253 62.8412 111.451 63.5397C111.645 64.2392 112.124 66.5594 109.607 65.6002C109.607 65.6002 110.651 67.21 111.716 66.601C112.78 65.992 112.741 64.5107 112.573 63.528C112.553 63.4112 112.52 63.3208 112.479 63.2493C112.477 63.1678 112.458 63.0728 112.414 62.9624C112.047 62.0367 111.31 60.7518 110.085 60.7889C108.859 60.826 108.807 62.7452 108.807 62.7452L108.806 62.7462Z" fill="#2C267E"/>
<path d="M105.6 54.6731C107.133 52.6878 107.875 54.7618 108.06 55.4115C108.24 56.0622 108.686 58.2203 106.345 57.3281C106.345 57.3281 107.315 58.8257 108.305 58.2592C109.295 57.6928 109.259 56.3146 109.102 55.4016C109.083 55.293 109.053 55.2088 109.014 55.1428C109.013 55.0668 108.995 54.979 108.954 54.8767C108.612 54.0153 107.927 52.8208 106.787 52.8552C105.648 52.8896 105.599 54.675 105.599 54.675L105.6 54.6731Z" fill="#2C267E"/>
<path d="M121.094 97.239C123.585 97.1513 122.475 99.0407 122.097 99.5954C121.715 100.148 120.352 101.864 119.543 99.4995C119.543 99.4995 119.018 101.197 120.081 101.596C121.144 101.995 122.171 101.089 122.768 100.388C122.839 100.305 122.884 100.228 122.91 100.156C122.967 100.107 123.022 100.037 123.075 99.9401C123.514 99.1303 123.99 97.8435 123.238 96.9911C122.486 96.1387 121.094 97.2372 121.094 97.2372V97.239Z" fill="#2C267E"/>
<path d="M114.276 104.059C116.23 105.358 114.35 106.196 113.758 106.413C113.164 106.627 111.185 107.193 111.854 104.939C111.854 104.939 110.526 105.951 111.123 106.84C111.718 107.728 113 107.599 113.839 107.39C113.939 107.364 114.015 107.331 114.074 107.29C114.145 107.283 114.225 107.26 114.318 107.215C115.097 106.836 116.162 106.112 116.051 105.047C115.941 103.982 114.276 104.059 114.276 104.059Z" fill="#2C267E"/>
<path d="M119.336 75.0088C121.397 76.2892 119.48 77.2149 118.875 77.4584C118.269 77.6981 116.241 78.3461 116.862 75.996C116.862 75.996 115.522 77.0837 116.165 77.9823C116.809 78.8817 118.129 78.7071 118.99 78.4637C119.092 78.4347 119.17 78.3967 119.23 78.3533C119.303 78.3442 119.385 78.318 119.48 78.2682C120.272 77.852 121.35 77.0692 121.202 75.9725C121.054 74.8758 119.335 75.0079 119.335 75.0079L119.336 75.0088Z" fill="#2C267E"/>
<path d="M69.8014 62.9401C70.2273 64.5418 69.0028 66.4638 69.0028 66.4638C71.7181 64.6486 72.8362 60.7521 72.4103 58.5098C71.9843 56.2675 72.5167 55.7336 72.5167 55.7336C72.5167 55.7336 71.4122 56.4141 71.4916 57.7352C71.571 59.0563 71.1722 59.1767 71.1722 59.1767C71.1722 59.1767 69.4152 60.3775 66.2216 56.7344C63.0271 53.0913 60.9515 51.3693 59.274 50.4888C57.5973 49.6084 56.4052 50.9693 55.9657 52.9709C55.9657 52.9709 55.8006 54.0251 55.8538 54.559C56.4657 53.7582 56.3863 53.5446 57.3979 52.7438C57.3979 52.7438 57.9564 52.2235 58.1965 52.3701C58.4356 52.5167 58.6224 52.7701 58.6224 52.7701C58.6224 52.7701 57.5846 55.2522 57.6641 57.7614C57.5846 59.8165 58.9951 60.7241 58.9951 60.7241C58.9951 60.7241 63.3068 63.9808 69.8023 62.9392L69.8014 62.9401Z" fill="#2C267E"/>
<path d="M56.1598 52.3113C56.1598 52.3113 54.2431 49.8291 56.1995 46.8466C58.1559 43.8641 62.3079 45.1454 64.165 47.2267C64.045 42.2416 55.9405 39.5396 52.6061 40.3803C45.8182 27.3878 53.4047 11.1333 75.7636 2.72592C75.7636 1.04464 75.7636 0.84375 75.7636 0.84375C75.7636 0.84375 36.7951 15.2967 50.5297 41.7213C53.8839 47.4864 54.5228 54.0794 54.5228 54.8802C53.8307 55.5743 46.2712 60.4318 51.914 70.3611C63.6795 63.1546 67.9912 80.5574 67.9912 80.5574C67.9912 80.5574 67.0861 62.3537 53.0853 68.0129C50.5297 62.5148 53.032 55.5752 58.0359 57.3361C58.941 56.8022 58.1956 56.1616 58.1956 56.1616C58.1956 56.1616 55.1608 55.5743 56.5451 52.9049C57.6632 51.4634 56.1589 52.3113 56.1589 52.3113H56.1598Z" fill="#2C267E"/>
<path d="M21.1438 86.428C21.0373 71.8014 35.9432 83.4383 39.7766 85.3603C42.3322 85.3603 55.6409 95.8235 65.756 83.118C54.4696 92.9406 40.522 83.0112 31.0459 78.6342C21.5697 74.2573 19.4869 83.3279 19.4869 83.3279C8.18162 68.846 21.8368 59.2035 44.2977 72.3516C44.3536 72.3823 44.4105 72.4122 44.4664 72.443C58.9834 79.5246 62.6454 70.2133 62.6454 70.2133C62.6454 70.2133 62.9874 67.6371 61.3901 68.9184C55.6409 76.7122 42.9702 69.8794 42.9702 69.8794C42.9702 69.8794 29.2889 61.5517 19.8127 64.5414C10.3366 67.5312 12.8922 81.1969 21.1438 86.428Z" fill="#2C267E"/>
<path d="M48.6129 72.658C48.6129 72.658 45.8443 68.0675 50.2101 60.5931C55.7464 50.9307 42.491 35.2896 32.3227 46.6071C43.8752 43.4038 42.2247 55.2018 41.3729 56.2161C39.2432 60.5931 36.2093 62.9422 36.6353 67.5336L34.2926 66.5726C34.2926 66.5726 33.2278 62.7286 39.0835 55.7356C43.129 49.2231 33.8667 45.1122 29.9268 49.757C28.3828 49.4367 34.3982 36.1447 47.2286 43.0844C54.8945 48.102 52.7116 58.4585 52.7116 58.4585L50.6352 62.7286C50.6352 62.7286 48.2393 69.4013 50.9546 73.0851C49.6236 73.2453 48.612 72.658 48.612 72.658H48.6129Z" fill="#2C267E"/>
<path d="M33.4409 80.5547C33.4409 80.5547 20.2649 82.8766 26.3335 98.5711C35.9956 115.466 49.2519 107.459 49.2519 107.459C49.2519 107.459 56.8384 103.856 56.1192 93.1254C56.1192 93.1254 54.2025 103.055 43.5027 101.853C33.3615 99.8515 37.9132 85.8383 44.6208 87.2798C50.2906 87.7603 49.0128 88.1603 49.0128 88.1603C49.0128 88.1603 38.3121 89.0407 40.8677 96.488C44.9402 103.935 56.759 96.6482 56.0398 90.7229C60.1918 102.814 50.7698 108.739 48.5336 109.7C45.7389 111.622 25.2958 113.544 22.7411 92.3246C22.3422 79.7529 31.7642 79.5928 31.7642 79.5928L33.4409 80.5538V80.5547Z" fill="#2C267E"/>
<path d="M63.0938 85.4309C63.0938 85.4309 56.9024 94.2454 63.4051 104.52C69.9079 114.796 62.0615 123.964 62.0615 123.964C62.0615 123.964 72.4138 122.946 72.237 105.972C70.7579 94.8046 67.1853 93.783 74.7772 83.4519C75.2348 82.8157 75.7482 82.4845 75.9053 82.7895C76.2743 83.5044 75.8719 85.61 75.8719 85.61C75.8719 85.61 68.5822 89.7635 72.9147 104.444C75.7609 119.418 67.0707 125.088 59.2342 125.943C59.2342 125.943 67.6771 115.882 62.8727 108.084C58.0674 100.286 57.8102 92.1805 60.0617 86.495C61.0165 86.7701 63.0947 85.43 63.0947 85.43L63.0938 85.4309Z" fill="#2C267E"/>
<path d="M37.6732 83.2791C37.6732 83.2791 27.6511 92.0873 37.7526 102.857C25.4023 92.5678 36.0353 82.5986 36.0353 82.5986L37.6723 83.2791H37.6732Z" fill="#2C267E"/>
<path d="M64.1046 77.9968C64.1046 77.9968 60.1918 82.7212 50.7689 80.2391C41.346 77.757 39.2695 75.3545 39.2695 75.3545C39.2695 75.3545 44.6199 80.8526 55.3206 81.7602C60.3515 82.2407 64.1046 77.9968 64.1046 77.9968Z" fill="#2C267E"/>
<path d="M52.4238 82.6396C50.7742 84.8729 53.1998 85.0439 53.9452 85.0458C54.6906 85.0439 57.1172 84.8729 55.4667 82.6396C55.4667 82.6396 57.3482 83.2269 57.0432 84.4549C56.7382 85.6828 55.2627 86.0565 54.2457 86.1633C54.1248 86.176 54.0255 86.1687 53.9443 86.1479C53.8631 86.1687 53.7647 86.176 53.6429 86.1633C52.6259 86.0565 51.1505 85.6828 50.8455 84.4549C50.5404 83.2269 52.422 82.6396 52.422 82.6396H52.4238Z" fill="#2C267E"/>
<path d="M42.0561 79.2088C39.6999 80.672 41.8918 81.7308 42.5831 82.0086C43.2761 82.2828 45.5944 83.023 44.8842 80.3363C44.8842 80.3363 46.4165 81.5797 45.6801 82.6067C44.9438 83.6338 43.4359 83.4347 42.4513 83.1569C42.334 83.1234 42.2456 83.0809 42.177 83.0311C42.094 83.0202 41.9992 82.9904 41.8918 82.9343C40.9858 82.4583 39.7531 81.5643 39.9219 80.3101C40.0906 79.0559 42.0561 79.2079 42.0561 79.2079V79.2088Z" fill="#2C267E"/>
<path d="M30.0991 87.899C28.0155 86.0656 27.6455 88.4763 27.5823 89.221C27.5228 89.9657 27.493 92.4053 29.8482 90.9403C29.8482 90.9403 29.1092 92.7727 27.9144 92.3664C26.7196 91.9601 26.4696 90.4553 26.4471 89.43C26.4444 89.3079 26.4597 89.2101 26.4877 89.1305C26.4733 89.0473 26.4742 88.9486 26.4967 88.8283C26.6871 87.8202 27.1798 86.3778 28.4252 86.1742C29.6705 85.9706 30.0991 87.8999 30.0991 87.8999V87.899Z" fill="#2C267E"/>
<path d="M42.7069 62.7462C41.0582 60.6115 40.2604 62.8412 40.0619 63.5397C39.8679 64.2392 39.3887 66.5594 41.9055 65.6002C41.9055 65.6002 40.8623 67.21 39.7975 66.601C38.7327 65.992 38.7724 64.5107 38.9402 63.528C38.9601 63.4112 38.9926 63.3208 39.0341 63.2493C39.0359 63.1678 39.0548 63.0728 39.099 62.9624C39.4663 62.0367 40.2027 60.7518 41.4281 60.7889C42.6536 60.826 42.706 62.7452 42.706 62.7452L42.7069 62.7462Z" fill="#2C267E"/>
<path d="M45.9139 54.6731C44.3807 52.6878 43.6389 54.7618 43.4539 55.4115C43.2734 56.0622 42.8276 58.2203 45.1685 57.3281C45.1685 57.3281 44.1984 58.8257 43.2085 58.2592C42.2185 57.6928 42.2546 56.3146 42.4116 55.4016C42.4306 55.293 42.4604 55.2088 42.4992 55.1428C42.501 55.0668 42.519 54.979 42.5596 54.8767C42.9016 54.0153 43.5866 52.8208 44.7263 52.8552C45.866 52.8896 45.9148 54.675 45.9148 54.675L45.9139 54.6731Z" fill="#2C267E"/>
<path d="M30.4186 97.239C27.928 97.1513 29.0379 99.0407 29.416 99.5954C29.7978 100.148 31.1604 101.864 31.9698 99.4995C31.9698 99.4995 32.495 101.197 31.432 101.596C30.369 101.995 29.342 101.089 28.7447 100.388C28.6734 100.305 28.6282 100.228 28.603 100.156C28.5461 100.107 28.4902 100.037 28.4378 99.9401C27.9984 99.1303 27.5228 97.8435 28.2745 96.9911C29.0262 96.1387 30.4186 97.2372 30.4186 97.2372V97.239Z" fill="#2C267E"/>
<path d="M37.238 104.059C35.2834 105.358 37.164 106.196 37.756 106.413C38.3498 106.627 40.3288 107.193 39.6592 104.939C39.6592 104.939 40.9875 105.951 40.391 106.84C39.7955 107.728 38.514 107.599 37.6748 107.39C37.5746 107.364 37.4988 107.331 37.4393 107.29C37.3689 107.283 37.2886 107.26 37.1956 107.215C36.4169 106.836 35.3511 106.112 35.4621 105.047C35.5722 103.982 37.238 104.059 37.238 104.059Z" fill="#2C267E"/>
<path d="M32.1766 75.0088C30.1155 76.2892 32.0322 77.2149 32.6377 77.4584C33.2441 77.6981 35.2718 78.3461 34.6509 75.996C34.6509 75.996 35.991 77.0837 35.3476 77.9823C34.7033 78.8817 33.384 78.7071 32.5231 78.4637C32.4202 78.4347 32.3426 78.3967 32.283 78.3533C32.2099 78.3442 32.1278 78.318 32.0331 78.2682C31.2408 77.852 30.1624 77.0692 30.3104 75.9725C30.4584 74.8758 32.1775 75.0079 32.1775 75.0079L32.1766 75.0088Z" fill="#2C267E"/>
<path d="M82.1111 60.7486C82.1111 60.7486 85.1991 59.0673 87.1682 56.8512C89.1381 54.636 91.3201 53.3809 91.5602 53.3547C91.7993 53.3284 92.1991 55.9436 92.0926 57.1715C91.9861 58.3995 90.3356 61.1757 86.1836 61.8426C82.8032 61.9493 82.1111 60.7486 82.1111 60.7486Z" fill="white"/>
<path d="M69.4015 60.7486C69.4015 60.7486 66.3135 59.0673 64.3444 56.8512C62.3745 54.636 60.1925 53.3809 59.9524 53.3547C59.7133 53.3284 59.3135 55.9436 59.42 57.1715C59.5265 58.3995 61.177 61.1757 65.329 61.8426C68.7094 61.9493 69.4015 60.7486 69.4015 60.7486Z" fill="white"/>
</svg>
