<svg width="24" height="25" viewBox="0 0 24 25" fill="none" xmlns="http://www.w3.org/2000/svg">
<path d="M19 3.52148C19.5304 3.52148 20.0391 3.7322 20.4142 4.10727C20.7893 4.48234 21 4.99105 21 5.52148V19.5215C21 20.0519 20.7893 20.5606 20.4142 20.9357C20.0391 21.3108 19.5304 21.5215 19 21.5215H5C4.46957 21.5215 3.96086 21.3108 3.58579 20.9357C3.21071 20.5606 3 20.0519 3 19.5215V5.52148C3 4.99105 3.21071 4.48234 3.58579 4.10727C3.96086 3.7322 4.46957 3.52148 5 3.52148H19ZM18.5 19.0215V13.7215C18.5 12.8569 18.1565 12.0277 17.5452 11.4163C16.9338 10.8049 16.1046 10.4615 15.24 10.4615C14.39 10.4615 13.4 10.9815 12.92 11.7615V10.6515H10.13V19.0215H12.92V14.0915C12.92 13.3215 13.54 12.6915 14.31 12.6915C14.6813 12.6915 15.0374 12.839 15.2999 13.1015C15.5625 13.3641 15.71 13.7202 15.71 14.0915V19.0215H18.5ZM6.88 9.08148C7.32556 9.08148 7.75288 8.90449 8.06794 8.58942C8.383 8.27436 8.56 7.84705 8.56 7.40148C8.56 6.47148 7.81 5.71148 6.88 5.71148C6.43178 5.71148 6.00193 5.88954 5.68499 6.20647C5.36805 6.52341 5.19 6.95327 5.19 7.40148C5.19 8.33148 5.95 9.08148 6.88 9.08148ZM8.27 19.0215V10.6515H5.5V19.0215H8.27Z" fill="white"/>
</svg>
