<svg width="37" height="37" viewBox="0 0 37 37" fill="none" xmlns="http://www.w3.org/2000/svg">
<path d="M32.25 0.150391C33.3109 0.150391 34.3283 0.571818 35.0784 1.32196C35.8286 2.07211 36.25 3.08952 36.25 4.15039V32.1504C36.25 33.2113 35.8286 34.2287 35.0784 34.9788C34.3283 35.729 33.3109 36.1504 32.25 36.1504H4.25C3.18913 36.1504 2.17172 35.729 1.42157 34.9788C0.671427 34.2287 0.25 33.2113 0.25 32.1504V4.15039C0.25 3.08952 0.671427 2.07211 1.42157 1.32196C2.17172 0.571818 3.18913 0.150391 4.25 0.150391H32.25ZM31.25 31.1504V20.5504C31.25 18.8212 30.5631 17.1628 29.3403 15.9401C28.1176 14.7173 26.4592 14.0304 24.73 14.0304C23.03 14.0304 21.05 15.0704 20.09 16.6304V14.4104H14.51V31.1504H20.09V21.2904C20.09 19.7504 21.33 18.4904 22.87 18.4904C23.6126 18.4904 24.3248 18.7854 24.8499 19.3105C25.375 19.8356 25.67 20.5478 25.67 21.2904V31.1504H31.25ZM8.01 11.2704C8.90113 11.2704 9.75576 10.9164 10.3859 10.2863C11.016 9.65615 11.37 8.80152 11.37 7.91039C11.37 6.05039 9.87 4.53039 8.01 4.53039C7.11357 4.53039 6.25385 4.8865 5.61998 5.52037C4.98611 6.15424 4.63 7.01396 4.63 7.91039C4.63 9.77039 6.15 11.2704 8.01 11.2704ZM10.79 31.1504V14.4104H5.25V31.1504H10.79Z" fill="white"/>
</svg>
