<svg width="100" height="100" viewBox="0 0 100 100" fill="none" xmlns="http://www.w3.org/2000/svg">
<g filter="url(#filter0_d_235_1294)">
<path d="M57.8048 40.7867H41.4205C40.697 40.7867 40.1012 41.425 40.1012 42.191V58.4902C40.1012 59.2563 40.697 59.852 41.4205 59.852H57.8048C58.5282 59.852 59.1666 59.2563 59.1666 58.4902V42.191C59.1666 41.425 58.5282 40.7867 57.8048 40.7867ZM45.8463 57.1284H43.0376V48.0638H45.8463V57.1284ZM44.442 46.7871C43.5057 46.7871 42.7823 46.0637 42.7823 45.17C42.7823 44.2763 43.5057 43.5103 44.442 43.5103C45.3357 43.5103 46.0591 44.2763 46.0591 45.17C46.0591 46.0637 45.3357 46.7871 44.442 46.7871ZM56.443 57.1284H53.5917V52.7025C53.5917 51.6812 53.5917 50.3194 52.1447 50.3194C50.6553 50.3194 50.4425 51.4684 50.4425 52.66V57.1284H47.6337V48.0638H50.3148V49.298H50.3574C50.7404 48.5745 51.6766 47.8085 53.0384 47.8085C55.8897 47.8085 56.443 49.7236 56.443 52.1493V57.1284Z" fill="#0E76A8"/>
<path d="M57.8048 40.7867H41.4205C40.697 40.7867 40.1012 41.425 40.1012 42.191V58.4902C40.1012 59.2563 40.697 59.852 41.4205 59.852H57.8048C58.5282 59.852 59.1666 59.2563 59.1666 58.4902V42.191C59.1666 41.425 58.5282 40.7867 57.8048 40.7867ZM45.8463 57.1284H43.0376V48.0638H45.8463V57.1284ZM44.442 46.7871C43.5057 46.7871 42.7823 46.0637 42.7823 45.17C42.7823 44.2763 43.5057 43.5103 44.442 43.5103C45.3357 43.5103 46.0591 44.2763 46.0591 45.17C46.0591 46.0637 45.3357 46.7871 44.442 46.7871ZM56.443 57.1284H53.5917V52.7025C53.5917 51.6812 53.5917 50.3194 52.1447 50.3194C50.6553 50.3194 50.4425 51.4684 50.4425 52.66V57.1284H47.6337V48.0638H50.3148V49.298H50.3574C50.7404 48.5745 51.6766 47.8085 53.0384 47.8085C55.8897 47.8085 56.443 49.7236 56.443 52.1493V57.1284Z" fill="white"/>
</g>
<defs>
<filter id="filter0_d_235_1294" x="0.101196" y="0.787109" width="99.0654" height="99.0645" filterUnits="userSpaceOnUse" color-interpolation-filters="sRGB">
<feFlood flood-opacity="0" result="BackgroundImageFix"/>
<feColorMatrix in="SourceAlpha" type="matrix" values="0 0 0 0 0 0 0 0 0 0 0 0 0 0 0 0 0 0 127 0" result="hardAlpha"/>
<feOffset/>
<feGaussianBlur stdDeviation="20"/>
<feComposite in2="hardAlpha" operator="out"/>
<feColorMatrix type="matrix" values="0 0 0 0 1 0 0 0 0 1 0 0 0 0 1 0 0 0 0.5 0"/>
<feBlend mode="normal" in2="BackgroundImageFix" result="effect1_dropShadow_235_1294"/>
<feBlend mode="normal" in="SourceGraphic" in2="effect1_dropShadow_235_1294" result="shape"/>
</filter>
</defs>
</svg>
