<svg width="24" height="25" viewBox="0 0 24 25" fill="none" xmlns="http://www.w3.org/2000/svg">
<path d="M4 20.5215C3.45 20.5215 2.97933 20.3258 2.588 19.9345C2.196 19.5425 2 19.0715 2 18.5215V6.52148C2 5.97148 2.196 5.50082 2.588 5.10948C2.97933 4.71748 3.45 4.52148 4 4.52148H20C20.55 4.52148 21.021 4.71748 21.413 5.10948C21.8043 5.50082 22 5.97148 22 6.52148V18.5215C22 19.0715 21.8043 19.5425 21.413 19.9345C21.021 20.3258 20.55 20.5215 20 20.5215H4ZM12 13.5215L4 8.52148V18.5215H20V8.52148L12 13.5215ZM12 11.5215L20 6.52148H4L12 11.5215ZM4 8.52148V6.52148V18.5215V8.52148Z" fill="white"/>
</svg>
