<svg width="390" height="760" viewBox="0 0 390 760" fill="none" xmlns="http://www.w3.org/2000/svg">
<path d="M375.19 331.949C375.19 331.949 375.19 331.948 374.771 332.222L375.19 331.948L374.336 332.468L374.651 332.289C374.336 332.468 374.336 332.468 374.336 332.468L374.336 332.469L374.339 332.475L374.352 332.497C374.363 332.517 374.38 332.548 374.402 332.588C374.447 332.67 374.514 332.793 374.6 332.955C374.773 333.28 375.024 333.763 375.336 334.393C375.959 335.653 376.825 337.502 377.792 339.849C379.727 344.544 382.063 351.227 383.668 359.178C386.876 375.064 387.162 395.975 375.547 416.209C359.482 430.061 346.839 432.109 338.262 430.768C333.957 430.095 330.648 428.564 328.418 427.205C327.303 426.525 326.459 425.888 325.895 425.424C325.747 425.302 325.618 425.191 325.509 425.096C349.678 409.048 355.393 388.363 355.02 371.65C354.832 363.244 353.106 355.849 351.428 350.557C350.588 347.91 349.76 345.787 349.141 344.324C348.832 343.592 348.574 343.025 348.394 342.64C348.303 342.447 348.232 342.3 348.183 342.2C348.159 342.151 348.14 342.113 348.127 342.087L348.124 342.08L348.1 342.009C348.077 341.941 348.043 341.839 347.998 341.704C347.91 341.435 347.78 341.036 347.619 340.521C347.297 339.489 346.846 337.988 346.334 336.118C345.31 332.375 344.041 327.154 343.064 321.236C341.106 309.385 340.334 294.842 344.937 283.794C355.163 264.398 366.592 253.501 377.982 248.318C389.37 243.137 400.781 243.638 411.032 247.16C421.291 250.684 430.377 257.231 437.069 264.111C440.413 267.55 443.152 271.065 445.136 274.316C447.125 277.574 448.336 280.536 448.664 282.872L448.665 282.882L448.667 282.892C449.116 285.362 449.301 288.219 449.005 290.186C448.853 291.193 448.591 291.848 448.282 292.147C448.147 292.278 448.011 292.333 447.855 292.333C447.716 292.333 447.524 292.288 447.273 292.152C445.231 281.623 435.992 273.312 426.113 270.446C421.128 269 415.937 268.926 411.385 270.686C406.821 272.45 402.941 276.041 400.574 281.835L400.566 281.854L400.56 281.874C396.085 296.073 396.337 311.34 401.278 325.383L401.387 325.691L401.713 325.716C403.969 325.885 406.237 325.613 408.39 324.915L408.39 324.915L408.399 324.912C408.937 324.726 409.526 324.76 410.039 325.007C410.543 325.249 410.934 325.679 411.128 326.204C412.754 333.089 415.417 339.687 419.025 345.772L419.034 345.786L419.043 345.799C419.335 346.227 419.324 346.723 419.071 347.243C418.812 347.774 418.321 348.272 417.778 348.586L417.769 348.591L417.76 348.597C416.46 349.424 415.225 350.35 414.067 351.367L413.736 351.658L413.982 352.022C414.497 352.784 415.028 353.564 415.569 354.359C418.66 358.895 422.081 363.915 424.521 368.788C425.953 371.649 427.034 374.433 427.512 377.015C427.984 379.56 427.865 381.877 426.953 383.875C424.988 385.77 422.773 387.607 420.608 389.327C415.388 392.069 410.692 395.707 406.732 400.075C402.294 403.328 398.074 406.257 394.069 408.91C398.353 391.701 393.77 372.695 388.078 357.919C385.159 350.338 381.938 343.849 379.448 339.255C378.203 336.958 377.14 335.133 376.387 333.882C376.011 333.257 375.712 332.774 375.507 332.448C375.405 332.285 375.326 332.16 375.272 332.077L375.211 331.982L375.195 331.957L375.191 331.951L375.19 331.949Z" stroke="#031023"/>
<path d="M478.409 564.313L478.458 564.319L478.506 564.315C478.851 564.291 479.197 564.342 479.521 564.463C479.845 564.584 480.139 564.773 480.383 565.018C480.628 565.262 480.817 565.556 480.938 565.88C481.06 566.204 481.11 566.55 481.086 566.895L481.081 566.971L481.098 567.046C482.875 574.492 482.498 582.291 480.009 589.531L479.998 589.565L479.991 589.601C479.874 590.227 479.556 590.798 479.086 591.228C478.617 591.658 478.02 591.923 477.386 591.984L477.372 591.986L477.359 591.988C474.539 592.417 471.758 593.074 469.044 593.952L468.792 594.034L468.717 594.288C465.017 607.009 458.393 618.689 449.375 628.395L449.22 628.562L449.244 628.789C449.566 631.814 450.491 634.745 451.963 637.409L451.973 637.426L451.984 637.443C452.335 637.972 452.465 638.618 452.344 639.242C452.223 639.865 451.862 640.416 451.339 640.776L451.281 640.815L451.236 640.869C446.316 646.83 439.807 651.273 432.464 653.683L432.442 653.69L432.422 653.699C431.841 653.95 431.197 654.014 430.578 653.885C429.959 653.755 429.396 653.437 428.965 652.974L428.959 652.969L428.954 652.964C427.187 651.177 425.28 649.533 423.252 648.048L423.014 647.874L422.747 647.997C411.835 653.036 399.955 655.632 387.936 655.604H387.935H387.092H386.772L386.638 655.894C385.856 657.585 385.298 659.371 384.978 661.207L384.975 661.224L384.973 661.24C384.94 661.559 384.844 661.867 384.69 662.148C384.537 662.429 384.329 662.677 384.079 662.877L384.391 663.267L384.079 662.877C383.829 663.077 383.542 663.225 383.234 663.313C382.926 663.401 382.604 663.427 382.286 663.39L382.212 663.381L382.138 663.395C374.597 664.771 366.82 663.971 359.717 661.089L359.685 661.076L359.651 661.067C359.039 660.913 358.492 660.565 358.093 660.076C357.694 659.587 357.463 658.982 357.434 658.351L357.434 658.343L357.433 658.334C357.187 655.292 356.637 652.283 355.794 649.351L355.728 649.122L355.509 649.029C343.453 643.902 332.759 636.034 324.276 626.051C315.798 616.074 309.761 604.258 306.645 591.542C304.434 576.958 306.44 562.046 312.427 548.566C313.001 547.772 313.731 547.103 314.573 546.599C315.429 546.088 316.382 545.759 317.371 545.634L317.385 545.633L317.398 545.63C318.591 545.413 319.187 545.594 319.479 545.826C319.762 546.05 319.892 546.431 319.881 546.96C319.871 547.484 319.721 548.056 319.563 548.514C319.485 548.739 319.408 548.929 319.351 549.062C319.322 549.128 319.299 549.18 319.283 549.214C319.275 549.231 319.269 549.244 319.265 549.252L319.261 549.261L319.26 549.262L319.26 549.262L319.26 549.262L319.26 549.263L319.238 549.307L319.225 549.355C319.147 549.647 319.052 549.918 318.948 550.212C318.883 550.398 318.815 550.592 318.746 550.806C318.584 551.309 318.44 551.864 318.431 552.468C311.576 579.965 331.408 602.156 355.525 610.353C367.608 614.459 380.828 615.084 392.419 611.1C404.023 607.111 413.965 598.509 419.467 584.231L419.472 584.219L419.476 584.206C423.292 572.529 423.316 563.628 421.077 556.846C418.837 550.059 414.35 545.457 409.266 542.345C399.129 536.14 386.557 535.818 384.368 535.818V535.818L384.354 535.818C383.816 535.833 383.293 535.64 382.893 535.28C382.533 534.955 382.299 534.517 382.226 534.041C385.411 529.165 389.168 524.687 393.416 520.702C402.223 522.114 415.118 525.562 426.348 533.875C437.663 542.251 447.312 555.582 449.373 576.836L450.371 576.785C450.241 549.957 443.785 533.516 435.196 523.532C427.094 514.114 417.144 510.5 408.976 509.295C416.397 505.063 424.338 501.814 432.601 499.631C443.24 506.419 452.221 515.508 458.881 526.23C465.579 537.014 469.756 549.171 471.1 561.794L471.129 562.067L471.375 562.189C473.584 563.287 475.962 564.005 478.409 564.313Z" stroke="#031023"/>
<path d="M492.256 523.687C492.261 523.676 492.265 523.666 492.27 523.656C492.359 523.611 492.486 523.549 492.645 523.469C492.989 523.296 493.487 523.041 494.107 522.71C495.342 522.052 497.063 521.094 499.011 519.894C503.393 517.721 507.293 514.691 510.48 510.982C512.978 508.63 514.862 505.702 515.966 502.453C519.319 495.04 520.055 486.707 518.053 478.82C516.049 470.925 511.421 463.947 504.927 459.029C498.434 454.111 490.462 451.547 482.32 451.757C474.194 451.967 466.38 454.927 460.155 460.154L458.901 460.843L458.847 460.873L458.801 460.916L458.801 460.916L458.8 460.917L458.794 460.923L458.77 460.945C458.749 460.964 458.716 460.994 458.673 461.034C458.586 461.112 458.456 461.23 458.284 461.383C457.94 461.69 457.426 462.139 456.753 462.707C455.405 463.845 453.419 465.46 450.866 467.366L450.576 467.583L450.691 467.927C451.063 469.03 451.53 470.098 452.088 471.12L452.096 471.133L452.104 471.146C452.445 471.688 452.558 472.343 452.417 472.968C452.279 473.58 451.908 474.113 451.385 474.457C444.262 477.457 437.662 481.574 431.834 486.652L431.816 486.668L431.799 486.685C431.416 487.092 430.887 487.178 430.27 486.995C429.642 486.809 428.991 486.353 428.524 485.799L428.514 485.786L428.502 485.774L426.751 483.958L426.474 483.67L426.132 483.877C415.537 490.294 404.505 495.961 393.118 500.837L392.76 500.991L392.821 501.376C392.913 501.949 393.076 502.509 393.306 503.042C393.536 503.642 393.525 504.308 393.274 504.9C393.022 505.495 392.548 505.968 391.953 506.219L391.888 506.246L391.834 506.291C385.884 511.096 378.682 514.097 371.08 514.938L371.053 514.941L371.027 514.947C370.405 515.085 369.757 515.03 369.167 514.791C368.579 514.551 368.077 514.138 367.729 513.607C367.061 512.559 366.337 511.549 365.558 510.582L365.357 510.333L365.047 510.41C355.759 512.73 346.25 514.052 336.682 514.352L336.473 514.358L336.331 514.511C334.435 516.555 332.948 518.944 331.95 521.547L331.944 521.563L331.939 521.58C331.752 522.193 331.331 522.706 330.767 523.008C330.203 523.31 329.542 523.377 328.929 523.193L328.862 523.172L328.791 523.172C321.159 523.078 313.704 520.859 307.262 516.764L307.236 516.748L307.209 516.735C306.631 516.459 306.153 516.011 305.843 515.451C305.533 514.891 305.406 514.248 305.48 513.612L305.481 513.601L305.482 513.589C305.588 512.076 305.588 510.557 305.482 509.044L305.46 508.73L305.167 508.614C280.844 499.023 269.603 483.545 264.805 468.46C275.046 474.864 293.596 483.993 317.812 485.412C342.972 486.887 374.205 480.036 408.539 453.245L407.957 452.433C366.815 479.538 334.17 481.052 309.918 473.37C285.763 465.72 269.845 448.92 262.111 438.95C262.518 434.475 263.339 430.047 264.564 425.723C281.482 442.503 306.84 447.07 331.521 444.869C356.501 442.641 380.912 433.47 395.427 422.837C409.787 412.317 430.198 403.887 450.796 401.732C471.388 399.577 492.1 403.698 507.168 418.18C522.603 434.685 530.503 449.511 533.512 462.478C536.521 475.441 534.65 486.579 530.489 495.731C526.325 504.891 519.861 512.074 513.675 517.097C510.583 519.608 507.566 521.574 504.949 522.975C502.324 524.381 500.131 525.202 498.684 525.448L498.667 525.451L498.65 525.456C496.275 526.033 494.715 526.143 493.708 526.015C492.712 525.888 492.329 525.539 492.171 525.249C491.999 524.931 492.01 524.528 492.104 524.145C492.149 523.961 492.208 523.801 492.256 523.687Z" stroke="#031023"/>
<path d="M72.7847 545.308L72.7747 545.306C71.583 545.089 70.9804 545.269 70.6809 545.503C70.3905 545.731 70.2557 546.115 70.2592 546.643C70.2628 547.167 70.4048 547.737 70.5569 548.195C70.6318 548.42 70.7064 548.61 70.7619 548.742C70.7897 548.809 70.8125 548.86 70.828 548.895C70.8358 548.912 70.8417 548.924 70.8455 548.933L70.8496 548.941L70.8502 548.942L72.7847 545.308ZM72.7847 545.308L72.7947 545.309M72.7847 545.308L72.7947 545.309M72.7947 545.309C73.8057 545.451 74.7736 545.812 75.631 546.366C76.4785 546.914 77.1978 547.638 77.7402 548.488L72.7947 545.309Z" stroke="#031023"/>
<path d="M-129.073 487.873C-129.077 493 -127.958 498.065 -125.796 502.714C-124.715 505.959 -122.852 508.888 -120.372 511.243C-117.161 514.859 -113.262 517.8 -108.904 519.895C-106.701 521.262 -104.431 522.516 -102.102 523.654C-102.099 523.663 -102.095 523.672 -102.091 523.682C-102.045 523.796 -101.988 523.955 -101.945 524.138C-101.858 524.52 -101.851 524.923 -102.03 525.244C-102.195 525.538 -102.59 525.888 -103.593 526.015C-104.605 526.144 -106.17 526.033 -108.545 525.456L-108.562 525.452L-108.58 525.449C-110.043 525.202 -112.25 524.381 -114.888 522.975C-117.516 521.574 -120.543 519.607 -123.644 517.097C-129.847 512.074 -136.321 504.891 -140.489 495.731C-144.654 486.579 -146.523 475.441 -143.508 462.478C-140.491 449.511 -132.579 434.686 -117.127 418.181C-102.092 403.698 -81.3964 399.561 -60.8119 401.708C-40.222 403.855 -19.8119 412.285 -5.45166 422.837C9.06363 433.503 33.4912 442.674 58.4872 444.893C83.1812 447.086 108.552 442.504 125.47 425.73C126.657 430.058 127.458 434.483 127.864 438.953C120.166 449.047 104.247 465.849 80.0829 473.468C55.8229 481.117 23.1615 479.538 -17.9811 452.433L-18.5635 453.245C15.7707 480.004 47.0028 486.903 72.1632 485.461C96.379 484.073 114.929 474.961 125.173 468.469C120.433 483.553 109.203 499.047 85.3796 509.203L85.0983 509.323L85.0769 509.628C84.9707 511.141 84.9707 512.66 85.0769 514.173L85.0781 514.19L85.0804 514.206C85.1671 514.835 85.0524 515.475 84.7527 516.034C84.4531 516.594 83.9839 517.044 83.4125 517.32L83.3866 517.332L83.3622 517.348C76.8992 521.448 69.4217 523.667 61.7683 523.755L61.7033 523.756L61.6406 523.774C61.0251 523.944 60.3675 523.871 59.8045 523.57C59.2415 523.268 58.8163 522.761 58.6174 522.154L58.6138 522.143L58.6096 522.132C57.6236 519.539 56.1609 517.154 54.2971 515.099L54.1561 514.944L53.9465 514.936C44.2578 514.553 34.6389 513.123 25.2579 510.671L24.9329 510.586L24.7314 510.855L24.7235 510.865C23.951 511.895 23.1641 512.945 22.5706 513.868L22.5671 513.873C22.2357 514.404 21.7468 514.818 21.1686 515.057C20.5905 515.296 19.9521 515.349 19.3426 515.208L19.3143 515.201L19.2853 515.198C11.6663 514.344 4.44614 511.345 -1.53523 506.549L-1.58974 506.505L-1.65413 506.478C-1.9472 506.355 -2.21307 506.175 -2.43655 505.949C-2.66006 505.723 -2.83676 505.455 -2.95656 505.16C-3.07635 504.866 -3.13692 504.551 -3.13477 504.233C-3.1326 503.915 -3.06776 503.6 -2.94397 503.308L-2.93761 503.293L-2.93225 503.277C-2.74907 502.75 -2.59279 502.214 -2.46404 501.672L-2.3669 501.262L-2.75371 501.097C-14.1405 496.221 -25.172 490.554 -35.7672 484.137L-36.0844 483.945L-36.3603 484.193C-37.0034 484.77 -37.6153 485.381 -38.1936 486.024C-38.6906 486.455 -39.3383 486.916 -39.9715 487.142C-40.6052 487.367 -41.1168 487.328 -41.5096 486.935L-41.5218 486.923L-41.5347 486.911C-47.3646 481.833 -53.966 477.716 -61.0908 474.714C-61.3508 474.553 -61.5768 474.342 -61.7562 474.094C-61.9422 473.836 -62.0742 473.544 -62.1441 473.234C-62.2141 472.924 -62.2206 472.603 -62.1633 472.291C-62.106 471.978 -61.986 471.681 -61.8106 471.416L-61.798 471.397L-61.7872 471.377C-61.237 470.356 -60.7897 469.282 -60.452 468.172L-60.3523 467.845L-60.6216 467.633C-63.1798 465.626 -65.1708 464.007 -66.5217 462.891C-67.1971 462.333 -67.7125 461.9 -68.0587 461.607C-68.2318 461.461 -68.3626 461.35 -68.4499 461.275L-68.5483 461.191L-68.5727 461.17L-68.5788 461.164L-68.5802 461.163L-68.5805 461.163L-68.5806 461.163L-68.6204 461.128L-68.6665 461.103L-69.9192 460.414C-75.1388 455.982 -81.5172 453.134 -88.3025 452.207C-95.1047 451.278 -102.031 452.318 -108.26 455.204C-114.489 458.09 -119.76 462.702 -123.449 468.492C-127.138 474.282 -129.09 481.007 -129.073 487.873ZM-129.073 487.873C-129.073 487.872 -129.073 487.872 -129.073 487.872L-128.573 487.872M-129.073 487.873C-129.073 487.873 -129.073 487.873 -129.073 487.873L-128.573 487.872M-128.573 487.872C-128.577 492.936 -127.47 497.939 -125.331 502.529M-128.573 487.872L-125.331 502.529M-125.331 502.529C-124.274 505.713 -122.447 508.587 -120.013 510.895C-116.836 514.475 -112.978 517.385 -108.663 519.456L-125.331 502.529Z" stroke="#031023"/>
<mask id="path-6-inside-1_217_7835" fill="white">
<path d="M251.993 458.363C251.993 458.363 258.479 449.413 250.696 448.634C243.303 449.867 231.759 465.043 231.759 465.043C233.816 450.869 239.149 437.37 247.333 425.617C255.517 413.864 266.328 404.181 278.908 397.335C309.714 385.272 312.567 413.613 312.567 413.613C312.567 413.613 312.567 419.255 315.875 420.098C329.235 399.54 321.777 358.617 321.777 358.617C321.777 358.617 320.48 345.646 313.8 346.683C284.291 347.721 274.044 375.154 261.916 386.958C249.788 398.761 230.916 393.443 230.397 388.774C230.318 383.891 230.643 379.01 231.37 374.182C234.62 377.612 238.901 379.889 243.562 380.667H245.119C252.383 380.667 258.09 374.182 263.927 367.696C268.812 361.139 275.021 355.681 282.151 351.677L283.188 351.223L283.902 350.25C291.749 339.29 286.366 315.099 285.718 312.375C285.589 311.809 285.348 311.275 285.008 310.803C284.669 310.332 284.239 309.933 283.743 309.631C283.248 309.329 282.696 309.129 282.122 309.043C281.548 308.958 280.962 308.988 280.4 309.133C279.262 309.41 278.279 310.122 277.661 311.117C277.042 312.111 276.838 313.308 277.092 314.451C279.103 322.817 280.724 337.798 277.092 344.219C269.314 348.691 262.484 354.639 256.987 361.73C252.253 367.242 247.843 372.431 244.47 371.977C238.309 371.263 233.315 359.46 231.499 356.022V352.131C231.499 352.131 243.044 357.319 259.192 328.459C259.192 328.459 275.925 297.913 289.025 300.183C302.126 302.453 303.228 323.271 292.852 342.144C294.019 351.353 310.946 320.223 310.946 320.223C310.946 320.223 325.538 291.687 325.538 290.39C326.252 287.731 329.624 283.904 321.258 276.641C312.892 269.377 298.818 259.584 267.169 269.636C272.852 260.805 280.757 253.621 290.09 248.807C299.424 243.992 309.859 241.715 320.35 242.203C327.16 242.203 335.915 247.91 333.321 262.762C334.294 274.306 344.865 260.038 346.811 255.628C348.756 251.218 393.635 184.807 300.959 85.7742C315.81 114.959 311.53 146.932 291.23 157.568C270.931 168.204 241.747 153.028 226.376 123.714C211.006 94.3998 215.286 61.843 235.78 51.2069C239.943 49.1744 244.476 48.0113 249.104 47.7883C253.731 47.5653 258.355 48.2871 262.694 49.9098C241.193 32.1098 218.602 15.6697 195.051 0.685303C77.7298 75.6569 40.8277 139.798 32.9155 185.001C34.9052 181.593 37.7422 178.757 41.1512 176.768C44.5603 174.78 48.4255 173.706 52.3718 173.652C55.618 173.81 58.8012 174.606 61.7391 175.996C64.6769 177.386 67.3117 179.342 69.4926 181.752C71.6734 184.162 73.3574 186.978 74.4482 190.04C75.5389 193.101 76.0149 196.348 75.849 199.594C76.1667 206.145 73.8736 212.554 69.4726 217.417C65.0717 222.28 58.9219 225.2 52.3718 225.535C47.7177 225.416 43.2042 223.916 39.405 221.225C35.6057 218.534 32.6922 214.775 31.0347 210.424C31.686 226.273 35.8506 241.78 43.2273 255.822C45.1081 260.232 55.7442 274.5 56.6521 262.956C54.3822 248.105 63.1376 242.397 69.623 242.397C80.1227 241.911 90.5662 244.188 99.9099 249.002C109.254 253.816 117.17 260.999 122.868 269.831C91.2844 259.778 77.9892 270.35 68.7151 277.095C59.4409 283.839 63.7213 288.185 64.4995 290.844C64.4995 291.881 79.1566 320.288 79.1566 320.288C79.1566 320.288 96.0836 351.418 97.1861 342.208C86.8094 323.336 87.9768 302.582 101.077 300.248C114.178 297.913 130.91 328.524 130.91 328.524C147.059 357.384 158.603 352.196 158.603 352.196V356.087C156.852 359.525 152.118 371.328 145.632 372.041C142.26 372.495 137.785 367.307 133.051 361.794C127.601 354.648 120.79 348.653 113.011 344.154C109.508 337.669 111.195 322.752 113.011 314.386C113.312 313.225 113.139 311.992 112.531 310.958C111.923 309.924 110.929 309.174 109.768 308.873C108.607 308.572 107.374 308.745 106.34 309.353C105.306 309.961 104.556 310.955 104.255 312.116C103.607 314.84 98.2238 339.031 106.136 349.991L106.785 350.964L107.887 351.418C115.005 355.439 121.21 360.894 126.111 367.437C132.013 373.922 137.59 380.408 144.919 380.408H146.411C151.077 379.643 155.361 377.364 158.603 373.922C159.35 378.749 159.697 383.63 159.641 388.514C159.122 392.86 140.185 398.502 128.057 386.698C115.929 374.895 105.487 347.786 76.1733 346.424C69.6879 345.192 68.1962 358.357 68.1962 358.357C68.1962 358.357 60.8028 399.345 74.098 420.098C77.0813 419.58 77.4704 413.613 77.4704 413.613C77.4704 413.613 80.2591 385.142 111.065 397.205C123.66 404.039 134.486 413.719 142.683 425.473C150.879 437.227 156.219 450.732 158.279 464.913C158.279 464.913 146.735 449.737 139.277 448.505C131.818 449.283 137.98 458.233 137.98 458.233C137.98 458.233 141.871 465.95 133.634 485.147C125.398 504.344 67.9368 573.155 137.59 653.769C182.988 713.824 162.624 750.337 162.624 750.337C161.543 751.63 160.878 753.22 160.716 754.898C160.554 756.576 160.902 758.264 161.716 759.741C167.748 762.4 183.702 744.5 183.896 710.841C183.896 706.43 183.896 701.826 183.378 697.091C183.378 694.757 182.988 692.422 182.664 690.022C182.34 687.623 181.886 683.537 181.367 680.424C181.367 678.478 180.783 676.533 180.394 674.522C180.005 672.512 179.421 669.399 178.903 666.804V665.961C177.67 660.384 176.308 654.936 174.817 649.488C174.817 649.034 174.817 648.58 174.363 648.062C173.649 645.467 172.871 642.938 172.093 640.409C173.233 639.547 174.475 638.828 175.79 638.268C176.508 638.005 177.094 637.47 177.421 636.778C177.749 636.087 177.792 635.295 177.541 634.572C173.808 627.875 171.16 620.63 169.693 613.105C169.693 611.549 167.553 611.03 165.997 611.354C164.412 611.644 162.808 611.817 161.197 611.873L160.03 609.279C157.326 599.07 156.556 588.446 157.76 577.954C159.908 577.606 162.098 577.606 164.246 577.954C164.611 578.014 164.983 578.014 165.348 577.954C165.904 577.853 166.424 577.608 166.856 577.244C167.289 576.88 167.618 576.409 167.813 575.879C168.767 568.268 170.958 560.863 174.298 553.958C175.076 552.596 173.714 551.039 172.287 550.391C169.999 549.242 167.827 547.873 165.802 546.305C168.454 538.948 171.731 531.832 175.595 525.033C181.184 518.566 186.035 511.496 190.058 503.955C190.771 502.723 191.42 501.361 192.068 499.999L194.987 493.514C196.449 497.098 198.094 500.604 199.915 504.02C203.995 511.538 208.888 518.584 214.508 525.033C218.559 531.89 221.988 539.096 224.755 546.564C222.704 548.134 220.536 549.543 218.269 550.78C216.842 551.429 215.545 552.985 216.324 554.347C219.631 561.265 221.82 568.664 222.809 576.268C222.913 576.639 223.091 576.987 223.33 577.289C223.57 577.592 223.867 577.844 224.205 578.031C224.543 578.218 224.914 578.336 225.298 578.379C225.682 578.421 226.07 578.387 226.441 578.278C228.564 577.776 230.758 577.644 232.926 577.889C234.159 588.377 233.411 599.003 230.721 609.214C230.267 610.057 229.878 610.9 229.489 611.808C227.9 611.753 226.318 611.58 224.755 611.289C223.133 611.289 221.188 611.289 220.993 613.04C219.536 620.558 216.91 627.802 213.211 634.507C213.077 634.864 213.017 635.245 213.034 635.626C213.05 636.007 213.142 636.38 213.306 636.725C213.469 637.07 213.7 637.378 213.984 637.632C214.268 637.886 214.601 638.08 214.962 638.204C216.251 638.774 217.47 639.492 218.593 640.344C211.113 663.094 207.069 686.832 206.595 710.776C206.595 744.435 222.744 762.659 228.776 759.676C229.607 758.205 229.966 756.513 229.804 754.831C229.642 753.149 228.966 751.557 227.868 750.272C227.868 750.272 207.503 713.759 252.901 653.704C322.555 573.284 265.094 504.539 256.858 485.082C248.621 465.626 251.993 458.363 251.993 458.363ZM193.041 160.681C187.494 160.412 182.282 157.952 178.548 153.842C174.815 149.731 172.866 144.307 173.131 138.76C172.908 136.01 173.258 133.245 174.158 130.637C175.058 128.029 176.488 125.636 178.359 123.608C180.229 121.58 182.499 119.962 185.026 118.855C187.553 117.748 190.282 117.177 193.041 117.177C195.8 117.177 198.528 117.748 201.055 118.855C203.582 119.962 205.853 121.58 207.723 123.608C209.594 125.636 211.024 128.029 211.924 130.637C212.823 133.245 213.173 136.01 212.951 138.76C213.198 144.302 211.244 149.717 207.514 153.824C203.784 157.931 198.581 160.395 193.041 160.681ZM220.993 198.232C220.227 195.582 220.048 192.797 220.471 190.071C220.893 187.345 221.905 184.745 223.438 182.451C224.97 180.157 226.984 178.226 229.341 176.792C231.697 175.359 234.338 174.457 237.079 174.15C239.82 173.843 242.595 174.139 245.21 175.017C247.825 175.894 250.217 177.333 252.218 179.231C254.219 181.129 255.782 183.442 256.796 186.007C257.81 188.572 258.252 191.327 258.09 194.081C258.856 196.731 259.034 199.516 258.612 202.242C258.19 204.967 257.177 207.568 255.645 209.862C254.113 212.155 252.099 214.086 249.742 215.52C247.386 216.954 244.745 217.856 242.004 218.163C239.263 218.469 236.487 218.174 233.872 217.296C231.258 216.418 228.866 214.98 226.865 213.082C224.864 211.184 223.301 208.871 222.287 206.306C221.273 203.741 220.831 200.985 220.993 198.232Z"/>
</mask>
<path d="M251.993 458.363C251.993 458.363 258.479 449.413 250.696 448.634C243.303 449.867 231.759 465.043 231.759 465.043C233.816 450.869 239.149 437.37 247.333 425.617C255.517 413.864 266.328 404.181 278.908 397.335C309.714 385.272 312.567 413.613 312.567 413.613C312.567 413.613 312.567 419.255 315.875 420.098C329.235 399.54 321.777 358.617 321.777 358.617C321.777 358.617 320.48 345.646 313.8 346.683C284.291 347.721 274.044 375.154 261.916 386.958C249.788 398.761 230.916 393.443 230.397 388.774C230.318 383.891 230.643 379.01 231.37 374.182C234.62 377.612 238.901 379.889 243.562 380.667H245.119C252.383 380.667 258.09 374.182 263.927 367.696C268.812 361.139 275.021 355.681 282.151 351.677L283.188 351.223L283.902 350.25C291.749 339.29 286.366 315.099 285.718 312.375C285.589 311.809 285.348 311.275 285.008 310.803C284.669 310.332 284.239 309.933 283.743 309.631C283.248 309.329 282.696 309.129 282.122 309.043C281.548 308.958 280.962 308.988 280.4 309.133C279.262 309.41 278.279 310.122 277.661 311.117C277.042 312.111 276.838 313.308 277.092 314.451C279.103 322.817 280.724 337.798 277.092 344.219C269.314 348.691 262.484 354.639 256.987 361.73C252.253 367.242 247.843 372.431 244.47 371.977C238.309 371.263 233.315 359.46 231.499 356.022V352.131C231.499 352.131 243.044 357.319 259.192 328.459C259.192 328.459 275.925 297.913 289.025 300.183C302.126 302.453 303.228 323.271 292.852 342.144C294.019 351.353 310.946 320.223 310.946 320.223C310.946 320.223 325.538 291.687 325.538 290.39C326.252 287.731 329.624 283.904 321.258 276.641C312.892 269.377 298.818 259.584 267.169 269.636C272.852 260.805 280.757 253.621 290.09 248.807C299.424 243.992 309.859 241.715 320.35 242.203C327.16 242.203 335.915 247.91 333.321 262.762C334.294 274.306 344.865 260.038 346.811 255.628C348.756 251.218 393.635 184.807 300.959 85.7742C315.81 114.959 311.53 146.932 291.23 157.568C270.931 168.204 241.747 153.028 226.376 123.714C211.006 94.3998 215.286 61.843 235.78 51.2069C239.943 49.1744 244.476 48.0113 249.104 47.7883C253.731 47.5653 258.355 48.2871 262.694 49.9098C241.193 32.1098 218.602 15.6697 195.051 0.685303C77.7298 75.6569 40.8277 139.798 32.9155 185.001C34.9052 181.593 37.7422 178.757 41.1512 176.768C44.5603 174.78 48.4255 173.706 52.3718 173.652C55.618 173.81 58.8012 174.606 61.7391 175.996C64.6769 177.386 67.3117 179.342 69.4926 181.752C71.6734 184.162 73.3574 186.978 74.4482 190.04C75.5389 193.101 76.0149 196.348 75.849 199.594C76.1667 206.145 73.8736 212.554 69.4726 217.417C65.0717 222.28 58.9219 225.2 52.3718 225.535C47.7177 225.416 43.2042 223.916 39.405 221.225C35.6057 218.534 32.6922 214.775 31.0347 210.424C31.686 226.273 35.8506 241.78 43.2273 255.822C45.1081 260.232 55.7442 274.5 56.6521 262.956C54.3822 248.105 63.1376 242.397 69.623 242.397C80.1227 241.911 90.5662 244.188 99.9099 249.002C109.254 253.816 117.17 260.999 122.868 269.831C91.2844 259.778 77.9892 270.35 68.7151 277.095C59.4409 283.839 63.7213 288.185 64.4995 290.844C64.4995 291.881 79.1566 320.288 79.1566 320.288C79.1566 320.288 96.0836 351.418 97.1861 342.208C86.8094 323.336 87.9768 302.582 101.077 300.248C114.178 297.913 130.91 328.524 130.91 328.524C147.059 357.384 158.603 352.196 158.603 352.196V356.087C156.852 359.525 152.118 371.328 145.632 372.041C142.26 372.495 137.785 367.307 133.051 361.794C127.601 354.648 120.79 348.653 113.011 344.154C109.508 337.669 111.195 322.752 113.011 314.386C113.312 313.225 113.139 311.992 112.531 310.958C111.923 309.924 110.929 309.174 109.768 308.873C108.607 308.572 107.374 308.745 106.34 309.353C105.306 309.961 104.556 310.955 104.255 312.116C103.607 314.84 98.2238 339.031 106.136 349.991L106.785 350.964L107.887 351.418C115.005 355.439 121.21 360.894 126.111 367.437C132.013 373.922 137.59 380.408 144.919 380.408H146.411C151.077 379.643 155.361 377.364 158.603 373.922C159.35 378.749 159.697 383.63 159.641 388.514C159.122 392.86 140.185 398.502 128.057 386.698C115.929 374.895 105.487 347.786 76.1733 346.424C69.6879 345.192 68.1962 358.357 68.1962 358.357C68.1962 358.357 60.8028 399.345 74.098 420.098C77.0813 419.58 77.4704 413.613 77.4704 413.613C77.4704 413.613 80.2591 385.142 111.065 397.205C123.66 404.039 134.486 413.719 142.683 425.473C150.879 437.227 156.219 450.732 158.279 464.913C158.279 464.913 146.735 449.737 139.277 448.505C131.818 449.283 137.98 458.233 137.98 458.233C137.98 458.233 141.871 465.95 133.634 485.147C125.398 504.344 67.9368 573.155 137.59 653.769C182.988 713.824 162.624 750.337 162.624 750.337C161.543 751.63 160.878 753.22 160.716 754.898C160.554 756.576 160.902 758.264 161.716 759.741C167.748 762.4 183.702 744.5 183.896 710.841C183.896 706.43 183.896 701.826 183.378 697.091C183.378 694.757 182.988 692.422 182.664 690.022C182.34 687.623 181.886 683.537 181.367 680.424C181.367 678.478 180.783 676.533 180.394 674.522C180.005 672.512 179.421 669.399 178.903 666.804V665.961C177.67 660.384 176.308 654.936 174.817 649.488C174.817 649.034 174.817 648.58 174.363 648.062C173.649 645.467 172.871 642.938 172.093 640.409C173.233 639.547 174.475 638.828 175.79 638.268C176.508 638.005 177.094 637.47 177.421 636.778C177.749 636.087 177.792 635.295 177.541 634.572C173.808 627.875 171.16 620.63 169.693 613.105C169.693 611.549 167.553 611.03 165.997 611.354C164.412 611.644 162.808 611.817 161.197 611.873L160.03 609.279C157.326 599.07 156.556 588.446 157.76 577.954C159.908 577.606 162.098 577.606 164.246 577.954C164.611 578.014 164.983 578.014 165.348 577.954C165.904 577.853 166.424 577.608 166.856 577.244C167.289 576.88 167.618 576.409 167.813 575.879C168.767 568.268 170.958 560.863 174.298 553.958C175.076 552.596 173.714 551.039 172.287 550.391C169.999 549.242 167.827 547.873 165.802 546.305C168.454 538.948 171.731 531.832 175.595 525.033C181.184 518.566 186.035 511.496 190.058 503.955C190.771 502.723 191.42 501.361 192.068 499.999L194.987 493.514C196.449 497.098 198.094 500.604 199.915 504.02C203.995 511.538 208.888 518.584 214.508 525.033C218.559 531.89 221.988 539.096 224.755 546.564C222.704 548.134 220.536 549.543 218.269 550.78C216.842 551.429 215.545 552.985 216.324 554.347C219.631 561.265 221.82 568.664 222.809 576.268C222.913 576.639 223.091 576.987 223.33 577.289C223.57 577.592 223.867 577.844 224.205 578.031C224.543 578.218 224.914 578.336 225.298 578.379C225.682 578.421 226.07 578.387 226.441 578.278C228.564 577.776 230.758 577.644 232.926 577.889C234.159 588.377 233.411 599.003 230.721 609.214C230.267 610.057 229.878 610.9 229.489 611.808C227.9 611.753 226.318 611.58 224.755 611.289C223.133 611.289 221.188 611.289 220.993 613.04C219.536 620.558 216.91 627.802 213.211 634.507C213.077 634.864 213.017 635.245 213.034 635.626C213.05 636.007 213.142 636.38 213.306 636.725C213.469 637.07 213.7 637.378 213.984 637.632C214.268 637.886 214.601 638.08 214.962 638.204C216.251 638.774 217.47 639.492 218.593 640.344C211.113 663.094 207.069 686.832 206.595 710.776C206.595 744.435 222.744 762.659 228.776 759.676C229.607 758.205 229.966 756.513 229.804 754.831C229.642 753.149 228.966 751.557 227.868 750.272C227.868 750.272 207.503 713.759 252.901 653.704C322.555 573.284 265.094 504.539 256.858 485.082C248.621 465.626 251.993 458.363 251.993 458.363ZM193.041 160.681C187.494 160.412 182.282 157.952 178.548 153.842C174.815 149.731 172.866 144.307 173.131 138.76C172.908 136.01 173.258 133.245 174.158 130.637C175.058 128.029 176.488 125.636 178.359 123.608C180.229 121.58 182.499 119.962 185.026 118.855C187.553 117.748 190.282 117.177 193.041 117.177C195.8 117.177 198.528 117.748 201.055 118.855C203.582 119.962 205.853 121.58 207.723 123.608C209.594 125.636 211.024 128.029 211.924 130.637C212.823 133.245 213.173 136.01 212.951 138.76C213.198 144.302 211.244 149.717 207.514 153.824C203.784 157.931 198.581 160.395 193.041 160.681ZM220.993 198.232C220.227 195.582 220.048 192.797 220.471 190.071C220.893 187.345 221.905 184.745 223.438 182.451C224.97 180.157 226.984 178.226 229.341 176.792C231.697 175.359 234.338 174.457 237.079 174.15C239.82 173.843 242.595 174.139 245.21 175.017C247.825 175.894 250.217 177.333 252.218 179.231C254.219 181.129 255.782 183.442 256.796 186.007C257.81 188.572 258.252 191.327 258.09 194.081C258.856 196.731 259.034 199.516 258.612 202.242C258.19 204.967 257.177 207.568 255.645 209.862C254.113 212.155 252.099 214.086 249.742 215.52C247.386 216.954 244.745 217.856 242.004 218.163C239.263 218.469 236.487 218.174 233.872 217.296C231.258 216.418 228.866 214.98 226.865 213.082C224.864 211.184 223.301 208.871 222.287 206.306C221.273 203.741 220.831 200.985 220.993 198.232Z" stroke="#031023" stroke-width="2" mask="url(#path-6-inside-1_217_7835)"/>
<path d="M41.8737 342.008L41.8498 342.079L41.8463 342.086C41.8333 342.111 41.8143 342.149 41.7896 342.199C41.7403 342.299 41.6684 342.447 41.5772 342.64C41.3948 343.026 41.1347 343.595 40.8219 344.329C40.1963 345.797 39.3594 347.927 38.5105 350.585C36.8131 355.898 35.0642 363.328 34.8642 371.787C34.4664 388.606 40.1982 409.469 64.5289 425.805C64.4215 425.899 64.2951 426.006 64.1497 426.125C63.5899 426.583 62.7504 427.21 61.6411 427.88C59.4226 429.22 56.1278 430.727 51.8344 431.384C43.28 432.693 30.6518 430.644 14.5553 416.921C2.94061 396.655 3.22686 375.745 6.43457 359.867C8.04014 351.92 10.3762 345.243 12.3105 340.553C13.2775 338.209 14.1436 336.362 14.7671 335.104C15.0788 334.474 15.3298 333.992 15.5024 333.668C15.5887 333.506 15.6554 333.383 15.7002 333.302C15.7227 333.261 15.7396 333.23 15.7509 333.21L15.7634 333.188L15.7663 333.183L15.767 333.182C15.7671 333.181 15.7671 333.181 15.4544 333.004L15.7671 333.181L14.9144 332.66L15.3321 332.935C14.9144 332.66 14.9142 332.66 14.9139 332.661L14.9128 332.662L14.9087 332.669L14.8929 332.693L14.8316 332.787C14.7778 332.871 14.6986 332.994 14.5959 333.157C14.3905 333.481 14.0911 333.961 13.714 334.583C12.9597 335.828 11.8942 337.643 10.6463 339.931C8.15084 344.505 4.92437 350.97 2.00029 358.534C-3.6937 373.264 -8.27289 392.243 -3.98307 409.557C-5.54226 408.461 -7.13326 407.381 -8.75282 406.281C-9.02864 406.094 -9.30529 405.906 -9.58275 405.717C-11.8716 404.162 -14.2188 402.554 -16.6288 400.788C-20.5852 396.424 -25.2774 392.788 -30.4915 390.047C-32.4089 388.323 -34.5733 386.476 -36.8608 384.569C-38.8226 380.402 -37.4701 375.014 -34.6126 369.307C-31.8879 363.865 -27.8771 358.291 -24.4155 353.481C-24.2381 353.235 -24.0622 352.99 -23.8879 352.748L-23.6266 352.384L-23.9591 352.084C-25.1077 351.049 -26.3473 350.119 -27.6629 349.307L-27.678 349.297L-27.6937 349.289C-28.2868 348.978 -28.7507 348.491 -28.9752 347.976C-29.1945 347.473 -29.183 346.962 -28.875 346.512L-28.8651 346.498L-28.8562 346.482C-25.2877 340.388 -22.6486 333.794 -21.0261 326.921C-20.8196 326.391 -20.4178 325.96 -19.9027 325.717C-19.3785 325.469 -18.7785 325.436 -18.2305 325.625L-18.2239 325.627C-16.0721 326.334 -13.8012 326.607 -11.5432 326.429L-11.2175 326.403L-11.1102 326.095C-6.22325 312.039 -5.99418 296.783 -10.4569 282.587L-10.463 282.568L-10.4706 282.549C-12.8217 276.754 -16.6935 273.163 -21.2549 271.399C-25.8041 269.639 -30.9964 269.713 -35.9853 271.159C-45.8735 274.025 -55.129 282.338 -57.1711 292.868C-57.4148 293.003 -57.5982 293.045 -57.7297 293.045C-57.8744 293.045 -58.0033 292.993 -58.1354 292.86C-58.4385 292.556 -58.6964 291.888 -58.8446 290.854C-59.134 288.836 -58.9481 285.878 -58.4979 283.21L-58.4967 283.202L-58.4956 283.195C-58.1765 280.875 -56.9724 277.927 -54.9896 274.68C-53.0117 271.44 -50.2784 267.933 -46.9385 264.499C-40.2562 257.63 -31.1761 251.085 -20.9209 247.557C-10.6738 244.031 0.735371 243.52 12.1219 248.688C23.5113 253.858 34.9403 264.739 45.1669 284.119C49.7357 294.938 48.9324 309.397 46.95 321.227C45.9605 327.132 44.6818 332.356 43.6505 336.104C43.1349 337.977 42.6813 339.481 42.357 340.515C42.1948 341.032 42.0649 341.432 41.9758 341.702C41.9312 341.837 41.8968 341.94 41.8737 342.008Z" stroke="#031023"/>
</svg>
