<svg width="306" height="44" viewBox="0 0 306 44" fill="none" xmlns="http://www.w3.org/2000/svg">
<path d="M16.5587 43.8348C13.3187 43.8348 10.4587 43.1948 7.97874 41.9148C5.53874 40.5948 3.63874 38.7548 2.27874 36.3948C0.91874 34.0348 0.23874 31.2948 0.23874 28.1748V16.1748C0.23874 13.1348 0.91874 10.4548 2.27874 8.1348C3.63874 5.7748 5.53874 3.9548 7.97874 2.6748C10.4587 1.3548 13.3187 0.694804 16.5587 0.694804C19.7987 0.694804 22.6587 1.3548 25.1387 2.6748C27.6187 3.9548 29.5387 5.7748 30.8987 8.1348C32.2587 10.4548 32.9387 13.1348 32.9387 16.1748V28.1748C32.9387 31.2948 32.2587 34.0348 30.8987 36.3948C29.5387 38.7548 27.6187 40.5948 25.1387 41.9148C22.6587 43.1948 19.7987 43.8348 16.5587 43.8348ZM16.5587 35.3148C18.4787 35.3148 20.0187 34.6948 21.1787 33.4548C22.3787 32.2148 22.9787 30.5548 22.9787 28.4748V16.0548C22.9787 14.0148 22.3787 12.3748 21.1787 11.1348C20.0187 9.8548 18.4787 9.2148 16.5587 9.2148C14.6787 9.2148 13.1387 9.8548 11.9387 11.1348C10.7787 12.3748 10.1987 14.0148 10.1987 16.0548V28.4748C10.1987 30.5548 10.7787 32.2148 11.9387 33.4548C13.1387 34.6948 14.6787 35.3148 16.5587 35.3148ZM56.9444 43.6548C53.7844 43.6548 50.9844 43.0548 48.5444 41.8548C46.1444 40.6148 44.2644 38.8748 42.9044 36.6348C41.5844 34.3948 40.9244 31.8148 40.9244 28.8948V1.8948C40.9244 1.6948 40.9844 1.5348 41.1044 1.4148C41.2644 1.2548 41.4444 1.1748 41.6444 1.1748H50.1644C50.3644 1.1748 50.5244 1.2548 50.6444 1.4148C50.8044 1.5348 50.8844 1.6948 50.8844 1.8948V28.8948C50.8844 30.7748 51.4244 32.2948 52.5044 33.4548C53.6244 34.5748 55.1044 35.1348 56.9444 35.1348C58.7444 35.1348 60.1844 34.5748 61.2644 33.4548C62.3844 32.2948 62.9444 30.7748 62.9444 28.8948V1.8948C62.9444 1.6948 63.0044 1.5348 63.1244 1.4148C63.2844 1.2548 63.4644 1.1748 63.6644 1.1748H72.1844C72.3844 1.1748 72.5444 1.2548 72.6644 1.4148C72.8244 1.5348 72.9044 1.6948 72.9044 1.8948V28.8948C72.9044 31.8148 72.2444 34.3948 70.9244 36.6348C69.6044 38.8748 67.7244 40.6148 65.2844 41.8548C62.8844 43.0548 60.1044 43.6548 56.9444 43.6548ZM104.047 43.1748C103.647 43.1748 103.367 42.9948 103.207 42.6348L96.1272 26.6748C96.0472 26.5148 95.9272 26.4348 95.7672 26.4348H91.8072C91.6072 26.4348 91.5072 26.5348 91.5072 26.7348V42.4548C91.5072 42.6548 91.4272 42.8348 91.2672 42.9948C91.1472 43.1148 90.9872 43.1748 90.7872 43.1748H82.2672C82.0672 43.1748 81.8872 43.1148 81.7272 42.9948C81.6072 42.8348 81.5472 42.6548 81.5472 42.4548V1.8948C81.5472 1.6948 81.6072 1.5348 81.7272 1.4148C81.8872 1.2548 82.0672 1.1748 82.2672 1.1748H100.087C102.727 1.1748 105.047 1.7148 107.047 2.7948C109.047 3.8748 110.587 5.4148 111.667 7.4148C112.787 9.3748 113.347 11.6348 113.347 14.1948C113.347 16.8748 112.687 19.1948 111.367 21.1548C110.047 23.1148 108.207 24.5348 105.847 25.4148C105.647 25.4948 105.587 25.6348 105.667 25.8348L113.587 42.3348C113.667 42.4948 113.707 42.6148 113.707 42.6948C113.707 43.0148 113.487 43.1748 113.047 43.1748H104.047ZM91.8072 9.6948C91.6072 9.6948 91.5072 9.7948 91.5072 9.9948V18.5148C91.5072 18.7148 91.6072 18.8148 91.8072 18.8148H98.4672C99.9472 18.8148 101.147 18.4148 102.067 17.6148C102.987 16.7748 103.447 15.6748 103.447 14.3148C103.447 12.9148 102.987 11.7948 102.067 10.9548C101.147 10.1148 99.9472 9.6948 98.4672 9.6948H91.8072ZM146.854 43.1748C146.414 43.1748 146.134 42.9748 146.014 42.5748L134.854 1.9548L134.794 1.7148C134.794 1.3548 135.014 1.1748 135.454 1.1748H144.574C144.974 1.1748 145.234 1.3748 145.354 1.7748L150.574 23.6148C150.614 23.7748 150.674 23.8548 150.754 23.8548C150.834 23.8548 150.894 23.7748 150.934 23.6148L155.614 1.8348C155.694 1.3948 155.954 1.1748 156.394 1.1748H164.734C165.134 1.1748 165.394 1.3748 165.514 1.7748L170.734 23.6148C170.774 23.7748 170.834 23.8548 170.914 23.8548C170.994 23.8548 171.054 23.7748 171.094 23.6148L175.954 1.8348C176.034 1.3948 176.294 1.1748 176.734 1.1748H185.614C186.174 1.1748 186.394 1.4348 186.274 1.9548L176.134 42.5748C176.014 42.9748 175.734 43.1748 175.294 43.1748H166.714C166.274 43.1748 166.014 42.9548 165.934 42.5148L160.714 19.3548C160.674 19.1948 160.614 19.1148 160.534 19.1148C160.454 19.1148 160.394 19.1948 160.354 19.3548L155.674 42.5148C155.594 42.9548 155.334 43.1748 154.894 43.1748H146.854ZM206.988 43.8348C203.748 43.8348 200.888 43.1948 198.408 41.9148C195.968 40.5948 194.068 38.7548 192.708 36.3948C191.348 34.0348 190.668 31.2948 190.668 28.1748V16.1748C190.668 13.1348 191.348 10.4548 192.708 8.1348C194.068 5.7748 195.968 3.9548 198.408 2.6748C200.888 1.3548 203.748 0.694804 206.988 0.694804C210.228 0.694804 213.088 1.3548 215.568 2.6748C218.048 3.9548 219.968 5.7748 221.328 8.1348C222.688 10.4548 223.368 13.1348 223.368 16.1748V28.1748C223.368 31.2948 222.688 34.0348 221.328 36.3948C219.968 38.7548 218.048 40.5948 215.568 41.9148C213.088 43.1948 210.228 43.8348 206.988 43.8348ZM206.988 35.3148C208.908 35.3148 210.448 34.6948 211.608 33.4548C212.808 32.2148 213.408 30.5548 213.408 28.4748V16.0548C213.408 14.0148 212.808 12.3748 211.608 11.1348C210.448 9.8548 208.908 9.2148 206.988 9.2148C205.108 9.2148 203.568 9.8548 202.368 11.1348C201.208 12.3748 200.628 14.0148 200.628 16.0548V28.4748C200.628 30.5548 201.208 32.2148 202.368 33.4548C203.568 34.6948 205.108 35.3148 206.988 35.3148ZM254.094 43.1748C253.694 43.1748 253.414 42.9948 253.254 42.6348L246.174 26.6748C246.094 26.5148 245.974 26.4348 245.814 26.4348H241.854C241.654 26.4348 241.554 26.5348 241.554 26.7348V42.4548C241.554 42.6548 241.474 42.8348 241.314 42.9948C241.194 43.1148 241.034 43.1748 240.834 43.1748H232.314C232.114 43.1748 231.934 43.1148 231.774 42.9948C231.654 42.8348 231.594 42.6548 231.594 42.4548V1.8948C231.594 1.6948 231.654 1.5348 231.774 1.4148C231.934 1.2548 232.114 1.1748 232.314 1.1748H250.134C252.774 1.1748 255.094 1.7148 257.094 2.7948C259.094 3.8748 260.634 5.4148 261.714 7.4148C262.834 9.3748 263.394 11.6348 263.394 14.1948C263.394 16.8748 262.734 19.1948 261.414 21.1548C260.094 23.1148 258.254 24.5348 255.894 25.4148C255.694 25.4948 255.634 25.6348 255.714 25.8348L263.634 42.3348C263.714 42.4948 263.754 42.6148 263.754 42.6948C263.754 43.0148 263.534 43.1748 263.094 43.1748H254.094ZM241.854 9.6948C241.654 9.6948 241.554 9.7948 241.554 9.9948V18.5148C241.554 18.7148 241.654 18.8148 241.854 18.8148H248.514C249.994 18.8148 251.194 18.4148 252.114 17.6148C253.034 16.7748 253.494 15.6748 253.494 14.3148C253.494 12.9148 253.034 11.7948 252.114 10.9548C251.194 10.1148 249.994 9.6948 248.514 9.6948H241.854ZM272.17 43.1748C271.97 43.1748 271.79 43.1148 271.63 42.9948C271.51 42.8348 271.45 42.6548 271.45 42.4548V1.8948C271.45 1.6948 271.51 1.5348 271.63 1.4148C271.79 1.2548 271.97 1.1748 272.17 1.1748H280.69C280.89 1.1748 281.05 1.2548 281.17 1.4148C281.33 1.5348 281.41 1.6948 281.41 1.8948V17.4948C281.41 17.6148 281.45 17.6948 281.53 17.7348C281.61 17.7348 281.69 17.6948 281.77 17.6148L293.89 1.5948C294.13 1.3148 294.41 1.1748 294.73 1.1748H304.45C304.85 1.1748 305.05 1.3148 305.05 1.5948C305.05 1.7148 304.99 1.8748 304.87 2.0748L291.91 19.4148C291.83 19.5748 291.81 19.7148 291.85 19.8348L305.41 42.3348C305.49 42.5748 305.53 42.7148 305.53 42.7548C305.53 43.0348 305.33 43.1748 304.93 43.1748H295.39C294.95 43.1748 294.65 43.0148 294.49 42.6948L285.07 26.6748C284.95 26.4348 284.81 26.4348 284.65 26.6748L281.53 30.9348C281.45 31.0948 281.41 31.2148 281.41 31.2948V42.4548C281.41 42.6548 281.33 42.8348 281.17 42.9948C281.05 43.1148 280.89 43.1748 280.69 43.1748H272.17Z" fill="#00B0E9"/>
</svg>
