<svg width="43" height="35" viewBox="0 0 43 35" fill="none" xmlns="http://www.w3.org/2000/svg">
<path d="M42.1701 4.15039C40.6301 4.85039 38.9701 5.31039 37.2501 5.53039C39.0101 4.47039 40.3701 2.79039 41.0101 0.770391C39.3501 1.77039 37.5101 2.47039 35.5701 2.87039C33.9901 1.15039 31.7701 0.150391 29.2501 0.150391C24.5501 0.150391 20.7101 3.99039 20.7101 8.73039C20.7101 9.41039 20.7901 10.0704 20.9301 10.6904C13.8101 10.3304 7.47008 6.91039 3.25008 1.73039C2.51008 2.99039 2.09008 4.47039 2.09008 6.03039C2.09008 9.01039 3.59008 11.6504 5.91008 13.1504C4.49008 13.1504 3.17008 12.7504 2.01008 12.1504V12.2104C2.01008 16.3704 4.97008 19.8504 8.89008 20.6304C7.63153 20.9748 6.31027 21.0227 5.03008 20.7704C5.57329 22.4753 6.63715 23.9672 8.07211 25.0363C9.50707 26.1053 11.241 26.6978 13.0301 26.7304C9.99734 29.1313 6.23807 30.429 2.37008 30.4104C1.69008 30.4104 1.01008 30.3704 0.330078 30.2904C4.13008 32.7304 8.65008 34.1504 13.4901 34.1504C29.2501 34.1504 37.9101 21.0704 37.9101 9.73039C37.9101 9.35039 37.9101 8.99039 37.8901 8.61039C39.5701 7.41039 41.0101 5.89039 42.1701 4.15039Z" fill="white"/>
</svg>
