<svg width="24" height="25" viewBox="0 0 24 25" fill="none" xmlns="http://www.w3.org/2000/svg">
<path d="M22.46 6.52148C21.69 6.87148 20.86 7.10148 20 7.21148C20.88 6.68148 21.56 5.84148 21.88 4.83148C21.05 5.33148 20.13 5.68148 19.16 5.88148C18.37 5.02148 17.26 4.52148 16 4.52148C13.65 4.52148 11.73 6.44148 11.73 8.81148C11.73 9.15148 11.77 9.48148 11.84 9.79148C8.28004 9.61149 5.11004 7.90148 3.00004 5.31148C2.63004 5.94148 2.42004 6.68148 2.42004 7.46148C2.42004 8.95148 3.17004 10.2715 4.33004 11.0215C3.62004 11.0215 2.96004 10.8215 2.38004 10.5215V10.5515C2.38004 12.6315 3.86004 14.3715 5.82004 14.7615C5.19077 14.9337 4.53013 14.9577 3.89004 14.8315C4.16165 15.684 4.69358 16.4299 5.41106 16.9644C6.12854 17.4989 6.99549 17.7952 7.89004 17.8115C6.37367 19.0119 4.49404 19.6608 2.56004 19.6515C2.22004 19.6515 1.88004 19.6315 1.54004 19.5915C3.44004 20.8115 5.70004 21.5215 8.12004 21.5215C16 21.5215 20.33 14.9815 20.33 9.31148C20.33 9.12148 20.33 8.94148 20.32 8.75148C21.16 8.15148 21.88 7.39148 22.46 6.52148Z" fill="white"/>
</svg>
