<svg width="41" height="41" viewBox="0 0 41 41" fill="none" xmlns="http://www.w3.org/2000/svg">
<path d="M34.3496 5.97051C32.516 4.11836 30.332 2.64985 27.9249 1.65061C25.5178 0.651378 22.9358 0.14143 20.3296 0.15051C9.40961 0.15051 0.50961 9.05051 0.50961 19.9705C0.50961 23.4705 1.42961 26.8705 3.14961 29.8705L0.349609 40.1505L10.8496 37.3905C13.7496 38.9705 17.0096 39.8105 20.3296 39.8105C31.2496 39.8105 40.1496 30.9105 40.1496 19.9905C40.1496 14.6905 38.0896 9.71051 34.3496 5.97051ZM20.3296 36.4505C17.3696 36.4505 14.4696 35.6505 11.9296 34.1505L11.3296 33.7905L5.08961 35.4305L6.74961 29.3505L6.34961 28.7305C4.7051 26.1044 3.83189 23.069 3.82961 19.9705C3.82961 10.8905 11.2296 3.49051 20.3096 3.49051C24.7096 3.49051 28.8496 5.21051 31.9496 8.33051C33.4846 9.85844 34.701 11.6758 35.5284 13.6774C36.3558 15.6789 36.7777 17.8247 36.7696 19.9905C36.8096 29.0705 29.4096 36.4505 20.3296 36.4505ZM29.3696 24.1305C28.8696 23.8905 26.4296 22.6905 25.9896 22.5105C25.5296 22.3505 25.2096 22.2705 24.8696 22.7505C24.5296 23.2505 23.5896 24.3705 23.3096 24.6905C23.0296 25.0305 22.7296 25.0705 22.2296 24.8105C21.7296 24.5705 20.1296 24.0305 18.2496 22.3505C16.7696 21.0305 15.7896 19.4105 15.4896 18.9105C15.2096 18.4105 15.4496 18.1505 15.7096 17.8905C15.9296 17.6705 16.2096 17.3105 16.4496 17.0305C16.6896 16.7505 16.7896 16.5305 16.9496 16.2105C17.1096 15.8705 17.0296 15.5905 16.9096 15.3505C16.7896 15.1105 15.7896 12.6705 15.3896 11.6705C14.9896 10.7105 14.5696 10.8305 14.2696 10.8105H13.3096C12.9696 10.8105 12.4496 10.9305 11.9896 11.4305C11.5496 11.9305 10.2696 13.1305 10.2696 15.5705C10.2696 18.0105 12.0496 20.3705 12.2896 20.6905C12.5296 21.0305 15.7896 26.0305 20.7496 28.1705C21.9296 28.6905 22.8496 28.9905 23.5696 29.2105C24.7496 29.5905 25.8296 29.5305 26.6896 29.4105C27.6496 29.2705 29.6296 28.2105 30.0296 27.0505C30.4496 25.8905 30.4496 24.9105 30.3096 24.6905C30.1696 24.4705 29.8696 24.3705 29.3696 24.1305Z" fill="white"/>
</svg>
