<svg width="24" height="25" viewBox="0 0 24 25" fill="none" xmlns="http://www.w3.org/2000/svg">
<path d="M19.05 5.43154C18.1332 4.50547 17.0412 3.77121 15.8377 3.27159C14.6341 2.77198 13.3432 2.517 12.04 2.52154C6.58005 2.52154 2.13005 6.97154 2.13005 12.4315C2.13005 14.1815 2.59005 15.8815 3.45005 17.3815L2.05005 22.5215L7.30005 21.1415C8.75005 21.9315 10.38 22.3515 12.04 22.3515C17.5 22.3515 21.9501 17.9015 21.9501 12.4415C21.9501 9.79154 20.92 7.30154 19.05 5.43154ZM12.04 20.6715C10.56 20.6715 9.11005 20.2715 7.84005 19.5215L7.54005 19.3415L4.42005 20.1615L5.25005 17.1215L5.05005 16.8115C4.2278 15.4985 3.79119 13.9808 3.79005 12.4315C3.79005 7.89154 7.49005 4.19154 12.03 4.19154C14.23 4.19154 16.3 5.05154 17.85 6.61154C18.6175 7.37551 19.2257 8.28421 19.6394 9.28497C20.0531 10.2857 20.2641 11.3587 20.26 12.4415C20.2801 16.9815 16.58 20.6715 12.04 20.6715ZM16.56 14.5115C16.31 14.3915 15.09 13.7915 14.87 13.7015C14.64 13.6215 14.48 13.5815 14.31 13.8215C14.14 14.0715 13.67 14.6315 13.53 14.7915C13.39 14.9615 13.24 14.9815 12.99 14.8515C12.74 14.7315 11.94 14.4615 11 13.6215C10.26 12.9615 9.77005 12.1515 9.62005 11.9015C9.48005 11.6515 9.60005 11.5215 9.73005 11.3915C9.84005 11.2815 9.98005 11.1015 10.1 10.9615C10.22 10.8215 10.27 10.7115 10.35 10.5515C10.43 10.3815 10.39 10.2415 10.33 10.1215C10.27 10.0015 9.77005 8.78154 9.57005 8.28154C9.37005 7.80154 9.16005 7.86154 9.01005 7.85154H8.53005C8.36005 7.85154 8.10005 7.91154 7.87005 8.16154C7.65005 8.41154 7.01005 9.01154 7.01005 10.2315C7.01005 11.4515 7.90005 12.6315 8.02005 12.7915C8.14005 12.9615 9.77005 15.4615 12.25 16.5315C12.84 16.7915 13.3 16.9415 13.66 17.0515C14.25 17.2415 14.79 17.2115 15.22 17.1515C15.7 17.0815 16.69 16.5515 16.89 15.9715C17.1 15.3915 17.1 14.9015 17.03 14.7915C16.96 14.6815 16.81 14.6315 16.56 14.5115Z" fill="white"/>
</svg>
